<?xml version="1.0" encoding="UTF-8"?>
<!DOCTYPE svg PUBLIC "-//W3C//DTD SVG 1.1//EN" "http://www.w3.org/Graphics/SVG/1.1/DTD/svg11.dtd">
<!-- Creator: CorelDRAW X7 -->
<svg xmlns="http://www.w3.org/2000/svg" xml:space="preserve" width="5.51307in" height="4.75389in" version="1.1" style="shape-rendering:geometricPrecision; text-rendering:geometricPrecision; image-rendering:optimizeQuality; fill-rule:evenodd; clip-rule:evenodd"
viewBox="0 0 2455 2117"
 xmlns:xlink="http://www.w3.org/1999/xlink">
 <defs>
  <style type="text/css">
   <![CDATA[
    .str0 {stroke:#999999;stroke-width:3.09251}
    .str1 {stroke:black;stroke-width:1.33588}
    .fil9 {fill:none}
    .fil24 {fill:black}
    .fil10 {fill:#09415C}
    .fil11 {fill:#0E5979}
    .fil26 {fill:#1A1A1A}
    .fil19 {fill:#2C3941}
    .fil8 {fill:#2F84C4}
    .fil23 {fill:#333333}
    .fil20 {fill:#384A54}
    .fil7 {fill:#3FA9F5}
    .fil15 {fill:#4D1D07}
    .fil3 {fill:#581504}
    .fil22 {fill:#666666}
    .fil4 {fill:#792407}
    .fil13 {fill:#822D08}
    .fil18 {fill:#C83513}
    .fil12 {fill:#E65A1C}
    .fil6 {fill:#E6E6E6}
    .fil21 {fill:#E7E7E7}
    .fil25 {fill:#F1F1F1}
    .fil14 {fill:#F2662B}
    .fil5 {fill:#F37542}
    .fil17 {fill:#FB844C}
    .fil2 {fill:#FE9554}
    .fil0 {fill:#FEAD6C}
    .fil1 {fill:#FFA161}
    .fil27 {fill:#FFCC00}
    .fil16 {fill:white}
   ]]>
  </style>
   <clipPath id="id0">
    <path d="M0 0l2455 0 0 2117 -2455 0 0 -2117z"/>
   </clipPath>
 </defs>
 <g id="Layer_x0020_1">
  <metadata id="CorelCorpID_0Corel-Layer"/>
  <g>
  </g>
  <g style="clip-path:url(#id0)">
   <g>
    <g id="_885971600">
     <g>
      <g>
       <path class="fil0" d="M1439 731c-134,1 -327,16 -434,-47 0,32 15,33 42,47 -24,5 -50,0 -78,-18 -33,146 -30,376 30,512 28,66 58,117 167,102 49,-3 195,-33 234,-65 16,-14 28,-31 39,-51l0 -480z"/>
       <path class="fil1" d="M850 1790c-32,45 -81,76 -132,97 -38,16 -93,-83 -105,-107 -41,-85 -62,-187 -65,-213 -5,-39 -5,-83 -17,-107 -7,-14 -25,-26 -37,-36 -10,-7 -8,-9 -10,-18 -3,-18 -7,-35 -10,-53 -1,-9 -5,-11 9,-20 18,-13 20,-20 31,-37 10,-14 11,-16 28,-21 9,-2 8,-1 11,-8 4,-6 7,-14 12,-20 10,-10 20,-3 19,9 -1,2 -1,5 -1,8 -4,22 -7,44 -11,66 -2,15 14,21 30,40 5,4 10,1 10,-2 -2,-8 -3,-16 -5,-24 -1,-11 -8,-37 10,-44 6,-3 8,0 9,7 2,17 6,32 14,49 4,7 3,12 0,20 -4,10 -4,17 -4,28 0,16 0,28 -19,43 -20,16 -17,26 -19,51 -1,12 1,22 5,45 23,78 46,130 99,193 6,6 85,-57 86,-62 37,22 29,79 62,116z"/>
       <path class="fil1" d="M1592 1860c16,51 50,93 89,125 29,25 103,-57 120,-78 58,-71 103,-165 113,-189 11,-27 22,-61 34,-83 5,-3 9,-5 14,-7 14,-5 34,-2 48,-1 12,1 12,-2 19,-7 15,-10 30,-20 44,-30 8,-6 11,-5 9,-20 -2,-21 1,-27 7,-46 4,-16 5,-18 -3,-32 -3,-8 -4,-6 -1,-13 3,-7 6,-15 7,-22 1,-13 -11,-15 -18,-5 -1,1 -3,3 -5,6 -14,17 -27,35 -41,53 -9,12 -23,6 -47,8 -6,0 -6,-5 -4,-7 6,-5 13,-9 19,-14 9,-7 31,-21 25,-37 -1,-6 -5,-5 -10,-1 -14,10 -27,19 -44,25 -8,3 -10,7 -14,15 -5,9 -10,14 -18,21 -12,12 -20,21 -19,43 1,19 -13,58 -19,72 -32,74 -116,173 -162,208 -6,4 -39,-48 -39,-52 -37,12 -64,40 -104,68z"/>
       <path class="fil0" d="M1450 731c-134,0 -335,18 -445,-47 0,32 15,33 42,47 -24,5 -50,0 -78,-18 -33,146 -30,376 30,512 28,66 58,117 167,102 49,-3 195,-33 234,-65 46,-39 61,-107 95,-187 63,9 142,-62 122,-139 -9,-34 -59,-59 -82,-36 -27,27 -50,84 -51,129 -8,-14 -14,-26 -20,-40 -11,-22 -7,-23 -5,-48 7,-71 9,-141 -9,-210z"/>
       <path class="fil1" d="M1335 733c-118,2 -249,-1 -330,-49 0,32 15,33 42,47 -24,5 -50,0 -78,-18 -33,146 -30,376 30,512 28,66 58,117 167,102 19,-1 52,-6 88,-14l0 0c7,-1 14,-3 20,-4 17,-4 33,-9 49,-13 121,-141 101,-394 98,-565 -28,1 -57,2 -87,2l1 0z"/>
       <path class="fil2" d="M1254 733c-93,-2 -186,-11 -249,-49 0,32 15,33 42,47 -24,5 -50,0 -78,-18 -33,146 -29,375 30,511 1,3 2,6 3,9 19,43 41,79 88,92 -71,-43 -152,-552 -38,-575 33,-7 165,-11 202,-17l0 0z"/>
       <path class="fil3" d="M1564 892c15,-55 19,-107 49,-145 -13,-17 -33,-33 -60,-50 11,-3 21,-7 32,-11 -100,-217 -275,-176 -461,-144 -53,10 -181,53 -204,-28 -22,45 -27,78 1,118 -24,2 -35,-4 -46,-22 -21,101 20,163 78,206l0 0c3,-37 9,-72 16,-103 28,18 54,23 78,18 -27,-14 -42,-15 -42,-47 110,65 311,47 445,47 18,69 16,139 9,210 -2,25 -6,26 5,48 6,14 12,26 20,40 1,-45 24,-102 51,-129 8,-7 18,-10 29,-8z"/>
       <path class="fil4" d="M1557 700c-1,-1 -3,-2 -4,-3 11,-3 21,-7 32,-11 -100,-217 -275,-176 -461,-144 -53,10 -181,53 -204,-28 -23,133 84,83 176,117 47,17 92,48 125,35 -32,-21 -40,-34 -48,-72 53,61 147,65 222,68 73,3 142,39 152,121 13,-20 25,-55 10,-83z"/>
       <path class="fil1" d="M1318 1297c-1,55 -11,117 30,157 -38,71 -197,65 -220,-12 33,-17 46,-62 47,-116 33,-3 92,-14 143,-29l0 0z"/>
       <path class="fil5" d="M1318 1297c0,8 -1,15 -1,23l0 0c-56,41 -88,63 -155,83l0 -1c8,-20 12,-47 13,-76 33,-3 92,-14 143,-29l0 0z"/>
       <path class="fil6" d="M1366 1455c-4,-2 -10,-3 -15,-3 -1,0 -1,0 -2,0 -36,74 -200,68 -221,-11 -1,0 -2,0 -2,0 -1,0 -2,0 -2,0 -5,0 -10,1 -14,3 25,94 215,101 256,11z"/>
       <path class="fil7" d="M1366 1455c49,11 99,23 148,34 20,7 22,7 34,21 71,95 137,197 205,295 -69,69 -144,104 -217,132 -22,-42 -43,-85 -64,-127 0,156 -13,314 10,470 3,16 5,12 -4,26 -5,10 -3,18 1,24 36,37 8,44 -28,52 -124,23 -355,26 -471,-40 -21,-10 -29,-16 -15,-32 15,-20 3,-20 -9,-37 -9,-13 -4,-18 4,-24 10,-7 8,-5 8,-18 -9,-147 -15,-294 -6,-441 -38,32 -77,64 -115,96 -27,-68 -74,-162 -85,-232 70,-55 134,-113 199,-176 19,-16 15,-17 40,-20l110 -15 -1 1c25,94 215,101 256,11zm-238 -14l6 15c-3,-5 -5,-10 -6,-15z"/>
       <path class="fil8" d="M1753 1805c-69,69 -144,104 -217,132 -22,-42 -43,-85 -64,-127 0,156 -13,314 10,470 3,16 5,12 -4,26 -5,10 -3,18 1,24 36,37 8,44 -28,52 -124,23 -355,26 -471,-40 -21,-10 -29,-16 -15,-32 15,-20 3,-20 -9,-37 -9,-13 -4,-18 4,-24 10,-7 8,-5 8,-18 -9,-147 -15,-294 -6,-441 -38,32 -77,64 -115,96 -25,-64 -68,-150 -82,-218 35,103 64,157 89,174 25,15 65,-49 74,-69 27,-54 47,-143 53,-238 -4,224 -9,450 -1,675 2,86 53,92 154,142 -58,-16 -89,-28 -144,-53 -32,106 473,117 475,12 -52,25 -103,39 -147,41 35,-13 89,-30 118,-51 20,-16 23,-32 21,-72 -11,-209 -19,-494 32,-692 -5,122 1,207 38,327 10,30 12,49 40,40 72,-29 120,-55 186,-99z"/>
       <path class="fil9" d="M847 1886c-5,2 -11,5 -16,8 -8,4 -9,0 -15,-14 -32,-78 -48,-126 -67,-211 -2,-12 1,-12 13,-15 11,70 58,164 85,232z"/>
       <path class="fil10" d="M1482 2385c29,147 16,431 45,614 2,13 4,9 -2,19 -5,9 -6,15 -1,23 5,12 6,8 7,22 22,179 44,358 67,537 2,18 2,25 0,43 -3,32 -7,64 -11,96 -56,-49 -110,-74 -183,-35 -4,-22 -7,-43 -11,-65 -4,-24 -3,-27 0,-51 5,-38 7,-81 7,-114 1,-361 -28,-352 -63,-585 -11,-56 -22,-112 -32,-169 -11,-59 -22,-119 -34,-178 -36,-15 -56,-24 -95,-31 -24,118 8,369 19,499 29,221 50,448 29,672 -61,-33 -87,-13 -159,-79 -13,-8 -34,-25 -34,-25 1,-14 0,-26 2,-39 1,-12 3,-9 10,-18 23,-26 22,-69 28,-120 0,0 -6,-242 -6,-255 0,-12 -40,-155 -40,-155 -4,-15 -8,-29 -12,-44 -2,-14 -3,-28 -5,-41 -13,-106 -26,-211 -39,-317 -4,-62 -9,-125 -13,-187 2,-16 4,-32 5,-48 11,-2 21,-4 31,-5 119,59 339,56 459,33 6,-1 13,-3 19,-5 4,3 8,6 12,8z"/>
       <path class="fil11" d="M1459 2406c1,20 4,42 5,61 -25,13 -52,23 -77,36 28,2 57,5 85,8 0,3 0,5 1,7 -17,5 -33,9 -50,13 14,4 28,9 41,14 5,144 10,288 15,432 -31,23 -61,42 -110,57 -29,-165 -59,-333 -88,-499 -3,-15 0,-12 -15,-17 -39,-11 -129,-50 -160,-49 6,6 11,12 16,18 17,20 12,16 10,41 -11,113 -8,197 -3,318 4,44 8,88 12,131 -2,17 -30,32 -71,35 -34,4 -35,-9 -41,-51 -25,-158 -42,-301 -56,-463 21,-14 23,-11 48,-14 -12,-5 -40,-16 -60,-14 2,-34 4,-68 6,-102 123,90 443,69 492,38z"/>
       <path class="fil12" d="M1174 889c-5,71 -24,123 -50,187 -28,65 86,53 115,2 -21,15 -43,23 -63,25 -34,3 -36,-3 -24,-30 30,-80 36,-116 22,-184z"/>
       <path class="fil13" d="M1303 770c6,1 12,5 18,10 15,12 27,30 39,46 14,18 27,38 35,59 1,6 -8,12 -13,4 -12,-21 -38,-46 -57,-60 -30,-22 -51,-22 -50,-34 0,-10 16,-27 28,-25z"/>
       <path class="fil13" d="M1097 811c6,10 -7,17 -24,26 -22,12 -38,28 -53,46 -7,7 -11,17 -17,16 -8,-1 -7,-9 -4,-16 7,-18 48,-92 78,-90 8,1 17,11 20,18z"/>
       <path class="fil14" d="M1529 976c35,-28 55,48 -7,69 59,1 74,-73 33,-91 11,-31 41,-5 41,15 7,-74 -75,-48 -67,7z"/>
       <g>
        <ellipse class="fil15" cx="1322" cy="946" rx="27" ry="32"/>
        <ellipse class="fil16" cx="1322" cy="946" rx="10" ry="12"/>
        <path class="fil17" d="M1322 902c-18,0 -33,17 -33,38 0,20 13,36 31,38 -14,-2 -25,-15 -25,-32 0,-18 12,-33 27,-33 15,0 27,15 27,33 0,17 -10,30 -24,32 17,-2 31,-18 31,-38 0,-21 -15,-38 -34,-38z"/>
       </g>
       <g>
        <ellipse class="fil15" cx="1075" cy="947" rx="26" ry="31"/>
        <ellipse class="fil16" cx="1075" cy="947" rx="10" ry="12"/>
        <path class="fil17" d="M1075 905c-18,0 -33,16 -33,36 0,20 14,36 30,37 -13,-2 -23,-15 -23,-31 0,-17 12,-31 26,-31 14,0 26,14 26,31 0,16 -10,29 -23,31 16,-1 30,-17 30,-37 0,-20 -15,-36 -33,-36z"/>
       </g>
       <path class="fil6" d="M1491 2367c1,20 -27,31 -64,39 -139,27 -335,12 -424,-28 -20,-7 -57,-21 -42,-48l0 0c4,4 10,8 19,12 116,66 347,63 471,40 17,-4 33,-8 40,-15l0 0z"/>
       <path class="fil18" d="M1081 1221c30,-88 161,-72 199,24 -68,-35 -137,-62 -199,-24z"/>
       <path class="fil6" d="M1536 1937c1,12 3,18 14,13 85,-33 144,-73 206,-139 1,-2 0,-4 -4,-5l0 0c-68,68 -144,103 -216,131z"/>
       <g>
        <path class="fil19" d="M1074 3678l-2 1 0 0 -4 0 -1 0 -2 1 -3 0 -1 0 -4 1 -1 0 -3 0 -2 1 -1 0 -4 0 -1 0 -3 1 -1 0 -2 0 -1 0 -3 1 -1 0 -3 0 -2 0 -1 0 -4 1 0 0 -5 0 -2 0 -1 0 -3 1 -1 0 -4 0 -2 0 -2 0 -3 1 -3 0 -1 0 -2 0 -3 0 -1 0 -1 0 -3 0 -1 0 -1 0 -4 0 -1 0 -5 1 -1 0 -3 0 -2 0 -4 0 -1 -1 0 0 -1 0 -3 0 -2 0 -3 0 -2 0 0 0c-1,0 -3,0 -4,0l-2 0 -3 0 -1 0 -1 -1c-1,0 -3,0 -4,0l-2 0 -3 0 -1 0c-2,-1 -3,-1 -5,-1l-1 0 -4 -1 -1 0c-2,0 -3,0 -5,-1l-1 0 -4 0 -1 -1c-2,0 -3,0 -5,0l0 -1 0 0 -4 0 -2 -1c-1,0 -3,0 -4,-1l-1 0 0 0c-1,0 -3,-1 -4,-1l-2 0c-1,-1 -3,-1 -4,-2l0 0c-2,0 -4,-1 -5,-1l-2 -1c-1,0 -2,0 -3,-1l-1 0c-2,-1 -4,-1 -5,-2l-1 0c-2,0 -3,-1 -4,-2l-1 0c-2,0 -3,-1 -5,-2l-1 0c-1,-1 -3,-1 -4,-2l-1 0c-2,-1 -3,-2 -5,-2l-1 -1c-1,0 -2,-1 -4,-1l-1 -1c-2,-1 -3,-2 -5,-2 12,-37 43,-32 91,-32 13,-2 25,-6 37,-10 25,-9 49,-23 73,-37 26,9 53,17 79,26 23,20 45,40 68,60 -40,-2 -73,8 -109,13z"/>
        <path class="fil20" d="M850 3635c16,-12 42,-9 76,-9 13,-2 25,-6 37,-10 23,-8 44,-21 66,-33 16,12 39,27 48,43 19,30 0,37 -33,40 -38,5 -176,16 -194,-31z"/>
        <path class="fil21" d="M947 3621c5,-1 11,-3 16,-5 5,-2 11,-4 17,-7 11,8 24,17 34,27 4,4 7,5 6,11 0,9 -10,11 -18,12 -19,3 -31,-19 -55,-38z"/>
        <path class="fil21" d="M1000 3599c10,-5 19,-11 29,-16 12,9 28,20 39,31 12,13 -1,19 -14,21 -20,4 -28,-17 -54,-36z"/>
        <path class="fil6" d="M1224 3680c-9,35 -24,30 -61,30 -47,0 -74,-4 -112,-2 -56,3 -121,8 -174,-12 -10,-4 -40,-16 -42,-27 -1,-4 -1,-7 0,-11 79,39 157,32 237,21 37,-5 71,-16 111,-14 15,4 27,8 41,15z"/>
        <g>
         <path class="fil19" d="M1572 3721c-11,15 -21,30 -31,45 -27,30 -43,27 -79,24 -27,-3 -45,-7 -71,-15 -35,-12 -25,-25 -3,-44 13,-14 19,-19 29,-35 76,-51 153,28 155,25z"/>
         <path class="fil20" d="M1381 3737c2,-2 5,-4 7,-6 13,-14 19,-19 29,-35 53,-36 107,-8 135,11 -18,31 -29,65 -69,64 -15,0 -29,-2 -43,-4 -27,-4 -59,-11 -59,-30z"/>
         <path class="fil6" d="M1583 3733c-16,25 -24,37 -37,57 -15,21 -31,26 -50,26 -29,1 -71,-5 -98,-15 -30,-11 -36,-13 -30,-46l0 0c0,8 6,14 23,20 26,8 44,12 71,15 36,3 52,6 79,-24l31 -45 11 12z"/>
         <path class="fil21" d="M1505 3740c-24,-6 -27,-21 -73,-18 -12,0 -17,3 -17,-7 2,-12 6,-16 12,-19 12,-4 29,-3 41,-1 13,1 24,5 36,10 8,3 26,12 24,22 -3,11 -14,16 -23,13z"/>
        </g>
       </g>
      </g>
      <path class="fil22" d="M587 1522c17,-30 14,-66 -6,-94l101 -182c33,2 66,-14 83,-45 17,-30 13,-67 -7,-95l-33 60 -49 3 -23 -43 32 -58c-33,-2 -64,15 -81,45 -17,30 -13,66 6,94l-100 182c-34,-2 -66,14 -83,44 -17,30 -14,66 5,93l32 -59 49 -2 23 42 -33 60c34,2 67,-14 84,-45z"/>
      <path class="fil23" d="M2059 1634l-45 -264c27,-19 43,-52 37,-86 -6,-35 -32,-61 -65,-70l12 67 -37 33 -45 -19 -11 -66c-26,20 -41,52 -35,86 6,34 31,60 63,69l52 302c4,21 19,38 41,38 25,0 41,-21 41,-44 -1,-13 -6,-32 -8,-46zm-33 32c10,0 18,8 18,18 0,9 -8,17 -18,17 -9,0 -17,-8 -17,-17 0,-10 8,-18 17,-18z"/>
      <path class="fil1" d="M608 1372c2,-1 4,-3 4,-4 -2,-8 -3,-16 -5,-24 -1,-11 -8,-37 10,-44 6,-3 8,0 9,7 2,17 6,32 14,49 4,7 3,12 0,20 -4,10 -4,17 -4,28 0,4 0,8 0,12 0,0 -19,-17 -22,-22 -3,-5 -6,-22 -6,-22z"/>
      <path class="fil1" d="M1961 1537c-7,0 14,-23 16,-25 6,-5 13,-9 19,-14 9,-7 31,-21 25,-37 -1,-6 -5,-5 -10,-1 -14,10 -27,19 -44,25 -8,3 -10,7 -14,15 -5,9 -10,14 -18,21 -12,12 -20,21 -19,43 0,1 0,2 0,3 8,-1 16,-5 16,-5l29 -25z"/>
     </g>
     <polygon class="fil24" points="943,301 986,277 1117,467 1094,485 "/>
     <polygon class="fil24" points="1465,279 1419,262 1328,453 1353,466 "/>
     <polygon class="fil24" points="1211,192 1164,207 1200,453 1229,453 "/>
     <g>
      <circle class="fil9 str0" transform="matrix(-2.42106 -0.249889 -0.249889 2.42106 803.348 984.296)" r="11"/>
      <circle class="fil9 str0" transform="matrix(-3.95998 -0.408728 -0.408728 3.95998 727.978 921.231)" r="11"/>
      <circle class="fil9 str0" transform="matrix(-4.95593 -0.511524 -0.511524 4.95593 639.496 823.439)" r="11"/>
      <path class="fil25 str0" d="M397 702c29,32 69,54 115,59 99,10 187,-62 197,-161 1,-5 1,-10 1,-15 68,-20 121,-80 129,-155 9,-88 -48,-169 -131,-192 -7,-104 -88,-191 -195,-202 -91,-9 -175,39 -215,115 -21,-12 -45,-21 -70,-23 -95,-10 -180,59 -189,153 -6,52 12,100 44,135 -14,26 -24,55 -27,86 -13,119 74,226 194,239 54,5 105,-10 147,-39z"/>
     </g>
     <g>
      <circle class="fil9 str0" transform="matrix(2.39071 -0.456597 0.456597 2.39071 1718.61 1008.44)" r="11"/>
      <circle class="fil9 str0" transform="matrix(3.91034 -0.746828 0.746828 3.91034 1788.3 939.149)" r="11"/>
      <circle class="fil9 str0" transform="matrix(4.8938 -0.934658 0.934658 4.8938 1868.07 834.128)" r="11"/>
      <path class="fil25 str0" d="M2099 693c-26,34 -64,59 -109,68 -98,18 -192,-46 -211,-143 -1,-5 -2,-11 -2,-16 -70,-14 -127,-68 -141,-142 -17,-88 33,-173 114,-203 -2,-104 71,-198 177,-218 89,-17 177,23 223,96 20,-14 43,-25 69,-29 93,-18 183,43 201,136 10,51 -4,101 -33,138 17,25 29,53 35,84 23,118 -55,232 -173,254 -53,10 -106,0 -150,-25z"/>
     </g>
     <g>
      <path class="fil26" d="M429 320c46,0 84,37 84,84 0,46 -38,84 -84,84 -47,0 -84,-38 -84,-84 0,-47 37,-84 84,-84zm0 15c38,0 69,31 69,69 0,38 -31,69 -69,69 -38,0 -69,-31 -69,-69 0,-38 31,-69 69,-69z"/>
      <path class="fil26" d="M429 237c92,0 167,75 167,167 0,92 -75,167 -167,167 -92,0 -167,-75 -167,-167 0,-92 75,-167 167,-167zm0 19c82,0 148,66 148,148 0,82 -66,148 -148,148 -82,0 -148,-66 -148,-148 0,-82 66,-148 148,-148z"/>
      <circle class="fil27" cx="347" cy="321" r="29"/>
      <circle class="fil23" transform="matrix(0.45423 0.45423 -0.45423 0.45423 429.563 287.653)" r="45"/>
      <circle class="fil27" transform="matrix(1.70704E-014 0.642379 -0.642379 1.70704E-014 511.651 322.157)" r="45"/>
      <circle class="fil23" transform="matrix(-0.45423 0.45423 -0.45423 -0.45423 545.299 404.601)" r="45"/>
      <circle class="fil27" cx="511" cy="487" r="29"/>
      <circle class="fil23" transform="matrix(-0.45423 -0.45423 0.45423 -0.45423 428.351 520.337)" r="45"/>
      <circle class="fil27" transform="matrix(-5.12475E-014 -0.642379 0.642379 -5.12475E-014 346.263 485.833)" r="45"/>
      <circle class="fil23" transform="matrix(0.45423 -0.45423 0.45423 0.45423 312.615 403.39)" r="45"/>
     </g>
     <g>
      <path class="fil26 str1" d="M2041 237c92,0 167,75 167,167 0,92 -75,167 -167,167 -92,0 -167,-75 -167,-167 0,-92 75,-167 167,-167zm0 20c81,0 147,66 147,147 0,81 -66,147 -147,147 -81,0 -147,-66 -147,-147 0,-81 66,-147 147,-147z"/>
      <g>
       <rect class="fil27" x="1973" y="395" width="136.631" height="15.9597"/>
       <rect class="fil27" transform="matrix(1.77805E-014 0.671353 -0.671353 1.77805E-014 2048.81 334.511)" width="203.515" height="23.7724"/>
       <rect class="fil27" transform="matrix(1.77805E-014 0.671353 -0.671353 1.77805E-014 1988.47 334.511)" width="203.515" height="23.7724"/>
       <rect class="fil27" transform="matrix(1.77805E-014 0.374884 -0.671353 9.92862E-015 2109.14 334.511)" width="203.515" height="23.7724"/>
       <circle class="fil23" cx="1980" cy="343" r="23"/>
       <circle class="fil26" cx="2041" cy="343" r="23"/>
       <circle class="fil23" cx="2101" cy="343" r="23"/>
       <circle class="fil24" cx="1980" cy="465" r="23"/>
       <circle class="fil23" cx="2041" cy="465" r="23"/>
      </g>
     </g>
    </g>
   </g>
  </g>
  <polygon class="fil9" points="0,0 2455,0 2455,2117 0,2117 "/>
 </g>
</svg>
