<?xml version="1.0" encoding="UTF-8"?>
<!DOCTYPE svg PUBLIC "-//W3C//DTD SVG 1.1//EN" "http://www.w3.org/Graphics/SVG/1.1/DTD/svg11.dtd">
<!-- Creator: CorelDRAW X7 -->
<svg xmlns="http://www.w3.org/2000/svg" xml:space="preserve" width="5.51307in" height="4.75389in" version="1.1" style="shape-rendering:geometricPrecision; text-rendering:geometricPrecision; image-rendering:optimizeQuality; fill-rule:evenodd; clip-rule:evenodd"
viewBox="0 0 2455 2117"
 xmlns:xlink="http://www.w3.org/1999/xlink">
 <defs>
  <style type="text/css">
   <![CDATA[
    .str0 {stroke:black;stroke-width:3.09251}
    .str3 {stroke:#333333;stroke-width:3.09251}
    .str2 {stroke:#B3B3B3;stroke-width:3.09251}
    .str1 {stroke:black;stroke-width:1.33588}
    .str4 {stroke:#333333;stroke-width:1.33588}
    .fil1 {fill:none}
    .fil2 {fill:black}
    .fil6 {fill:#009933}
    .fil35 {fill:#09415C}
    .fil36 {fill:#0E5979}
    .fil4 {fill:#1A1A1A}
    .fil34 {fill:#2F84C4}
    .fil21 {fill:#333333}
    .fil27 {fill:#3FA9F5}
    .fil40 {fill:#4D1D07}
    .fil31 {fill:#581504}
    .fil32 {fill:#792407}
    .fil18 {fill:gray}
    .fil38 {fill:#822D08}
    .fil17 {fill:#841500}
    .fil10 {fill:#962F2C}
    .fil19 {fill:#999999}
    .fil24 {fill:#B3B3B3}
    .fil15 {fill:#BE1E1C}
    .fil16 {fill:#C82D2D}
    .fil42 {fill:#C83513}
    .fil43 {fill:#CCCCCC}
    .fil9 {fill:#CF2C29}
    .fil11 {fill:#DC3632}
    .fil33 {fill:#E2552A}
    .fil37 {fill:#E65A1C}
    .fil14 {fill:#E6E6E6}
    .fil28 {fill:#E7E7E7}
    .fil7 {fill:#EB433D}
    .fil5 {fill:#EB433D}
    .fil8 {fill:#ED5650}
    .fil39 {fill:#F2662B}
    .fil13 {fill:#F55451}
    .fil26 {fill:#F7844D}
    .fil41 {fill:#FB844C}
    .fil30 {fill:#FE9554}
    .fil29 {fill:#FEAD6C}
    .fil25 {fill:#FFA161}
    .fil23 {fill:#FFBE0E}
    .fil20 {fill:#FFCC00}
    .fil22 {fill:#FFFF6E}
    .fil0 {fill:white}
    .fil3 {fill:black;fill-rule:nonzero}
    .fil12 {fill:#FF6666;fill-opacity:0.478431}
    .fil44 {fill:#CC3300;fill-opacity:0.501961}
   ]]>
  </style>
   <clipPath id="id0">
    <path d="M0 0l2455 0 0 2117 -2455 0 0 -2117z"/>
   </clipPath>
 </defs>
 <g id="Layer_x0020_1">
  <metadata id="CorelCorpID_0Corel-Layer"/>
  <g>
  </g>
  <g style="clip-path:url(#id0)">
   <g>
    <rect class="fil0" x="-1871" y="2177" width="1896" height="1805"/>
    <rect class="fil0" x="-1741" y="2173" width="1782" height="1697"/>
    <rect class="fil0" x="-1729" y="2176" width="1915" height="1823"/>
    <path class="fil1" d="M2743 3665c-19,-4 -473,111 -473,111l-134 168"/>
    <rect class="fil0" x="-7945" y="2449" width="1782" height="1697"/>
    <rect class="fil0" x="-3780" y="4891" width="1782" height="1697"/>
    <path class="fil1" d="M1097 6363c-17,-5 -440,103 -440,103l-125 156"/>
    <g id="_845763704">
     <g>
      <path class="fil2" d="M1714 1801c68,0 123,9 123,21 0,12 -55,22 -123,22 -68,0 -123,-10 -123,-22 0,-12 55,-21 123,-21z"/>
      <path id="1" class="fil3" d="M1837 1822l-1 0 0 0 0 -1 0 -1 -1 -1 -1 -1 -1 -1 -2 -1 -2 -1 -2 -1 -3 -1 -2 -1 -3 -1 -3 0 -4 -1 -3 -1 -4 -1 -4 -1 -5 0 -4 -1 -5 -1 -4 0 -5 -1 -6 0 -5 -1 -5 0 -6 -1 -6 0 -5 0 -6 -1 -6 0 -7 0 -6 0 -6 0 0 -1 6 0 6 0 7 0 6 0 6 1 5 0 6 0 6 1 5 0 6 1 5 0 5 1 4 0 5 1 5 1 4 0 4 1 4 1 3 1 4 1 3 0 3 1 3 1 2 1 3 1 2 1 1 1 2 1 1 1 1 2 0 1 0 1 0 0zm-123 22l0 -1 0 0 6 0 6 0 7 0 6 0 6 0 5 -1 6 0 6 0 5 -1 5 0 6 -1 5 0 4 -1 5 -1 4 0 5 -1 4 -1 4 -1 3 0 4 -1 3 -1 3 -1 2 -1 3 -1 2 -1 2 -1 2 -1 1 -1 1 -1 1 -1 0 -1 0 -1 1 0 0 1 0 2 -1 1 -1 1 -2 1 -1 1 -2 1 -3 1 -2 1 -3 1 -3 1 -3 1 -4 1 -3 0 -4 1 -4 1 -4 1 -5 0 -5 1 -4 1 -5 0 -5 1 -6 0 -5 1 -6 0 -6 0 -5 1 -6 0 -6 0 -7 0 -6 0 -6 0 0 0zm-123 -22l1 0 0 0 0 1 0 1 1 1 1 1 1 1 2 1 2 1 2 1 2 1 3 1 3 1 3 1 4 1 3 0 4 1 4 1 4 1 5 0 5 1 4 1 5 0 5 1 6 0 5 1 6 0 5 0 6 1 6 0 6 0 6 0 7 0 6 0 0 1 -6 0 -7 0 -6 0 -6 0 -6 0 -6 -1 -5 0 -6 0 -5 -1 -6 0 -5 -1 -5 0 -5 -1 -4 -1 -5 0 -4 -1 -4 -1 -4 -1 -4 0 -3 -1 -3 -1 -3 -1 -3 -1 -2 -1 -3 -1 -2 -1 -1 -1 -2 -1 -1 -1 -1 -1 0 -2 0 -1 0 0zm123 -22l0 1 0 0 -6 0 -7 0 -6 0 -6 0 -6 1 -6 0 -5 0 -6 1 -5 0 -6 1 -5 0 -5 1 -4 0 -5 1 -5 1 -4 0 -4 1 -4 1 -3 1 -4 1 -3 0 -3 1 -3 1 -2 1 -2 1 -2 1 -2 1 -1 1 -1 1 -1 1 0 1 0 1 -1 0 0 -1 0 -1 1 -2 1 -1 2 -1 1 -1 2 -1 3 -1 2 -1 3 -1 3 -1 3 0 3 -1 4 -1 4 -1 4 -1 4 0 5 -1 4 -1 5 0 5 -1 5 0 6 -1 5 0 6 -1 5 0 6 0 6 -1 6 0 6 0 7 0 6 0 0 0z"/>
     </g>
     <path class="fil4" d="M1656 1633l115 0c-10,60 -21,119 -32,179 -1,10 -10,19 -18,19 -4,0 -9,0 -13,0 -11,0 -17,-7 -19,-15l-33 -183z"/>
     <g>
      <path class="fil4" d="M1837 1860c0,12 -55,21 -123,21 -68,0 -123,-9 -123,-21l0 -38c0,12 55,22 123,22 68,0 123,-10 123,-22l0 0 0 38 0 0z"/>
      <path id="1" class="fil3" d="M1714 1882l0 -1 0 0 6 0 6 0 7 0 6 -1 6 0 5 0 6 -1 6 0 5 0 5 -1 6 0 5 -1 4 -1 5 0 4 -1 5 -1 4 0 4 -1 3 -1 4 -1 3 -1 3 -1 2 0 3 -1 2 -1 2 -1 2 -1 1 -1 1 -1 1 -1 0 -1 0 -1 1 0 0 1 0 1 -1 1 -1 1 -2 1 -1 2 -2 1 -3 1 -2 1 -3 0 -3 1 -3 1 -4 1 -3 1 -4 1 -4 0 -4 1 -5 1 -5 0 -4 1 -5 1 -5 0 -6 1 -5 0 -6 0 -6 1 -5 0 -6 0 -6 1 -7 0 -6 0 -6 0 0 0zm-123 -22l1 0 0 0 0 1 0 1 1 1 1 1 1 1 2 1 2 1 2 1 2 1 3 0 3 1 3 1 4 1 3 1 4 1 4 0 4 1 5 1 5 0 4 1 5 1 5 0 6 1 5 0 6 0 5 1 6 0 6 0 6 1 6 0 7 0 6 0 0 1 -6 0 -7 0 -6 0 -6 -1 -6 0 -6 0 -5 -1 -6 0 -5 0 -6 -1 -5 0 -5 -1 -5 -1 -4 0 -5 -1 -4 -1 -4 0 -4 -1 -4 -1 -3 -1 -3 -1 -3 -1 -3 0 -2 -1 -3 -1 -2 -1 -1 -2 -2 -1 -1 -1 -1 -1 0 -1 0 -1 0 0zm1 -38l0 38 -1 0 0 -38 1 0zm122 21l0 1 0 0 -6 0 -7 0 -6 0 -6 0 -6 0 -6 -1 -5 0 -6 0 -5 -1 -6 0 -5 -1 -5 0 -5 -1 -4 -1 -5 0 -4 -1 -4 -1 -4 -1 -4 0 -3 -1 -3 -1 -3 -1 -3 -1 -2 -1 -3 -1 -2 -1 -1 -1 -2 -1 -1 -1 -1 -1 0 -2 0 -1 1 0 0 1 0 1 1 1 1 1 1 1 2 1 2 1 2 1 2 1 3 1 3 1 3 1 4 1 3 0 4 1 4 1 4 1 5 0 5 1 4 1 5 0 5 1 6 0 5 1 6 0 5 0 6 1 6 0 6 0 6 0 7 0 6 0 0 0zm123 -21l0 1 0 -1 0 1 0 2 -1 1 -1 1 -2 1 -1 1 -2 1 -3 1 -2 1 -3 1 -3 1 -3 1 -4 1 -3 0 -4 1 -4 1 -4 1 -5 0 -5 1 -4 1 -5 0 -5 1 -6 0 -5 1 -6 0 -6 0 -5 1 -6 0 -6 0 -7 0 -6 0 -6 0 0 -1 6 0 6 0 7 0 6 0 6 0 5 -1 6 0 6 0 5 -1 5 0 6 -1 5 0 4 -1 5 -1 4 0 5 -1 4 -1 4 -1 3 0 4 -1 3 -1 3 -1 2 -1 3 -1 2 -1 2 -1 2 -1 1 -1 1 -1 1 -1 0 -1 0 -1 1 0zm-1 0l0 0 1 0 -1 0zm1 1l0 0 0 -1 0 0 1 0 -1 1zm0 -1l1 0 0 0 -1 0zm-1 38l0 -38 2 0 0 38 -1 0 -1 0zm2 0l0 0 -1 0 1 0zm-1 -1l0 0 0 1 0 0 -1 0 1 -1zm-1 1l0 -1 1 0 -1 1z"/>
     </g>
    </g>
    <g>
     <g>
      <path class="fil5" d="M1464 217l465 0c14,0 20,11 25,24l34 93c4,13 -12,25 -25,25l-499 -19c-13,-1 -24,-12 -24,-25l0 -74c0,-13 11,-24 24,-24z"/>
      <rect class="fil5" x="1553" y="193" width="32.27" height="95.9288" rx="16" ry="16"/>
      <rect class="fil5" x="1774" y="193" width="32.27" height="95.9288" rx="16" ry="16"/>
     </g>
     <g>
      <g>
       <path class="fil6" d="M2164 739c-5,218 -24,469 -45,628l-404 0 -405 0c-20,-160 -39,-410 -45,-628 78,-33 251,-56 449,-56 201,0 374,23 450,56z"/>
       <path id="1" class="fil3" d="M2119 1368l0 -3 -2 1 2 -15 2 -15 2 -17 2 -16 2 -17 2 -18 2 -18 1 -18 2 -19 2 -19 2 -19 1 -19 2 -20 2 -20 1 -21 2 -20 1 -21 2 -21 1 -20 1 -21 2 -22 1 -21 1 -21 1 -21 1 -21 1 -22 1 -21 1 -21 1 -21 0 -20 1 -21 1 -21 3 0 0 21 -1 21 -1 20 0 21 -1 21 -1 22 -1 21 -1 21 -1 21 -1 21 -2 22 -1 21 -1 21 -2 21 -1 20 -2 21 -1 21 -2 20 -1 20 -2 20 -2 19 -1 20 -2 19 -2 18 -2 19 -1 17 -2 18 -2 17 -2 17 -2 16 -2 16 -2 15 -2 1zm2 -1l0 1 -2 0 2 -1zm-406 -2l404 0 0 3 -404 0 0 0 0 -3zm-405 0l405 0 0 3 -405 0 -2 -1 2 -2zm0 3l-1 0 -1 -1 2 1zm-46 -631l2 3 1 -1 1 20 0 21 1 21 1 21 1 21 0 21 1 21 2 21 1 22 1 21 1 21 1 21 2 21 1 21 1 21 2 21 1 20 2 20 2 20 1 20 2 20 2 19 1 19 2 19 2 18 2 18 2 18 2 17 1 16 2 17 2 15 2 15 -4 1 -2 -15 -1 -16 -2 -16 -2 -17 -2 -17 -2 -18 -2 -18 -2 -18 -1 -19 -2 -19 -2 -19 -1 -19 -2 -20 -2 -20 -1 -21 -2 -20 -1 -21 -2 -21 -1 -21 -1 -21 -2 -21 -1 -21 -1 -21 -1 -21 -1 -22 -1 -21 -1 -21 -1 -21 -1 -21 -1 -21 0 -21 -1 -20 1 -2zm-1 2l0 -1 1 -1 -1 2zm451 -58l0 4 0 0 -18 0 -19 0 -18 0 -18 1 -18 0 -17 1 -18 1 -17 1 -17 1 -16 1 -16 1 -16 2 -16 1 -15 2 -16 1 -14 2 -15 2 -14 2 -13 2 -13 2 -13 3 -13 2 -12 2 -11 3 -11 2 -11 3 -10 3 -10 3 -9 2 -8 3 -9 3 -7 3 -2 -3 8 -3 8 -3 9 -3 9 -3 10 -2 10 -3 11 -3 11 -2 11 -3 13 -2 12 -3 13 -2 13 -2 14 -2 14 -2 14 -2 15 -2 15 -2 15 -1 16 -2 16 -1 17 -1 16 -2 17 -1 17 -1 18 -1 17 0 18 -1 18 0 18 -1 19 0 18 0 0 0zm452 58l-3 0 1 2 -8 -3 -8 -3 -8 -3 -9 -3 -10 -3 -10 -3 -11 -2 -11 -3 -11 -2 -12 -3 -12 -2 -13 -2 -13 -3 -14 -2 -14 -2 -15 -2 -14 -1 -15 -2 -16 -2 -16 -1 -16 -2 -16 -1 -17 -1 -17 -1 -17 -1 -17 -1 -18 -1 -18 0 -18 -1 -19 0 -18 0 -19 0 0 -4 19 0 18 0 19 1 18 0 18 1 18 0 17 1 18 1 17 1 16 2 17 1 16 1 16 2 15 1 15 2 15 2 14 2 15 2 13 2 13 2 13 2 13 3 12 2 11 3 11 2 11 3 10 3 10 3 9 3 9 3 8 3 7 3 1 1zm-1 -1l1 0 0 1 -1 -1z"/>
      </g>
      <g>
       <path class="fil7" d="M1267 1687c-3,-2 36,-91 43,-102l0 0c0,39 181,71 405,71 222,0 402,-31 404,-70 8,13 46,98 43,101 -106,98 -742,123 -895,0z"/>
       <path id="1" class="fil3" d="M1312 1585l-4 0 4 1 -1 1 -1 2 -1 2 -1 2 -1 3 -2 3 -1 3 -2 4 -2 3 -2 4 -2 5 -2 4 -2 4 -1 5 -2 4 -2 5 -2 4 -2 5 -2 4 -2 4 -1 4 -2 4 -1 4 -2 3 -1 3 -1 3 -1 3 0 2 -1 2 0 1 0 1 -1 -1 -2 3 -1 -2 0 -1 0 -2 1 -2 1 -2 0 -3 1 -3 2 -3 1 -3 1 -4 2 -4 2 -4 1 -4 2 -5 2 -4 2 -5 2 -4 2 -5 2 -4 2 -4 2 -5 2 -4 2 -4 1 -4 2 -3 2 -4 1 -3 1 -2 2 -3 1 -2 1 -2 0 -1 4 1zm-4 0l0 0 4 0 0 0 0 0 -4 0zm407 69l0 4 0 0 -21 0 -21 -1 -20 0 -20 -1 -19 0 -20 -1 -18 -2 -19 -1 -18 -1 -17 -2 -17 -2 -17 -1 -16 -2 -15 -2 -15 -3 -14 -2 -13 -3 -13 -2 -12 -3 -11 -3 -11 -3 -10 -3 -9 -3 -8 -3 -7 -3 -7 -3 -5 -4 -5 -4 -4 -3 -2 -4 -2 -4 -1 -4 4 0 0 3 2 3 2 4 4 3 4 3 5 4 7 3 7 3 8 3 9 3 9 3 11 3 11 3 12 3 13 2 13 3 14 2 15 2 15 2 16 2 16 2 17 2 18 1 17 2 19 1 19 1 19 1 19 1 20 1 20 0 21 0 21 0 0 0zm406 -69l-3 1 3 0 0 4 -2 4 -3 3 -4 4 -5 4 -6 3 -6 3 -8 4 -8 3 -9 3 -10 3 -10 3 -12 2 -12 3 -13 3 -13 2 -14 2 -15 3 -15 2 -16 2 -16 2 -17 1 -18 2 -17 1 -19 2 -18 1 -20 1 -19 0 -20 1 -20 0 -20 1 -21 0 0 -4 20 0 21 0 20 0 20 -1 19 -1 19 -1 19 -1 18 -1 18 -2 17 -1 17 -2 17 -2 15 -2 16 -2 14 -2 14 -2 14 -3 12 -2 12 -3 12 -3 10 -2 10 -3 9 -3 8 -3 7 -4 6 -3 6 -3 4 -3 4 -4 2 -3 2 -3 1 -3 3 -1zm42 103l-2 -2 0 0 -1 1 0 -1 0 -1 0 -2 -1 -2 -1 -2 -1 -3 -1 -3 -1 -4 -2 -3 -1 -4 -2 -4 -2 -4 -1 -4 -2 -5 -2 -4 -2 -4 -2 -5 -2 -4 -2 -4 -1 -5 -2 -4 -2 -4 -2 -4 -2 -3 -1 -4 -2 -3 -1 -3 -1 -2 -1 -2 -1 -2 -1 -2 3 -1 1 1 1 2 1 2 1 3 2 3 1 3 2 3 2 4 1 4 2 4 2 4 2 4 2 5 2 4 2 4 2 5 1 4 2 4 2 5 2 4 1 4 2 4 1 3 2 4 1 3 1 2 1 3 0 2 1 2 0 2 0 1 -1 1 0 0zm-897 1l2 -3 0 0 16 11 18 10 21 9 23 9 25 8 27 7 29 6 30 5 32 5 32 4 34 3 35 2 35 2 36 1 35 1 36 -1 36 -1 35 -1 35 -2 35 -3 33 -4 32 -3 31 -5 30 -5 28 -6 26 -6 24 -6 22 -7 19 -8 17 -8 14 -8 12 -9 2 2 -11 10 -15 8 -17 8 -20 8 -22 7 -24 7 -27 6 -28 5 -29 5 -31 5 -33 4 -33 3 -34 3 -35 2 -36 2 -36 1 -36 0 -36 0 -35 -1 -35 -2 -35 -3 -34 -3 -33 -4 -32 -4 -30 -6 -29 -6 -27 -7 -25 -8 -24 -8 -21 -10 -18 -10 -16 -11 0 0z"/>
      </g>
      <path class="fil8" d="M1790 1655c25,-1 49,-2 73,-4l56 107c-43,5 -89,8 -137,10l8 -113 0 0z"/>
      <g>
       <path class="fil9" d="M1715 1514c223,0 405,32 405,71 0,39 -182,71 -405,71 -224,0 -405,-32 -405,-71 0,-39 181,-71 405,-71z"/>
       <path id="1" class="fil3" d="M2121 1585l-3 0 0 0 -1 -3 -1 -4 -3 -3 -3 -3 -4 -4 -6 -3 -6 -3 -7 -3 -8 -3 -9 -3 -10 -3 -10 -3 -11 -3 -12 -3 -13 -2 -13 -3 -14 -2 -15 -2 -15 -2 -16 -2 -17 -2 -16 -2 -18 -2 -18 -1 -18 -1 -19 -1 -19 -1 -20 -1 -20 -1 -20 0 -20 0 -21 -1 0 -3 21 0 20 0 20 1 20 0 20 1 19 1 19 1 18 2 18 1 18 2 17 1 16 2 16 2 16 2 14 3 14 2 14 2 13 3 12 3 11 2 10 3 10 3 9 3 8 4 8 3 6 3 6 4 5 3 3 4 3 4 2 4 0 4 0 0zm-406 73l0 -4 0 0 21 0 20 0 20 0 20 -1 20 -1 19 -1 19 -1 18 -1 18 -2 18 -1 16 -2 17 -2 16 -2 15 -2 15 -2 14 -2 13 -3 13 -2 12 -3 11 -3 10 -3 10 -3 9 -3 8 -3 7 -3 6 -3 6 -4 4 -3 3 -3 3 -4 1 -3 1 -3 3 0 0 4 -2 4 -3 4 -3 3 -5 4 -6 4 -6 3 -8 3 -8 3 -9 3 -10 3 -10 3 -11 3 -12 3 -13 2 -14 3 -14 2 -14 3 -16 2 -16 2 -16 1 -17 2 -18 2 -18 1 -18 1 -19 2 -19 1 -20 0 -20 1 -20 0 -20 1 -21 0 0 0zm-407 -73l4 0 0 0 0 3 2 3 2 4 4 3 4 3 5 4 7 3 7 3 8 3 9 3 9 3 11 3 11 3 12 3 13 2 13 3 14 2 15 2 15 2 16 2 16 2 17 2 18 1 17 2 19 1 19 1 19 1 19 1 20 1 20 0 21 0 21 0 0 4 -21 0 -21 -1 -20 0 -20 -1 -19 0 -20 -1 -18 -2 -19 -1 -18 -1 -17 -2 -17 -2 -17 -1 -16 -2 -15 -2 -15 -3 -14 -2 -13 -3 -13 -2 -12 -3 -11 -3 -11 -3 -10 -3 -9 -3 -8 -3 -7 -3 -7 -3 -5 -4 -5 -4 -4 -3 -2 -4 -2 -4 -1 -4 0 0zm407 -73l0 3 0 0 -21 1 -21 0 -20 0 -20 1 -19 1 -19 1 -19 1 -19 1 -17 1 -18 2 -17 2 -16 2 -16 2 -15 2 -15 2 -14 2 -13 3 -13 2 -12 3 -11 3 -11 3 -9 3 -9 3 -8 3 -7 3 -7 3 -5 3 -4 4 -4 3 -2 3 -2 4 0 3 -4 0 1 -4 2 -4 2 -4 4 -4 5 -3 5 -4 7 -3 7 -3 8 -4 9 -3 10 -3 11 -3 11 -2 12 -3 13 -3 13 -2 14 -2 15 -3 15 -2 16 -2 17 -2 17 -1 17 -2 18 -1 19 -2 18 -1 20 -1 19 -1 20 0 20 -1 21 0 21 0 0 0z"/>
      </g>
      <g>
       <path class="fil10" d="M1715 373c269,0 487,59 487,132 0,73 -218,132 -487,132 -268,0 -486,-59 -486,-132 0,-73 218,-132 486,-132z"/>
       <path id="1" class="fil3" d="M2204 505l-4 0 0 0 -1 -6 -2 -7 -3 -6 -4 -6 -5 -7 -7 -6 -7 -6 -9 -6 -9 -5 -11 -6 -12 -6 -12 -5 -14 -5 -14 -5 -15 -5 -16 -4 -17 -5 -18 -4 -18 -4 -19 -3 -20 -4 -20 -3 -21 -3 -22 -2 -22 -3 -22 -2 -23 -2 -24 -1 -24 -1 -24 -1 -25 -1 -25 0 0 -3 26 0 24 0 25 1 24 1 23 2 23 2 23 2 22 2 22 3 20 3 21 3 20 3 19 4 18 4 18 4 17 4 16 5 15 5 15 5 13 5 13 5 12 6 11 6 10 6 8 6 8 6 7 6 5 7 5 6 3 7 2 7 1 7 0 0zm-489 134l0 -4 0 0 25 0 25 -1 24 0 24 -2 24 -1 23 -2 22 -2 22 -2 22 -3 21 -3 20 -3 20 -3 19 -4 18 -4 18 -4 17 -4 16 -5 15 -5 14 -5 14 -5 12 -5 12 -6 11 -5 9 -6 9 -6 7 -6 7 -6 5 -6 4 -7 3 -6 2 -6 1 -7 4 0 -1 7 -2 7 -3 7 -5 7 -5 6 -7 7 -8 6 -8 6 -10 6 -11 5 -12 6 -13 5 -13 6 -15 5 -15 4 -16 5 -17 4 -18 4 -18 4 -19 4 -20 4 -21 3 -20 3 -22 2 -22 3 -23 2 -23 1 -23 2 -24 1 -25 1 -24 0 -26 1 0 0zm-488 -134l4 0 0 0 1 7 2 6 3 6 4 7 5 6 6 6 8 6 9 6 9 6 11 5 11 6 13 5 14 5 14 5 15 5 16 5 17 4 18 4 18 4 19 4 20 3 20 3 21 3 21 3 22 2 23 2 23 2 24 1 24 2 24 0 24 1 25 0 0 4 -25 -1 -24 0 -25 -1 -24 -1 -23 -2 -23 -1 -23 -2 -22 -3 -22 -2 -21 -3 -20 -3 -20 -4 -19 -4 -18 -4 -18 -4 -17 -4 -16 -5 -15 -4 -15 -5 -13 -6 -13 -5 -12 -6 -11 -5 -10 -6 -8 -6 -8 -6 -7 -7 -5 -6 -5 -7 -3 -7 -2 -7 -1 -7 0 0zm488 -133l0 3 0 0 -25 0 -24 1 -24 1 -24 1 -24 1 -23 2 -23 2 -22 3 -21 2 -21 3 -20 3 -20 4 -19 3 -18 4 -18 4 -17 5 -16 4 -15 5 -14 5 -14 5 -13 5 -11 6 -11 6 -9 5 -9 6 -8 6 -6 6 -5 7 -4 6 -3 6 -2 7 -1 6 -4 0 1 -7 2 -7 3 -7 5 -6 5 -7 7 -6 8 -6 8 -6 10 -6 11 -6 12 -6 13 -5 13 -5 15 -5 15 -5 16 -5 17 -4 18 -4 18 -4 19 -4 20 -3 20 -3 21 -3 22 -3 22 -2 23 -2 23 -2 23 -2 24 -1 25 -1 24 0 25 0 0 0z"/>
      </g>
      <g>
       <path class="fil11" d="M1715 282c269,0 487,59 487,132l0 1 0 90c-1,-16 -11,-32 -31,-46 -1,0 -2,-1 -3,-2l0 0c-1,-1 -2,-1 -3,-2l0 0 0 0 -1 0c-1,-1 -1,-2 -2,-2l-1 -1c-1,0 -2,-1 -3,-2l-1 0 -3 -2 -1 0c-1,-1 -2,-1 -3,-2l-1 -1c-1,0 -2,-1 -3,-1l-1 0 0 0 -1 -1 -2 -1 -2 -1 -3 -2 -1 0 -4 -2 -1 0 0 0 -3 -1 0 -1 -2 0 -3 -2 -2 -1 -3 -1 -2 0 -4 -2 -1 0 -4 -2 -1 0 -4 -2 -2 -1 -3 -1 -3 -1 -3 -1 -3 0 0 0 -4 -2 -2 0 -3 -1 -2 -1 -4 -1 0 0 -3 -1 -4 -1 -1 0 0 0c-88,-25 -212,-41 -350,-41 -137,0 -261,16 -349,41l0 0 -2 0 -3 1 -3 1 0 0 -4 1 -2 1 -3 1 -3 0 0 0 -3 2 -1 0 -2 0 -3 2 -1 0 0 0c-2,1 -3,1 -5,2l-2 0 -4 2 0 0 -1 0 -4 2 -1 0 -4 2 -2 0 -3 2 -1 0 0 0 -4 2 -2 0c-1,1 -2,1 -3,2l-1 0 0 0c-1,1 -3,1 -4,2l0 0c-2,1 -3,2 -5,2l0 1c-2,0 -3,1 -4,2l0 0c-2,0 -3,1 -4,2l-1 0c-6,3 -13,7 -18,11l0 0c-1,1 -3,2 -4,2l0 0c-19,15 -30,30 -30,46l0 -91c0,-73 218,-132 486,-132zm487 224l0 4 -1 0c0,-1 1,-3 1,-4zm-972 4l-1 0 0 -5c0,2 0,3 1,5z"/>
       <path id="1" class="fil3" d="M2204 414l-4 0 0 0 -1 -7 -2 -6 -3 -7 -4 -6 -5 -6 -7 -6 -7 -6 -9 -6 -9 -6 -11 -6 -12 -5 -12 -5 -14 -5 -14 -5 -15 -5 -16 -5 -17 -4 -18 -4 -18 -4 -19 -4 -20 -3 -20 -3 -21 -3 -22 -3 -22 -2 -22 -2 -23 -2 -24 -2 -24 -1 -24 -1 -25 0 -25 0 0 -4 26 0 24 1 25 1 24 1 23 1 23 2 23 2 22 3 22 2 21 3 20 3 20 4 19 4 18 3 18 5 17 4 16 5 15 4 15 5 13 6 13 5 12 5 11 6 10 6 8 6 8 6 7 7 5 6 5 7 3 7 2 7 1 7 0 0zm0 0l0 0 0 0 0 0zm-4 1l0 -1 4 0 0 1 -4 0 0 0zm0 0l0 0 0 0 0 0zm0 90l0 -90 4 0 0 90 -4 0 0 0zm-30 -44l3 -3 0 0 1 1 2 2 2 1 1 1 2 2 2 1 1 2 2 1 1 1 1 2 2 1 1 2 1 1 1 2 1 1 1 1 1 2 1 1 1 2 1 1 1 2 0 1 1 2 0 1 1 2 0 1 1 2 0 2 0 1 0 2 0 1 1 2 -4 0 0 -2 0 -1 -1 -2 0 -1 0 -1 0 -2 -1 -1 0 -2 -1 -1 0 -1 -1 -2 -1 -1 0 -2 -1 -1 -1 -1 -1 -2 -1 -1 -1 -1 -1 -2 -1 -1 -1 -2 -2 -1 -1 -1 -1 -2 -2 -1 -1 -1 -2 -2 -1 -1 -2 -1 -1 -2 -2 -1 -2 -1 0 0zm-3 -2l3 -3 0 0 0 0 0 0 0 0 0 0 0 0 0 0 0 0 0 0 0 1 1 0 0 0 0 0 0 0 0 0 0 0 0 0 0 0 0 0 0 0 0 0 1 0 0 0 0 0 0 0 0 1 0 0 0 0 0 0 0 0 0 0 0 0 1 0 -3 3 0 0 0 0 0 -1 0 0 0 0 0 0 0 0 -1 0 0 0 0 0 0 0 0 0 0 0 0 0 0 0 0 0 0 0 0 0 -1 -1 0 0 0 0 0 0 0 0 0 0 0 0 0 0 0 0 0 0 0 0 0 0 -1 0 0 0 0 0zm0 0l0 0 0 -1 0 1zm2 -3l1 0 -3 3 0 -1 2 -2 0 0zm0 0l0 0 0 0 0 0zm-5 0l2 -2 0 0 0 0 0 0 0 0 0 0 1 0 0 0 0 0 0 0 0 0 0 0 0 0 0 0 0 0 0 0 0 0 1 1 0 0 0 0 0 0 0 0 0 0 0 0 0 0 0 0 0 0 0 0 1 0 0 0 0 0 0 0 0 0 0 1 -2 2 0 0 0 0 -1 0 0 0 0 0 0 0 0 0 0 0 0 0 0 0 0 0 0 0 0 -1 0 0 -1 0 0 0 0 0 0 0 0 0 0 0 0 0 0 0 0 0 0 0 0 0 -1 0 0 0 0 0 0 0 0 -1 0 0 0 0 0 0zm0 0l0 0 0 0 0 0zm2 -3l0 1 -2 2 0 0 0 0 2 -3zm-2 3l0 0 0 0 0 0zm2 -3l0 0 -2 3 0 0 2 -3 0 0zm0 0l0 0 0 0 0 0zm-1 0l1 0 -2 3 -1 0 0 0 2 -3zm-2 3l0 0 0 0 0 0zm-2 -2l2 -3 0 0 0 0 0 1 0 0 0 0 0 0 0 0 0 0 0 0 1 0 0 0 0 0 0 0 0 0 0 0 0 0 0 0 0 0 0 0 0 0 0 0 1 1 0 0 0 0 0 0 0 0 0 0 0 0 0 0 0 0 0 0 0 0 0 0 -2 3 0 0 0 0 0 0 0 0 0 0 0 0 0 0 0 0 0 -1 -1 0 0 0 0 0 0 0 0 0 0 0 0 0 0 0 0 0 0 0 0 0 0 0 -1 0 0 0 0 0 0 0 0 0 0 -1 0 0 0 0 0 0 0 0 0 0 0 0zm0 0l0 0 0 0 0 0zm1 -3l1 0 -2 3 -1 0 2 -3 0 0zm0 0l0 0 0 0 0 0zm-5 1l2 -3 0 0 0 0 0 0 0 0 0 0 0 0 0 0 0 0 0 0 1 0 0 1 0 0 0 0 0 0 0 0 0 0 0 0 0 0 0 0 1 0 0 0 0 0 0 0 0 0 0 0 0 0 0 0 0 1 0 0 1 0 0 0 0 0 0 0 -2 3 0 0 0 0 -1 0 0 -1 0 0 0 0 0 0 0 0 0 0 0 0 0 0 0 0 -1 0 0 0 0 0 0 0 0 0 0 0 0 0 0 0 0 -1 0 0 -1 0 0 0 0 0 0 0 0 0 0 0 0 0 0 0 0 0 0 0 0 0zm2 -3l0 0 0 0 0 0zm-1 0l1 0 -2 3 -1 -1 2 -2 0 0zm0 0l0 0 0 0 0 0zm-3 -2l3 2 -2 2 -3 -1 2 -3 0 0zm0 0l0 0 0 0 0 0zm-1 -1l1 1 -2 3 -1 -1 2 -3 0 0zm0 0l0 0 0 0 0 0zm-5 1l2 -3 0 0 0 1 0 0 0 0 0 0 0 0 0 0 1 0 0 0 0 0 0 0 0 0 0 0 0 0 0 0 0 0 0 0 1 0 0 1 0 0 0 0 0 0 0 0 0 0 0 0 0 0 1 0 0 0 0 0 0 0 0 0 0 0 0 0 -2 3 0 0 0 0 0 0 0 0 0 0 0 0 0 0 -1 0 0 0 0 0 0 0 0 0 0 0 0 -1 0 0 0 0 -1 0 0 0 0 0 0 0 0 0 0 0 0 0 0 0 0 0 -1 0 0 0 0 0 0 0 0 0 0 -1 0 0 0 0zm2 -3l0 0 -1 0 1 0zm-1 0l1 0 -2 3 -1 0 2 -3 0 0zm0 0l0 0 0 0 0 0zm-5 1l2 -3 -1 0 1 0 0 0 0 0 0 0 0 1 0 0 0 0 0 0 0 0 1 0 0 0 0 0 0 0 0 0 0 0 0 0 0 0 0 0 1 0 0 0 0 0 0 0 0 1 0 0 0 0 0 0 0 0 0 0 1 0 0 0 0 0 0 0 -2 3 0 0 0 0 0 0 0 0 -1 0 0 0 0 0 0 0 0 -1 0 0 0 0 0 0 0 0 0 0 -1 0 0 0 0 0 0 0 0 0 0 0 0 0 0 0 0 0 -1 0 0 0 0 0 0 0 0 -1 0 0 0 0 0 0 0 0 0 0zm0 0l0 0 0 0 0 0zm1 -3l1 0 -2 3 -1 0 0 0 2 -3zm-2 3l0 0 0 0 0 0zm2 -3l0 0 -2 3 0 0 2 -3 0 0zm0 0l0 0 0 0 0 0zm-1 0l1 0 -2 3 0 0 0 0 1 -3zm-1 3l0 0 0 0 0 0zm-1 -5l2 2 -1 3 -3 -2 2 -3 0 0zm0 0l0 0 0 0 0 0zm-2 0l2 0 -2 3 -2 0 2 -3 0 0zm0 0l0 0 0 0 0 0zm-4 -2l4 2 -2 3 -3 -2 1 -3 0 0zm0 0l0 0 1 0 -1 0zm-1 -1l1 1 -1 3 -1 -1 1 -3 0 0zm0 0l0 0 0 0 0 0zm-3 -1l3 1 -1 3 -3 -1 1 -3 0 0zm0 0l0 0 0 0 0 0zm-1 -1l1 1 -1 3 -2 -1 2 -3 0 0zm0 0l0 0 0 0 0 0zm0 0l0 0 -1 3 -1 0 2 -3 0 0zm0 0l0 0 0 0 0 0zm-3 -1l3 1 -2 3 -3 -1 2 -3 0 0zm0 0l0 0 0 0 0 0zm0 0l0 0 -2 3 0 0 2 -3 0 0zm0 0l0 0 0 0 0 0zm-2 -1l2 1 -2 3 -2 -1 2 -3 0 0zm0 0l0 0 -1 0 1 0zm-3 -1l3 1 -2 3 -3 -1 2 -3 0 0zm0 0l0 0 0 0 0 0zm-3 -1l3 1 -2 3 -2 -1 1 -3 0 0zm0 0l0 0 1 0 -1 0zm-2 -1l2 1 -1 3 -3 -1 2 -3 0 0zm0 0l0 0 0 0 0 0zm-2 -1l2 1 -2 3 -2 -1 2 -3 0 0zm0 0l0 0 0 0 0 0zm-4 -2l4 2 -2 3 -4 -1 2 -4 0 0zm0 0l0 0 0 0 0 0zm-2 0l2 0 -2 4 -1 -1 1 -3 0 0zm0 0l0 0 0 0 0 0zm-3 -1l3 1 -1 3 -3 -1 1 -3 0 0zm0 0l0 0 0 0 0 0zm-1 -1l1 1 -1 3 -2 -1 1 -3 1 0zm-1 0l0 0 1 0 -1 0zm-4 -1l4 1 -1 3 -4 -1 1 -3 0 0zm0 0l0 0 0 0 0 0zm-2 -1l2 1 -1 3 -2 -1 1 -3 0 0zm0 0l0 0 0 0 0 0zm-3 -1l3 1 -1 3 -3 -1 1 -3 0 0zm0 0l0 0 0 0 0 0zm-3 -1l3 1 -1 3 -3 -1 1 -3 0 0zm0 0l0 0 0 0 0 0zm-3 -1l3 1 -1 3 -3 -1 1 -3 0 0zm0 0l0 0 0 0 0 0zm-2 -1l2 1 -1 3 -2 -1 1 -3 0 0zm0 0l0 0 0 0 0 0zm0 0l0 0 -1 3 -1 0 0 0 2 -3zm-2 3l0 0 1 0 -1 0zm-2 -4l4 1 -2 3 -3 -1 1 -3 0 0zm0 0l0 0 0 0 0 0zm-3 -1l3 1 -1 3 -3 -1 1 -3 0 0zm0 0l0 0 1 0 -1 0zm-2 -1l2 1 -1 3 -2 -1 1 -3 0 0zm0 0l0 0 -1 0 1 0zm-2 -1l2 1 -1 3 -3 0 2 -4 0 0zm0 0l0 0 0 1 0 -1zm-4 -1l4 1 -2 4 -3 -1 1 -4 0 0zm0 0l0 0 0 0 0 0zm-1 0l1 0 -1 4 -1 -1 0 0 1 -3zm-1 3l0 0 0 0 0 0zm-1 -4l2 1 -1 3 -2 0 1 -4 0 0zm0 0l0 0 0 0 0 0zm-4 -1l4 1 -1 4 -4 -1 0 0 1 -4zm-1 0l1 0 -1 4 -1 -1 0 -3 1 0zm-1 3l0 0 0 -3 0 0 1 0 -1 3zm-350 -40l0 -3 0 0 13 0 13 0 13 0 12 0 13 1 12 0 13 1 12 1 12 0 12 1 12 1 11 1 12 1 11 1 12 1 11 2 11 1 11 1 11 2 10 1 11 2 10 2 10 1 10 2 10 2 9 2 10 2 9 2 9 2 9 3 8 2 9 2 -1 3 -9 -2 -8 -2 -9 -2 -9 -2 -9 -3 -9 -2 -10 -1 -10 -2 -10 -2 -10 -2 -10 -2 -10 -1 -11 -2 -11 -1 -10 -2 -11 -1 -12 -1 -11 -1 -11 -2 -12 -1 -12 -1 -11 0 -12 -1 -12 -1 -13 -1 -12 0 -12 -1 -13 0 -12 0 -13 -1 -13 0 -13 0 0 0zm-349 37l0 3 -1 -3 8 -2 9 -2 9 -3 9 -2 9 -2 10 -2 9 -2 10 -2 10 -2 10 -1 10 -2 11 -2 10 -1 11 -2 11 -1 11 -1 11 -2 11 -1 12 -1 12 -1 11 -1 12 -1 12 -1 12 0 12 -1 13 -1 12 0 13 -1 12 0 13 0 13 0 12 0 0 3 -12 0 -13 0 -13 1 -12 0 -13 0 -12 1 -12 0 -13 1 -12 1 -12 1 -11 0 -12 1 -12 1 -11 2 -11 1 -12 1 -11 1 -10 2 -11 1 -11 2 -10 1 -10 2 -10 2 -10 2 -10 2 -10 1 -9 2 -9 3 -9 2 -9 2 -8 2 -9 2 0 -3zm0 3l0 0 0 -3 0 0 0 3 0 0zm-2 -3l1 0 1 3 -1 1 -1 -4 0 0zm0 0l0 0 -1 1 1 -1zm-4 1l4 -1 1 4 -4 1 -1 -4 0 0zm0 0l0 0 1 0 -1 0zm-2 1l2 -1 2 4 -3 0 -1 -3 0 0zm-1 0l1 0 1 3 -1 1 -1 -4 0 0zm0 0l0 0 0 0 0 0zm-4 1l4 -1 1 4 -3 1 -2 -3 0 -1zm0 1l0 -1 0 1 0 0zm-2 0l2 0 2 3 -2 0 -2 -3 0 0zm0 0l0 0 1 0 -1 0zm-3 1l3 -1 2 3 -3 1 -2 -3 0 0zm0 0l0 0 0 0 0 0zm-2 1l2 -1 2 3 -3 1 -1 -3 0 0zm0 0l0 0 0 0 0 0zm0 0l0 0 1 3 0 0 0 0 -1 -3zm1 3l0 0 0 0 0 0zm-5 -2l4 -1 1 3 -4 1 -1 -3 0 0zm0 0l0 0 0 0 0 0zm0 0l0 0 1 3 0 0 0 0 -1 -3zm1 3l0 0 0 0 0 0zm-3 -2l2 -1 1 3 -2 1 -1 -3 0 0zm0 0l0 0 0 0 0 0zm-4 1l4 -1 1 3 -4 1 -1 -3 0 0zm-1 0l1 0 1 3 -1 1 -1 -4 0 0zm0 0l0 0 0 0 0 0zm0 0l0 0 1 4 0 0 0 0 -1 -4zm1 4l0 0 0 0 0 0zm-4 1l-2 -3 0 0 1 0 0 0 0 0 0 0 0 0 0 0 0 0 1 0 0 -1 0 0 0 0 0 0 0 0 0 0 1 0 0 0 0 0 0 0 0 0 0 0 0 0 0 0 1 0 0 0 0 0 0 0 0 0 0 0 0 0 1 -1 0 0 0 0 1 4 0 0 0 0 0 0 0 0 -1 0 0 0 0 0 0 0 0 0 0 0 0 0 0 0 -1 0 0 0 0 0 0 0 0 0 0 0 0 1 -1 0 0 0 0 0 0 0 0 0 0 0 0 0 0 0 -1 0 0 0 0 0 0 0 0 0 0 0zm-2 -3l0 0 1 0 -1 0zm-1 1l1 -1 2 3 -2 1 -2 -3 1 0zm-1 0l1 0 0 0 -1 0zm-4 1l4 -1 2 3 -4 1 -2 -3zm0 0l0 0 2 3 -1 0 -1 -3 0 0zm0 0l0 0 0 0 0 0zm-1 0l1 0 1 3 0 1 -2 -4 0 0zm0 0l0 0 0 0 0 0zm-4 2l4 -2 2 4 -4 1 -2 -3 0 0zm0 0l0 0 0 0 0 0zm-1 0l1 0 2 3 -1 1 -2 -4 0 0zm0 0l0 0 0 0 0 0zm-4 2l4 -2 2 4 -5 1 -1 -3 0 0zm0 0l0 0 0 0 0 0zm-2 1l2 -1 2 3 -2 1 -2 -3 0 0zm0 0l0 0 0 0 0 0zm-3 1l3 -1 2 3 -3 1 -2 -3 0 0zm-1 0l1 0 2 3 -1 0 -2 -3 0 0zm0 0l0 0 0 0 0 0zm0 0l0 0 2 3 -1 1 -1 -4 0 0zm0 0l0 0 0 0 0 0zm-4 2l4 -2 1 4 -3 1 -2 -3 0 0zm0 0l0 0 0 0 0 0zm-1 1l1 -1 2 3 -2 1 -1 -3 0 0zm0 0l0 0 -1 0 1 0zm-3 4l-1 -3 0 0 0 0 0 0 0 0 0 0 0 0 0 0 1 0 0 0 0 0 0 0 0 0 0 0 0 0 0 0 1 0 0 0 0 -1 0 0 0 0 0 0 0 0 0 0 1 0 0 0 0 0 0 0 0 0 0 0 0 0 0 0 1 0 0 0 1 3 0 0 0 0 0 0 0 0 0 0 0 0 -1 0 0 0 0 0 0 0 0 0 0 0 0 0 0 1 -1 0 0 0 0 0 0 0 0 0 0 0 0 0 0 0 -1 0 0 0 0 0 0 0 0 0 0 0 0 0 0 0 -1 0 0 0 0 0zm-1 -3l0 0 0 0 0 0zm-1 1l1 -1 1 3 0 1 0 0 -2 -3zm2 3l0 0 1 -1 -1 1zm-2 -3l0 0 2 3 0 0 0 0 -2 -3zm2 3l0 0 0 0 0 0zm-4 2l-2 -3 0 0 0 0 0 -1 0 0 0 0 1 0 0 0 0 0 0 0 0 0 0 0 0 0 0 0 1 0 0 0 0 0 0 0 0 0 0 0 0 -1 1 0 0 0 0 0 0 0 0 0 0 0 0 0 0 0 1 0 0 0 0 0 0 0 0 0 2 3 0 0 0 0 -1 0 0 0 0 0 0 0 0 0 0 0 0 0 0 0 -1 0 0 0 0 1 0 0 0 0 0 0 0 0 -1 0 0 0 0 0 0 0 0 0 0 0 0 0 0 0 -1 0 0 0 0 0 0 0 0 1 0 0 0 0 0 0zm-2 -3l0 0 2 3 -1 0 -1 -3 0 0zm0 0l0 0 -1 0 1 0zm-3 5l-2 -3 0 0 1 0 0 0 0 0 0 -1 0 0 0 0 0 0 1 0 0 0 0 0 0 0 0 0 0 0 0 0 0 0 1 0 0 0 0 0 0 0 0 -1 0 0 0 0 1 0 0 0 0 0 0 0 0 0 0 0 0 0 0 0 1 0 0 0 1 3 0 0 0 0 0 0 0 0 0 0 0 0 0 0 -1 0 0 0 0 0 0 0 0 0 0 1 0 0 -1 0 0 0 0 0 0 0 0 0 0 0 0 0 0 0 -1 0 0 0 0 0 0 0 0 0 0 0 0 1 0 0 -1 0 0 0 0 0zm-2 -3l0 0 0 0 0 0zm0 0l0 0 2 3 0 0 0 0 -2 -3zm2 3l0 0 0 0 0 0zm-4 2l-2 -3 0 0 0 0 0 0 0 0 0 0 0 0 1 0 0 0 0 0 0 -1 0 0 0 0 0 0 0 0 1 0 0 0 0 0 0 0 0 0 0 0 0 0 0 0 0 0 1 0 0 0 0 0 0 -1 0 0 0 0 0 0 0 0 1 0 0 0 2 3 -1 0 0 0 0 0 0 0 0 0 0 0 0 1 0 0 -1 0 0 0 0 0 0 0 0 0 0 0 0 0 0 0 -1 0 0 0 0 0 0 0 0 0 0 0 0 0 0 1 0 0 -1 0 0 0 0 0 0 0 0 0 0 0 0 0 0 0zm0 0l0 0 0 0 0 0zm-2 -3l0 0 2 3 0 0 -2 -3 0 0zm0 0l0 0 0 0 0 0zm-2 5l-2 -3 0 0 0 0 0 0 0 0 0 0 0 0 0 0 1 0 0 0 0 0 0 0 0 -1 0 0 0 0 0 0 1 0 0 0 0 0 0 0 0 0 0 0 0 0 0 0 1 0 0 0 0 0 0 -1 0 0 0 0 0 0 1 0 0 0 0 0 2 3 0 0 -1 0 0 0 0 0 0 0 0 0 0 0 0 1 -1 0 0 0 0 0 0 0 0 0 0 0 0 0 0 0 -1 0 0 0 0 0 0 0 0 0 0 1 0 0 0 0 -1 0 0 0 0 0 0 0 0 0 0 0 0 0 0 0 0 0zm-2 -3l0 0 0 0 0 0zm-1 0l1 0 2 3 -1 0 0 0 -2 -3zm2 3l0 0 1 0 -1 0zm-18 12l-2 -3 0 0 0 -1 1 0 0 0 1 -1 0 0 1 0 0 -1 1 0 1 -1 0 0 1 0 0 -1 1 0 0 0 1 -1 1 0 0 0 1 -1 0 0 1 0 1 -1 0 0 1 -1 0 0 1 0 1 -1 0 0 1 0 1 -1 0 0 1 0 0 -1 2 3 0 1 -1 0 0 0 -1 1 -1 0 0 0 -1 1 -1 0 0 0 -1 1 0 0 -1 0 -1 1 0 0 -1 0 0 1 -1 0 0 1 -1 0 -1 0 0 1 -1 0 0 0 -1 1 0 0 -1 0 -1 1 0 0 -1 0 0 1 -1 0 0 0 0 1zm0 -1l0 0 0 1 0 -1zm-2 -2l0 0 2 3 0 0 -2 -3 0 0zm0 0l0 0 0 0 0 0zm-4 5l2 -3 -2 0 0 0 0 0 1 0 0 0 0 0 0 0 0 0 0 0 0 -1 0 0 0 0 0 0 1 0 0 0 0 0 0 0 0 0 0 0 0 0 0 0 0 0 0 -1 1 0 0 0 0 0 0 0 0 0 0 0 0 0 0 0 0 0 1 0 2 2 0 1 0 0 0 0 -1 0 0 0 0 0 0 0 0 0 0 0 0 0 0 0 0 0 -1 0 0 1 0 0 0 0 0 0 0 0 0 0 0 0 0 0 0 0 -1 0 0 0 0 0 0 0 0 0 0 1 0 0 0 0 0 0 0 0 -3 0zm3 0l-1 1 -2 -1 3 0zm-1 -3l0 0 -2 3 0 0 0 -3 2 0zm-2 0l1 -1 1 1 -2 0zm-31 47l4 0 -4 0 0 -1 1 -2 0 -2 0 -1 0 -2 1 -1 0 -2 0 -1 1 -2 1 -1 0 -2 1 -1 1 -2 1 -1 0 -2 1 -1 1 -2 1 -1 2 -2 1 -1 1 -2 1 -1 2 -1 1 -2 2 -1 1 -2 2 -1 1 -1 2 -2 2 -1 1 -2 2 -1 3 3 -2 1 -2 1 -2 2 -1 1 -2 1 -1 2 -2 1 -1 2 -1 1 -2 1 -1 2 -1 1 -1 1 -1 2 -1 1 -1 2 -1 1 -1 1 -1 2 -1 1 0 2 -1 1 0 1 -1 2 0 1 -1 2 0 1 0 1 -1 2 0 1 0 2 0 1 -4 0zm4 -91l0 91 -4 0 0 -91 0 0 4 0zm484 -134l0 4 0 0 -25 0 -24 0 -24 1 -24 1 -24 2 -23 2 -23 2 -22 2 -21 3 -21 3 -20 3 -20 3 -19 4 -18 4 -18 4 -17 4 -16 5 -15 5 -14 5 -14 5 -12 5 -12 5 -11 6 -9 6 -9 6 -8 6 -6 6 -5 6 -4 6 -3 7 -2 6 -1 7 -4 0 1 -7 2 -7 3 -7 5 -7 5 -6 7 -7 8 -6 8 -6 10 -6 11 -6 12 -5 13 -5 13 -6 15 -5 15 -4 16 -5 17 -4 18 -5 18 -3 19 -4 20 -4 20 -3 21 -3 22 -2 22 -3 23 -2 23 -2 23 -1 24 -1 25 -1 24 -1 25 0 0 0zm485 230l0 -4 4 0 0 4 -2 2 -2 -2zm4 0l0 2 -2 0 2 -2zm-3 -2l1 0 0 4 -1 0 -2 -2 2 -2zm0 4l-2 0 0 -2 2 2zm3 -6l-4 0 4 0 0 0 -1 0 0 0 0 0 0 0 0 0 0 1 0 0 0 0 0 0 0 0 0 0 0 0 0 1 0 0 0 0 0 0 0 0 0 0 0 0 0 1 0 0 0 0 0 0 0 0 0 0 0 0 0 1 0 0 0 0 0 0 0 0 -4 0 0 0 0 -1 0 0 0 0 0 0 1 0 0 0 0 0 0 0 0 -1 0 0 0 0 0 0 0 0 0 0 0 0 0 0 0 -1 0 0 0 0 0 0 0 0 0 0 0 0 0 0 0 -1 0 0 0 0 0 0 0 0 0 0 0 0 4 0zm-975 2l1 0 0 4 -1 0 -2 -2 2 -2zm0 4l-2 0 0 -2 2 2zm2 -7l0 5 -4 0 0 -5 4 0zm-1 7l0 -4 -2 2 0 0 0 0 0 0 0 0 0 -1 0 0 0 0 0 0 0 0 0 0 0 -1 0 0 0 0 0 0 0 0 -1 0 0 0 0 -1 0 0 0 0 0 0 0 0 0 0 0 -1 0 0 0 0 0 0 0 0 0 0 0 0 0 -1 0 0 4 0 0 0 0 0 0 1 0 0 0 0 0 0 0 0 0 0 0 0 0 1 0 0 0 0 0 0 0 0 0 0 0 0 0 1 0 0 0 0 0 0 0 0 0 0 0 0 0 1 0 0 0 0 0 0 0 0 0 0 0 0 0 1 1 0 -2 2zm2 -2l0 2 -2 0 2 -2z"/>
      </g>
      <path class="fil12" d="M1816 394c60,3 117,10 167,19 17,245 12,500 1,760 -56,0 -95,1 -151,2 12,-258 6,-507 -17,-781z"/>
      <path class="fil13" d="M1984 305l0 89c-50,-9 -107,-15 -168,-19l0 -89c61,3 118,10 168,19z"/>
      <g>
       <path class="fil7" d="M1310 1367l165 171c32,4 137,6 240,5 103,1 208,-1 241,-5l164 -171 -1 0c21,-159 40,-410 45,-628 -76,-33 -249,-56 -450,-56 -198,0 -371,23 -449,56 6,218 25,468 45,628z"/>
       <path id="1" class="fil3" d="M1473 1539l-164 -171 3 -3 164 172 -2 3 -1 -1zm1 1l0 0 -1 -1 1 1zm241 2l0 3 0 0 -9 0 -10 0 -10 0 -9 0 -10 0 -9 0 -10 0 -9 0 -10 0 -9 0 -9 0 -9 -1 -8 0 -9 0 -8 0 -9 0 -8 0 -7 0 -8 -1 -7 0 -7 0 -7 0 -6 -1 -7 0 -5 0 -6 0 -5 -1 -5 0 -5 0 -4 -1 -3 0 -4 0 1 -4 3 1 4 0 4 0 4 1 5 0 5 0 6 0 6 1 6 0 6 0 7 1 7 0 7 0 8 0 8 0 8 0 8 1 8 0 9 0 8 0 9 0 9 0 9 0 10 0 9 0 10 1 9 0 10 0 9 0 10 0 10 0 9 0 0 0zm0 0l0 0 0 0 0 0zm239 -5l3 2 -1 1 -3 0 -4 0 -4 1 -5 0 -4 0 -6 1 -5 0 -6 0 -6 0 -7 1 -6 0 -7 0 -8 0 -7 1 -8 0 -8 0 -8 0 -9 0 -8 0 -9 0 -9 1 -9 0 -9 0 -9 0 -10 0 -9 0 -10 0 -9 0 -10 0 -9 0 -10 0 -10 0 0 -3 10 0 10 0 9 0 10 0 9 0 10 0 9 -1 10 0 9 0 9 0 9 0 9 0 9 0 8 0 9 0 8 -1 8 0 8 0 7 0 7 0 7 0 7 -1 7 0 6 0 6 -1 5 0 5 0 5 0 5 -1 4 0 3 0 3 -1 -1 1zm3 2l0 1 -1 0 1 -1zm165 -171l-165 171 -3 -2 165 -172 1 0 2 3zm-3 -3l1 0 0 3 -1 0 -2 -2 2 -1zm0 3l-2 0 0 -2 2 2zm45 -627l1 -3 1 1 0 21 -1 21 -1 20 0 21 -1 21 -1 22 -1 21 -1 21 -1 21 -1 21 -2 22 -1 21 -1 21 -2 21 -1 20 -2 21 -1 21 -2 20 -1 20 -2 20 -2 19 -1 20 -2 19 -2 18 -2 19 -1 17 -2 18 -2 17 -2 17 -2 16 -2 16 -2 15 -4 -1 2 -15 2 -15 2 -17 2 -16 2 -17 2 -18 2 -18 1 -18 2 -19 2 -19 2 -19 1 -19 2 -20 2 -20 1 -21 2 -20 1 -21 2 -21 1 -20 1 -21 2 -22 1 -21 1 -21 1 -21 1 -21 1 -22 1 -21 1 -21 1 -21 0 -20 1 -21 1 -21 1 2zm1 -3l1 0 0 1 -1 -1zm-451 -53l0 -4 0 0 19 0 18 0 19 1 18 0 18 1 18 0 17 1 18 1 17 1 16 2 17 1 16 1 16 2 15 1 15 2 15 2 14 2 15 2 13 2 13 2 13 2 13 3 12 2 11 3 11 2 11 3 10 3 10 3 9 3 9 3 8 3 7 3 -1 3 -8 -3 -8 -3 -8 -3 -9 -3 -10 -3 -10 -3 -11 -2 -11 -3 -11 -2 -12 -3 -12 -2 -13 -2 -13 -3 -14 -2 -14 -2 -15 -2 -14 -1 -15 -2 -16 -2 -16 -1 -16 -2 -16 -1 -17 -1 -17 -1 -17 -1 -17 -1 -18 -1 -18 0 -18 -1 -19 0 -18 0 -19 0 0 0zm-447 54l-4 0 1 -2 8 -3 8 -3 9 -3 9 -3 10 -2 10 -3 11 -3 11 -2 11 -3 13 -2 12 -3 13 -2 13 -2 14 -2 14 -2 14 -2 15 -2 15 -2 15 -1 16 -2 16 -1 17 -1 16 -2 17 -1 17 -1 18 -1 17 0 18 -1 18 0 18 -1 19 0 18 0 0 4 -18 0 -19 0 -18 0 -18 1 -18 0 -17 1 -18 1 -17 1 -17 1 -16 1 -16 1 -16 2 -16 1 -15 2 -16 1 -14 2 -15 2 -14 2 -13 2 -13 2 -13 3 -13 2 -12 2 -11 3 -11 2 -11 3 -10 3 -10 3 -9 2 -8 3 -9 3 -7 3 1 -1zm-4 0l0 -1 1 -1 -1 2zm49 626l-3 3 -1 -1 -2 -15 -1 -16 -2 -16 -2 -17 -2 -17 -2 -18 -2 -18 -2 -18 -1 -19 -2 -19 -2 -19 -1 -19 -2 -20 -2 -20 -1 -21 -2 -20 -1 -21 -2 -21 -1 -21 -1 -21 -2 -21 -1 -21 -1 -21 -1 -21 -1 -22 -1 -21 -1 -21 -1 -21 -1 -21 -1 -21 0 -21 -1 -20 4 0 1 20 0 21 1 21 1 21 1 21 0 21 1 21 2 21 1 22 1 21 1 21 1 21 2 21 1 21 1 21 2 21 1 20 2 20 2 20 1 20 2 20 2 19 1 19 2 19 2 18 2 18 2 18 2 17 1 16 2 17 2 15 2 15 0 -1zm-3 3l-1 -1 0 0 1 1z"/>
      </g>
      <g>
       <path class="fil7" d="M1258 472c75,-48 251,-81 457,-81 206,0 382,33 457,81 0,0 0,0 0,0 4,71 4,163 1,258 -79,-33 -254,-60 -458,-60 -205,0 -381,27 -460,60 -2,-95 -2,-187 2,-258 1,0 1,0 1,0z"/>
       <path id="1" class="fil3" d="M1715 389l0 4 0 0 -19 0 -19 0 -19 1 -19 0 -18 1 -18 1 -18 1 -18 2 -17 1 -17 2 -17 2 -16 2 -16 2 -16 2 -15 3 -15 2 -15 3 -14 3 -14 3 -14 3 -13 3 -12 4 -12 3 -12 4 -11 3 -10 4 -10 4 -10 4 -9 4 -8 5 -8 4 -7 4 -3 -3 8 -4 8 -4 8 -5 9 -4 10 -4 10 -4 11 -4 11 -3 12 -4 12 -4 12 -3 13 -3 14 -3 14 -3 14 -3 15 -3 15 -3 15 -2 16 -2 16 -3 17 -2 16 -1 18 -2 17 -2 18 -1 18 -1 18 -1 18 -1 19 -1 19 0 19 -1 19 0 0 0zm458 81l-2 3 0 0 -7 -4 -8 -4 -9 -5 -9 -4 -9 -4 -10 -4 -11 -4 -11 -3 -11 -4 -12 -3 -13 -4 -13 -3 -13 -3 -14 -3 -14 -3 -15 -3 -15 -2 -15 -3 -16 -2 -16 -2 -17 -2 -16 -2 -17 -2 -18 -1 -17 -2 -18 -1 -18 -1 -19 -1 -18 0 -19 -1 -19 0 -19 0 0 -4 19 0 19 1 19 0 19 1 18 1 18 1 18 1 18 1 17 2 17 2 17 1 16 2 17 3 15 2 16 2 15 3 15 3 14 3 14 3 13 3 13 3 13 3 12 4 12 4 11 3 10 4 11 4 9 4 9 4 9 5 8 4 7 4 0 0zm-2 3l0 0 0 0 0 0zm3 -1l-4 0 1 1 0 0 0 0 0 0 0 0 0 0 0 0 0 0 0 0 0 0 0 0 1 0 -1 0 0 0 0 0 0 0 0 0 0 0 0 0 0 0 0 0 0 0 0 0 0 0 0 0 0 0 1 0 -1 0 0 0 0 0 0 0 0 0 0 0 2 -3 0 0 0 0 0 0 0 0 0 0 0 0 0 0 0 0 0 0 0 0 0 0 0 0 0 0 0 0 0 0 0 0 0 0 0 0 0 0 0 0 0 0 0 0 0 0 0 0 0 0 0 0 0 0 0 0 0 0 0 0 0 0 0 0 1 2zm-1 -2l1 1 0 1 -1 -2zm0 261l1 -3 -3 2 1 -9 0 -9 0 -9 0 -9 0 -9 0 -8 1 -9 0 -9 0 -8 0 -9 0 -8 0 -9 0 -8 0 -9 0 -8 0 -8 0 -8 0 -8 0 -8 0 -8 0 -8 0 -8 0 -8 -1 -7 0 -8 0 -7 0 -7 0 -8 -1 -7 0 -7 0 -6 -1 -7 4 0 0 6 1 7 0 7 0 7 1 8 0 7 0 7 0 8 0 7 1 8 0 8 0 8 0 8 0 8 0 8 0 8 0 8 0 8 0 9 0 8 0 9 0 8 0 9 0 8 -1 9 0 9 0 8 0 9 0 9 0 9 -1 9 0 9 -2 1zm2 -1l0 2 -2 -1 2 -1zm-460 -58l0 -4 0 0 19 0 19 1 19 0 18 1 18 0 18 1 18 1 18 1 17 1 17 2 17 1 16 2 16 1 16 2 15 2 15 2 15 2 14 2 14 2 14 3 13 2 12 3 13 2 12 3 11 2 11 3 10 3 10 3 9 3 9 3 8 3 8 3 -1 3 -8 -3 -8 -3 -9 -3 -9 -3 -10 -3 -10 -2 -11 -3 -11 -3 -12 -3 -12 -2 -13 -3 -13 -2 -13 -2 -14 -3 -15 -2 -14 -2 -15 -2 -16 -2 -15 -1 -16 -2 -17 -2 -16 -1 -17 -1 -18 -2 -17 -1 -18 -1 -18 0 -18 -1 -19 0 -18 -1 -19 0 -19 0 0 0zm-462 58l4 0 -2 -2 7 -3 9 -3 8 -3 10 -3 10 -3 10 -3 11 -2 11 -3 12 -3 12 -2 13 -3 13 -2 14 -3 14 -2 14 -2 15 -2 15 -2 15 -2 16 -2 16 -1 17 -2 16 -1 17 -2 18 -1 17 -1 18 -1 18 -1 19 0 18 -1 19 0 19 -1 19 0 0 4 -19 0 -19 0 -19 1 -18 0 -19 1 -18 1 -17 0 -18 2 -17 1 -17 1 -17 1 -16 2 -16 2 -16 1 -16 2 -15 2 -14 2 -15 3 -14 2 -13 2 -13 3 -13 2 -12 3 -12 2 -11 3 -11 3 -10 3 -10 2 -9 3 -9 3 -8 3 -8 3 -3 -1zm3 1l-3 2 0 -3 3 1zm0 -261l3 3 0 -1 0 7 0 6 -1 7 0 7 0 8 -1 7 0 7 0 8 0 7 0 8 -1 8 0 8 0 8 0 8 0 8 0 8 0 8 0 8 0 9 0 8 0 9 0 8 0 9 0 8 0 9 0 9 0 9 0 8 1 9 0 9 0 9 0 9 -4 0 0 -9 0 -9 0 -9 0 -9 0 -8 -1 -9 0 -9 0 -8 0 -9 0 -9 0 -8 0 -9 0 -8 0 -9 0 -8 0 -8 0 -8 0 -8 0 -8 1 -8 0 -8 0 -8 0 -8 0 -7 0 -8 1 -7 0 -7 0 -8 1 -7 0 -7 0 -7 1 -6 0 -2zm0 2l0 -1 0 -1 0 2zm0 -2l3 3 0 0 0 0 0 0 0 0 0 0 -1 0 0 0 1 0 0 0 0 0 0 0 0 0 0 0 -1 0 0 0 0 0 1 0 0 0 0 0 0 0 0 0 -1 0 0 0 1 0 0 0 0 0 0 0 0 0 0 0 0 0 0 0 0 0 0 0 -3 -3 0 0 0 0 0 0 0 0 0 0 0 0 0 0 0 0 0 0 1 0 0 0 -1 0 0 0 0 0 0 0 0 0 1 0 0 0 0 0 -1 0 0 0 0 0 0 0 0 0 0 0 1 0 0 0 -1 0 0 0 0 0 0 0 0 0 0 0zm3 3l0 0 0 0 0 0z"/>
      </g>
      <g>
       <path class="fil10" d="M1715 670c203,0 377,22 450,56l-1 18c0,0 -2,-1 -2,-1 -74,-35 -246,-56 -448,-56 -201,0 -375,22 -449,56l0 -17c73,-34 247,-56 450,-56z"/>
       <path id="1" class="fil3" d="M2166 726l-3 0 1 2 -7 -3 -8 -4 -8 -3 -9 -2 -9 -3 -10 -3 -10 -3 -11 -2 -12 -3 -11 -2 -13 -3 -12 -2 -14 -2 -13 -2 -14 -2 -15 -2 -14 -2 -16 -2 -15 -1 -16 -2 -16 -1 -17 -1 -16 -1 -18 -1 -17 -1 -18 -1 -17 -1 -19 0 -18 -1 -18 0 -19 0 -19 0 0 -4 19 0 19 1 18 0 19 0 18 1 18 1 17 0 18 1 17 1 17 1 16 2 16 1 16 1 16 2 15 2 15 1 14 2 14 2 14 2 13 3 13 2 12 2 12 3 12 2 11 3 10 3 10 2 9 3 9 3 9 3 7 4 7 3 1 1zm-1 -1l2 0 -1 1 -1 -1zm-3 19l1 -18 3 0 0 18 -3 1 -1 -1zm4 0l0 2 -3 -1 3 -1zm-5 0l2 -3 0 0 0 0 0 0 0 0 0 0 0 0 0 0 0 0 0 0 0 0 0 0 0 0 0 0 1 1 0 0 0 0 0 0 0 0 0 0 0 0 0 0 0 0 0 0 1 0 0 0 0 0 0 0 0 0 0 0 0 0 0 0 0 0 0 0 -2 3 0 0 0 0 0 0 0 0 0 0 0 0 0 0 0 0 0 0 0 0 0 0 0 0 0 0 -1 0 0 0 0 0 0 0 0 0 0 0 0 0 0 0 0 -1 0 0 -1 0 0 0 0 0 0 0 0 0 0 0 0 0 0 0 0 0 0 0zm0 0l0 0 0 0 0 0zm-447 -55l0 -3 0 0 19 0 19 0 18 0 18 0 18 1 18 1 18 0 17 1 17 1 17 1 16 2 16 1 16 1 15 2 16 2 14 1 15 2 14 2 13 2 13 2 13 3 13 2 11 2 12 3 11 2 10 3 10 3 10 3 8 3 9 3 8 3 7 3 -2 3 -7 -3 -8 -3 -8 -3 -9 -3 -9 -3 -10 -3 -10 -2 -11 -3 -11 -2 -12 -3 -13 -2 -12 -2 -13 -2 -14 -2 -14 -2 -14 -2 -15 -2 -15 -2 -15 -1 -16 -2 -16 -1 -17 -1 -16 -1 -17 -1 -18 -1 -17 -1 -18 -1 -18 0 -18 -1 -18 0 -19 0 -19 0 0 0zm-451 54l4 0 -3 -1 8 -4 7 -3 9 -3 9 -3 9 -3 10 -2 11 -3 11 -3 11 -2 12 -3 12 -2 13 -2 13 -2 14 -3 14 -1 14 -2 15 -2 15 -2 16 -1 16 -2 16 -1 16 -1 17 -2 17 -1 18 0 17 -1 18 -1 18 0 18 -1 19 0 18 0 19 0 0 3 -19 0 -18 0 -19 1 -18 0 -18 1 -18 0 -17 1 -18 1 -17 1 -16 1 -17 1 -16 2 -16 1 -15 2 -15 1 -15 2 -14 2 -14 2 -14 2 -13 2 -13 2 -12 3 -12 2 -12 3 -10 2 -11 3 -10 3 -9 3 -9 2 -8 3 -8 4 -7 3 -3 -2zm3 2l-3 1 0 -3 3 2zm1 -19l0 17 -4 0 0 -17 1 -1 3 1zm-4 0l0 -1 1 0 -1 1zm452 -58l0 4 0 0 -19 0 -19 0 -18 0 -19 1 -18 0 -18 1 -17 1 -18 1 -17 1 -17 1 -16 1 -16 1 -16 2 -16 1 -15 2 -15 2 -14 2 -14 2 -14 2 -13 2 -13 2 -12 3 -12 2 -11 3 -11 2 -10 3 -10 3 -9 3 -9 2 -8 3 -8 4 -7 3 -2 -3 7 -3 8 -4 8 -3 9 -3 10 -3 10 -2 10 -3 11 -3 11 -2 12 -3 13 -2 12 -2 14 -3 13 -2 14 -2 15 -2 15 -1 15 -2 15 -2 16 -1 17 -1 16 -2 17 -1 17 -1 17 -1 18 0 18 -1 18 -1 18 0 19 0 19 -1 19 0 0 0z"/>
      </g>
      <g>
       <path class="fil14" d="M1715 687c203,0 377,22 450,57l-2 58c-100,-48 -337,-56 -449,-56 -201,0 -374,20 -447,55l-2 -57c73,-35 247,-57 450,-57z"/>
       <path id="1" class="fil3" d="M2166 744l-3 0 1 1 -7 -3 -8 -3 -8 -3 -9 -3 -9 -3 -10 -3 -10 -3 -11 -2 -12 -3 -11 -2 -13 -2 -12 -3 -14 -2 -13 -2 -14 -2 -15 -2 -14 -2 -16 -1 -15 -2 -16 -1 -16 -2 -17 -1 -16 -1 -18 -1 -17 -1 -18 -1 -17 0 -19 -1 -18 0 -18 -1 -19 0 -19 0 0 -3 19 0 19 0 18 0 19 1 18 0 18 1 17 1 18 1 17 1 17 1 16 1 16 1 16 2 16 1 15 2 15 2 14 2 14 2 14 2 13 2 13 2 12 3 12 2 12 3 11 2 10 3 10 3 9 3 9 3 9 3 7 3 7 3 1 2zm-1 -2l2 1 -1 1 -1 -2zm-4 60l2 -58 3 0 -2 58 -2 2 -1 -2zm3 0l0 3 -2 -1 2 -2zm-450 -55l0 -3 0 0 11 0 12 0 12 0 12 0 14 1 14 0 14 0 15 1 15 1 15 0 15 1 16 1 16 1 16 1 16 2 16 1 16 2 16 1 16 2 16 2 15 3 15 2 15 2 15 3 14 3 13 3 13 4 13 3 12 4 11 4 11 4 9 5 -1 3 -10 -5 -10 -4 -11 -4 -12 -4 -13 -3 -13 -3 -13 -3 -14 -3 -14 -3 -15 -3 -15 -2 -16 -2 -15 -2 -16 -2 -16 -2 -16 -2 -16 -1 -16 -1 -16 -1 -16 -1 -16 -1 -15 -1 -16 -1 -15 -1 -14 0 -15 -1 -13 0 -14 0 -12 0 -12 0 -12 -1 -11 0 0 0zm-449 54l4 0 -3 -2 7 -3 8 -3 9 -3 8 -3 10 -3 10 -3 10 -2 11 -3 11 -2 12 -3 13 -2 12 -2 13 -3 14 -2 14 -1 14 -2 15 -2 15 -2 16 -1 15 -2 16 -1 17 -1 17 -1 17 -1 17 -1 17 -1 18 -1 18 0 18 0 19 -1 18 0 19 0 0 3 -19 0 -18 1 -19 0 -18 0 -18 1 -18 1 -17 0 -17 1 -17 1 -17 1 -16 1 -16 2 -16 1 -15 2 -15 1 -15 2 -14 2 -14 2 -14 2 -13 2 -13 2 -12 3 -12 2 -11 2 -11 3 -10 3 -10 2 -9 3 -9 3 -8 3 -8 3 -7 3 -3 -1zm3 1l-3 2 0 -3 3 1zm-1 -58l2 57 -4 0 -2 -57 1 -2 3 2zm-4 0l0 -1 1 -1 -1 2zm452 -58l0 3 0 0 -19 0 -19 0 -18 1 -19 0 -18 1 -18 0 -17 1 -18 1 -17 1 -17 1 -16 1 -16 2 -16 1 -16 2 -15 1 -15 2 -14 2 -14 2 -14 2 -13 2 -13 3 -12 2 -12 2 -11 3 -11 2 -10 3 -10 3 -9 3 -9 3 -8 3 -8 3 -7 3 -2 -3 7 -3 8 -3 8 -3 9 -3 10 -3 10 -3 10 -3 11 -2 11 -3 12 -2 13 -3 12 -2 14 -2 13 -2 14 -2 15 -2 15 -2 15 -2 15 -1 16 -2 17 -1 16 -1 17 -1 17 -1 17 -1 18 -1 18 -1 18 0 18 -1 19 0 19 0 19 0 0 0z"/>
      </g>
      <path class="fil0" d="M1816 691c61,2 118,7 168,13l0 55c-50,-7 -107,-11 -168,-13l0 -55z"/>
      <g>
       <path class="fil15" d="M1715 1367l0 0 -405 0 165 171c32,4 137,6 240,5 103,1 208,-1 241,-5l164 -171 -404 0 -1 0z"/>
       <path id="1" class="fil3" d="M1715 1365l0 0 0 3 0 0 0 0 0 -3zm-405 0l405 0 0 3 -405 0 -1 0 1 -3zm163 174l-164 -171 3 -3 164 172 -2 3 -1 -1zm1 1l0 0 -1 -1 1 1zm241 2l0 3 0 0 -9 0 -10 0 -10 0 -9 0 -10 0 -9 0 -10 0 -9 0 -10 0 -9 0 -9 0 -9 -1 -8 0 -9 0 -8 0 -9 0 -8 0 -7 0 -8 -1 -7 0 -7 0 -7 0 -6 -1 -7 0 -5 0 -6 0 -5 -1 -5 0 -5 0 -4 -1 -3 0 -4 0 1 -4 3 1 4 0 4 0 4 1 5 0 5 0 6 0 6 1 6 0 6 0 7 1 7 0 7 0 8 0 8 0 8 0 8 1 8 0 9 0 8 0 9 0 9 0 9 0 10 0 9 0 10 1 9 0 10 0 9 0 10 0 10 0 9 0 0 0zm0 0l0 0 0 0 0 0zm239 -5l3 2 -1 1 -3 0 -4 0 -4 1 -5 0 -4 0 -6 1 -5 0 -6 0 -6 0 -7 1 -6 0 -7 0 -8 0 -7 1 -8 0 -8 0 -8 0 -9 0 -8 0 -9 0 -9 1 -9 0 -9 0 -9 0 -10 0 -9 0 -10 0 -9 0 -10 0 -9 0 -10 0 -10 0 0 -3 10 0 10 0 9 0 10 0 9 0 10 0 9 -1 10 0 9 0 9 0 9 0 9 0 9 0 8 0 9 0 8 -1 8 0 8 0 7 0 7 0 7 0 7 -1 7 0 6 0 6 -1 5 0 5 0 5 0 5 -1 4 0 3 0 3 -1 -1 1zm3 2l0 1 -1 0 1 -1zm165 -171l-165 171 -3 -2 165 -172 1 0 2 3zm-406 -3l404 0 0 3 -404 0 0 0 0 -3zm-1 0l1 0 0 3 -1 0 0 0 0 -3z"/>
      </g>
      <g>
       <path class="fil14" d="M2129 1320c-181,43 -642,44 -828,2 1,8 1,40 6,45 186,41 635,40 819,-1 3,-5 2,-38 3,-46z"/>
       <path id="1" class="fil3" d="M1303 1322l-4 0 3 -2 18 4 20 4 21 3 22 3 24 3 25 3 25 2 27 2 27 2 28 1 29 2 29 1 30 0 30 1 30 0 30 0 30 0 30 0 30 -1 29 -1 29 -1 29 -1 28 -2 27 -2 26 -2 26 -3 24 -2 23 -3 22 -3 21 -4 19 -3 18 -4 1 3 -18 3 -19 4 -21 3 -22 4 -23 2 -25 3 -25 2 -26 3 -28 2 -28 1 -28 2 -29 1 -30 1 -30 0 -30 1 -30 0 -30 0 -30 0 -30 -1 -30 -1 -29 -1 -29 -1 -28 -2 -28 -1 -26 -3 -26 -2 -25 -2 -24 -3 -22 -3 -21 -4 -20 -3 -18 -4 2 -1zm-4 0l0 -2 3 0 -3 2zm9 44l-2 3 -1 -1 0 -1 -1 0 0 -1 0 -1 -1 -2 0 -1 0 -1 -1 -2 0 -1 0 -2 0 -1 -1 -2 0 -2 0 -1 0 -2 0 -2 0 -2 0 -2 -1 -2 0 -1 0 -2 0 -2 0 -2 0 -1 0 -2 0 -1 0 -2 0 -1 0 -1 -1 -1 0 -1 0 -1 4 0 0 1 0 1 0 1 0 1 0 1 1 2 0 1 0 2 0 1 0 2 0 2 0 2 0 1 0 2 0 2 1 2 0 2 0 1 0 2 0 2 0 2 1 1 0 2 0 1 0 2 1 1 0 1 0 1 1 1 0 1 0 0 1 1 -1 -1zm-2 3l0 0 -1 -1 1 1zm819 -3l3 1 -1 1 -18 3 -20 4 -21 3 -22 3 -23 3 -25 2 -25 3 -26 2 -27 2 -28 1 -28 2 -29 1 -29 1 -30 0 -29 1 -30 0 -30 0 -29 -1 -30 0 -29 -1 -29 -1 -28 -1 -28 -2 -27 -2 -26 -2 -25 -2 -25 -2 -23 -3 -23 -3 -21 -3 -19 -4 -19 -3 2 -3 18 4 19 3 21 3 22 3 24 3 24 3 25 2 27 2 27 2 27 1 29 1 28 1 29 1 30 1 29 0 30 0 30 0 29 -1 30 0 29 -1 28 -1 29 -1 27 -2 27 -2 26 -2 26 -2 24 -3 23 -3 22 -3 21 -3 20 -3 18 -4 -1 1zm3 1l0 0 -1 1 1 -1zm1 -45l-1 -3 2 1 0 1 0 1 0 1 0 1 0 2 0 1 0 2 0 1 0 2 0 1 0 2 0 2 0 2 0 2 0 2 0 1 0 2 0 2 0 2 0 2 0 1 0 2 0 2 0 1 0 2 -1 1 0 1 0 1 0 1 0 1 -1 1 0 1 -3 -1 0 -1 0 0 0 -1 0 -1 1 -1 0 -1 0 -1 0 -2 0 -1 0 -2 0 -2 0 -1 0 -2 0 -2 0 -2 0 -2 0 -1 0 -2 0 -2 0 -2 0 -2 0 -2 0 -1 0 -2 0 -1 0 -2 0 -1 0 -2 1 -1 0 -1 0 -1 0 -1 2 2zm-1 -3l3 -1 -1 2 -2 -1z"/>
      </g>
      <path class="fil0" d="M1955 1346c-43,3 -90,6 -139,7l0 44c49,-2 94,-4 137,-8l2 -43z"/>
      <path class="fil13" d="M1984 413l0 270c-46,-5 -107,-9 -168,-13l0 -276c61,3 118,10 168,19z"/>
      <path class="fil13" d="M1984 761l-29 582c-51,4 -79,6 -139,8l0 -602c61,3 118,6 168,12z"/>
      <g>
       <path class="fil3" d="M1715 389l0 4 0 0 -19 0 -19 0 -19 1 -19 0 -18 1 -18 1 -18 1 -18 2 -17 1 -17 2 -17 2 -16 2 -16 2 -16 2 -15 3 -15 2 -15 3 -14 3 -14 3 -14 3 -13 3 -12 4 -12 3 -12 4 -11 3 -10 4 -10 4 -10 4 -9 4 -8 5 -8 4 -7 4 -3 -3 8 -4 8 -4 8 -5 9 -4 10 -4 10 -4 11 -4 11 -3 12 -4 12 -4 12 -3 13 -3 14 -3 14 -3 14 -3 15 -3 15 -3 15 -2 16 -2 16 -3 17 -2 16 -1 18 -2 17 -2 18 -1 18 -1 18 -1 18 -1 19 -1 19 0 19 -1 19 0 0 0zm458 81l-2 3 0 0 -7 -4 -8 -4 -9 -5 -9 -4 -9 -4 -10 -4 -11 -4 -11 -3 -11 -4 -12 -3 -13 -4 -13 -3 -13 -3 -14 -3 -14 -3 -15 -3 -15 -2 -15 -3 -16 -2 -16 -2 -17 -2 -16 -2 -17 -2 -18 -1 -17 -2 -18 -1 -18 -1 -19 -1 -18 0 -19 -1 -19 0 -19 0 0 -4 19 0 19 1 19 0 19 1 18 1 18 1 18 1 18 1 17 2 17 2 17 1 16 2 17 3 15 2 16 2 15 3 15 3 14 3 14 3 13 3 13 3 13 3 12 4 12 4 11 3 10 4 11 4 9 4 9 4 9 5 8 4 7 4 0 0zm-2 3l0 0 0 0 0 0zm3 -1l-4 0 1 1 0 0 0 0 0 0 0 0 0 0 0 0 0 0 0 0 0 0 0 0 1 0 -1 0 0 0 0 0 0 0 0 0 0 0 0 0 0 0 0 0 0 0 0 0 0 0 0 0 0 0 1 0 -1 0 0 0 0 0 0 0 0 0 0 0 2 -3 0 0 0 0 0 0 0 0 0 0 0 0 0 0 0 0 0 0 0 0 0 0 0 0 0 0 0 0 0 0 0 0 0 0 0 0 0 0 0 0 0 0 0 0 0 0 0 0 0 0 0 0 0 0 0 0 0 0 0 0 0 0 0 0 1 2zm-1 -2l1 1 0 1 -1 -2zm0 261l1 -3 -3 2 1 -9 0 -9 0 -9 0 -9 0 -9 0 -8 1 -9 0 -9 0 -8 0 -9 0 -8 0 -9 0 -8 0 -9 0 -8 0 -8 0 -8 0 -8 0 -8 0 -8 0 -8 0 -8 0 -8 -1 -7 0 -8 0 -7 0 -7 0 -8 -1 -7 0 -7 0 -6 -1 -7 4 0 0 6 1 7 0 7 0 7 1 8 0 7 0 7 0 8 0 7 1 8 0 8 0 8 0 8 0 8 0 8 0 8 0 8 0 8 0 9 0 8 0 9 0 8 0 9 0 8 -1 9 0 9 0 8 0 9 0 9 0 9 -1 9 0 9 -2 1zm2 -1l0 2 -2 -1 2 -1zm-460 -58l0 -4 0 0 19 0 19 1 19 0 18 1 18 0 18 1 18 1 18 1 17 1 17 2 17 1 16 2 16 1 16 2 15 2 15 2 15 2 14 2 14 2 14 3 13 2 12 3 13 2 12 3 11 2 11 3 10 3 10 3 9 3 9 3 8 3 8 3 -1 3 -8 -3 -8 -3 -9 -3 -9 -3 -10 -3 -10 -2 -11 -3 -11 -3 -12 -3 -12 -2 -13 -3 -13 -2 -13 -2 -14 -3 -15 -2 -14 -2 -15 -2 -16 -2 -15 -1 -16 -2 -17 -2 -16 -1 -17 -1 -18 -2 -17 -1 -18 -1 -18 0 -18 -1 -19 0 -18 -1 -19 0 -19 0 0 0zm-462 58l4 0 -2 -2 7 -3 9 -3 8 -3 10 -3 10 -3 10 -3 11 -2 11 -3 12 -3 12 -2 13 -3 13 -2 14 -3 14 -2 14 -2 15 -2 15 -2 15 -2 16 -2 16 -1 17 -2 16 -1 17 -2 18 -1 17 -1 18 -1 18 -1 19 0 18 -1 19 0 19 -1 19 0 0 4 -19 0 -19 0 -19 1 -18 0 -19 1 -18 1 -17 0 -18 2 -17 1 -17 1 -17 1 -16 2 -16 2 -16 1 -16 2 -15 2 -14 2 -15 3 -14 2 -13 2 -13 3 -13 2 -12 3 -12 2 -11 3 -11 3 -10 3 -10 2 -9 3 -9 3 -8 3 -8 3 -3 -1zm3 1l-3 2 0 -3 3 1zm0 -261l3 3 0 -1 0 7 0 6 -1 7 0 7 0 8 -1 7 0 7 0 8 0 7 0 8 -1 8 0 8 0 8 0 8 0 8 0 8 0 8 0 8 0 9 0 8 0 9 0 8 0 9 0 8 0 9 0 9 0 9 0 8 1 9 0 9 0 9 0 9 -4 0 0 -9 0 -9 0 -9 0 -9 0 -8 -1 -9 0 -9 0 -8 0 -9 0 -9 0 -8 0 -9 0 -8 0 -9 0 -8 0 -8 0 -8 0 -8 0 -8 1 -8 0 -8 0 -8 0 -8 0 -7 0 -8 1 -7 0 -7 0 -8 1 -7 0 -7 0 -7 1 -6 0 -2zm0 2l0 -1 0 -1 0 2zm0 -2l3 3 0 0 0 0 0 0 0 0 0 0 -1 0 0 0 1 0 0 0 0 0 0 0 0 0 0 0 -1 0 0 0 0 0 1 0 0 0 0 0 0 0 0 0 -1 0 0 0 1 0 0 0 0 0 0 0 0 0 0 0 0 0 0 0 0 0 0 0 -3 -3 0 0 0 0 0 0 0 0 0 0 0 0 0 0 0 0 0 0 1 0 0 0 -1 0 0 0 0 0 0 0 0 0 1 0 0 0 0 0 -1 0 0 0 0 0 0 0 0 0 0 0 1 0 0 0 -1 0 0 0 0 0 0 0 0 0 0 0zm3 3l0 0 0 0 0 0z"/>
      </g>
      <polygon class="fil16" points="1816,1397 1752,1543 1864,1542 1953,1389 "/>
      <g>
       <polygon class="fil17" points="1475,1538 1955,1538 1955,1570 1475,1570 "/>
       <path id="1" class="fil3" d="M1955 1540l-480 0 0 -4 480 0 2 2 -2 2zm0 -4l2 0 0 2 -2 -2zm-1 34l0 -32 3 0 0 32 -2 2 -1 -2zm3 0l0 2 -2 0 2 -2zm-482 -1l480 0 0 3 -480 0 -2 -2 2 -1zm0 3l-2 0 0 -2 2 2zm2 -34l0 32 -4 0 0 -32 2 -2 2 2zm-4 0l0 -2 2 0 -2 2z"/>
      </g>
      <g>
       <path class="fil3" d="M1473 1539l-162 -169 3 -2 162 169 -1 3 -2 -1zm2 1l-1 0 -1 -1 2 1zm480 0l-480 0 0 -4 480 0 2 2 -2 2zm0 -4l2 0 0 2 -2 -2zm-1 2l0 0 3 0 0 0 -1 2 -2 -2zm2 2l-2 0 0 -2 2 2zm0 0l0 0 -1 -4 0 0 2 3 -1 1zm1 -1l0 1 -1 0 1 -1zm163 -169l-163 169 -3 -2 163 -169 1 -1 2 3zm-806 -2l-3 2 2 -3 18 4 19 3 21 4 22 3 23 2 24 3 25 2 26 2 26 2 28 1 27 2 28 1 29 1 29 0 29 1 29 0 29 -1 29 0 28 0 29 -1 28 -1 28 -2 27 -1 26 -2 26 -2 25 -2 24 -3 23 -3 22 -3 20 -3 20 -3 18 -4 1 3 -19 4 -19 4 -21 3 -22 3 -23 3 -24 2 -25 2 -25 2 -27 2 -27 2 -28 1 -28 1 -28 1 -29 1 -29 0 -29 0 -29 0 -29 0 -29 -1 -29 -1 -28 -1 -28 -1 -27 -2 -26 -2 -26 -2 -25 -2 -24 -2 -23 -3 -22 -3 -21 -3 -20 -4 -18 -3 2 -3z"/>
      </g>
      <polygon class="fil18" points="1251,765 1227,765 1264,1373 983,2173 1015,2173 1289,1372 "/>
      <polygon class="fil18" points="2178,752 2202,752 2164,1373 2445,2173 2413,2173 2139,1372 "/>
      <path class="fil19 str0" d="M1264 748l-24 1c-13,1 -24,12 -23,26l0 2c1,13 12,24 25,23l24 -1 -2 -51z"/>
      <path class="fil19 str0" d="M2165 748l24 1c13,1 24,12 23,26l0 2c-1,13 -12,24 -25,23l-24 -1 2 -51z"/>
      <g>
       <path class="fil3" d="M1303 1322l-4 0 3 -2 18 4 20 4 21 3 22 3 24 3 25 3 25 2 27 2 27 2 28 1 29 2 29 1 30 0 30 1 30 0 30 0 30 0 30 0 30 -1 29 -1 29 -1 29 -1 28 -2 27 -2 26 -2 26 -3 24 -2 23 -3 22 -3 21 -4 19 -3 18 -4 1 3 -18 3 -19 4 -21 3 -22 4 -23 2 -25 3 -25 2 -26 3 -28 2 -28 1 -28 2 -29 1 -30 1 -30 0 -30 1 -30 0 -30 0 -30 0 -30 -1 -30 -1 -29 -1 -29 -1 -28 -2 -28 -1 -26 -3 -26 -2 -25 -2 -24 -3 -22 -3 -21 -4 -20 -3 -18 -4 2 -1zm-4 0l0 -2 3 0 -3 2zm9 44l-2 3 -1 -1 0 -1 -1 0 0 -1 0 -1 -1 -2 0 -1 0 -1 -1 -2 0 -1 0 -2 0 -1 -1 -2 0 -2 0 -1 0 -2 0 -2 0 -2 0 -2 -1 -2 0 -1 0 -2 0 -2 0 -2 0 -1 0 -2 0 -1 0 -2 0 -1 0 -1 -1 -1 0 -1 0 -1 4 0 0 1 0 1 0 1 0 1 0 1 1 2 0 1 0 2 0 1 0 2 0 2 0 2 0 1 0 2 0 2 1 2 0 2 0 1 0 2 0 2 0 2 1 1 0 2 0 1 0 2 1 1 0 1 0 1 1 1 0 1 0 0 1 1 -1 -1zm-2 3l0 0 -1 -1 1 1zm819 -3l3 1 -1 1 -18 3 -20 4 -21 3 -22 3 -23 3 -25 2 -25 3 -26 2 -27 2 -28 1 -28 2 -29 1 -29 1 -30 0 -29 1 -30 0 -30 0 -29 -1 -30 0 -29 -1 -29 -1 -28 -1 -28 -2 -27 -2 -26 -2 -25 -2 -25 -2 -23 -3 -23 -3 -21 -3 -19 -4 -19 -3 2 -3 18 4 19 3 21 3 22 3 24 3 24 3 25 2 27 2 27 2 27 1 29 1 28 1 29 1 30 1 29 0 30 0 30 0 29 -1 30 0 29 -1 28 -1 29 -1 27 -2 27 -2 26 -2 26 -2 24 -3 23 -3 22 -3 21 -3 20 -3 18 -4 -1 1zm3 1l0 0 -1 1 1 -1zm1 -45l-1 -3 2 1 0 1 0 1 0 1 0 1 0 2 0 1 0 2 0 1 0 2 0 1 0 2 0 2 0 2 0 2 0 2 0 1 0 2 0 2 0 2 0 2 0 1 0 2 0 2 0 1 0 2 -1 1 0 1 0 1 0 1 0 1 -1 1 0 1 -3 -1 0 -1 0 0 0 -1 0 -1 1 -1 0 -1 0 -1 0 -2 0 -1 0 -2 0 -2 0 -1 0 -2 0 -2 0 -2 0 -2 0 -1 0 -2 0 -2 0 -2 0 -2 0 -2 0 -1 0 -2 0 -1 0 -2 0 -1 0 -2 1 -1 0 -1 0 -1 0 -1 2 2zm-1 -3l3 -1 -1 2 -2 -1z"/>
      </g>
      <path class="fil19 str0" d="M1305 1322l-26 0c-12,1 -22,12 -22,24l0 0c1,13 12,23 24,22l26 0 -2 -46z"/>
      <path class="fil19 str0" d="M2128 1322l25 0c13,1 23,12 22,24l0 0c0,13 -11,23 -24,22l-25 0 2 -46z"/>
      <rect class="fil14 str1" x="1700" y="1353" width="30.2118" height="1008.27"/>
     </g>
    </g>
    <rect class="fil0" x="-9990" y="2518" width="2155" height="2051"/>
    <rect class="fil0" x="-4954" y="5472" width="2155" height="2051"/>
    <path class="fil1" d="M942 7251c-21,-6 -532,124 -532,124l-151 190"/>
    <g>
     <circle class="fil0 str2" cx="1190" cy="382" r="289"/>
     <g>
      <rect class="fil20" x="1155" y="308" width="73.0665" height="160.082"/>
      <path class="fil21" d="M1267 285c6,5 12,11 18,17l0 0 0 0c9,-2 18,-4 28,-5 9,9 14,20 17,32 -7,6 -14,12 -21,19l0 0c2,8 3,16 4,25l0 0c9,4 17,8 26,13 1,12 0,24 -5,35 -10,1 -19,2 -29,3l0 0c-3,8 -7,16 -12,23l14 26c-6,11 -15,19 -26,25l-9 -5c-3,-9 -6,-16 -12,-23l0 -1c0,0 0,0 -1,-1l0 0 -1 -1 0 -1c0,0 -1,0 -1,-1l0 0 0 0c-1,0 -1,-1 -1,-1l-1 0 0 0c0,-1 0,-1 -1,-1l0 -1 -1 -1 0 0c-1,0 -1,-1 -1,-1l-1 0c0,-1 0,-1 -1,-1l0 -1c0,0 -1,0 -1,-1l0 0c-1,0 -1,-1 -1,-1l-1 0c0,0 -1,-1 -1,-1l0 0 0 0c-1,-1 -1,-1 -1,-1l-1 -1c0,0 -1,0 -1,0l0 -1c-1,0 -1,0 -1,0l0 0 -1 -1 -1 0 0 0 0 -1c22,-15 36,-41 36,-69 0,-29 -14,-54 -35,-69 11,-7 20,-16 26,-27z"/>
      <path class="fil21" d="M1115 480c-6,-5 -12,-11 -17,-17l0 0 0 0c-10,2 -19,4 -28,6 -9,-9 -15,-20 -18,-32 7,-6 14,-13 21,-19l0 0c-3,-8 -4,-17 -5,-26l0 0c-8,-4 -17,-8 -26,-12 -2,-12 0,-24 5,-36 9,-1 19,-2 28,-3l0 0c3,-8 7,-16 12,-23l-14 -25c6,-11 14,-20 25,-26l9 5c3,9 7,16 12,23l1 0c0,1 0,1 0,1l1 1 1 1 0 0c0,1 1,1 1,1l0 1 0 0c1,0 1,0 1,1l0 0 1 0c0,0 0,1 0,1l1 0 1 1 0 1c0,0 1,0 1,1l0 0c1,0 1,1 2,1l0 0c0,1 1,1 1,1l0 0c1,1 1,1 1,1l1 1c0,0 1,0 1,1l0 0 0 0c1,0 1,0 1,1l1 0c0,0 1,1 1,1l0 0c1,0 1,1 1,1l1 0 0 0 1 1 0 0 1 0c-22,16 -36,41 -36,70 1,29 15,53 36,68 -11,7 -19,17 -26,28z"/>
      <path class="fil20" d="M1226 171c26,13 44,39 44,70 0,42 -35,77 -79,77 -43,0 -79,-35 -79,-77 0,-31 19,-57 45,-70l0 62c0,5 4,8 8,8l52 0c5,0 9,-3 9,-8l0 -62z"/>
      <path class="fil20" d="M1226 594c26,-13 44,-39 44,-70 0,-42 -35,-77 -79,-77 -43,0 -79,35 -79,77 0,31 19,57 45,70l0 -62c0,-5 4,-8 8,-8l52 0c5,0 9,3 9,8l0 62z"/>
     </g>
    </g>
    <g>
     <circle class="fil0 str2" cx="559" cy="561" r="266"/>
     <g>
      <rect class="fil0 str3" x="394" y="484" width="369" height="193" rx="15" ry="15"/>
      <rect class="fil0 str3" x="375" y="465" width="369" height="193" rx="15" ry="15"/>
      <rect class="fil21" x="355" y="444" width="369" height="193" rx="15" ry="15"/>
      <circle class="fil22 str1" cx="541" cy="541" r="49"/>
      <circle class="fil22 str1" cx="440" cy="541" r="24"/>
      <circle class="fil22 str1" cx="639" cy="541" r="24"/>
      <path class="fil0" d="M413 621l249 0c0,-1 -1,-3 -1,-5 0,-21 18,-39 40,-39 2,0 5,0 8,1l0 -71c-3,0 -6,0 -8,0 -22,0 -40,-17 -40,-39 0,-3 1,-5 1,-8l-250 0c1,2 1,3 1,4 0,22 -18,40 -39,40 -2,0 -3,-1 -4,-1l0 76c1,0 2,0 4,0 21,0 39,18 39,39 0,1 0,2 0,3z"/>
      <circle class="fil23" transform="matrix(-2.75062E-014 1.03875 1.03875 2.75062E-014 539.451 540.686)" r="41"/>
      <circle class="fil23" transform="matrix(-1.16038E-014 0.438679 0.438679 1.16038E-014 458.082 540.686)" r="41"/>
      <circle class="fil23" transform="matrix(-1.16038E-014 0.438679 0.438679 1.16038E-014 626.654 540.686)" r="41"/>
     </g>
    </g>
    <g>
     <circle class="fil0 str2" cx="330" cy="1105" r="213"/>
     <g>
      <path class="fil20" d="M331 1005c52,0 95,42 95,94 0,52 -43,94 -95,94 -14,0 -27,-3 -39,-8l0 0c-16,8 -32,17 -48,25 -3,1 -5,1 -4,-3 5,-17 11,-34 16,-51l0 0c-12,-16 -19,-35 -19,-57 0,-52 42,-94 94,-94z"/>
      <path class="fil21 str4" d="M331 1215c8,0 14,4 16,11 63,-8 112,-62 112,-127 0,-71 -57,-128 -128,-128 -52,0 -96,31 -116,75l0 0c-1,1 -1,2 -1,3l-1 0c0,1 0,2 -1,3l0 0c0,1 0,2 -1,3l0 0c0,1 -1,2 -1,3l0 0c0,1 -1,2 -1,3l0 0c0,1 0,2 -1,3l0 0c0,1 0,2 -1,3l0 0c0,1 0,2 0,3l0 0c-1,1 -1,2 -1,3l0 0c0,1 0,2 -1,3l0 0c0,1 0,2 0,3l0 0c0,1 0,2 -1,3l0 0c0,2 0,3 0,4l0 0c0,1 0,2 0,3l0 0c0,1 0,2 0,3l0 0c0,1 -1,2 -1,3l0 0c0,2 0,3 0,4l0 0 0 0 0 1 0 0 0 1 0 0 0 0 0 0 0 1 0 0 0 1 0 0 1 1 0 0 0 0 0 0 0 1 0 0 0 0 0 0 0 1 0 1 0 0 0 0 0 0 0 1 0 0 0 0c0,1 0,1 0,2l0 0 0 0 0 0 0 1 0 0 0 0c1,12 4,22 7,33l0 0c1,0 1,1 1,1 0,4 -3,7 -7,7 -1,0 -2,0 -2,0 -23,-5 -39,-27 -39,-52 0,-26 16,-47 37,-52 21,-52 71,-89 130,-89 59,0 110,37 130,88 22,6 38,27 38,53 0,25 -16,47 -38,52l-1 0c-18,46 -61,79 -112,85 -2,8 -9,13 -17,13 -9,0 -17,-8 -17,-18 0,-9 8,-17 17,-17z"/>
     </g>
    </g>
    <g>
     <path class="fil24" d="M896 727c0,8 6,14 14,14 7,0 14,-6 14,-14 0,-8 -7,-14 -14,-14 -8,0 -14,6 -14,14z"/>
     <path class="fil24" d="M907 703l6 0c3,0 5,-1 5,-5l0 -10c0,-19 39,-22 39,-54 0,-22 -17,-37 -42,-37 -31,0 -45,21 -45,21 -1,2 -2,5 0,6l5 5c2,2 4,2 6,-1 5,-5 14,-16 34,-16 15,0 24,10 24,21 0,28 -37,25 -37,55l0 11c0,2 2,4 5,4z"/>
    </g>
    <g>
     <g>
      <path class="fil25" d="M1221 1835c54,-15 84,100 97,214 12,102 8,167 -3,265 -3,27 -5,53 -1,71 4,18 20,36 31,51 8,11 5,12 5,24 -1,21 -2,43 -2,65 -1,11 2,14 -15,21 -23,11 -27,19 -43,38 -14,14 -15,17 -35,18 -9,1 -8,0 -14,7 -5,7 -11,16 -17,21 -13,10 -22,-1 -18,-15 1,-2 2,-5 3,-8 10,-26 19,-51 28,-77 7,-17 -9,-28 -22,-54 -4,-6 -10,-3 -11,1 0,9 -1,19 -1,28 -1,14 -1,46 -22,51 -6,2 -8,-2 -7,-10 2,-21 1,-41 -3,-62 -2,-10 0,-14 6,-24 6,-11 7,-20 10,-32 4,-20 8,-34 31,-47 26,-15 25,-28 33,-56 4,-14 5,-27 7,-56 -6,-97 -21,-171 -61,-259 -5,-7 -15,-74 -17,-69 28,-37 -197,-92 41,-106z"/>
      <path class="fil26" d="M1349 2487l0 0 0 1 0 1 0 1 0 1 0 1 0 1 0 1 0 1 0 1 0 1 0 1 0 1 0 1 -1 1 0 1 0 1 0 1 0 1 0 1 0 1 0 1 0 1 0 1 0 1 0 1 0 1 0 1 0 1 0 1 0 1 0 1 0 1 0 1 0 1 0 1 0 2 0 1c-1,11 2,14 -15,21 -23,11 -27,19 -43,38 -14,14 -15,17 -35,18 -9,1 -8,0 -14,7 -5,7 -11,16 -17,21 -13,10 -22,-1 -18,-15 1,-2 2,-5 3,-8 10,-26 19,-51 28,-77 7,-17 -9,-28 -22,-54 -4,-6 -10,-3 -11,1 0,9 -1,19 -1,28 -1,14 -1,46 -22,51 -6,2 -8,-2 -7,-10 2,-21 1,-41 -3,-62 -2,-10 0,-14 6,-24 6,-11 7,-20 10,-32 4,-20 8,-34 31,-47 26,-15 25,-28 33,-56 4,-14 5,-27 7,-56l0 -4 0 -1 -1 -4c-5,-91 -22,-165 -60,-250 66,95 100,312 38,371 -39,26 -25,59 -8,89 5,10 10,19 17,28 4,5 9,9 14,7 14,-7 22,-9 28,8 2,6 10,9 16,1 1,-4 4,-6 6,-8 5,-3 11,-5 16,-1 1,1 3,2 5,3 13,8 18,-13 20,-21z"/>
     </g>
     <path class="fil27" d="M1105 1622c7,2 38,7 66,35 53,71 121,191 155,275 -51,51 -107,77 -161,98l-41 -130 -5 -9 2 14c1,26 2,51 3,76l0 115c-1,64 -4,127 -8,191 0,11 -2,10 6,16 7,5 11,9 4,20 -10,15 -20,15 -7,32 11,14 4,19 -14,28 -100,57 -300,55 -407,35 -31,-8 -56,-13 -25,-45 4,-6 6,-12 1,-21 -7,-12 -6,-9 -3,-23 17,-113 11,-228 9,-342 -12,33 -12,36 -17,45 -12,-4 -22,-7 -33,-10l-5 11c-16,-6 -24,-14 -27,-23 -48,-17 -94,-40 -137,-76 35,-71 112,-208 143,-257 3,-4 5,-8 9,-12 2,-5 4,-7 4,-6 8,-8 11,-9 26,-14 43,-10 86,-20 128,-29 36,77 200,71 221,-10l0 -1 95 13c10,1 14,2 18,4l0 0zm-127 -18l-6 12c3,-4 4,-8 6,-12z"/>
     <g>
      <path class="fil4" d="M1024 3539l1 0 1 0 3 1 1 0 2 0 3 1 0 0 4 0 0 0 3 1 2 0 1 0 3 1 1 0 2 0 1 0 2 0 1 0 3 1 0 0 3 0 2 0 0 0 5 1 0 0 4 0 1 0 1 0 3 1 0 0 4 0 1 0 3 0 2 0 3 0 0 0 2 1 3 0 1 0 0 0 4 0 0 0 1 0 3 0 1 0 4 0 1 0 3 0 2 0 3 0 1 0 0 0 1 0 3 0 1 0 3 0 1 0 0 0c2,0 3,0 4,0l2 0 3 -1 0 0 1 0c1,0 2,0 4,0l1 0 3 0 1 -1c1,0 3,0 4,0l1 0 3 -1 2 0c1,0 2,0 3,0l2 -1 3 0 1 0c1,-1 2,-1 4,-1l0 0 1 0 3 -1 1 0c2,0 3,-1 4,-1l0 0 0 0c2,0 3,-1 4,-1l2 -1c1,0 2,0 3,0l1 -1c1,0 2,0 4,-1l1 0c1,-1 2,-1 3,-1l1 0c1,-1 3,-1 4,-2l1 0c1,-1 3,-1 4,-2l0 0c2,0 3,-1 5,-1l0 -1c1,0 3,-1 4,-1l1 -1c1,0 3,-1 4,-1l1 -1c1,0 2,-1 3,-1l1 -1c2,0 3,-1 5,-2 -11,-31 -38,-27 -79,-27 -11,-2 -21,-5 -32,-9 -22,-8 -43,-20 -63,-32 -23,8 -46,15 -69,23 -19,17 -39,34 -58,51 34,-1 63,8 94,12z"/>
      <path class="fil21" d="M1218 3502c-14,-10 -37,-8 -66,-8 -11,-2 -21,-5 -32,-9 -20,-7 -38,-18 -57,-28 -14,11 -34,23 -42,37 -16,26 0,32 28,35 34,3 153,13 169,-27z"/>
      <path class="fil28" d="M1134 3490c-5,-2 -9,-3 -14,-5 -5,-2 -10,-4 -15,-6 -9,7 -20,15 -29,23 -3,4 -6,5 -6,10 1,8 10,9 16,10 17,3 27,-16 48,-32z"/>
      <path class="fil28" d="M1088 3471c-8,-5 -17,-10 -25,-14 -10,8 -24,17 -34,26 -11,12 1,17 12,19 17,3 24,-15 47,-31z"/>
      <path class="fil14" d="M894 3540c8,31 21,27 53,27 40,0 64,-4 97,-2 48,3 105,7 150,-11 9,-3 35,-14 37,-23 1,-3 0,-6 0,-10 -69,34 -136,28 -205,18 -32,-4 -61,-13 -96,-12 -14,4 -24,8 -36,13z"/>
      <g>
       <path class="fil4" d="M593 3576c9,13 18,26 27,39 23,26 37,24 68,21 23,-3 39,-6 61,-13 31,-10 22,-22 3,-39 -11,-11 -16,-15 -25,-29 -66,-45 -132,24 -134,21z"/>
       <path class="fil21" d="M758 3590c-2,-2 -4,-4 -6,-6 -11,-11 -16,-15 -25,-29 -46,-31 -92,-7 -116,9 15,27 25,56 59,56 13,-1 25,-2 38,-4 23,-3 51,-10 50,-26z"/>
       <path class="fil14" d="M583 3586c14,22 21,33 33,50 13,18 26,22 42,22 26,1 62,-4 86,-13 25,-9 31,-11 25,-39l0 0c1,6 -4,12 -20,17 -22,7 -38,10 -61,13 -31,3 -45,5 -68,-21l-27 -39 -10 10z"/>
       <path class="fil28" d="M651 3593c21,-6 24,-19 64,-16 9,0 14,3 14,-6 -2,-10 -5,-14 -11,-16 -10,-4 -24,-3 -35,-2 -11,2 -21,5 -31,9 -7,3 -23,11 -21,19 3,10 12,14 20,12z"/>
      </g>
     </g>
     <path class="fil29" d="M699 989c116,0 290,16 385,-40 0,27 -14,28 -37,40 21,4 44,0 68,-15 29,126 25,324 -26,443 -25,56 -50,101 -145,88 -42,-3 -168,-28 -202,-57 -40,-33 -53,-92 -82,-161 -55,7 -123,-54 -106,-120 8,-30 51,-51 71,-32 24,24 43,73 44,112 7,-12 12,-23 18,-34 9,-20 6,-21 4,-42 -6,-61 -8,-122 8,-182z"/>
     <path class="fil25" d="M751 989c112,3 251,8 333,-40 0,27 -14,28 -37,40 21,4 44,0 68,-15 29,126 25,324 -26,443 -25,56 -50,101 -145,88 -22,-2 -69,-10 -112,-21l0 0c-98,-121 -83,-347 -81,-495z"/>
     <path class="fil30" d="M821 991c95,1 198,-4 263,-42 0,27 -14,28 -37,40 21,4 44,0 68,-15 29,126 25,324 -26,443 -25,56 -50,101 -145,88 62,-37 40,-124 25,-183 13,-2 26,-4 39,-7 1,-4 2,-9 3,-13 -3,-13 -7,-25 -11,-38 -6,-24 -13,-49 -20,-73 -1,-20 -2,-41 -3,-61 -6,-57 7,-114 -51,-126 -29,-5 -72,-8 -105,-13z"/>
     <path class="fil31" d="M600 1128c-13,-47 -17,-92 -43,-125 11,-15 29,-29 53,-43 -10,-3 -19,-7 -28,-10 86,-187 238,-152 398,-125 46,10 158,46 177,-24 19,39 24,68 -1,102 21,2 31,-3 40,-19 18,87 -17,141 -67,178l0 0c-3,-31 -8,-62 -14,-88 -24,15 -47,19 -68,15 23,-12 37,-13 37,-40 -95,56 -269,40 -385,40 -16,60 -14,121 -8,182 2,21 5,22 -4,42 -6,11 -11,22 -18,34 -1,-39 -20,-88 -44,-112 -7,-6 -16,-8 -25,-7z"/>
     <path class="fil32" d="M606 962c1,-1 2,-1 4,-2 -10,-3 -19,-7 -28,-10 86,-187 238,-152 398,-125 46,10 158,46 177,-24 20,116 -73,72 -152,102 -41,14 -79,41 -109,29 29,-17 35,-29 42,-62 -46,53 -127,57 -192,60 -63,2 -123,33 -131,104 -12,-17 -22,-47 -9,-72z"/>
     <path class="fil33" d="M813 1479c0,48 10,101 -26,135 33,62 171,57 190,-9 -29,-15 -39,-54 -41,-101 -28,-3 -79,-12 -123,-25l0 0z"/>
     <path class="fil14" d="M771 1616c4,-2 9,-3 13,-3 1,0 1,0 2,0 31,64 173,59 192,-9 0,-1 1,-1 1,-1 1,0 1,0 2,0 4,0 8,1 11,3 -21,81 -185,87 -221,10z"/>
     <path class="fil34" d="M461 1934c59,60 100,74 164,99 18,-37 36,-74 55,-111 -1,136 11,272 -9,407 -3,14 -4,11 3,23 5,9 3,15 -1,21 -31,32 -6,37 25,45 107,20 307,22 407,-35 18,-9 25,-14 14,-28 -13,-17 -3,-17 7,-32 7,-11 3,-15 -4,-20 -8,-6 -6,-5 -6,-16 4,-64 7,-127 8,-191l0 -115c-1,-25 -2,-63 -4,-89l41 128c42,-17 105,-34 163,-92 -49,37 -96,57 -148,71 -32,-59 -57,-145 -69,-201 3,195 5,276 -2,471 -1,74 -45,79 -133,123 50,-14 77,-25 124,-46 28,91 -408,101 -410,10 45,22 89,34 126,36 -29,-12 -76,-27 -101,-45 -18,-13 -21,-27 -18,-62 9,-181 16,-427 -28,-598 4,105 -1,178 -33,282 -8,26 -10,43 -35,35 -61,-31 -79,-32 -136,-70z"/>
     <path class="fil35" d="M671 2420c-25,127 -14,373 -39,531 -2,11 -3,8 2,17 4,8 5,13 1,20 -5,10 -5,6 -7,18 -19,155 -38,310 -57,465 -2,16 -3,22 -1,37 3,28 6,56 10,84 48,-43 95,-64 158,-30 4,-19 7,-38 10,-57 4,-21 2,-24 0,-44 -4,-33 -6,-70 -6,-99 -1,-312 24,-304 54,-506 10,-48 19,-97 28,-146 10,-51 19,-103 29,-154 32,-13 49,-21 83,-27 20,102 -7,319 -17,432 -25,191 -43,388 -25,581 53,-28 75,-11 138,-68 11,-7 29,-22 29,-22 -1,-11 0,-22 -1,-33 -2,-11 -3,-8 -10,-16 -19,-22 -18,-60 -24,-103 0,0 6,-210 6,-221 0,-11 34,-134 34,-134 4,-13 7,-26 11,-39 1,-12 3,-24 4,-35 11,-92 23,-183 34,-274 4,-54 7,-108 11,-162 -2,-14 -3,-28 -5,-42 -8,-1 -17,-3 -26,-4 -103,51 -294,48 -397,29 -6,-2 -12,-3 -17,-5 -3,3 -7,5 -10,7z"/>
     <path class="fil36" d="M691 2439c-1,16 -3,35 -5,52 22,11 45,20 67,31 -24,2 -49,5 -73,7 0,2 -1,4 -1,7 14,3 28,7 43,10 -12,4 -24,8 -36,13 -4,124 -8,249 -12,373 26,20 53,37 94,50 26,-143 51,-289 77,-432 2,-13 0,-11 13,-14 33,-11 111,-44 138,-44 -5,6 -9,11 -14,17 -14,17 -10,13 -8,35 10,97 6,171 2,275 -3,38 -7,76 -10,114 2,14 26,27 61,30 30,3 30,-8 36,-45 22,-136 36,-260 48,-400 -18,-12 -20,-10 -42,-12 11,-5 36,-14 53,-13 -2,-29 -4,-58 -6,-87 -106,77 -382,59 -425,33z"/>
     <path class="fil37" d="M978 1126c4,61 21,106 43,162 24,56 -74,45 -99,1 17,13 37,21 54,22 30,3 32,-2 21,-26 -26,-69 -31,-100 -19,-159z"/>
     <path class="fil38" d="M904 1056c-6,-1 -12,0 -18,2 -16,6 -31,17 -45,26 -17,11 -33,23 -46,38 -3,5 3,12 9,7 16,-13 45,-26 64,-31 31,-10 48,-4 51,-14 3,-8 -5,-26 -15,-28z"/>
     <path class="fil38" d="M1015 1077c-3,10 9,13 25,18 20,7 37,17 53,30 7,5 11,12 16,11 7,-3 5,-9 1,-15 -9,-13 -56,-69 -81,-62 -7,1 -13,12 -14,18z"/>
     <path class="fil39" d="M630 1201c-30,-24 -47,42 6,59 -51,2 -64,-62 -28,-78 -10,-26 -36,-4 -36,13 -6,-64 65,-42 58,6z"/>
     <g>
      <ellipse class="fil40" cx="849" cy="1175" rx="23" ry="28"/>
      <ellipse class="fil0" cx="839" cy="1163" rx="9" ry="11"/>
      <path class="fil41" d="M849 1137c17,0 30,15 30,33 0,17 -12,31 -27,33 12,-2 21,-14 21,-28 0,-16 -11,-28 -24,-28 -12,0 -23,12 -23,28 0,14 9,26 21,28 -15,-2 -27,-16 -27,-33 0,-18 13,-33 29,-33z"/>
     </g>
     <g>
      <ellipse class="fil40" cx="1063" cy="1176" rx="23" ry="27"/>
      <ellipse class="fil0" cx="1053" cy="1165" rx="9" ry="10"/>
      <path class="fil41" d="M1063 1139c16,0 29,14 29,32 0,17 -12,30 -26,32 11,-2 20,-13 20,-27 0,-15 -10,-27 -23,-27 -12,0 -22,12 -22,27 0,14 9,25 20,27 -14,-2 -26,-15 -26,-32 0,-18 13,-32 28,-32z"/>
     </g>
     <path class="fil14" d="M663 2405c0,17 24,27 56,33 120,24 289,11 367,-24 17,-6 49,-18 36,-41l0 0c-3,3 -9,6 -17,10 -100,57 -300,55 -407,35 -15,-4 -29,-7 -35,-13l0 0z"/>
     <path class="fil42" d="M1058 1413c-26,-76 -139,-62 -172,21 52,-53 107,-90 172,-21z"/>
     <path class="fil43" d="M466 1938c-1,5 -3,10 -5,14 50,47 113,76 189,91 2,-5 5,-9 7,-13 -66,-20 -132,-44 -191,-92l0 0z"/>
     <path class="fil14" d="M1161 2020c2,9 3,13 11,10 64,-25 108,-49 154,-98 1,-2 1,-3 -2,-4l0 0c-51,51 -109,71 -163,92z"/>
     <path class="fil33" d="M814 1479c0,6 0,13 0,19l0 0c48,36 75,54 133,71l0 0c-7,-18 -11,-40 -11,-65 -29,-3 -79,-12 -122,-25l0 0z"/>
     <g>
      <path class="fil44" d="M848 1717c6,-7 13,-10 23,-13 14,-3 28,-8 43,-12 -10,-13 -16,-23 -16,-23l7 -83c0,0 24,-18 48,-36 -7,-4 4,-13 5,-16 1,-3 7,-20 10,-23 0,-1 1,-2 3,-4 14,0 26,-1 37,-3 18,-19 30,-30 47,-56 8,-11 0,-17 -9,-20 -15,-3 -26,0 -41,11 -23,17 -56,41 -83,63 -17,11 -26,15 -41,24 -15,8 -22,8 -27,-5 -7,-15 -8,-29 -22,-49 -19,-30 -53,-26 -50,-13 1,12 4,8 5,20 1,29 2,58 3,87 -2,22 -4,45 -6,67 -1,7 -2,12 -3,18 20,20 44,45 67,66z"/>
      <path class="fil29" d="M535 1996c0,0 7,56 7,58 8,71 29,84 60,71 22,-9 58,-33 73,-51 22,-29 33,-69 53,-113 34,-69 68,-137 101,-206 13,-21 20,-26 36,-30 38,-9 86,-27 111,-40 12,-5 16,-25 8,-33 -5,-4 -11,-5 -4,-12 12,-12 13,-25 -6,-28 -7,-3 -9,-13 -4,-16 18,-20 2,-26 -8,-36 -10,-9 -5,-11 3,-20 28,-30 56,-61 83,-91 11,-17 -21,-16 -31,-8 -20,15 -68,55 -102,82 -21,18 -36,30 -59,45 -11,6 -23,5 -24,-14 1,-86 -56,-127 -54,-88 1,11 2,22 3,34 1,29 2,58 2,87 -1,22 -3,45 -5,67 -7,27 -5,43 -18,66 -57,100 -127,196 -197,291 -9,-5 -18,-10 -28,-15z"/>
      <path class="fil30" d="M833 1561c-1,-2 -1,-4 -1,-7 1,-86 -56,-127 -54,-88 1,11 2,22 3,34 1,29 2,58 2,87l0 3 1 0c21,1 37,-11 49,-28l0 -1z"/>
      <path class="fil30" d="M962 1692c5,-2 10,-4 14,-7 12,-5 16,-25 8,-33 -5,-4 -11,-5 -4,-12 12,-12 13,-25 -6,-28 -7,-3 -9,-13 -4,-16 18,-20 2,-26 -8,-36 -10,-9 -5,-11 3,-20 28,-30 56,-61 83,-91 11,-17 -21,-16 -31,-8 -20,15 -68,55 -102,82 -15,13 -27,23 -41,32 5,8 4,8 5,17 1,13 7,10 16,11 15,2 14,6 13,12 0,4 1,11 2,15 2,8 16,11 24,16 9,6 9,11 11,26 0,7 3,8 8,10 10,5 11,19 8,29l1 1z"/>
     </g>
    </g>
    <g>
     <path class="fil14" d="M136 631c0,34 28,62 62,62 35,0 62,-28 62,-62 0,-34 -27,-62 -62,-62 -34,0 -62,28 -62,62z"/>
     <path class="fil14" d="M185 525l29 0c11,0 23,-6 23,-21l0 -45c0,-89 172,-101 172,-243 0,-100 -76,-166 -189,-166 -137,0 -199,96 -199,96 -6,8 -8,20 0,28l21 18c10,9 18,9 28,-1 22,-23 62,-74 150,-74 70,0 107,45 107,96 0,122 -163,112 -163,246l0 46c0,12 10,20 21,20z"/>
    </g>
    <g>
     <path class="fil14" d="M695 299c0,10 9,19 20,19 11,0 19,-9 19,-19 0,-11 -8,-20 -19,-20 -11,0 -20,9 -20,20z"/>
     <path class="fil14" d="M711 265l9 0c4,0 7,-2 7,-7l0 -14c0,-28 54,-32 54,-76 0,-32 -24,-53 -59,-53 -43,0 -63,30 -63,30 -2,3 -2,7 0,9l7 6c3,3 6,3 9,0 6,-7 19,-23 47,-23 22,0 34,14 34,30 0,38 -52,35 -52,77l0 15c0,3 3,6 7,6z"/>
    </g>
    <g>
     <path class="fil14" d="M160 882c0,8 6,14 14,14 8,0 15,-6 15,-14 0,-8 -7,-15 -15,-15 -8,0 -14,7 -14,15z"/>
     <path class="fil14" d="M171 857l7 0c3,0 5,-2 5,-5l0 -11c0,-21 41,-23 41,-57 0,-23 -18,-39 -45,-39 -32,0 -46,23 -46,23 -2,2 -2,4 0,6l4 5c3,2 5,2 7,-1 5,-5 15,-17 35,-17 17,0 26,10 26,22 0,29 -39,27 -39,58l0 11c0,3 3,5 5,5z"/>
    </g>
    <circle class="fil1 str2" cx="561" cy="1407" r="84"/>
    <circle class="fil1 str2" cx="426" cy="1528" r="35"/>
    <circle class="fil1 str2" cx="591" cy="1606" r="35"/>
   </g>
  </g>
  <polygon class="fil1" points="0,0 2455,0 2455,2117 0,2117 "/>
 </g>
</svg>
