<?xml version="1.0" encoding="UTF-8"?>
<!DOCTYPE svg PUBLIC "-//W3C//DTD SVG 1.1//EN" "http://www.w3.org/Graphics/SVG/1.1/DTD/svg11.dtd">
<!-- Creator: CorelDRAW X7 -->
<svg xmlns="http://www.w3.org/2000/svg" xml:space="preserve" width="5.51307in" height="4.75389in" version="1.1" style="shape-rendering:geometricPrecision; text-rendering:geometricPrecision; image-rendering:optimizeQuality; fill-rule:evenodd; clip-rule:evenodd"
viewBox="0 0 106302 91663"
 xmlns:xlink="http://www.w3.org/1999/xlink">
 <defs>
  <style type="text/css">
   <![CDATA[
    .str1 {stroke:#09415C;stroke-width:133.91}
    .str0 {stroke:#B3B3B3;stroke-width:133.91}
    .str2 {stroke:#09415C;stroke-width:57.8453}
    .fil1 {fill:none}
    .fil25 {fill:#00CCFF}
    .fil17 {fill:#09415C}
    .fil18 {fill:#0E5979}
    .fil6 {fill:#1A1A1A}
    .fil16 {fill:#2F84C4}
    .fil7 {fill:#333333}
    .fil15 {fill:#3FA9F5}
    .fil27 {fill:#3FA9F5}
    .fil22 {fill:#4D1D07}
    .fil28 {fill:#4D4D4D}
    .fil12 {fill:#581504}
    .fil13 {fill:#792407}
    .fil26 {fill:#79E4FF}
    .fil20 {fill:#822D08}
    .fil24 {fill:#B71000}
    .fil5 {fill:#CCCCCC}
    .fil29 {fill:#E18244}
    .fil19 {fill:#E65A1C}
    .fil9 {fill:#E6E6E6}
    .fil8 {fill:#E7E7E7}
    .fil21 {fill:#F2662B}
    .fil14 {fill:#F37542}
    .fil4 {fill:#F7844D}
    .fil3 {fill:#FA824E}
    .fil23 {fill:#FB844C}
    .fil11 {fill:#FE9554}
    .fil10 {fill:#FEAD6C}
    .fil2 {fill:#FFA161}
    .fil0 {fill:white}
   ]]>
  </style>
   <clipPath id="id0">
    <path d="M0 0l106302 0 0 91663 -106302 0 0 -91663z"/>
   </clipPath>
 </defs>
 <g id="Layer_x0020_1">
  <metadata id="CorelCorpID_0Corel-Layer"/>
  <g>
  </g>
  <g style="clip-path:url(#id0)">
   <g>
    <rect class="fil0" x="-344014" y="106026" width="77161" height="73461"/>
    <rect class="fil0" x="-163662" y="211807" width="77161" height="73461"/>
    <path class="fil1" d="M47506 275510c-744,-186 -19058,4462 -19058,4462l-5392 6787"/>
    <rect class="fil0" x="-432598" y="109030" width="93297" height="88824"/>
    <rect class="fil0" x="-214531" y="236932" width="93297" height="88824"/>
    <path class="fil1" d="M40797 313957c-899,-225 -23043,5395 -23043,5395l-6520 8206"/>
    <circle class="fil0 str0" cx="24066" cy="45746" r="16363"/>
    <circle class="fil0 str0" cx="43602" cy="15531" r="15236"/>
    <g id="_885956168">
     <g>
      <path class="fil2" d="M82621 77519c1065,1022 2036,1955 3101,2977 303,242 445,123 706,-187 1421,-1691 3577,-4532 4851,-6060 642,-1100 -1472,-2200 318,-5645 747,-1905 758,-3714 64,-5638 -166,-1036 141,-1413 1008,-1330 1863,415 1822,1584 1629,3152 -85,478 -165,960 -257,1436 -178,1071 296,1184 906,969 560,-196 558,-402 979,-655 846,-508 1605,219 1503,1094 -31,271 -92,302 203,286 1523,174 418,1531 976,1780 601,139 486,762 322,1104 -144,273 -49,333 48,400 345,241 223,801 26,1223 -416,894 -2140,2457 -3118,2558 -726,35 -1345,-46 -1895,474 -207,197 -403,437 -613,727 -1866,3136 -3848,6134 -6056,8956 -650,774 -756,971 -1619,456 -1601,-1079 -3202,-2158 -4803,-3238 0,0 -1093,-3130 -750,-3344 343,-215 2471,-1495 2471,-1495z"/>
      <path class="fil3" d="M92926 76936c-1733,2865 -3573,5608 -5604,8204 -650,774 -756,971 -1619,456 -1601,-1079 -3202,-2158 -4803,-3238 0,0 -1093,-3130 -750,-3344 219,-137 1167,-709 1823,-1105l442 132c-247,1069 -493,2137 -740,3206 -57,175 -114,350 -171,525 1411,979 2823,1958 4234,2937 780,449 1054,330 1791,-482 71,-79 5392,-7284 5397,-7291z"/>
      <path class="fil3" d="M95300 67239c-868,667 -2631,1218 -2134,2305 268,944 712,2300 172,3184 774,67 1972,143 2605,611 1256,824 1934,-65 2884,-868 81,-81 97,-166 -11,-102 -566,348 -1114,723 -1720,992 -792,245 -1135,-597 -558,-912 481,-262 832,-449 1297,-734 402,-278 201,-367 -162,-191 -410,198 -864,455 -1430,775 -916,417 -1422,-281 -793,-895 608,-549 1464,-1010 2171,-1442 35,-27 15,-66 -2,-75 -31,-16 -100,11 -147,33 -840,378 -1611,891 -2427,1300 -760,380 -1364,-572 -602,-1123 205,-149 448,-283 616,-408 500,-361 1001,-722 1501,-1083 -1384,618 -1504,1088 -2192,1088 -308,0 -592,-349 -640,-632 -50,-298 127,-449 325,-631 432,-396 1166,-1087 1247,-1192z"/>
     </g>
     <g>
      <path class="fil2" d="M48055 78983c-2519,-697 -3886,4573 -4489,9827 -540,4709 -382,7701 140,12207 146,1264 232,2445 48,3306 -169,798 -931,1643 -1415,2320 -369,516 -260,585 -249,1104 36,995 73,1990 109,2985 34,513 -100,671 678,990 1044,525 1222,890 1960,1733 644,658 694,796 1622,836 440,58 369,-6 635,353 232,314 516,715 815,946 595,460 1019,-42 794,-672 -38,-107 -85,-238 -132,-406 -429,-1176 -857,-2352 -1286,-3527 -291,-785 427,-1274 1008,-2470 222,-317 472,-150 510,6 21,443 43,885 64,1328 53,616 30,2095 1000,2332 308,97 379,-93 344,-469 -90,-963 -69,-1861 137,-2867 86,-425 -7,-643 -269,-1075 -308,-506 -356,-919 -477,-1493 -192,-904 -365,-1555 -1450,-2174 -1172,-668 -1148,-1260 -1518,-2575 -182,-649 -216,-1245 -304,-2546 282,-4477 964,-7903 2810,-11936 232,-352 687,-3429 802,-3205 -1306,-1703 9056,-4227 -1887,-4858z"/>
      <path class="fil4" d="M42135 108984l1 23 1 46 2 47 2 46 2 47 1 47 2 46 2 47 1 47 2 46 2 47 2 47 1 46 2 47 2 47 1 46 2 47 2 46 2 47 1 47 2 46 2 47 1 47 2 46 2 47 2 47 1 46 2 47 1 47 2 46 2 47 2 46 1 47 2 47 2 46 1 47 2 47 2 46c34,513 -100,671 678,990 1044,525 1222,890 1960,1733 644,658 694,796 1622,836 440,58 369,-6 635,353 233,314 516,715 815,946 595,460 1019,-42 794,-672 -38,-107 -85,-238 -132,-406 -429,-1176 -857,-2352 -1286,-3527 -291,-785 427,-1274 1008,-2470 222,-317 472,-150 510,6 21,443 43,885 64,1328 53,616 30,2095 1000,2332 308,97 379,-93 344,-469 -90,-963 -69,-1861 137,-2867 86,-425 -7,-643 -269,-1075 -308,-506 -356,-919 -477,-1493 -192,-904 -365,-1555 -1450,-2174 -1172,-668 -1148,-1260 -1518,-2575 -182,-649 -216,-1245 -304,-2546l14 -216 2 -31 13 -184c265,-4185 1016,-7629 2781,-11505 -3023,4380 -4616,14361 -1747,17096 1771,1159 1132,2682 383,4059 -255,468 -481,876 -810,1298 -191,244 -404,438 -634,327 -663,-294 -1001,-408 -1306,396 -95,238 -435,406 -709,22 -76,-158 -183,-271 -294,-345 -218,-146 -485,-235 -721,-84 -77,50 -136,111 -245,170 -614,332 -816,-594 -922,-1001z"/>
     </g>
     <path class="fil5" d="M43724 157781c11250,-1640 26800,-2730 38376,-2730 15288,0 15665,4896 1160,8269 -10377,2416 -16267,-1081 -27775,5116 -6278,3381 -12997,5576 -19184,768 -7593,-5899 -6550,-9385 7423,-11423z"/>
     <g>
      <path class="fil6" d="M70167 158610l55 8 15 2 153 21 55 8 98 14 125 17 28 3 153 21 41 5 111 15 111 14 42 6 153 19 27 3 125 15 38 5 107 12 7 1 152 18 15 2 137 15 85 9 23 2 197 20 1 0 187 18 87 8 28 2 141 12 11 1 187 15 63 5 114 8 91 6 151 9 10 0 86 5 125 6 67 3 15 1 151 6 8 0 74 2 137 4 51 1 188 3 54 1 144 0 70 0 151 -1 30 -1 6 0 41 -1 140 -3 84 -2 129 -5 46 -2 7 0c60,-3 120,-6 179,-10l73 -4 147 -10 33 -2 21 -2c57,-4 114,-9 171,-14l78 -7 126 -13 59 -6c63,-6 126,-14 189,-22l51 -6 142 -19 69 -10c58,-8 116,-17 173,-26l65 -11 143 -24 56 -10c62,-11 124,-23 186,-35l10 -2 24 -5 158 -33 67 -15c60,-13 120,-27 180,-41l10 -2 4 -1c62,-15 124,-31 186,-47l64 -16c55,-15 110,-30 166,-45l25 -7c63,-18 126,-37 189,-56l63 -19c53,-16 105,-33 157,-50l34 -10c66,-22 133,-45 199,-68l37 -13c58,-20 117,-42 176,-63l29 -11c68,-26 136,-52 204,-79l26 -10c57,-23 114,-47 172,-71l48 -20c64,-27 128,-55 192,-83l41 -19c54,-24 107,-49 160,-74l55 -26c65,-31 130,-62 194,-94 -474,-1489 -1751,-1304 -3708,-1304 -519,-77 -1018,-215 -1502,-394 -1047,-386 -2026,-961 -2989,-1519 -1082,358 -2164,715 -3245,1073 -927,811 -1854,1622 -2782,2433 1626,-83 3001,351 4467,566z"/>
      <path class="fil7" d="M79315 156837c-660,-479 -1707,-386 -3097,-386 -519,-77 -1018,-215 -1502,-394 -946,-348 -1835,-851 -2708,-1356 -664,515 -1601,1120 -1977,1750 -760,1242 11,1519 1333,1651 1575,185 7227,633 7951,-1265z"/>
      <path class="fil8" d="M75342 156261c-212,-59 -420,-128 -626,-204 -238,-87 -472,-185 -704,-289 -443,335 -977,706 -1384,1095 -161,154 -292,233 -275,463 24,351 438,426 748,480 786,138 1253,-769 2241,-1545z"/>
      <path class="fil8" d="M73189 155362c-399,-211 -792,-436 -1181,-661 -493,382 -1136,814 -1588,1269 -527,529 29,775 552,866 815,142 1149,-681 2217,-1474z"/>
      <path class="fil9" d="M64005 158653c370,1439 1006,1246 2506,1246 1914,0 3014,-149 4606,-63 2261,121 4948,307 7106,-515 413,-158 1621,-657 1732,-1099 36,-144 10,-298 -29,-467 -3231,1614 -6422,1326 -9689,865 -1492,-211 -2885,-661 -4537,-576 -622,178 -1096,362 -1695,609z"/>
      <g>
       <path class="fil6" d="M49793 160352c420,613 840,1226 1260,1839 1104,1239 1745,1121 3216,1000 1114,-129 1865,-288 2912,-637 1420,-474 1013,-1024 131,-1811 -551,-541 -786,-746 -1188,-1405 -3121,-2103 -6244,1141 -6331,1014z"/>
       <path class="fil7" d="M57583 160994c-83,-81 -174,-165 -271,-251 -551,-541 -786,-746 -1188,-1405 -2183,-1472 -4368,-326 -5513,452 745,1260 1189,2654 2826,2616 605,-14 1160,-80 1760,-168 1097,-162 2413,-469 2386,-1244z"/>
       <path class="fil9" d="M49315 160830c656,1048 1008,1541 1550,2354 595,840 1246,1036 2014,1061 1202,38 2918,-216 4027,-619 1221,-444 1469,-520 1203,-1865l0 0c38,297 -214,555 -928,793 -1047,349 -1798,508 -2912,637 -1471,121 -2112,239 -3216,-1000l-1254 -1830 -484 469z"/>
       <path class="fil8" d="M52505 161141c1009,-272 1135,-877 3024,-761 464,0 667,140 667,-282 -75,-472 -230,-657 -496,-752 -461,-163 -1163,-123 -1644,-67 -555,64 -1014,195 -1502,417 -301,137 -1058,508 -961,885 125,485 546,673 912,560z"/>
      </g>
     </g>
     <path class="fil10" d="M54781 38005c5486,0 13713,760 18210,-1890 0,1308 -636,1331 -1738,1890 992,213 2069,0 3216,-717 1345,5981 1196,15364 -1231,20955 -1163,2680 -2387,4785 -6844,4172 -2000,-130 -7976,-1340 -9565,-2679 -1873,-1580 -2511,-4374 -3895,-7628 -2588,354 -5804,-2562 -4980,-5688 374,-1420 2381,-2416 3335,-1480 1124,1102 2040,3438 2080,5278 336,-571 586,-1075 838,-1624 426,-931 279,-962 187,-1974 -267,-2900 -344,-5764 387,-8615z"/>
     <path class="fil2" d="M57266 38039c5263,113 11867,350 15725,-1924 0,1308 -636,1331 -1738,1890 992,213 2069,0 3216,-717 1345,5981 1196,15364 -1231,20955 -1163,2680 -2387,4785 -6844,4172 -1067,-69 -3266,-446 -5327,-986l0 0c-4638,-5749 -3916,-16413 -3801,-23390z"/>
     <path class="fil11" d="M60568 38101c4504,45 9340,-169 12423,-1986 0,1308 -636,1331 -1738,1890 992,213 2069,0 3216,-717 1345,5981 1196,15364 -1231,20955 -1163,2680 -2387,4785 -6844,4172 2917,-1741 1867,-5841 1190,-8626 609,-117 1218,-234 1826,-351 51,-210 102,-420 152,-630 -174,-594 -347,-1188 -521,-1782 -319,-1152 -637,-2304 -956,-3455 -51,-960 -102,-1919 -153,-2878 -288,-2683 330,-5396 -2411,-5945 -1375,-275 -3399,-382 -4953,-647z"/>
     <path class="fil12" d="M50104 44590c-598,-2217 -782,-4340 -2019,-5901 534,-708 1360,-1374 2477,-2042 -435,-160 -869,-319 -1304,-479 4080,-8857 11241,-7202 18840,-5888 2179,438 7433,2181 8366,-1152 882,1858 1115,3194 -65,4846 1002,80 1461,-158 1880,-902 867,4118 -803,6665 -3162,8422l-1 0c-143,-1509 -361,-2935 -647,-4206 -1147,717 -2224,930 -3216,717 1102,-559 1738,-582 1738,-1890 -4497,2650 -12724,1890 -18210,1890 -731,2851 -654,5715 -387,8615 92,1012 239,1043 -187,1974 -252,549 -502,1053 -838,1624 -40,-1840 -956,-4176 -2080,-5278 -313,-307 -740,-406 -1185,-350z"/>
     <path class="fil13" d="M50388 36752c57,-35 115,-70 174,-105 -435,-160 -869,-319 -1304,-479 4080,-8857 11241,-7202 18840,-5888 2179,438 7433,2181 8366,-1152 953,5475 -3444,3400 -7224,4806 -1892,704 -3731,1951 -5110,1409 1327,-832 1639,-1379 1956,-2934 -2156,2507 -5996,2664 -9072,2803 -2991,117 -5802,1569 -6215,4933 -523,-798 -1030,-2241 -411,-3393z"/>
     <path class="fil2" d="M60184 61184c18,2263 451,4763 -1243,6411 1567,2917 8085,2683 9010,-468 -1371,-696 -1869,-2556 -1939,-4745 -1345,-139 -3760,-592 -5828,-1198l0 0z"/>
     <path class="fil14" d="M60184 61184c2,306 12,616 24,928l0 0c2308,1691 3587,2572 6356,3382l0 0c-353,-857 -514,-1937 -552,-3112 -1345,-139 -3760,-592 -5828,-1198l0 0z"/>
     <path class="fil9" d="M58207 67644c186,-90 396,-140 619,-140 23,0 46,0 68,1 1487,3028 8192,2804 9072,-427 26,-3 53,-5 80,-7 26,-1 54,-2 81,-2 192,0 374,38 540,105 -1024,3866 -8768,4133 -10460,470z"/>
     <path class="fil15" d="M58207 67644c-2018,468 -4035,935 -6053,1402 -823,254 -887,269 -1401,848 -2909,3886 -5578,8054 -8367,12082 2803,2817 5901,4243 8888,5389 869,-1738 1738,-3477 2607,-5215 -17,6415 530,12861 -435,19231 -114,661 -176,522 174,1087 212,418 148,715 -43,977 -1473,1520 -307,1783 1173,2130 5061,954 14523,1050 19253,-1630 841,-420 1170,-685 630,-1325 -618,-812 -125,-812 348,-1522 356,-534 168,-728 -173,-963 -409,-283 -305,-218 -298,-737 339,-6017 591,-12035 232,-18052 1564,1304 3129,2607 4694,3911 1125,-2775 3039,-6609 3477,-9459 -2850,-2269 -5484,-4619 -8117,-7214 -787,-670 -626,-683 -1645,-819l-4497 -596 13 5c-1024,3866 -8768,4133 -10460,470zm9759 -566l-248 600c105,-187 190,-387 248,-600z"/>
     <path class="fil16" d="M42386 81976c2803,2817 5901,4243 8888,5389 869,-1738 1738,-3477 2607,-5215 -17,6415 530,12861 -435,19231 -114,661 -176,522 174,1087 212,418 148,715 -43,977 -1473,1520 -307,1783 1173,2130 5061,954 14523,1050 19253,-1630 841,-420 1170,-685 630,-1325 -618,-812 -125,-812 348,-1522 356,-534 168,-728 -173,-963 -409,-283 -305,-218 -298,-737 339,-6017 591,-12035 232,-18052 1564,1304 3129,2607 4694,3911 1050,-2592 2789,-6106 3371,-8881 -1437,4213 -2623,6390 -3638,7084 -1040,622 -2655,-1985 -3046,-2791 -1082,-2232 -1896,-5852 -2149,-9765 165,9190 336,18435 22,27619 -73,3541 -2149,3757 -6280,5824 2362,-641 3645,-1148 5867,-2173 1321,4330 -19324,4779 -19426,499 2130,1031 4235,1584 5997,1674 -1395,-546 -3625,-1243 -4794,-2113 -837,-623 -969,-1296 -864,-2920 428,-8549 789,-20212 -1306,-28302 192,4958 -41,8448 -1583,13366 -379,1211 -472,2005 -1622,1628 -2960,-1162 -4905,-2251 -7599,-4030z"/>
     <path class="fil9" d="M79436 85257c221,112 442,225 663,337 326,154 385,24 616,-549 1297,-3205 1955,-5183 2718,-8668 113,-469 -32,-453 -520,-579 -438,2850 -2352,6684 -3477,9459z"/>
     <path class="fil17" d="M53470 105702c-1199,5989 -658,17608 -1858,25112 -82,512 -134,355 111,783 207,360 219,620 43,950 -244,458 -248,300 -317,863 -904,7329 -1808,14658 -2713,21986 -90,738 -115,1009 -35,1749 143,1322 299,2624 482,3950 2259,-2015 4493,-3024 7475,-1434 152,-891 304,-1782 456,-2673 168,-987 96,-1114 -19,-2092 -182,-1541 -263,-3290 -263,-4666 -49,-14752 1116,-14399 2558,-23928 472,-2286 899,-4587 1322,-6889 448,-2437 892,-4875 1377,-7298 1501,-610 2308,-1002 3912,-1260 961,4808 -342,15068 -805,20418 -1182,9016 -2040,18330 -1195,27475 2502,-1348 3580,-533 6519,-3216 521,-348 1391,-1043 1391,-1043 -30,-549 9,-1059 -57,-1586 -62,-504 -127,-376 -441,-737 -913,-1051 -877,-2818 -1154,-4892 0,0 261,-9908 261,-10430 0,-522 1630,-6345 1630,-6345 166,-609 333,-1217 500,-1826 68,-561 137,-1122 206,-1684 534,-4317 1068,-8634 1602,-12951 174,-2550 348,-5099 522,-7649 -71,-655 -143,-1311 -214,-1966 -419,-72 -839,-144 -1259,-216 -4869,2411 -13867,2290 -18757,1368 -281,-66 -551,-129 -793,-198 -162,108 -325,217 -487,325z"/>
     <path class="fil18" d="M54408 106566c-58,789 -149,1688 -207,2477 1038,519 2108,927 3140,1456 -1151,116 -2303,232 -3455,348 -14,101 -29,203 -43,304 673,167 1347,333 2021,500 -558,195 -1116,391 -1673,587 -196,5888 -392,11777 -587,17666 1255,942 2493,1736 4465,2352 1199,-6774 2413,-13655 3613,-20433 110,-620 5,-494 612,-677 1587,-480 5275,-2071 6542,-2038 -215,256 -430,511 -645,767 -674,801 -495,627 -391,1685 452,4592 294,8051 101,12998 -166,1789 -333,3579 -500,5368 114,681 1258,1282 2908,1429 1417,146 1430,-388 1700,-2105 1019,-6459 1717,-12314 2281,-18947 -854,-559 -961,-444 -1978,-543 513,-242 1656,-656 2479,-600 -88,-1387 -175,-2773 -262,-4159 -5016,3664 -18102,2800 -20121,1565z"/>
     <path class="fil19" d="M67974 44476c203,2929 986,5055 2043,7671 1144,2643 -3492,2149 -4694,65 834,624 1773,966 2577,1035 1406,121 1484,-112 965,-1252 -1228,-3238 -1454,-4721 -891,-7519z"/>
     <path class="fil20" d="M64873 41856c-232,-119 -522,-135 -820,-111 -805,64 -1640,335 -2410,571 -911,279 -1806,612 -2599,1130 -172,166 -11,594 358,439 877,-397 2356,-583 3313,-591 1517,-20 2233,473 2489,72 218,-342 125,-1274 -331,-1510z"/>
     <path class="fil20" d="M69534 43201c68,467 653,389 1450,308 1005,-103 1914,20 2840,271 396,92 748,326 933,154 245,-227 16,-467 -245,-634 -652,-415 -3754,-1939 -4704,-1173 -250,201 -319,768 -274,1074z"/>
     <path class="fil21" d="M51528 48042c-1400,-1144 -2234,1977 282,2814 -2386,62 -3015,-2965 -1336,-3694 -443,-1267 -1666,-220 -1684,587 -295,-3011 3068,-1969 2738,293z"/>
     <g>
      <ellipse class="fil22" cx="61908" cy="46810" rx="1108" ry="1326"/>
      <ellipse class="fil0" cx="61411" cy="46261" rx="422" ry="505"/>
      <path class="fil23" d="M61908 45012c762,0 1380,699 1380,1561 0,819 -557,1490 -1266,1556 558,-69 994,-633 994,-1319 0,-732 -496,-1326 -1108,-1326 -612,0 -1109,594 -1109,1326 0,686 436,1250 994,1319 -708,-66 -1265,-737 -1265,-1556 0,-862 617,-1561 1380,-1561z"/>
     </g>
     <g>
      <ellipse class="fil22" cx="72029" cy="46856" rx="1070" ry="1279"/>
      <ellipse class="fil0" cx="71550" cy="46327" rx="408" ry="488"/>
      <path class="fil23" d="M72028 45121c736,0 1333,674 1333,1506 0,791 -538,1438 -1222,1502 539,-66 959,-611 959,-1273 0,-706 -479,-1279 -1070,-1279 -590,0 -1069,573 -1069,1279 0,662 420,1207 959,1273 -684,-64 -1221,-711 -1221,-1502 0,-832 596,-1506 1331,-1506z"/>
     </g>
     <path class="fil9" d="M53078 104971c-6,792 1134,1271 2643,1571 5684,1130 13679,491 17357,-1143 818,-273 2328,-864 1700,-1955l0 0c-144,166 -411,319 -775,501 -4730,2680 -14192,2584 -19253,1630 -722,-170 -1369,-319 -1672,-604l0 0z"/>
     <path class="fil9" d="M51274 87365c-71,475 -128,714 -574,536 -3513,-1338 -5898,-3013 -8441,-5686 -42,-85 -14,-154 145,-221l0 0c2799,2805 5889,4227 8870,5371z"/>
     <path class="fil24" d="M63221 55241c2307,984 5354,1884 7762,783 -1493,1933 -5932,1013 -7762,-783z"/>
    </g>
    <circle class="fil0 str0" cx="44080" cy="59503" r="5723"/>
    <circle class="fil0 str0" cx="42474" cy="68743" r="1839"/>
    <g id="_885951104">
     <g>
      <polyline class="fil1 str1" points="13311,47713 24234,32364 35164,47742 "/>
      <path class="fil25" d="M35524 53371c0,421 -5001,1730 -11236,1730 -6235,0 -11322,-893 -11343,-1730 0,-8 0,-9 0,-21l0 -5102c0,-7 2,-14 2,-22l-2 0 0 22c0,837 5055,1516 11290,1516 6234,0 11289,-679 11289,-1516 0,-7 -2,-14 -2,-22l2 0 0 5124c0,13 0,-399 0,21z"/>
      <ellipse class="fil26" cx="24234" cy="48248" rx="11289" ry="1516"/>
      <line class="fil1 str1" x1="24234" y1="32364" x2="24234" y2= "49459" />
      <path class="fil27" d="M35505 53419c-330,461 -5165,1673 -11154,1682l-86 0c-6068,-2 -11042,-849 -11308,-1666 272,-846 5217,-1519 11277,-1519 6022,0 10942,665 11271,1503z"/>
      <path class="fil0" d="M19769 52183c-39,-9 -57,-26 -104,-7 -109,43 -100,177 -20,220 104,57 213,-43 177,-144 -15,-43 -41,-49 -50,-70l335 80c114,27 218,41 329,63 4,1 25,0 18,13 -24,43 -220,145 -245,156 -50,23 -94,42 -145,62 -35,14 -124,46 -160,51 -13,-19 -28,-47 -56,-23 -4,4 -16,20 -21,27 -13,21 0,16 -27,25 -52,16 -115,20 -169,32 -46,11 -135,13 -188,13 -33,1 -66,-1 -99,-3 -22,-2 -73,-15 -83,-10 63,29 129,54 199,63l31 8c-27,17 -356,86 -385,91 -42,6 -93,17 -134,24 -131,24 -463,60 -590,39 -49,-9 -91,-11 -140,-20 -44,-9 -82,-24 -118,-43 -65,-34 -118,-110 -146,-173 -80,-185 -51,-526 72,-638 31,-28 60,-41 107,-55 87,-26 193,-27 294,-26 163,1 572,37 734,67l283 37c48,5 94,12 144,17 41,4 95,15 137,19 49,6 100,11 146,16 100,11 195,21 299,22 -2,8 5,9 -38,18 -66,14 -261,33 -337,37 -9,0 -25,0 -33,1 -16,3 -10,0 -17,11zm-459 1181c-8,-5 -45,-62 -55,-75 -70,-95 -176,-188 -283,-244 -174,-92 -278,-84 -302,-94 8,-13 2,-8 25,-10 217,-19 416,43 536,236 26,43 74,137 79,187zm443 -84c-35,-51 -72,-99 -118,-145 -21,-22 -44,-41 -69,-63 -13,-12 -27,-20 -38,-28 -53,-41 -150,-94 -215,-114 -32,-10 -67,-22 -102,-28 -20,-4 -109,-14 -116,-17 42,-23 197,-16 248,-4 144,33 243,81 331,215 11,18 82,145 81,175l-2 9zm-921 103c-31,-31 -100,-168 -256,-270 -77,-51 -180,-103 -272,-123l-100 -18c-11,-3 -8,-3 -13,-7 52,-21 188,-4 243,7 135,25 246,106 317,219 24,38 79,142 81,192zm-567 513c35,-21 228,-94 276,-108 62,-18 268,-90 318,-33 23,27 -6,73 -25,96 -15,18 -13,15 -40,13 -64,-5 -121,-8 -187,-4 -59,3 -117,8 -177,16 -27,3 -155,25 -165,20zm-228 310c85,-62 116,-112 112,-236l214 -34c74,-13 541,-73 535,44 -2,27 -38,57 -57,71 -101,72 -222,104 -360,139 -75,19 -142,18 -220,29 -33,4 -169,5 -210,-7l-14 -6zm-239 -451c117,56 294,126 287,263 -4,80 -59,130 -117,162 -69,37 -148,38 -241,37 -47,-1 -358,-11 -258,-104 116,-106 169,-166 249,-306 14,-26 31,-76 80,-52zm-985 -45c21,-6 128,6 166,5 170,-1 349,-46 495,-128 19,-11 41,-27 70,-23 20,3 66,56 97,84 48,43 60,47 23,114 -22,39 -44,76 -70,113 -45,63 -112,140 -170,189 -95,81 -155,60 -258,7 -78,-41 -145,-93 -207,-150 -35,-33 -158,-157 -146,-211zm3070 -2330c9,12 -1,5 20,10 92,22 91,26 180,54 97,47 136,48 254,133l33 23c233,176 400,483 263,777 -101,217 -343,293 -569,300 -34,1 -52,6 -66,-13 36,-23 126,-53 169,-57 62,-6 132,-26 183,-47 59,-25 105,-58 151,-103 172,-163 144,-446 -5,-645 -18,-24 -29,-38 -51,-61 -18,-19 -35,-38 -59,-59 -297,-252 -686,-300 -1070,-295 -235,2 -600,44 -823,87 -62,12 -128,26 -188,37l-371 85c-57,16 -126,30 -183,48 -59,19 -120,35 -175,50 -71,19 -201,66 -261,80l-257 89c-182,62 -483,183 -652,260 -46,20 -298,143 -318,147 5,-12 10,-15 27,-25 186,-106 251,-147 471,-248 206,-95 398,-171 614,-246l177 -57c29,-6 11,-6 38,-15 102,-32 199,-60 297,-88 201,-58 407,-106 618,-149 38,-6 68,-13 106,-20l86 -15c19,-2 15,3 24,-8 28,2 123,-16 157,-21 50,-7 112,-18 161,-21 110,-9 226,-26 334,-28 123,-2 240,-4 363,1 62,2 178,17 243,28 24,4 52,14 79,12zm-2453 1878c1,18 -3,24 8,37 10,12 17,6 26,22 4,9 14,61 18,76 30,111 1,123 -165,191 -47,19 -102,30 -150,42 -76,19 -271,29 -347,6 -106,-31 -120,-132 -145,-236 -24,-98 -21,-249 -5,-351 23,-150 62,-72 163,-5 158,106 381,203 597,218zm-507 -783l43 -50c62,-64 80,-83 149,-133 20,-14 39,-28 70,-21 14,28 23,87 32,126 10,46 22,87 37,128 69,191 142,310 295,439 47,40 -7,95 -50,164 -24,38 -38,64 -101,57 -189,-19 -430,-122 -579,-239 -30,-24 -66,-48 -79,-86 -14,-41 0,-74 13,-107 33,-84 111,-209 170,-278zm1016 -469c13,11 5,23 -1,41 -42,109 -61,190 -74,314 -31,306 133,446 138,465 2,10 3,13 -6,22 -12,13 0,1 -5,4 -4,3 -4,3 -9,5 -45,18 -128,32 -179,43 -124,28 -141,102 -293,-66 -73,-80 -120,-156 -168,-270 -25,-59 -103,-294 -74,-355 32,-65 212,-121 293,-148 46,-16 335,-93 378,-55z"/>
      <path class="fil0" d="M30315 51751c29,-6 43,-19 78,-5 83,33 75,133 15,166 -78,42 -159,-33 -133,-109 12,-32 32,-36 38,-52l-251 60c-86,20 -164,31 -246,47 -4,1 -19,0 -14,10 18,32 165,109 183,117 38,17 71,31 109,46 26,11 93,34 120,38 10,-14 21,-35 42,-17 3,3 13,15 16,20 10,16 0,13 20,19 39,12 86,15 127,25 35,8 101,9 141,9 25,0 49,0 74,-2 16,-1 54,-11 62,-7 -47,21 -97,40 -149,46l-23 6c20,13 267,65 289,68 31,5 69,13 100,19 99,18 347,45 443,29 36,-6 68,-8 104,-15 34,-7 62,-18 89,-32 49,-26 89,-83 109,-130 61,-139 38,-394 -54,-479 -23,-20 -45,-30 -80,-40 -65,-20 -145,-21 -220,-20 -123,0 -429,28 -551,50l-212 28c-36,4 -70,9 -108,13 -31,3 -71,11 -102,14 -37,4 -75,8 -110,12 -75,8 -146,15 -224,16 1,6 -4,7 28,14 50,11 196,25 253,27 6,1 19,1 25,1 12,2 7,0 12,8zm344 886c7,-4 35,-46 42,-56 52,-71 132,-141 212,-183 130,-69 208,-63 226,-71 -6,-9 -1,-6 -18,-7 -163,-14 -313,32 -402,177 -20,32 -56,103 -60,140zm-332 -63c27,-38 54,-74 89,-109 16,-16 33,-31 52,-47 10,-9 20,-15 28,-21 40,-31 112,-70 161,-85 24,-7 51,-17 76,-22 16,-2 82,-10 88,-12 -31,-18 -148,-12 -186,-3 -108,25 -183,61 -248,161 -9,13 -62,109 -61,131l1 7zm691 77c23,-23 75,-126 192,-202 58,-38 135,-77 204,-92l75 -14c8,-2 6,-2 10,-5 -40,-16 -141,-3 -183,5 -100,19 -184,80 -237,164 -18,29 -59,107 -61,144zm425 385c-26,-16 -171,-70 -207,-81 -47,-14 -201,-68 -238,-24 -17,19 4,54 18,71 12,14 10,12 30,10 48,-4 91,-6 141,-3 44,3 87,6 132,12 21,2 116,19 124,15zm171 232c-63,-46 -87,-84 -84,-176l-161 -26c-55,-10 -405,-55 -400,33 1,20 28,43 42,53 76,55 167,78 270,104 57,15 106,14 165,22 25,3 127,4 158,-5l10 -5zm179 -338c-88,42 -220,95 -215,197 3,61 45,98 88,122 51,28 111,29 181,28 35,-1 268,-9 193,-78 -87,-80 -127,-125 -187,-230 -11,-19 -23,-57 -60,-39zm739 -33c-16,-5 -96,4 -125,3 -127,-1 -262,-34 -371,-96 -14,-8 -31,-20 -52,-17 -15,3 -50,42 -73,63 -36,32 -45,35 -17,86 16,29 33,57 52,84 34,48 84,105 127,142 72,61 117,45 194,5 58,-31 109,-69 155,-113 27,-24 119,-117 110,-157zm-2302 -1747c-7,9 0,3 -15,7 -69,16 -68,19 -135,40 -72,36 -102,37 -191,100l-24 18c-175,132 -301,361 -197,582 76,163 257,220 426,225 26,1 39,5 50,-10 -27,-17 -95,-39 -127,-42 -46,-5 -99,-20 -137,-36 -45,-18 -79,-43 -114,-77 -128,-122 -108,-335 4,-483 14,-18 22,-29 38,-46 14,-15 27,-29 45,-44 222,-189 514,-225 802,-222 176,2 450,33 617,66 47,9 96,19 141,27l278 64c43,12 95,23 138,36 43,14 89,26 131,38 53,14 150,49 196,60l192 66c137,46 363,138 489,195 34,15 223,107 238,110 -4,-9 -7,-11 -20,-18 -140,-80 -188,-111 -353,-186 -154,-71 -299,-128 -461,-185l-132 -43c-22,-4 -8,-4 -28,-11 -77,-24 -150,-45 -223,-66 -151,-43 -306,-79 -463,-111 -29,-5 -52,-10 -80,-16l-65 -10c-14,-3 -11,1 -18,-7 -21,2 -92,-11 -118,-15 -37,-6 -83,-14 -120,-17 -83,-6 -170,-19 -251,-20 -91,-2 -180,-3 -271,0 -47,2 -134,13 -183,21 -18,3 -39,11 -59,10zm1839 1408c0,13 2,18 -6,28 -7,9 -13,4 -19,16 -3,6 -11,46 -14,57 -22,83 -1,92 124,143 35,15 76,23 112,32 58,14 204,21 261,4 79,-23 89,-99 108,-177 18,-73 16,-187 4,-263 -17,-113 -47,-54 -122,-3 -119,79 -286,151 -448,163zm381 -587l-33 -38c-46,-48 -60,-62 -112,-100 -15,-10 -29,-20 -52,-15 -11,20 -18,65 -24,94 -8,35 -17,65 -28,96 -52,143 -106,232 -221,329 -35,30 5,71 37,123 19,29 29,48 76,43 142,-14 322,-91 434,-179 22,-18 50,-36 59,-64 11,-31 1,-56 -9,-81 -25,-63 -84,-157 -127,-208zm-763 -352c-9,8 -4,17 1,31 32,81 46,142 56,235 23,230 -100,335 -103,349 -2,7 -3,9 4,16 8,10 -1,1 4,4 3,2 3,1 7,3 33,14 95,24 133,32 93,22 106,76 220,-49 55,-60 90,-117 126,-203 19,-44 77,-220 56,-266 -24,-49 -160,-90 -220,-111 -35,-12 -251,-70 -284,-41z"/>
      <circle class="fil28" cx="21612" cy="53903" r="351"/>
      <circle class="fil28" cx="25277" cy="52597" r="351"/>
      <circle class="fil28" cx="29797" cy="54154" r="351"/>
      <circle class="fil28" cx="15058" cy="53150" r="351"/>
      <circle class="fil28" cx="33815" cy="52949" r="351"/>
      <path class="fil1" d="M35524 53371c0,421 -5001,1730 -11236,1730 -6235,0 -11322,-893 -11343,-1730 0,-8 0,-9 0,-21l0 -5102c0,-7 2,-14 2,-22l-2 0 0 22c0,837 5055,1516 11290,1516 6234,0 11289,-679 11289,-1516 0,-7 -2,-14 -2,-22l2 0 0 5124c0,13 0,-399 0,21z"/>
     </g>
     <circle class="fil1 str2" cx="24252" cy="49785" r="326"/>
     <circle class="fil1 str2" cx="13121" cy="47980" r="326"/>
     <circle class="fil1 str2" cx="35370" cy="47980" r="326"/>
    </g>
    <g id="_885974480">
     <rect class="fil10" x="41520" y="17471" width="4289" height="3080"/>
     <path class="fil29" d="M41520 17471l4257 0c20,27 32,221 32,226l-4289 1687 0 -1913z"/>
     <ellipse class="fil9" transform="matrix(0.427791 -0.0489841 0.0429281 0.488142 38451.9 12701.9)" rx="1657" ry="2929"/>
     <ellipse class="fil9" transform="matrix(-0.427791 -0.0489841 -0.0429281 0.488142 48729.9 12701.9)" rx="1657" ry="2929"/>
     <path class="fil9" d="M43587 19564c-454,-59 -1635,-608 -2400,-530 -3404,346 -6084,3579 -6144,6982l8560 0 8559 0c-60,-3403 -2740,-6636 -6144,-6982 -765,-78 -1978,471 -2431,530z"/>
     <path class="fil27" d="M40000 19283c-684,209 -1325,533 -1904,945l0 2556 1904 0 0 -3501z"/>
     <path class="fil27" d="M49201 20294c-577,-426 -1218,-762 -1904,-983l0 3472 1904 0 0 -2489z"/>
     <path class="fil28" d="M40586 19119c1706,931 4327,931 6033,0 -137,-168 -273,-336 -410,-504 -1674,809 -3539,809 -5213,0 -137,168 -273,336 -410,504z"/>
     <rect class="fil27" x="37688" y="23216" width="12209" height="2800"/>
     <g>
      <rect class="fil0" x="38164" y="23648" width="1640" height="952" rx="730" ry="367"/>
      <rect class="fil0" x="47781" y="23648" width="1640" height="952" rx="730" ry="367"/>
     </g>
     <ellipse class="fil10" cx="43664" cy="12079" rx="5321" ry="5945"/>
     <path class="fil11" d="M43664 18024c-2938,0 -5320,-2662 -5320,-5945 0,-2989 1974,-5463 4546,-5882l774 0 0 11827z"/>
     <path class="fil7" d="M39344 6590c1500,-1720 5650,-2147 7973,-536 2064,1431 2418,4059 1869,6393 -1519,-175 -1991,-1925 -2177,-2928 -1524,1580 -3284,2217 -5585,2272 837,-398 1048,-514 1376,-1232 -1025,751 -1513,949 -1952,944 611,-556 727,-851 688,-1584 -1649,535 -2921,1238 -3087,3345 -916,-1341 -1524,-4382 895,-6674z"/>
    </g>
   </g>
  </g>
  <polygon class="fil1" points="0,0 106302,0 106302,91663 0,91663 "/>
 </g>
</svg>
