<?xml version="1.0" encoding="UTF-8"?>
<!DOCTYPE svg PUBLIC "-//W3C//DTD SVG 1.1//EN" "http://www.w3.org/Graphics/SVG/1.1/DTD/svg11.dtd">
<!-- Creator: CorelDRAW X7 -->
<svg xmlns="http://www.w3.org/2000/svg" xml:space="preserve" width="4.56863in" height="7.615in" version="1.1" style="shape-rendering:geometricPrecision; text-rendering:geometricPrecision; image-rendering:optimizeQuality; fill-rule:evenodd; clip-rule:evenodd"
viewBox="0 0 2059 3432"
 xmlns:xlink="http://www.w3.org/1999/xlink">
 <defs>
  <style type="text/css">
   <![CDATA[
    .str2 {stroke:#333333;stroke-width:6.2593}
    .str1 {stroke:#FFCC00;stroke-width:6.2593}
    .str0 {stroke:#999999;stroke-width:3.12965}
    .fil13 {fill:none}
    .fil26 {fill:black}
    .fil14 {fill:#09415C}
    .fil15 {fill:#0E5979}
    .fil2 {fill:#1A1A1A}
    .fil12 {fill:#2A88C6}
    .fil3 {fill:#333333}
    .fil11 {fill:#3FA9F5}
    .fil19 {fill:#4D1D07}
    .fil8 {fill:#581504}
    .fil9 {fill:#792407}
    .fil17 {fill:#822D08}
    .fil22 {fill:#C83513}
    .fil1 {fill:#CCCCCC}
    .fil16 {fill:#E65A1C}
    .fil5 {fill:#E6E6E6}
    .fil4 {fill:#E7E7E7}
    .fil23 {fill:#F1F1F1}
    .fil18 {fill:#F2662B}
    .fil10 {fill:#F37542}
    .fil21 {fill:#FB844C}
    .fil7 {fill:#FE9554}
    .fil6 {fill:#FEAD6C}
    .fil0 {fill:#FFA161}
    .fil25 {fill:#FFA300}
    .fil24 {fill:#FFCC00}
    .fil20 {fill:white}
    .fil27 {fill:#1A1A1A;fill-rule:nonzero}
   ]]>
  </style>
   <clipPath id="id0">
    <path d="M0 0l2059 0 0 3432 -2059 0 0 -3432z"/>
   </clipPath>
       <clipPath id="id1">
        <path d="M769 934l219 0 0 194 -219 0 0 -194z"/>
       </clipPath>
       <clipPath id="id2">
        <path d="M0 0l2059 0 0 3432 -2059 0 0 -3432z"/>
       </clipPath>
 </defs>
 <g id="Layer_x0020_1">
  <metadata id="CorelCorpID_0Corel-Layer"/>
  <g>
  </g>
  <g style="clip-path:url(#id0)">
   <g>
    <g id="_576640688">
     <g>
      <path class="fil0" d="M1425 1539c39,-38 76,-85 91,-102 55,-72 -130,-294 -162,-326 -26,-25 -59,-52 -71,-74 -7,-13 -6,-32 -7,-46 -1,-11 -3,-11 -9,-17 -11,-13 -23,-25 -34,-38 -6,-6 -6,-10 -20,-6 -19,5 -26,2 -44,-1 -16,-1 -18,-2 -31,7 -6,4 -4,4 -12,3 -6,-2 -14,-4 -21,-4 -13,1 -13,12 -3,18 2,1 4,2 6,4 19,10 37,21 56,31 12,7 8,22 14,44 0,6 -5,7 -7,5 -5,-5 -10,-11 -15,-16 -8,-8 -24,-27 -39,-20 -5,2 -4,6 1,10 11,12 21,24 29,39 4,6 7,8 16,11 9,3 14,8 22,14 13,10 22,16 43,13 23,-5 29,3 48,17 9,6 16,13 32,29 45,62 91,156 111,229 1,5 -52,58 -84,88 36,25 71,59 90,88z"/>
      <path class="fil1" d="M743 3100c161,-24 383,-39 548,-39 218,0 223,69 16,118 -148,34 -232,-16 -396,73 -89,48 -185,79 -274,10 -108,-84 -93,-133 106,-162z"/>
      <g>
       <path class="fil2" d="M1125 3121l1 0 1 0 2 1 1 0 2 0 2 0 1 0 2 1 1 0 2 0 2 0 0 0 3 1 1 0 2 0 0 0 2 0 0 0 3 1 0 0 3 0 1 0 1 0 3 1 0 0 3 0 2 0 0 0 3 0 0 0 3 1 1 0 2 0 2 0 2 0 1 0 1 0 2 0 1 0 1 0 2 0 0 0 2 0 2 1 1 0 3 0 1 0 3 0 1 0 2 0 1 0 0 0 1 0 2 -1 2 0 2 0 1 0 0 0c1,0 2,0 3,0l1 0 3 0 0 0 1 0c1,0 2,0 3,0l1 -1 2 0 1 0c1,0 2,0 4,0l0 0 3 -1 1 0c1,0 2,0 3,0l1 0 3 -1 1 0c1,0 2,0 3,-1l0 0 1 0 2 0 1 -1c1,0 3,0 4,0l0 0 0 0c1,-1 2,-1 3,-1l1 0c1,-1 2,-1 3,-1l0 0c2,-1 3,-1 4,-1l1 -1c1,0 2,0 3,-1l0 0c1,0 2,-1 4,-1l0 0c1,0 2,-1 3,-1l1 0c1,-1 2,-1 3,-2l1 0c1,0 2,-1 3,-1l1 -1c1,0 2,-1 3,-1l1 0c1,-1 1,-1 2,-2l1 0c2,-1 3,-1 4,-2 -8,-26 -31,-22 -65,-22 -9,-2 -17,-4 -26,-7 -18,-7 -35,-17 -52,-27 -18,7 -37,13 -56,19 -16,14 -32,28 -48,42 28,-1 52,6 77,10z"/>
       <path class="fil3" d="M1284 3090c-11,-8 -30,-6 -54,-6 -9,-2 -17,-4 -26,-7 -16,-6 -32,-15 -47,-24 -11,9 -28,20 -34,31 -13,21 0,26 23,28 27,4 126,11 138,-22z"/>
       <path class="fil4" d="M1215 3080c-4,-1 -7,-2 -11,-3 -4,-2 -8,-3 -12,-5 -8,6 -17,12 -24,19 -3,3 -5,4 -5,8 1,6 8,7 13,8 14,3 22,-13 39,-27z"/>
       <path class="fil4" d="M1178 3065c-7,-4 -14,-8 -21,-12 -8,7 -19,14 -27,22 -9,10 0,14 9,15 14,3 20,-11 39,-25z"/>
       <path class="fil5" d="M1018 3122c7,25 18,22 44,22 33,0 52,-3 80,-2 39,3 86,6 123,-9 7,-2 28,-11 30,-19 1,-2 0,-5 0,-8 -56,28 -112,23 -168,15 -26,-3 -51,-11 -79,-10 -11,3 -19,7 -30,11z"/>
       <g>
        <path class="fil2" d="M772 3151c7,11 14,22 22,32 19,22 30,20 55,18 20,-3 33,-5 51,-11 25,-9 17,-18 2,-32 -9,-9 -13,-13 -20,-24 -55,-37 -109,20 -110,17z"/>
        <path class="fil3" d="M907 3163c-2,-2 -3,-3 -5,-5 -9,-9 -13,-13 -20,-24 -38,-26 -76,-6 -96,8 13,22 20,46 49,45 10,0 20,-1 30,-3 20,-3 42,-8 42,-21z"/>
        <path class="fil5" d="M763 3160c12,18 18,26 27,41 11,14 22,18 35,18 21,1 51,-4 70,-11 21,-7 26,-9 21,-32l0 0c1,5 -4,9 -16,14 -18,6 -31,8 -51,11 -25,2 -36,4 -55,-18l-22 -31 -9 8z"/>
        <path class="fil4" d="M819 3165c17,-5 19,-15 52,-13 8,0 12,2 12,-5 -2,-8 -4,-11 -9,-13 -8,-3 -20,-2 -28,-1 -10,1 -18,3 -26,7 -6,2 -19,9 -17,15 2,9 9,12 16,10z"/>
       </g>
      </g>
      <path class="fil6" d="M858 1027c95,0 238,14 316,-32 0,22 -11,23 -30,32 17,4 36,0 56,-12 23,104 21,267 -21,364 -21,46 -42,83 -119,72 -35,-2 -139,-23 -166,-46 -33,-28 -44,-76 -68,-133 -45,6 -101,-44 -86,-98 6,-25 41,-42 58,-26 19,19 35,60 36,91 6,-9 10,-18 14,-28 8,-16 5,-16 4,-34 -5,-50 -6,-100 6,-150z"/>
      <path class="fil0" d="M901 1028c92,2 206,6 273,-33 0,22 -11,23 -30,32 17,4 36,0 56,-12 23,104 21,267 -21,364 -21,46 -42,83 -119,72 -19,-1 -57,-8 -93,-17l0 0c-80,-100 -68,-285 -66,-406z"/>
      <path class="fil7" d="M959 1029c78,1 162,-3 215,-34 0,22 -11,23 -30,32 17,4 36,0 56,-12 23,104 21,267 -21,364 -21,46 -42,83 -119,72 50,-30 32,-101 20,-150 11,-2 22,-4 32,-6 1,-3 2,-7 3,-11 -3,-10 -6,-20 -9,-31 -6,-20 -11,-40 -17,-60 -1,-16 -2,-33 -2,-49 -5,-47 5,-94 -42,-104 -24,-4 -59,-6 -86,-11z"/>
      <path class="fil8" d="M777 1142c-10,-39 -14,-76 -35,-103 9,-12 24,-24 43,-35 -8,-3 -15,-6 -23,-8 71,-154 195,-125 327,-103 38,8 129,38 146,-20 15,33 19,56 -1,84 17,2 25,-2 32,-15 15,71 -14,116 -55,146l0 0c-2,-26 -6,-51 -11,-73 -20,12 -39,16 -56,12 19,-9 30,-10 30,-32 -78,46 -221,32 -316,32 -12,50 -11,100 -6,150 1,18 4,18 -4,34 -4,10 -8,19 -14,28 -1,-31 -17,-72 -36,-91 -6,-5 -13,-7 -21,-6z"/>
      <path class="fil9" d="M782 1006c1,-1 2,-2 3,-2 -8,-3 -15,-6 -23,-8 71,-154 195,-125 327,-103 38,8 129,38 146,-20 16,95 -60,59 -126,84 -33,12 -65,34 -88,24 23,-14 28,-24 33,-51 -37,44 -104,47 -157,49 -52,2 -101,27 -108,86 -9,-14 -18,-39 -7,-59z"/>
      <path class="fil0" d="M952 1430c0,39 8,83 -22,111 28,51 141,47 157,-8 -24,-12 -33,-44 -34,-82 -23,-3 -65,-11 -101,-21l0 0z"/>
      <path class="fil10" d="M952 1430c0,5 0,11 0,16l0 0c41,29 63,45 111,59l0 0c-6,-15 -9,-34 -10,-54 -23,-3 -65,-11 -101,-21l0 0z"/>
      <path class="fil5" d="M918 1542c3,-2 7,-2 10,-2 1,0 1,0 2,0 25,52 142,48 157,-8 1,0 1,0 2,0 0,0 0,0 1,0 3,0 6,1 9,2 -17,67 -152,72 -181,8z"/>
      <path class="fil11" d="M918 1542c-109,25 -122,-8 -207,-101 -73,46 -149,124 -98,144 50,46 97,89 148,138 46,45 64,62 69,131 1,85 9,166 5,274 -2,11 -3,9 3,19 4,7 3,12 -1,16 -25,27 -5,31 21,37 60,12 157,16 238,3l0 1c31,-2 59,-5 81,-9 23,-6 29,-12 27,-30 5,-4 5,-9 -1,-16 -3,-4 -5,-7 -5,-10 2,-4 3,-5 3,-7 3,-3 5,-5 8,-9 6,-10 9,-33 2,-40 -7,-5 -9,-11 -9,-20 6,-95 8,-161 4,-257 15,-33 38,-60 68,-88 51,-50 98,-93 148,-139 51,-20 -25,-97 -98,-144 -65,72 -86,102 -142,103l-3 0 -80 -4 0 0c-17,67 -152,72 -181,8zm169 -10l-4 11c2,-4 3,-7 4,-11z"/>
      <path class="fil12" d="M1207 2157c0,-2 -2,-5 -4,-8 -9,-12 0,-16 6,-26 6,-10 9,-33 2,-40 -7,-5 -9,-11 -9,-20 6,-95 8,-161 4,-257 -2,-112 -10,-142 -30,-195 21,101 15,299 6,412 0,18 0,39 3,56 5,19 10,27 5,38 -15,28 -5,20 -8,35 -7,28 -28,30 -49,43 53,-14 70,-28 74,-38z"/>
      <path class="fil12" d="M613 1585c50,46 97,89 148,138 46,45 64,62 69,131 1,85 9,166 5,274 -2,11 -3,9 3,19 4,7 3,12 -1,16 -25,27 -5,31 21,37 9,2 19,4 29,5 -12,-4 -50,-13 -44,-27 4,-5 14,-18 16,-21 2,-6 1,-8 -2,-12 -5,-6 -4,-9 -2,-16 3,-7 1,-13 1,-21 -2,-75 0,-153 -3,-228 -4,-122 4,-88 -74,-171 -92,-81 -114,-82 -166,-124z"/>
      <path class="fil13" d="M1593 1970c4,2 8,4 12,6 5,3 6,1 10,-9 23,-56 34,-90 48,-151 2,-8 -1,-8 -9,-10 -8,50 -41,116 -61,164z"/>
      <path class="fil14" d="M835 2203c-20,104 -11,305 -32,436 -1,8 -2,6 2,13 4,6 4,11 1,17 -4,8 -4,5 -6,15 -15,127 -31,254 -47,381 -1,13 -2,18 0,31 2,23 5,45 8,68 39,-35 78,-52 130,-25 2,-15 5,-31 8,-46 3,-17 1,-19 -1,-36 -3,-27 -4,-57 -4,-81 -1,-256 19,-250 44,-416 8,-39 16,-79 23,-119 8,-43 16,-85 24,-127 26,-11 40,-17 68,-22 17,84 -6,262 -14,355 -20,156 -35,318 -21,477 44,-24 62,-10 113,-56 10,-6 25,-18 25,-18 -1,-10 0,-19 -1,-28 -1,-9 -3,-6 -8,-13 -16,-18 -15,-49 -20,-85 0,0 4,-172 4,-181 0,-9 29,-110 29,-110 3,-10 6,-21 8,-32 2,-9 3,-19 4,-29 9,-75 19,-150 28,-225 3,-44 6,-88 9,-132 -1,-12 -3,-26 -4,-37 -7,-1 -14,0 -22,-1 -84,42 -240,39 -325,23 -5,-1 -10,-2 -14,-3 -3,2 -6,4 -9,6z"/>
      <path class="fil15" d="M852 2218c-1,13 -3,29 -4,43 18,9 37,16 55,25 -20,2 -40,4 -60,6 -1,2 -1,3 -1,5 12,3 23,6 35,9 -10,3 -19,7 -29,10 -3,102 -7,205 -10,307 22,16 43,30 77,41 21,-118 42,-237 63,-355 2,-11 0,-9 11,-12 27,-8 91,-36 113,-35 -4,4 -7,9 -11,13 -12,14 -9,11 -7,29 8,80 5,140 2,226 -3,31 -6,62 -9,93 2,12 22,22 51,25 24,3 25,-7 29,-37 18,-112 30,-213 40,-328 -15,-10 -17,-8 -34,-10 8,-4 28,-11 43,-10 -2,-24 -3,-48 -5,-73 -87,64 -314,49 -349,28z"/>
      <path class="fil16" d="M1087 1140c4,51 17,88 36,133 20,46 -61,37 -82,1 15,11 31,17 45,18 24,2 26,-2 17,-22 -22,-56 -26,-82 -16,-130z"/>
      <path class="fil17" d="M1026 1082c-4,0 -9,1 -14,2 -13,5 -26,14 -37,22 -14,9 -27,19 -38,31 -2,4 3,10 8,6 13,-11 36,-21 52,-26 26,-8 40,-3 42,-11 2,-7 -4,-22 -13,-24z"/>
      <path class="fil17" d="M1118 1100c-3,8 7,11 20,15 17,5 31,14 44,24 5,4 9,11 13,9 6,-2 4,-7 1,-12 -8,-11 -46,-57 -67,-51 -5,1 -10,10 -11,15z"/>
      <path class="fil18" d="M802 1202c-25,-20 -39,34 5,49 -42,1 -53,-52 -24,-65 -7,-22 -28,-3 -29,11 -5,-53 53,-35 48,5z"/>
      <g>
       <ellipse class="fil19" cx="982" cy="1180" rx="19" ry="23"/>
       <ellipse class="fil20" cx="973" cy="1171" rx="7" ry="9"/>
       <path class="fil21" d="M982 1149c13,0 24,12 24,27 0,14 -10,26 -22,27 10,-1 17,-11 17,-23 0,-12 -8,-23 -19,-23 -11,0 -19,11 -19,23 0,12 7,22 17,23 -12,-1 -22,-13 -22,-27 0,-15 11,-27 24,-27z"/>
      </g>
      <g>
       <ellipse class="fil19" cx="1158" cy="1181" rx="19" ry="22"/>
       <ellipse class="fil20" cx="1149" cy="1172" rx="7" ry="8"/>
       <path class="fil21" d="M1158 1151c12,0 23,12 23,26 0,14 -10,25 -21,26 9,-1 16,-10 16,-22 0,-12 -8,-22 -18,-22 -11,0 -19,10 -19,22 0,12 7,21 17,22 -12,-1 -21,-12 -21,-26 0,-14 10,-26 23,-26z"/>
      </g>
      <path class="fil5" d="M829 2190c0,14 19,22 46,27 98,20 237,9 301,-20 14,-4 42,-21 31,-40l0 0c-2,3 -9,12 -15,15 -82,47 -246,45 -334,28 -13,-2 -24,-5 -29,-10l0 0z"/>
      <path class="fil22" d="M1153 1376c-21,-63 -114,-51 -141,17 42,-44 88,-74 141,-17z"/>
      <path class="fil0" d="M606 1539c-39,-38 -76,-85 -91,-102 -55,-72 131,-304 163,-336 26,-25 59,-52 71,-74 7,-13 5,-22 6,-36 1,-11 3,-11 9,-17 11,-13 23,-25 34,-38 6,-6 6,-10 20,-6 19,5 25,2 44,-1 16,-1 18,-2 31,7 6,4 4,4 12,3 6,-2 14,-4 21,-4 13,1 13,12 3,18 -2,1 -4,2 -6,4 -19,10 -37,21 -56,31 -12,7 -8,22 -14,44 0,6 5,7 7,5 5,-5 10,-11 15,-16 8,-8 24,-27 39,-20 5,2 4,6 -1,10 -11,12 -21,24 -29,39 -4,6 -8,8 -16,11 -9,3 -14,8 -22,14 -13,10 -22,16 -43,13 -23,-5 -29,3 -48,17 -10,6 -17,13 -32,29 -45,62 -91,156 -111,229 -1,5 52,58 84,88 -36,25 -71,59 -90,88z"/>
      <g>
      </g>
      <g style="clip-path:url(#id1)">
       <image x="769" y="934" width="219" height="193" xlink:href="2.svg_Images\2.svg_ImgID1.png"/>
      </g>
      <g style="clip-path:url(#id2)">
      </g>
      <path class="fil0" d="M746 1032c1,-2 2,-4 3,-5 7,-13 5,-22 6,-36 1,-11 3,-11 9,-17 11,-13 23,-25 34,-38 6,-6 6,-10 20,-6 19,5 25,2 44,-1 16,-1 18,-2 31,7 6,4 4,4 12,3 6,-2 14,-4 21,-4 13,1 13,12 3,18 -2,1 -4,2 -6,4 -19,10 -37,21 -56,31 -12,7 -8,22 -14,44 0,6 5,7 7,5 5,-5 10,-11 15,-16 8,-8 24,-27 39,-20 5,2 4,6 -1,10 -11,12 -21,24 -29,39 -4,6 -8,8 -16,11 -9,3 -14,8 -22,14 -13,10 -22,16 -43,13 -18,-4 -25,0 -37,9 -5,-22 -11,-42 -24,-58 2,-2 3,-4 5,-6l-1 -1z"/>
     </g>
     <path class="fil23 str0" d="M1638 1070c-23,21 -55,34 -89,34 -74,0 -134,-59 -134,-133 0,-4 1,-8 1,-12 -49,-20 -83,-67 -83,-123 0,-66 48,-121 111,-132 13,-76 80,-134 159,-134 68,0 126,42 150,101 16,-8 35,-12 54,-12 71,0 128,57 128,128 0,38 -17,72 -44,96 9,20 14,42 14,65 0,89 -72,161 -161,161 -40,0 -77,-14 -106,-39z"/>
     <circle class="fil13 str0" cx="1317" cy="1247" r="21"/>
     <circle class="fil13 str0" cx="1377" cy="1206" r="34"/>
     <circle class="fil13 str0" cx="1450" cy="1141" r="42"/>
     <circle class="fil13 str0" cx="721" cy="1301" r="21"/>
     <circle class="fil13 str0" cx="660" cy="1261" r="34"/>
     <circle class="fil13 str0" cx="588" cy="1195" r="42"/>
     <path class="fil23 str0" d="M399 1124c24,22 55,35 90,35 74,0 133,-60 133,-134 0,-4 0,-8 0,-11 49,-20 83,-68 83,-124 0,-66 -48,-121 -112,-132 -12,-76 -79,-134 -159,-134 -67,0 -125,42 -149,101 -17,-8 -35,-12 -54,-12 -71,0 -128,57 -128,128 0,38 17,72 43,96 -9,20 -14,42 -14,65 0,90 73,162 162,162 40,0 77,-15 105,-40z"/>
     <path class="fil23 str0" d="M1032 699c30,28 70,44 114,44 95,0 171,-76 171,-170 0,-5 0,-10 0,-15 62,-26 106,-87 106,-158 0,-85 -62,-156 -143,-169 -16,-98 -101,-172 -203,-172 -87,0 -161,54 -192,129 -21,-9 -44,-15 -69,-15 -90,0 -163,73 -163,164 0,49 21,93 55,122 -11,26 -18,55 -18,85 0,114 93,206 207,206 51,0 99,-19 135,-51z"/>
     <g>
      <path class="fil24 str1" d="M455 543c0,14 12,25 26,25 14,0 26,-11 26,-25 0,-15 -12,-26 -26,-26 -14,0 -26,11 -26,26z"/>
      <path class="fil24 str1" d="M475 499l13 0c4,0 9,-3 9,-9l0 -19c0,-37 71,-42 71,-100 0,-42 -31,-69 -78,-69 -57,0 -82,39 -82,39 -3,4 -4,9 0,12l8 8c4,3 8,3 12,-1 9,-9 25,-30 62,-30 29,0 44,18 44,39 0,51 -67,46 -67,102l0 19c0,5 4,9 8,9z"/>
     </g>
     <g>
      <path class="fil24 str1" d="M1523 507c0,11 10,21 21,21 12,0 22,-10 21,-22 0,-12 -9,-21 -21,-21 -12,0 -21,10 -21,22z"/>
      <path class="fil24 str1" d="M1539 470l10 0c4,0 8,-3 8,-8l0 -15c-1,-31 58,-36 58,-85 -1,-34 -27,-57 -66,-56 -48,0 -68,34 -68,34 -3,3 -3,7 0,9l7 7c3,3 6,3 10,-1 7,-8 21,-26 51,-26 24,0 37,15 38,32 0,43 -56,40 -55,86l0 16c0,4 3,7 7,7z"/>
     </g>
     <g>
      <path class="fil25" d="M1603 813c-19,28 -34,50 -34,50l56 -3c0,0 -41,132 -41,138 0,4 51,-63 90,-115l-71 -70z"/>
      <path class="fil24" d="M1698 681c0,-6 -47,62 -84,116l71 71c20,-26 35,-46 35,-46l-59 0 37 -141z"/>
      <polygon class="fil26" points="1499,729 1513,715 1768,970 1755,985 "/>
     </g>
     <g>
      <g>
       <path class="fil2" d="M845 561c0,29 22,51 48,51 49,0 64,-53 40,-80 -2,-2 -4,-3 -4,-6 0,-7 62,-39 74,-48 6,-4 12,-8 18,-12l187 -136c3,-2 5,-5 9,-6l0 -2c-12,-3 -35,-30 -90,10l-143 103c-2,1 -5,3 -6,4 -2,3 -1,1 -2,5 -8,21 -32,42 -51,51 -19,9 -34,14 -50,22 -17,9 -30,23 -30,44zm50 -32c19,0 34,15 34,34 0,18 -15,33 -34,33 -18,0 -33,-15 -33,-33 0,-19 15,-34 33,-34z"/>
       <path class="fil3" d="M845 313c0,44 33,49 65,64 17,7 24,11 39,23 8,6 24,23 27,35l37 -27c-2,-2 -7,-6 -9,-7l-66 -39c-19,-13 -3,-7 4,-32 9,-33 -17,-63 -43,-63l-1 0c-15,0 -28,2 -39,14 -8,8 -14,21 -14,32zm50 -31c19,0 34,15 34,34 0,18 -15,33 -34,33 -18,0 -33,-15 -33,-33 0,-19 15,-34 33,-34z"/>
       <path class="fil3" d="M1021 470c2,3 85,61 93,67 11,8 27,20 40,26 8,3 16,6 28,6 11,0 31,-8 35,-14 -4,-1 -35,-25 -39,-28l-59 -42c-6,-5 -12,-10 -19,-15l-29 -21c-3,-2 -7,-5 -10,-7l-20 14c-3,3 -17,13 -20,14z"/>
      </g>
      <polygon class="fil24" points="757,458 925,458 925,421 757,421 "/>
      <g>
       <polygon class="fil24" points="1124,458 1319,458 1319,421 1124,421 "/>
       <polygon class="fil2" points="1095,450 1120,450 1120,429 1095,429 "/>
      </g>
      <polygon class="fil2" points="930,450 951,450 951,429 930,429 "/>
     </g>
     <g>
      <rect class="fil24" x="311" y="752" width="175" height="176" rx="29" ry="36"/>
      <circle class="fil20 str2" cx="398" cy="840" r="51"/>
     </g>
     <path class="fil27" d="M405 844c2,0 4,1 6,3 1,2 2,4 2,7l0 77 0 12 0 0 0 0c0,1 1,3 1,3l0 0c1,1 2,2 2,2l0 0c1,0 2,-1 2,-2 1,0 1,-2 1,-3l0 0 0 0 0 -12 0 -32c0,-3 1,-5 3,-7 1,-2 3,-3 6,-3 2,0 5,1 6,3 2,2 3,4 3,7l0 32 0 13 0 0 0 0c0,1 0,2 1,3l0 0c0,0 1,1 1,1l0 0c1,0 1,-1 1,-1 1,0 1,-1 1,-2l0 -41c0,-3 1,-5 3,-7 1,-2 3,-3 6,-3 2,0 4,1 6,3 2,2 3,4 3,7l0 27 0 13 0 0 0 0c0,1 0,2 0,3 1,0 1,1 2,1l0 0c0,0 1,-1 1,-1 1,-1 1,-2 1,-3l0 -13 0 -1 0 0 0 -14c0,-2 1,-5 3,-7 1,-1 3,-3 6,-3 2,0 4,2 6,3l0 0c2,2 2,5 2,7l0 69 0 0c0,0 0,1 0,1l0 0c0,0 0,0 0,1l0 1c-1,12 -1,17 -7,29l0 19 0 1 -1 0 -73 0 -1 0 0 -1 0 -15 0 0c0,-3 0,-7 -1,-9 -1,-3 -2,-6 -4,-8l0 0 -33 -54 0 0c-1,-2 -2,-4 -1,-6 0,-2 1,-4 2,-6l0 0c2,0 3,-1 4,-1 2,0 4,0 6,0 6,1 12,8 16,13l0 0 1 1c4,6 6,8 7,8 1,0 1,-1 1,-3l0 -102c0,-3 1,-5 3,-7 1,-2 3,-3 6,-3z"/>
    </g>
   </g>
  </g>
  <polygon class="fil13" points="0,0 2059,0 2059,3432 0,3432 "/>
 </g>
</svg>
