<?xml version="1.0" encoding="UTF-8"?>
<!DOCTYPE svg PUBLIC "-//W3C//DTD SVG 1.1//EN" "http://www.w3.org/Graphics/SVG/1.1/DTD/svg11.dtd">
<!-- Creator: CorelDRAW X7 -->
<svg xmlns="http://www.w3.org/2000/svg" xml:space="preserve" width="7.58251in" height="5.79556in" version="1.1" style="shape-rendering:geometricPrecision; text-rendering:geometricPrecision; image-rendering:optimizeQuality; fill-rule:evenodd; clip-rule:evenodd"
viewBox="0 0 7283 5566"
 xmlns:xlink="http://www.w3.org/1999/xlink">
 <defs>
  <style type="text/css">
   <![CDATA[
    .str2 {stroke:black;stroke-width:2.8814;stroke-opacity:0.329412}
    .str0 {stroke:black;stroke-width:2.8814}
    .str1 {stroke:#581504;stroke-width:2.8814}
    .fil9 {fill:none}
    .fil5 {fill:#1A1A1A}
    .fil8 {fill:#333333}
    .fil4 {fill:#47191C}
    .fil2 {fill:#581504}
    .fil0 {fill:#CCCCCC}
    .fil7 {fill:#E6E6E6}
    .fil1 {fill:#FFCC00}
    .fil3 {fill:white}
    .fil6 {fill:#E6E6E6;fill-opacity:0.329412}
   ]]>
  </style>
   <clipPath id="id0">
    <path d="M0 0l7283 0 0 5566 -7283 0 0 -5566z"/>
   </clipPath>
 </defs>
 <g id="Layer_x0020_1">
  <metadata id="CorelCorpID_0Corel-Layer"/>
  <g>
  </g>
  <g style="clip-path:url(#id0)">
   <g>
    <g id="_856446112">
     <path class="fil0" d="M1595 4972c972,53 2306,25 3292,-65 1303,-118 1298,-539 35,-714 -903,-125 -1378,219 -2407,-220 -561,-240 -1151,-375 -1641,83 -601,562 -485,851 721,916z"/>
     <g>
      <g>
       <path class="fil1" d="M5123 1383l-3899 0c-74,0 -134,60 -134,134l0 2740c0,73 60,133 134,133l3899 0c73,0 133,-60 133,-133l0 -2740c0,-74 -60,-134 -133,-134z"/>
       <path class="fil2 str0" d="M2668 1383l0 -19c0,-39 -32,-71 -71,-71l-920 0c-39,0 -70,32 -70,71l0 19 1061 0z"/>
       <path class="fil2 str0" d="M4800 1383l0 -19c0,-39 -32,-71 -71,-71l-365 0c-39,0 -71,32 -71,71l0 19 507 0z"/>
       <path class="fil2 str1" d="M1090 1865l-128 0c-47,0 -86,39 -86,86l0 483c0,47 38,85 85,85l129 0 0 -68 -83 0 -30 0c-21,0 -38,-18 -38,-39l0 -29 0 -381 0 -30c0,-21 18,-39 39,-39l30 0 82 0 0 -68z"/>
       <path class="fil2 str0" d="M5256 1865l133 0c47,0 86,39 86,86l0 483c0,47 -38,85 -85,85l-134 0 0 -68 88 0 29 0c21,0 38,-18 38,-39l0 -29 0 -381 0 -30c0,-21 -17,-39 -38,-39l-30 0 -87 0 0 -68z"/>
       <g>
        <circle class="fil2 str0" cx="3824" cy="2088" r="289"/>
        <path class="fil3 str0" d="M3824 1856c128,0 232,104 232,232 0,129 -104,233 -232,233 -128,0 -232,-104 -232,-233 0,-128 104,-232 232,-232z"/>
        <circle class="fil2 str0" cx="3824" cy="2088" r="31"/>
        <path class="fil2 str0" d="M3837 2041l110 -105 -79 132c-6,-13 -17,-23 -31,-27l0 0z"/>
       </g>
       <g>
        <circle class="fil2 str0" cx="4591" cy="2088" r="215"/>
        <path class="fil3 str0" d="M4591 1915c96,0 174,78 174,173 0,96 -78,174 -174,174 -95,0 -173,-78 -173,-174 0,-95 78,-173 173,-173z"/>
        <circle class="fil2 str0" cx="4591" cy="2088" r="23"/>
        <path class="fil2 str0" d="M4601 2053l82 -78 -58 98c-5,-10 -14,-17 -24,-20l0 0z"/>
       </g>
       <g>
        <circle class="fil4" cx="3733" cy="3766" r="191"/>
        <path class="fil3" d="M3733 3613c85,0 154,68 154,153 0,85 -69,154 -154,154 -85,0 -153,-69 -153,-154 0,-85 68,-153 153,-153z"/>
        <g>
         <circle class="fil2" cx="3733" cy="3716" r="24"/>
         <g>
          <circle class="fil2" cx="3672" cy="3816" r="24"/>
          <circle class="fil2" cx="3795" cy="3816" r="24"/>
         </g>
        </g>
       </g>
       <g>
        <circle class="fil4" cx="4165" cy="3766" r="191"/>
        <path class="fil3" d="M4165 3613c85,0 154,68 154,153 0,85 -69,154 -154,154 -85,0 -154,-69 -154,-154 0,-85 69,-153 154,-153z"/>
        <g>
         <circle class="fil2" cx="4165" cy="3716" r="24"/>
         <g>
          <circle class="fil2" cx="4104" cy="3816" r="24"/>
          <circle class="fil2" cx="4227" cy="3816" r="24"/>
         </g>
        </g>
       </g>
       <g>
        <circle class="fil4" cx="4597" cy="3766" r="191"/>
        <path class="fil3" d="M4597 3613c85,0 153,68 153,153 0,85 -68,154 -153,154 -85,0 -154,-69 -154,-154 0,-85 69,-153 154,-153z"/>
        <g>
         <circle class="fil2" cx="4597" cy="3716" r="24"/>
         <g>
          <circle class="fil2" cx="4535" cy="3816" r="24"/>
          <circle class="fil2" cx="4658" cy="3816" r="24"/>
         </g>
        </g>
       </g>
       <g>
        <rect class="fil2" x="3534" y="2553" width="44.4861" height="830.827"/>
        <rect class="fil2" x="3708" y="2553" width="44.4861" height="830.827"/>
        <rect class="fil2" x="3883" y="2553" width="44.4861" height="830.827"/>
        <rect class="fil2" x="4057" y="2553" width="44.4861" height="830.827"/>
        <rect class="fil2" x="4231" y="2553" width="44.4861" height="830.827"/>
        <rect class="fil2" x="4405" y="2553" width="44.4861" height="830.827"/>
        <rect class="fil2" x="4579" y="2553" width="44.4861" height="830.827"/>
        <rect class="fil2" x="4753" y="2553" width="44.4861" height="830.827"/>
       </g>
       <path class="fil2" d="M2286 2922l825 0 0 50 -825 0 0 -50zm-825 -117l1650 0 0 49 -1650 0 0 -49zm0 -118l1650 0 0 50 -1650 0 0 -50zm0 -118l1650 0 0 50 -1650 0 0 -50zm0 -118l1650 0 0 50 -1650 0 0 -50zm0 -117l1650 0 0 49 -1650 0 0 -49zm0 -118l1650 0 0 50 -1650 0 0 -50zm0 -118l1650 0 0 50 -1650 0 0 -50zm0 -118l1650 0 0 50 -1650 0 0 -50zm0 -117l1650 0 0 49 -1650 0 0 -49zm0 -118l1650 0 0 50 -1650 0 0 -50zm825 2237l825 0 0 50 -825 0 0 -50zm0 -117l825 0 0 49 -825 0 0 -49zm0 -118l825 0 0 49 -825 0 0 -49zm0 -118l825 0 0 50 -825 0 0 -50zm0 -118l825 0 0 50 -825 0 0 -50zm0 -118l825 0 0 50 -825 0 0 -50zm0 -117l825 0 0 49 -825 0 0 -49zm0 -118l825 0 0 50 -825 0 0 -50zm0 -118l825 0 0 50 -825 0 0 -50z"/>
       <polygon class="fil2" points="1546,3015 1669,3068 1747,3348 1911,3219 2000,3658 2144,3618 1995,3927 1764,3749 1872,3686 1840,3466 1678,3596 "/>
       <polygon class="fil2" points="1310,4390 1516,4598 2231,4588 2526,4470 3817,4465 4125,4596 4855,4596 5046,4390 "/>
       <path class="fil2" d="M3356 1275l0 108 -355 0 0 -108c-33,-41 -54,-93 -54,-149 0,-128 104,-232 232,-232 128,0 231,104 231,232 0,56 -20,108 -54,149zm-177 -286c75,0 136,61 136,137 0,75 -61,136 -136,136 -76,0 -137,-61 -137,-136 0,-76 61,-137 137,-137z"/>
      </g>
      <g>
       <g>
        <path class="fil5" d="M5014 285c1115,255 1813,1366 1558,2482 -256,1115 -1367,1813 -2483,1557 -1115,-255 -1813,-1366 -1557,-2482 255,-1115 1366,-1813 2482,-1557zm-24 106c1056,242 1717,1294 1475,2351 -241,1057 -1294,1718 -2351,1476 -1057,-242 -1718,-1294 -1476,-2351 242,-1057 1295,-1718 2352,-1476z"/>
        <path class="fil6 str2" d="M4990 391c1056,242 1717,1294 1475,2351 -241,1057 -1294,1718 -2351,1476 -1057,-242 -1718,-1294 -1476,-2351 242,-1057 1295,-1718 2352,-1476z"/>
        <path class="fil7" d="M4968 483c809,185 1374,870 1445,1654 -144,-764 -740,-1414 -1566,-1603 -277,-63 -554,-69 -816,-24 295,-86 616,-100 937,-27z"/>
       </g>
       <path class="fil5" d="M6256 4004c-38,-48 -107,-56 -155,-18l-252 201c-48,37 -56,107 -18,155 619,780 230,290 850,1070 38,48 108,56 155,18l253 -201c47,-38 55,-107 18,-155 -620,-780 -231,-290 -851,-1070z"/>
       <rect class="fil8" transform="matrix(1.54665 -1.22853 1.40019 1.76276 5716.14 3978.88)" width="136" height="119"/>
      </g>
      <polygon class="fil1" points="46,244 823,1077 1006,757 1515,1157 969,231 733,727 "/>
      <polygon class="fil1" points="1583,1240 1711,625 1968,849 2266,451 1988,1035 1807,914 "/>
     </g>
    </g>
   </g>
  </g>
  <polygon class="fil9" points="0,0 7283,0 7283,5566 0,5566 "/>
 </g>
</svg>
