<?xml version="1.0" encoding="UTF-8"?>
<!DOCTYPE svg PUBLIC "-//W3C//DTD SVG 1.1//EN" "http://www.w3.org/Graphics/SVG/1.1/DTD/svg11.dtd">
<!-- Creator: CorelDRAW X7 -->
<svg xmlns="http://www.w3.org/2000/svg" xml:space="preserve" width="5.51307in" height="4.75389in" version="1.1" style="shape-rendering:geometricPrecision; text-rendering:geometricPrecision; image-rendering:optimizeQuality; fill-rule:evenodd; clip-rule:evenodd"
viewBox="0 0 41613 35883"
 xmlns:xlink="http://www.w3.org/1999/xlink">
 <defs>
  <style type="text/css">
   <![CDATA[
    .str2 {stroke:black;stroke-width:31.5893}
    .str6 {stroke:black;stroke-width:31.5893}
    .str4 {stroke:black;stroke-width:31.5893}
    .str8 {stroke:black;stroke-width:31.5893}
    .str1 {stroke:#FFCC00;stroke-width:292.387}
    .str3 {stroke:#FFCC00;stroke-width:292.387}
    .str5 {stroke:#FFCC00;stroke-width:292.387}
    .str7 {stroke:#FFCC00;stroke-width:292.387}
    .str0 {stroke:black;stroke-width:104.842;stroke-dasharray:104.842118 314.526355}
    .fil0 {fill:none}
    .fil16 {fill:#09415C}
    .fil17 {fill:#0E5979}
    .fil5 {fill:#1A1A1A}
    .fil26 {fill:#1D1D1D}
    .fil15 {fill:#2F84C4}
    .fil6 {fill:#333333}
    .fil14 {fill:#3FA9F5}
    .fil21 {fill:#4D1D07}
    .fil11 {fill:#581504}
    .fil12 {fill:#792407}
    .fil19 {fill:#822D08}
    .fil24 {fill:#B71000}
    .fil4 {fill:#CCCCCC}
    .fil18 {fill:#E65A1C}
    .fil8 {fill:#E6E6E6}
    .fil7 {fill:#E7E7E7}
    .fil20 {fill:#F2662B}
    .fil13 {fill:#F37542}
    .fil3 {fill:#F7844D}
    .fil2 {fill:#FA824E}
    .fil23 {fill:#FB844C}
    .fil10 {fill:#FE9554}
    .fil9 {fill:#FEAD6C}
    .fil1 {fill:#FFA161}
    .fil25 {fill:#FFCC00}
    .fil22 {fill:white}
   ]]>
  </style>
   <clipPath id="id0">
    <path d="M0 0l41613 0 0 35883 -41613 0 0 -35883z"/>
   </clipPath>
    <clipPath id="id1">
     <path d="M39514 0l0 35883 -36760 0 0 -35883 36760 0z"/>
    </clipPath>
    <clipPath id="id2">
     <path d="M0 0l41613 0 0 35883 -41613 0 0 -35883z"/>
    </clipPath>
 </defs>
 <g id="Layer_x0020_1">
  <metadata id="CorelCorpID_0Corel-Layer"/>
  <g>
  </g>
  <g style="clip-path:url(#id0)">
   <g>
    <g>
    </g>
   </g>
   <g style="clip-path:url(#id1)">
    <g>
     <path class="fil0 str0" d="M27887 9025c2451,1524 4355,3844 5351,6599m-24185 -411c1092,-2726 3085,-4994 5610,-6435"/>
     <g id="_920247336">
      <g>
       <path class="fil1" d="M26274 29024c336,322 642,616 978,938 95,77 140,39 223,-59 448,-533 1127,-1429 1529,-1911 203,-346 -464,-693 100,-1780 236,-600 239,-1171 21,-1778 -53,-326 44,-445 317,-419 588,131 575,499 514,994 -27,151 -52,303 -81,453 -56,337 93,373 286,306 176,-62 176,-127 308,-207 267,-160 507,69 475,345 -10,85 -30,95 64,90 480,55 131,483 307,561 190,44 153,241 102,348 -46,87 -16,105 15,127 109,75 70,252 8,385 -131,282 -675,775 -983,807 -229,11 -424,-15 -598,149 -65,62 -127,138 -193,229 -588,990 -1213,1935 -1910,2825 -205,244 -238,306 -510,143 -505,-340 -1010,-680 -1515,-1020 0,0 -344,-988 -236,-1055 108,-68 779,-471 779,-471z"/>
       <path class="fil2" d="M29524 28840c-547,903 -1127,1768 -1768,2587 -205,244 -238,306 -510,143 -505,-340 -1010,-680 -1515,-1020 0,0 -344,-988 -236,-1055 69,-43 368,-224 575,-348l139 41c-78,337 -155,674 -233,1011 -18,55 -36,110 -54,166 445,308 890,617 1335,926 246,141 332,104 565,-152 22,-25 1700,-2297 1702,-2299z"/>
       <path class="fil2" d="M30272 25782c-274,210 -829,384 -673,727 85,297 225,725 54,1004 245,21 622,45 822,193 396,259 610,-21 909,-274 26,-26 31,-53 -3,-32 -179,109 -351,227 -543,312 -249,78 -358,-188 -176,-287 152,-83 263,-142 410,-232 126,-87 63,-115 -52,-60 -129,63 -272,143 -450,245 -289,131 -449,-89 -251,-283 192,-173 462,-318 685,-454 11,-9 5,-21 -1,-24 -9,-5 -31,3 -46,10 -265,120 -508,281 -765,410 -240,120 -430,-180 -190,-354 64,-47 141,-89 194,-129 158,-113 316,-227 473,-341 -436,195 -474,343 -691,343 -97,0 -186,-110 -202,-199 -16,-94 40,-142 103,-199 136,-125 368,-343 393,-376z"/>
      </g>
      <g>
       <path class="fil1" d="M15374 29485c-794,-220 -1225,1442 -1415,3099 -170,1485 -121,2428 44,3849 46,399 73,771 15,1043 -53,251 -293,518 -446,731 -116,163 -82,185 -79,348 12,314 23,628 35,942 11,161 -32,211 214,312 329,165 385,280 618,546 203,207 219,251 511,264 139,18 117,-2 200,111 74,99 163,226 258,298 187,145 321,-13 250,-212 -12,-33 -27,-74 -42,-128 -135,-370 -270,-741 -405,-1112 -92,-247 134,-401 318,-779 69,-99 148,-47 160,2 7,140 14,279 20,419 17,194 10,661 316,735 97,31 119,-29 108,-148 -28,-303 -21,-586 43,-904 28,-134 -2,-202 -85,-338 -96,-160 -112,-290 -150,-471 -60,-285 -115,-491 -457,-686 -370,-211 -362,-397 -479,-812 -57,-204 -68,-393 -96,-803 90,-1411 304,-2492 887,-3763 73,-111 216,-1082 252,-1011 -411,-537 2856,-1333 -595,-1532z"/>
       <path class="fil3" d="M13508 38945l0 7 0 15 1 15 1 14 0 15 1 15 0 15 1 14 0 15 1 15 0 14 1 15 0 15 1 15 0 14 1 15 1 15 0 14 1 15 0 15 1 15 0 14 1 15 0 15 1 14 0 15 1 15 0 14 1 15 1 15 0 15 1 14 0 15 1 15 0 14 1 15 0 15 1 15c11,161 -32,211 214,312 329,165 385,280 618,546 203,207 219,251 511,264 139,18 117,-2 200,111 74,99 163,225 258,298 187,145 321,-13 250,-212 -12,-33 -27,-75 -42,-128 -135,-370 -270,-741 -405,-1112 -92,-247 134,-401 318,-779 69,-99 148,-47 160,2 7,140 14,279 20,419 17,194 10,661 316,735 97,31 119,-29 108,-148 -28,-303 -21,-586 43,-904 28,-134 -2,-202 -85,-338 -96,-160 -112,-290 -150,-471 -60,-285 -115,-491 -457,-686 -370,-211 -362,-397 -479,-812 -57,-204 -68,-393 -96,-803l5 -68 1 -10 3 -58c84,-1319 321,-2405 878,-3627 -954,1381 -1456,4528 -551,5390 558,366 357,846 120,1280 -80,148 -151,277 -255,410 -60,77 -127,138 -200,103 -209,-93 -316,-129 -412,125 -30,75 -137,128 -223,7 -24,-50 -58,-86 -93,-109 -69,-46 -153,-74 -227,-27 -25,16 -43,35 -78,54 -193,105 -257,-187 -290,-316z"/>
      </g>
      <path class="fil4" d="M14009 54332c3547,-517 8451,-861 12101,-861 4820,0 4939,1544 366,2608 -3273,762 -5130,-341 -8759,1613 -1979,1066 -4098,1758 -6049,242 -2394,-1860 -2065,-2959 2341,-3602z"/>
      <g>
       <path class="fil5" d="M22347 54594l17 2 5 1 48 7 17 2 32 4 39 6 9 1 48 6 13 2 35 5 35 4 13 2 48 6 9 1 39 5 12 1 34 4 2 0 48 6 5 0 43 5 27 3 7 1 62 6 1 0 59 6 27 2 9 1 44 4 4 0 59 5 19 1 37 3 28 2 48 3 3 0 27 1 40 2 21 1 4 0 48 2 3 0 23 1 43 1 16 1 59 0 17 1 46 0 22 0 48 -1 9 0 2 0 13 0 44 -1 26 -1 41 -1 15 -1 2 0c19,-1 38,-2 56,-3l23 -1 47 -4 10 0 7 -1c18,-1 36,-3 54,-4l24 -3 40 -3 19 -2c20,-3 39,-5 59,-7l16 -2 45 -6 22 -3c18,-3 36,-6 54,-9l21 -3 45 -8 18 -3c19,-3 39,-7 58,-11l3 -1 8 -1 50 -11 21 -4c19,-4 38,-9 57,-13l3 -1 1 0c19,-5 39,-10 59,-15l20 -5c17,-5 35,-9 52,-14l8 -2c20,-6 40,-12 60,-18l20 -6c16,-5 33,-10 49,-16l11 -3c21,-7 42,-14 63,-21l11 -4c19,-7 37,-14 56,-20l9 -4c21,-8 43,-16 64,-25l8 -3c18,-7 36,-15 55,-22l15 -7c20,-8 40,-17 60,-26l13 -6c17,-7 34,-15 51,-23l17 -8c20,-10 41,-20 61,-30 -149,-470 -552,-411 -1169,-411 -164,-24 -321,-68 -474,-124 -330,-122 -639,-303 -942,-479 -341,113 -682,225 -1023,338 -293,256 -585,512 -878,767 513,-26 947,111 1409,179z"/>
       <path class="fil6" d="M25231 54035c-208,-152 -538,-122 -976,-122 -164,-24 -321,-68 -474,-124 -298,-110 -578,-269 -854,-428 -209,162 -504,353 -623,552 -240,391 4,479 420,521 497,58 2279,199 2507,-399z"/>
       <path class="fil7" d="M23979 53853c-67,-19 -133,-40 -198,-64 -75,-28 -149,-59 -221,-92 -140,106 -309,223 -437,346 -51,48 -92,73 -87,146 8,111 138,134 236,151 248,44 395,-242 707,-487z"/>
       <path class="fil7" d="M23300 53570c-126,-67 -250,-138 -373,-209 -155,121 -358,257 -500,400 -167,167 9,244 174,273 257,45 362,-214 699,-464z"/>
       <path class="fil8" d="M20404 54607c117,454 317,393 790,393 604,0 950,-47 1452,-20 713,38 1561,97 2241,-162 131,-50 511,-207 546,-347 12,-45 3,-94 -9,-147 -1019,509 -2025,418 -3055,273 -471,-67 -910,-208 -1431,-182 -196,56 -345,114 -534,192z"/>
       <g>
        <path class="fil5" d="M15922 55143c133,193 265,387 398,580 348,391 550,353 1014,315 351,-41 588,-91 918,-201 448,-149 320,-323 41,-571 -173,-170 -247,-235 -374,-443 -984,-663 -1969,360 -1997,320z"/>
        <path class="fil6" d="M18379 55345c-26,-25 -55,-52 -86,-79 -173,-170 -247,-235 -374,-443 -689,-464 -1377,-102 -1739,143 235,397 375,837 891,825 191,-5 366,-26 555,-53 347,-51 762,-148 753,-393z"/>
        <path class="fil8" d="M15772 55294c207,330 318,486 489,742 187,265 392,327 634,334 380,13 921,-68 1270,-195 385,-140 463,-163 380,-588l0 0c12,94 -68,175 -293,250 -330,110 -567,160 -918,201 -464,38 -666,76 -1014,-315l-396 -577 -152 148z"/>
        <path class="fil7" d="M16778 55392c318,-86 357,-277 953,-240 147,0 210,44 210,-89 -23,-149 -72,-207 -156,-237 -145,-52 -367,-39 -518,-21 -175,20 -320,61 -474,131 -95,43 -334,160 -303,279 40,153 172,212 288,177z"/>
       </g>
      </g>
      <path class="fil9" d="M17495 16564c1730,0 4324,239 5743,-596 0,412 -201,419 -549,596 313,67 653,0 1014,-226 425,1886 378,4844 -388,6607 -366,845 -752,1509 -2158,1316 -631,-41 -2515,-423 -3016,-845 -591,-498 -792,-1379 -1228,-2405 -816,111 -1830,-808 -1570,-1794 118,-447 750,-762 1051,-466 355,347 643,1084 656,1664 106,-180 185,-339 264,-512 135,-294 88,-304 59,-623 -84,-914 -108,-1817 122,-2716z"/>
      <path class="fil1" d="M18279 16574c1659,36 3742,111 4959,-606 0,412 -201,419 -549,596 313,67 653,0 1014,-226 425,1886 378,4844 -388,6607 -366,845 -752,1509 -2158,1316 -336,-22 -1030,-141 -1679,-311l0 0c-1463,-1813 -1235,-5176 -1199,-7376z"/>
      <path class="fil10" d="M19320 16594c1420,14 2945,-53 3918,-626 0,412 -201,419 -549,596 313,67 653,0 1014,-226 425,1886 378,4844 -388,6607 -366,845 -752,1509 -2158,1316 920,-549 589,-1842 375,-2720 192,-37 384,-74 576,-111 16,-66 32,-132 48,-199 -55,-187 -109,-374 -164,-562 -101,-363 -201,-726 -302,-1089 -16,-302 -32,-605 -48,-907 -91,-846 104,-1702 -760,-1875 -433,-87 -1072,-121 -1562,-204z"/>
      <path class="fil11" d="M16021 18640c-189,-699 -247,-1369 -637,-1861 168,-223 429,-433 781,-644 -137,-50 -274,-100 -411,-150 1286,-2793 3544,-2271 5941,-1857 687,138 2343,687 2638,-364 278,586 351,1008 -21,1529 316,25 461,-50 593,-285 273,1299 -253,2102 -997,2656l0 0c-46,-476 -114,-926 -205,-1326 -361,226 -701,293 -1014,226 348,-177 549,-184 549,-596 -1419,835 -4013,596 -5743,596 -230,899 -206,1802 -122,2716 29,319 76,329 -59,623 -79,173 -158,332 -264,512 -13,-580 -301,-1317 -656,-1664 -98,-97 -233,-129 -373,-111z"/>
      <path class="fil12" d="M16110 16169c18,-12 36,-23 55,-34 -137,-50 -274,-100 -411,-150 1286,-2793 3544,-2271 5941,-1857 687,138 2343,687 2638,-364 300,1727 -1086,1073 -2278,1516 -597,222 -1177,615 -1612,444 419,-262 517,-435 617,-925 -680,791 -1891,840 -2861,884 -943,37 -1829,495 -1959,1556 -165,-252 -325,-707 -130,-1070z"/>
      <path class="fil1" d="M19199 23873c6,713 142,1502 -392,2021 494,920 2549,846 2841,-148 -432,-219 -589,-805 -611,-1496 -424,-43 -1186,-186 -1838,-377l0 0z"/>
      <path class="fil13" d="M19199 23873c1,96 4,194 7,292l0 0c728,533 1132,811 2005,1067l0 0c-112,-270 -162,-611 -174,-982 -424,-43 -1186,-186 -1838,-377l0 0z"/>
      <path class="fil8" d="M18576 25910c58,-29 125,-45 195,-45 7,0 14,1 21,1 469,955 2583,884 2861,-135 8,-1 17,-2 25,-2 8,0 17,-1 26,-1 60,0 118,12 170,34 -323,1219 -2765,1303 -3298,148z"/>
      <path class="fil14" d="M18576 25910c-637,147 -1273,294 -1909,442 -260,80 -280,85 -442,267 -917,1225 -1759,2540 -2638,3810 884,888 1860,1338 2802,1699 274,-548 549,-1096 823,-1644 -6,2023 167,4055 -138,6064 -35,208 -55,164 55,342 67,132 47,226 -13,309 -465,479 -97,562 370,671 1595,301 4579,332 6070,-514 266,-132 369,-216 199,-418 -195,-255 -39,-255 110,-479 112,-169 53,-230 -54,-304 -129,-89 -97,-69 -95,-232 107,-1898 187,-3795 74,-5693 493,411 986,822 1480,1234 354,-876 958,-2085 1096,-2983 -899,-716 -1729,-1457 -2559,-2275 -249,-211 -198,-215 -519,-258l-1418 -188 4 2c-323,1219 -2765,1303 -3298,148zm3077 -179l-78 189c33,-59 59,-122 78,-189z"/>
      <path class="fil15" d="M13587 30429c884,888 1860,1338 2802,1699 274,-548 549,-1096 823,-1644 -6,2023 167,4055 -138,6064 -35,208 -55,164 55,342 67,132 47,226 -13,309 -465,479 -97,562 370,671 1595,301 4579,332 6070,-514 266,-132 369,-216 199,-418 -195,-255 -39,-255 110,-479 112,-169 53,-230 -54,-304 -129,-89 -97,-69 -95,-232 107,-1898 187,-3795 74,-5693 493,411 986,822 1480,1234 331,-818 879,-1926 1063,-2801 -453,1329 -827,2015 -1148,2234 -327,196 -837,-626 -960,-880 -341,-704 -598,-1846 -678,-3079 52,2898 106,5813 7,8709 -23,1116 -677,1184 -1980,1836 745,-202 1149,-362 1850,-685 417,1365 -6093,1507 -6125,157 671,325 1335,500 1891,528 -440,-172 -1143,-392 -1512,-666 -264,-197 -306,-409 -272,-921 134,-2696 248,-6373 -412,-8924 60,1563 -13,2664 -499,4214 -120,382 -149,633 -512,514 -933,-367 -1547,-710 -2396,-1271z"/>
      <path class="fil8" d="M25270 31464c69,35 139,70 209,106 103,48 121,7 194,-173 409,-1011 616,-1635 857,-2734 36,-147 -10,-142 -164,-182 -138,898 -742,2107 -1096,2983z"/>
      <path class="fil16" d="M17082 37910c-378,1889 -208,5553 -586,7919 -26,161 -42,112 35,247 65,113 69,195 14,299 -77,145 -78,95 -100,273 -285,2310 -571,4621 -856,6932 -28,233 -36,318 -11,552 45,417 95,827 152,1245 712,-635 1417,-953 2357,-452 48,-281 96,-562 144,-843 53,-311 30,-351 -6,-660 -57,-485 -83,-1037 -83,-1471 -15,-4651 352,-4540 807,-7545 148,-721 283,-1446 417,-2172 141,-769 281,-1537 434,-2301 473,-193 727,-316 1233,-398 303,1516 -107,4752 -254,6439 -372,2843 -643,5779 -376,8663 789,-425 1129,-168 2055,-1014 165,-110 439,-329 439,-329 -9,-173 3,-334 -18,-500 -20,-159 -40,-118 -139,-232 -288,-332 -277,-889 -364,-1543 0,0 82,-3124 82,-3289 0,-164 514,-2001 514,-2001 53,-191 105,-383 158,-575 21,-177 43,-354 65,-531 168,-1361 337,-2723 505,-4084 55,-804 110,-1608 165,-2412 -23,-207 -45,-413 -68,-620 -132,-23 -265,-45 -397,-68 -1535,760 -4373,722 -5914,431 -89,-21 -174,-40 -251,-62 -51,34 -102,68 -153,102z"/>
      <path class="fil17" d="M17378 38183c-19,249 -47,532 -65,781 327,164 664,292 990,459 -363,37 -727,73 -1090,110 -4,32 -9,64 -14,96 213,52 425,105 638,157 -176,62 -352,124 -528,185 -62,1857 -123,3714 -185,5571 396,297 786,547 1408,741 378,-2135 761,-4305 1139,-6443 35,-195 2,-155 193,-213 501,-151 1664,-653 2063,-643 -67,81 -135,162 -203,242 -213,253 -156,198 -123,532 142,1447 92,2538 32,4098 -53,564 -106,1129 -158,1693 36,215 396,404 917,450 447,47 451,-122 536,-663 321,-2037 541,-3883 719,-5975 -269,-176 -303,-140 -624,-171 162,-76 523,-207 782,-189 -28,-437 -55,-875 -83,-1312 -1581,1156 -5708,883 -6344,494z"/>
      <path class="fil18" d="M21656 18604c63,924 310,1594 644,2419 360,833 -1102,678 -1480,20 263,197 559,305 812,327 444,38 468,-35 304,-395 -387,-1021 -458,-1489 -280,-2371z"/>
      <path class="fil19" d="M20678 17778c-74,-38 -165,-42 -259,-35 -254,20 -517,106 -760,180 -287,88 -569,193 -820,356 -54,53 -3,188 113,139 277,-125 743,-184 1045,-187 478,-6 704,150 785,23 69,-108 40,-402 -104,-476z"/>
      <path class="fil19" d="M22147 18202c22,147 206,123 458,97 316,-32 603,6 895,86 125,29 236,103 294,48 77,-71 5,-147 -77,-200 -206,-131 -1184,-611 -1483,-370 -79,64 -101,242 -87,339z"/>
      <path class="fil20" d="M16470 19729c-442,-361 -705,623 89,887 -753,19 -951,-935 -422,-1165 -140,-400 -525,-69 -531,185 -93,-949 968,-621 864,93z"/>
      <g>
       <ellipse class="fil21" cx="19743" cy="19340" rx="349" ry="418"/>
       <ellipse class="fil22" cx="19586" cy="19167" rx="133" ry="159"/>
       <path class="fil23" d="M19743 18773c240,0 435,220 435,492 0,259 -176,470 -399,491 176,-22 313,-200 313,-416 0,-231 -156,-418 -349,-418 -193,0 -350,187 -350,418 0,216 137,394 314,416 -224,-21 -400,-232 -400,-491 0,-272 195,-492 436,-492z"/>
      </g>
      <g>
       <ellipse class="fil21" cx="22934" cy="19355" rx="337" ry="403"/>
       <ellipse class="fil22" cx="22783" cy="19188" rx="129" ry="154"/>
       <path class="fil23" d="M22934 18807c232,0 420,213 420,476 0,249 -170,453 -385,473 170,-21 302,-193 302,-401 0,-223 -151,-404 -337,-404 -186,0 -337,181 -337,404 0,208 132,380 302,401 -216,-20 -385,-224 -385,-473 0,-263 188,-476 420,-476z"/>
      </g>
      <path class="fil8" d="M16958 37680c-2,249 358,401 834,495 1792,357 4313,155 5473,-360 258,-86 734,-273 536,-617l0 0c-45,53 -130,101 -245,158 -1491,846 -4475,815 -6070,514 -228,-53 -432,-100 -528,-190l0 0z"/>
      <path class="fil8" d="M16389 32128c-22,150 -40,225 -180,169 -1108,-422 -1860,-950 -2662,-1793 -14,-27 -5,-48 45,-69l1 -1c882,885 1857,1334 2796,1694z"/>
      <path class="fil24" d="M20157 21999c727,310 1688,594 2447,246 -471,610 -1870,320 -2447,-246z"/>
     </g>
     <path class="fil6" d="M4707 20557l-654 0c0,-215 31,-537 -297,-537 -148,0 -259,111 -259,260l0 3814c0,325 556,416 556,-111l0 -167 3851 0c711,0 1477,-308 1929,-681 219,-180 248,-225 354,-304 945,-518 1647,-1425 1889,-2506 63,-266 93,-546 92,-828l0 -7c0,-343 -45,-675 -130,-990 -117,-450 -310,-872 -566,-1215 -313,-418 -489,-593 -907,-907 -88,-65 -176,-117 -269,-175l-130 -65c-62,-34 -125,-66 -189,-96l-137 -69c-60,-24 -112,-42 -162,-60 -419,-157 -864,-232 -1308,-230l-9 0c-2102,0 -3806,1704 -3806,3807 0,370 53,729 152,1067zm3654 -4308c1790,0 3241,1451 3241,3241 0,1789 -1451,3240 -3241,3240 -1789,0 -3240,-1451 -3240,-3240 0,-1790 1451,-3241 3240,-3241z"/>
     <path class="fil25" d="M7755 18761c-168,-45 -523,-435 -628,-611 -146,-244 -279,-576 -279,-962 -62,16 -81,52 -125,97 -47,48 -76,73 -116,125 -83,107 -124,161 -185,296 -420,938 660,1655 1019,1685 -45,61 -66,39 -233,64 -239,36 -573,-2 -793,-75 -227,-75 -400,-170 -583,-306 -58,-44 -95,-108 -169,-127 0,348 -6,533 124,765 159,283 459,532 786,565 339,35 182,8 405,3 366,-9 611,-183 703,-204 -361,540 -892,926 -1610,926 90,135 357,364 525,437 370,160 817,73 1125,-175l132 -109c210,-185 326,-466 433,-715 2,-6 9,-21 12,-26l13 -23c6,280 137,477 -35,1039 -128,421 -293,528 -447,757 379,0 506,16 772,-117 561,-282 687,-967 506,-1568 -18,-60 -35,-102 -62,-161l-68 -154c172,46 528,456 638,622 163,248 281,665 288,970 139,-92 360,-364 429,-533 212,-516 -17,-1054 -418,-1366 -374,-291 -420,-230 -617,-327l-23 -14c277,-6 522,-140 1053,39 239,81 386,162 581,307 75,56 100,93 180,135 0,-371 -3,-506 -129,-759 -151,-302 -421,-514 -759,-574 -116,-21 -283,-28 -426,-17 -113,8 -269,46 -371,73 -64,16 -105,34 -164,58 -57,23 -105,57 -169,72 46,-70 79,-117 132,-183 251,-316 532,-523 925,-649 117,-37 394,-91 535,-94 -97,-146 -336,-345 -518,-426 -246,-110 -526,-116 -791,-14 -216,83 -428,240 -558,405 -81,102 -128,164 -199,283 -43,74 -129,251 -137,344l-37 0c0,-278 -121,-518 53,-1039 46,-138 119,-275 187,-387l184 -261c40,-49 40,-25 57,-90 -532,0 -936,58 -1206,571 -199,379 -180,869 -8,1273 27,63 51,91 66,155zm621 163c304,0 551,246 551,551 0,304 -247,550 -551,550 -305,0 -551,-246 -551,-550 0,-305 246,-551 551,-551z"/>
     <g id="_920242560">
      <path class="fil0 str1" d="M16243 3060c935,-1276 2365,-2168 4007,-2392m-5087 4992c27,-171 61,-340 102,-505m118 -416c53,-163 113,-323 179,-479m168 -363c75,-147 155,-291 241,-431"/>
      <polygon class="fil6 str2" points="18622,86 19180,904 19115,1917 20530,586 "/>
      <g>
       <path class="fil0 str3" d="M24509 1535c1301,901 2231,2306 2500,3941m-5127 -4951c171,23 341,52 507,88m420 108c164,48 325,104 483,166m367 158c149,70 295,147 437,229"/>
       <polygon class="fil5 str4" points="27546,3833 26744,4413 25729,4376 27098,5754 "/>
      </g>
      <g>
       <path class="fil0 str5" d="M26256 9757c-865,1325 -2245,2292 -3873,2605m4812 -5259c-18,173 -43,343 -74,511m-97 421c-44,166 -95,329 -153,488m-148 371c-66,151 -139,299 -217,444"/>
       <polygon class="fil6 str6" points="24040,12855 23439,12068 23449,11053 22108,12458 "/>
      </g>
      <g>
       <path class="fil0 str7" d="M18084 11724c-1348,-829 -2352,-2183 -2708,-3801m5386 4668c-173,-13 -344,-33 -512,-60m-425 -85c-166,-40 -330,-86 -491,-140m-375 -138c-153,-62 -303,-131 -449,-205"/>
       <polygon class="fil5 str8" points="14927,9592 15698,8971 16713,8953 15272,7650 "/>
      </g>
      <g>
       <path class="fil6" d="M20783 4088c192,51 373,127 540,226l416 -413c94,-92 247,-92 340,2l430 436c93,94 92,246 -1,339l-417 412c97,169 172,352 220,545l586 7c132,2 238,111 237,243l-8 613c-1,132 -111,238 -243,237l-585 -8c-53,192 -132,373 -233,538l407 422c91,95 88,248 -7,340l-441 425c-95,91 -247,88 -339,-7l-407 -422c-158,89 -329,158 -509,204l-4 586c-1,132 -110,239 -242,238l-612 -4c-132,-1 -239,-110 -239,-242l5 -585c-184,-50 -358,-124 -518,-218l-415 414c-94,93 -246,93 -340,0l-432 -434c-93,-93 -93,-246 0,-339l415 -414c-101,-175 -179,-365 -228,-566l-585 -11c-132,-3 -238,-113 -236,-245l12 -612c2,-132 112,-238 244,-235l586 11c52,-184 128,-357 224,-517l-409 -420c-92,-95 -89,-247 5,-339l439 -427c95,-92 248,-90 340,5l408 420c157,-89 326,-158 504,-205l0 -586c0,-132 108,-240 240,-240l612 0c132,0 240,108 240,240l0 586z"/>
       <path class="fil22" d="M20237 4425c956,0 1730,775 1730,1731 0,955 -774,1730 -1730,1730 -956,0 -1731,-775 -1731,-1730 0,-956 775,-1731 1731,-1731z"/>
       <ellipse class="fil22" cx="23154" cy="7696" rx="2449" ry="2367"/>
       <g>
        <path class="fil6" d="M22794 5831c1002,0 1815,813 1815,1815 0,1003 -813,1815 -1815,1815 -1003,0 -1816,-812 -1816,-1815 0,-1002 813,-1815 1816,-1815zm0 286c844,0 1529,685 1529,1529 0,845 -685,1529 -1529,1529 -845,0 -1530,-684 -1530,-1529 0,-844 685,-1529 1530,-1529z"/>
        <circle class="fil22" cx="22794" cy="7646" r="1529"/>
        <rect class="fil26" x="22599" y="5761" width="425" height="121"/>
        <rect class="fil6" x="22478" y="5373" width="667" height="389" rx="29" ry="59"/>
        <rect class="fil5" transform="matrix(0.124085 -0.124553 0.124553 0.124085 21350.3 6417.99)" width="1824" height="519"/>
        <rect class="fil6" transform="matrix(0.194686 -0.195421 -0.400093 -0.39859 21285.9 6482.63)" width="1824" height="519" rx="78" ry="78"/>
        <g>
         <rect class="fil25" x="22745" y="6329" width="230" height="1199"/>
         <rect class="fil25" transform="matrix(0.209786 0.139073 0.139073 -0.209786 22036.2 8689.09)" width="912" height="4765"/>
         <circle class="fil6" cx="22871" cy="7643" r="301"/>
        </g>
       </g>
      </g>
     </g>
     <g id="_920239368">
      <path class="fil5" d="M34227 17757c1196,0 2166,970 2166,2166 0,1196 -970,2165 -2166,2165 -1196,0 -2166,-969 -2166,-2165 0,-1196 970,-2166 2166,-2166z"/>
      <circle class="fil22" cx="34227" cy="19923" r="1563"/>
      <path class="fil25" d="M33181 18022c-66,-980 -483,-1257 -1560,-1477 1578,-622 2187,227 2555,1213 -355,8 -689,101 -982,261l-13 3z"/>
      <path class="fil25" d="M32153 19285c-728,-658 -1221,-567 -2148,25 701,-1545 1729,-1359 2679,-907 -238,242 -420,539 -524,871l-7 11z"/>
      <path class="fil25" d="M32294 20907c-981,35 -1272,443 -1526,1513 -572,-1597 296,-2179 1294,-2515 0,6 -1,12 -1,18 0,349 83,679 230,971l3 13z"/>
      <path class="fil25" d="M33523 21975c-680,707 -605,1203 -44,2148 -1521,-750 -1302,-1772 -820,-2707 234,246 526,437 853,551l11 8z"/>
      <path class="fil25" d="M35149 21886c4,982 402,1286 1463,1574 -1614,520 -2168,-366 -2472,-1374 29,1 58,2 87,2 325,0 633,-71 909,-199l13 -3z"/>
      <path class="fil25" d="M36256 20691c685,703 1183,644 2145,113 -797,1497 -1812,1246 -2731,734 253,-227 453,-513 578,-836l8 -11z"/>
      <path class="fil25" d="M36219 19063c982,29 1298,-360 1620,-1411 468,1630 -435,2155 -1452,2427 4,-52 6,-104 6,-156 0,-301 -61,-587 -172,-847l-2 -13z"/>
      <path class="fil25" d="M34798 17830c634,-750 528,-1240 -93,-2147 1566,651 1413,1685 991,2649 -248,-230 -551,-402 -886,-496l-12 -6z"/>
      <circle class="fil25" cx="34227" cy="19923" r="646"/>
     </g>
    </g>
   </g>
   <g style="clip-path:url(#id2)">
    <polygon class="fil0" points="2754,-651 39514,-651 39514,35883 2754,35883 "/>
   </g>
  </g>
  <polygon class="fil0" points="0,0 41613,0 41613,35883 0,35883 "/>
 </g>
</svg>
