<?xml version="1.0" encoding="UTF-8"?>
<!DOCTYPE svg PUBLIC "-//W3C//DTD SVG 1.1//EN" "http://www.w3.org/Graphics/SVG/1.1/DTD/svg11.dtd">
<!-- Creator: CorelDRAW X7 -->
<svg xmlns="http://www.w3.org/2000/svg" xml:space="preserve" width="5.51307in" height="4.75389in" version="1.1" style="shape-rendering:geometricPrecision; text-rendering:geometricPrecision; image-rendering:optimizeQuality; fill-rule:evenodd; clip-rule:evenodd"
viewBox="0 0 2523 2175"
 xmlns:xlink="http://www.w3.org/1999/xlink">
 <defs>
  <style type="text/css">
   <![CDATA[
    .str9 {stroke:#B3B3B3;stroke-width:3.17808}
    .str10 {stroke:#333333;stroke-width:1.37284}
    .str2 {stroke:black;stroke-width:1.91514}
    .str6 {stroke:black;stroke-width:1.91514}
    .str4 {stroke:black;stroke-width:1.91514}
    .str8 {stroke:black;stroke-width:1.91514}
    .str1 {stroke:#FFCC00;stroke-width:17.7263}
    .str3 {stroke:#FFCC00;stroke-width:17.7263}
    .str5 {stroke:#FFCC00;stroke-width:17.7263}
    .str7 {stroke:#FFCC00;stroke-width:17.7263}
    .str0 {stroke:black;stroke-width:6.35616;stroke-dasharray:6.356163 19.068489}
    .fil0 {fill:none}
    .fil16 {fill:#09415C}
    .fil17 {fill:#0E5979}
    .fil5 {fill:#1A1A1A}
    .fil26 {fill:#1D1D1D}
    .fil15 {fill:#2F84C4}
    .fil6 {fill:#333333}
    .fil14 {fill:#3FA9F5}
    .fil21 {fill:#4D1D07}
    .fil11 {fill:#581504}
    .fil12 {fill:#792407}
    .fil19 {fill:#822D08}
    .fil24 {fill:#B71000}
    .fil28 {fill:#C83513}
    .fil4 {fill:#CCCCCC}
    .fil27 {fill:#E2552A}
    .fil18 {fill:#E65A1C}
    .fil8 {fill:#E6E6E6}
    .fil7 {fill:#E7E7E7}
    .fil20 {fill:#F2662B}
    .fil13 {fill:#F37542}
    .fil3 {fill:#F7844D}
    .fil2 {fill:#FA824E}
    .fil23 {fill:#FB844C}
    .fil10 {fill:#FE9554}
    .fil9 {fill:#FEAD6C}
    .fil1 {fill:#FFA161}
    .fil25 {fill:#FFCC00}
    .fil22 {fill:white}
    .fil29 {fill:#CC3300;fill-opacity:0.501961}
   ]]>
  </style>
   <clipPath id="id0">
    <path d="M0 0l2523 0 0 2175 -2523 0 0 -2175z"/>
   </clipPath>
    <clipPath id="id1">
    </clipPath>
    <clipPath id="id2">
     <path d="M0 0l2523 0 0 2175 -2523 0 0 -2175z"/>
    </clipPath>
    <clipPath id="id3">
    </clipPath>
    <clipPath id="id4">
     <path d="M0 0l2523 0 0 2175 -2523 0 0 -2175z"/>
    </clipPath>
    <clipPath id="id5">
    </clipPath>
    <clipPath id="id6">
     <path d="M0 0l2523 0 0 2175 -2523 0 0 -2175z"/>
    </clipPath>
 </defs>
 <g id="Layer_x0020_1">
  <metadata id="CorelCorpID_0Corel-Layer"/>
  <g>
  </g>
  <g style="clip-path:url(#id0)">
   <g>
    <g>
    </g>
   </g>
   <g style="clip-path:url(#id1)">
    <g>
     <path class="fil0 str0" d="M3877 -3292c149,93 264,233 324,400m-1466 -25c66,-165 187,-302 340,-390"/>
     <g id="_845764832">
      <g>
       <path class="fil1" d="M3779 -2079c21,19 39,37 60,57 5,4 8,2 13,-4 27,-32 68,-87 93,-116 12,-21 -28,-42 6,-108 14,-36 14,-71 1,-108 -3,-19 3,-27 19,-25 36,8 35,30 32,60 -2,9 -4,19 -5,28 -4,20 5,22 17,18 11,-3 11,-7 19,-12 16,-10 30,4 28,21 0,5 -1,5 4,5 29,3 8,29 19,34 11,3 9,15 6,21 -3,6 -1,7 1,8 7,5 4,15 0,23 -7,17 -40,47 -59,49 -14,1 -26,-1 -36,9 -4,4 -8,9 -12,14 -36,60 -74,117 -116,171 -12,15 -14,19 -31,9 -30,-21 -61,-41 -92,-62 0,0 -21,-60 -14,-64 7,-4 47,-28 47,-28z"/>
       <path class="fil2" d="M3976 -2090c-33,54 -68,107 -107,156 -12,15 -14,19 -31,9 -30,-21 -61,-41 -92,-62 0,0 -21,-60 -14,-64 4,-2 22,-13 35,-21l8 3c-4,20 -9,41 -14,61 -1,3 -2,7 -3,10 27,19 54,37 81,56 15,9 20,6 34,-9 1,-2 103,-139 103,-139z"/>
       <path class="fil2" d="M4022 -2276c-17,13 -51,23 -41,44 5,18 13,44 3,61 15,1 38,3 50,12 24,16 37,-1 55,-17 2,-1 2,-3 0,-2 -11,7 -21,14 -33,19 -15,5 -22,-11 -11,-17 10,-5 16,-9 25,-14 8,-6 4,-7 -3,-4 -8,4 -16,9 -27,15 -18,8 -28,-5 -15,-17 11,-11 28,-20 41,-28 1,0 0,-1 0,-1 -1,-1 -2,0 -3,0 -16,8 -31,17 -46,25 -15,8 -26,-11 -12,-21 4,-3 9,-6 12,-8 10,-7 19,-14 29,-21 -27,12 -29,21 -42,21 -6,0 -11,-7 -12,-12 -1,-6 2,-9 6,-12 8,-8 22,-21 24,-23z"/>
      </g>
      <g>
       <path class="fil1" d="M3118 -2051c-48,-14 -74,87 -85,188 -11,90 -8,147 2,233 3,24 5,47 1,63 -3,15 -18,32 -27,44 -7,10 -5,12 -5,22 1,19 2,38 3,57 0,9 -2,12 12,19 20,10 24,17 38,33 12,12 13,15 31,16 8,1 7,0 12,6 5,6 10,14 16,19 11,8 19,-1 15,-13 -1,-2 -2,-5 -3,-8 -8,-23 -16,-45 -24,-68 -6,-15 8,-24 19,-47 4,-6 9,-3 10,0 0,9 1,17 1,26 1,12 1,40 19,44 6,2 7,-1 7,-9 -2,-18 -2,-35 2,-54 2,-9 0,-13 -5,-21 -6,-10 -7,-18 -9,-29 -4,-17 -7,-29 -28,-41 -22,-13 -22,-24 -29,-49 -3,-13 -4,-24 -6,-49 6,-86 19,-151 54,-228 5,-7 13,-66 16,-61 -25,-33 173,-81 -37,-93z"/>
       <path class="fil3" d="M3005 -1478l0 1 0 1 0 0 0 1 0 1 0 1 1 1 0 1 0 1 0 1 0 1 0 0 0 1 0 1 0 1 0 1 0 1 0 1 0 1 0 1 0 0 0 1 0 1 0 1 0 1 0 1 0 1 0 1 0 1 0 1 0 0 0 1 0 1 0 1 0 1 0 1 0 1 1 1c0,9 -2,12 12,19 20,10 24,17 38,33 12,12 13,15 31,16 8,1 7,0 12,6 5,6 10,14 16,19 11,8 19,-1 15,-13 -1,-2 -2,-5 -3,-8 -8,-23 -16,-45 -24,-68 -6,-15 8,-24 19,-47 4,-6 9,-3 10,0 0,9 1,17 1,26 1,12 1,40 19,44 6,2 7,-1 7,-9 -2,-18 -2,-35 2,-54 2,-9 0,-13 -5,-21 -6,-10 -7,-18 -9,-29 -4,-17 -7,-29 -28,-41 -22,-13 -22,-24 -29,-49 -3,-13 -4,-24 -6,-49l1 -4 0 -1 0 -3c5,-80 19,-146 53,-220 -58,84 -88,274 -33,327 34,22 21,51 7,77 -5,9 -9,17 -15,25 -4,5 -8,8 -12,6 -13,-5 -20,-7 -25,8 -2,4 -9,8 -14,0 -1,-3 -3,-5 -6,-6 -4,-3 -9,-5 -13,-2 -2,1 -3,2 -5,3 -12,7 -16,-11 -18,-19z"/>
      </g>
      <path class="fil4" d="M3036 -545c215,-31 512,-52 733,-52 293,0 300,93 22,158 -198,46 -310,-21 -530,98 -121,64 -249,106 -367,14 -145,-112 -125,-179 142,-218z"/>
      <g>
       <path class="fil5" d="M3541 -529l1 0 1 0 2 1 1 0 2 0 3 0 0 0 3 1 1 0 2 0 2 0 1 0 3 1 1 0 2 0 1 0 2 1 0 0 3 0 0 0 3 0 1 0 1 0 3 1 0 0 4 0 2 0 0 0 3 1 0 0 4 0 1 0 2 0 2 0 3 0 0 0 2 0 2 1 1 0 1 0 2 0 1 0 1 0 3 0 1 0 3 0 1 0 3 0 1 0 3 0 1 0 0 0 1 0 2 0 2 0 2 0 1 0 0 0c2,0 3,0 4,0l1 -1 3 0 1 0 0 0c1,0 2,0 3,0l2 0 2 0 1 -1c2,0 3,0 4,0l1 0 3 0 1 -1c1,0 2,0 3,0l2 0 2 -1 1 0c2,0 3,0 4,-1l0 0 1 0 3 0 1 -1c1,0 2,0 3,-1l0 0 1 0c1,0 2,0 3,0l1 -1c1,0 2,0 3,-1l1 0c1,0 2,0 4,-1l1 0c1,-1 2,-1 3,-1l0 0c2,-1 3,-1 4,-2l1 0c1,0 2,-1 3,-1l1 0c1,-1 2,-1 4,-2l0 0c1,0 2,-1 4,-1l0 -1c2,0 3,-1 4,-1l1 -1c1,0 2,-1 3,-1l1 -1c1,0 3,-1 4,-1 -9,-29 -34,-25 -71,-25 -10,-2 -20,-4 -29,-8 -20,-7 -39,-18 -57,-29 -21,7 -41,14 -62,21 -18,15 -35,31 -53,46 31,-1 57,7 85,11z"/>
       <path class="fil6" d="M3716 -563c-13,-9 -33,-7 -59,-7 -10,-2 -20,-4 -29,-8 -18,-7 -35,-16 -52,-26 -12,10 -30,22 -37,34 -15,23 0,29 25,31 30,4 138,12 152,-24z"/>
       <path class="fil7" d="M3640 -574c-4,-1 -8,-2 -12,-4 -4,-2 -9,-3 -13,-5 -9,6 -19,13 -27,21 -3,2 -5,4 -5,8 0,7 8,9 14,10 15,2 24,-15 43,-30z"/>
       <path class="fil7" d="M3599 -591c-8,-4 -15,-9 -23,-13 -9,7 -21,16 -30,24 -10,11 1,15 11,17 15,3 22,-13 42,-28z"/>
       <path class="fil8" d="M3423 -528c7,27 20,24 48,24 37,0 58,-3 88,-2 44,3 95,6 136,-9 8,-4 31,-13 33,-22 1,-2 0,-5 0,-8 -62,30 -123,25 -185,16 -29,-4 -56,-13 -87,-11 -12,4 -21,7 -33,12z"/>
       <g>
        <path class="fil5" d="M3152 -496c8,12 16,24 24,35 21,24 33,22 61,19 22,-2 36,-5 56,-12 27,-9 19,-19 2,-34 -10,-11 -15,-15 -22,-27 -60,-40 -120,22 -121,19z"/>
        <path class="fil6" d="M3301 -484c-2,-1 -4,-3 -6,-4 -10,-11 -15,-15 -22,-27 -42,-28 -84,-6 -106,8 15,25 23,51 54,50 12,0 23,-1 34,-3 21,-3 46,-9 46,-24z"/>
        <path class="fil8" d="M3143 -487c12,20 19,30 29,45 12,16 24,20 39,21 23,0 55,-4 77,-12 23,-9 28,-10 23,-36l0 0c0,6 -4,11 -18,15 -20,7 -34,10 -56,12 -28,3 -40,5 -61,-19l-24 -35 -9 9z"/>
        <path class="fil7" d="M3204 -481c19,-5 21,-16 57,-14 9,0 13,2 13,-6 -1,-9 -4,-12 -9,-14 -9,-3 -23,-2 -32,-1 -10,1 -19,3 -29,8 -5,2 -20,9 -18,17 3,9 11,12 18,10z"/>
       </g>
      </g>
      <path class="fil9" d="M3247 -2835c105,0 262,15 348,-36 0,25 -12,26 -33,36 19,4 40,0 61,-13 26,114 23,293 -23,400 -22,51 -46,92 -131,80 -38,-3 -152,-26 -183,-51 -36,-30 -48,-84 -74,-146 -50,7 -111,-49 -95,-109 7,-27 45,-46 63,-28 22,21 39,66 40,101 6,-11 11,-21 16,-31 8,-18 5,-19 4,-38 -5,-55 -7,-110 7,-165z"/>
      <path class="fil1" d="M3295 -2834c100,2 226,7 300,-37 0,25 -12,26 -33,36 19,4 40,0 61,-13 26,114 23,293 -23,400 -22,51 -46,92 -131,80 -20,-1 -62,-9 -102,-19l0 0c-88,-110 -75,-314 -72,-447z"/>
      <path class="fil10" d="M3358 -2833c86,1 178,-3 237,-38 0,25 -12,26 -33,36 19,4 40,0 61,-13 26,114 23,293 -23,400 -22,51 -46,92 -131,80 56,-33 36,-112 23,-165 11,-2 23,-4 35,-7 1,-4 2,-8 3,-12 -4,-11 -7,-22 -10,-34 -6,-22 -13,-44 -19,-66 -1,-18 -2,-37 -3,-55 -5,-51 7,-103 -46,-113 -26,-6 -65,-8 -94,-13z"/>
      <path class="fil11" d="M3158 -2709c-12,-42 -15,-83 -39,-113 10,-13 26,-26 47,-39 -8,-3 -16,-6 -25,-9 78,-169 215,-137 361,-112 41,8 142,41 160,-22 16,35 21,61 -2,92 19,2 28,-3 36,-17 17,79 -15,127 -60,161l0 0c-3,-29 -7,-56 -13,-80 -21,13 -42,17 -61,13 21,-10 33,-11 33,-36 -86,51 -243,36 -348,36 -14,55 -12,110 -7,165 1,19 4,20 -4,38 -5,10 -10,20 -16,31 -1,-35 -18,-80 -40,-101 -6,-6 -14,-8 -22,-7z"/>
      <path class="fil12" d="M3163 -2859c1,0 2,-1 3,-2 -8,-3 -16,-6 -25,-9 78,-169 215,-137 361,-112 41,8 142,41 160,-22 18,104 -66,65 -139,91 -36,14 -71,38 -97,27 25,-15 31,-26 37,-56 -41,48 -114,51 -173,54 -57,2 -111,30 -119,94 -10,-15 -20,-43 -8,-65z"/>
      <path class="fil1" d="M3350 -2392c1,44 9,91 -23,123 30,56 154,51 172,-9 -26,-13 -36,-49 -37,-91 -26,-2 -72,-11 -112,-23l0 0z"/>
      <path class="fil13" d="M3350 -2392c0,6 1,12 1,18l0 0c44,32 68,49 121,65l0 0c-6,-17 -10,-37 -10,-60 -26,-2 -72,-11 -112,-23l0 0z"/>
      <path class="fil8" d="M3313 -2268c3,-2 7,-3 11,-3 1,0 1,0 2,0 28,58 156,54 173,-8 1,0 1,0 2,0 0,0 1,0 1,0 4,0 7,1 11,2 -20,74 -168,79 -200,9z"/>
      <path class="fil14" d="M3313 -2268c-39,9 -78,18 -116,27 -16,5 -17,5 -27,16 -56,74 -107,154 -160,231 54,54 113,81 170,103 17,-33 33,-67 50,-100 0,123 10,246 -8,368 -3,13 -4,10 3,21 4,8 3,13 -1,18 -28,29 -6,34 22,41 97,18 278,20 369,-31 16,-8 22,-13 12,-25 -12,-16 -3,-16 6,-30 7,-10 3,-13 -3,-18 -8,-5 -6,-4 -6,-14 7,-115 12,-230 5,-345 30,25 59,50 89,75 22,-53 58,-127 67,-181 -55,-44 -105,-88 -155,-138 -15,-13 -12,-13 -32,-16l-86 -11 1 0c-20,74 -168,79 -200,9zm186 -11l-5 12c2,-4 4,-8 5,-12z"/>
      <path class="fil15" d="M3010 -1994c54,54 113,81 170,103 17,-33 33,-67 50,-100 0,123 10,246 -8,368 -3,13 -4,10 3,21 4,8 3,13 -1,18 -28,29 -6,34 22,41 97,18 278,20 369,-31 16,-8 22,-13 12,-25 -12,-16 -3,-16 6,-30 7,-10 3,-13 -3,-18 -8,-5 -6,-4 -6,-14 7,-115 12,-230 5,-345 30,25 59,50 89,75 20,-50 54,-117 65,-170 -28,80 -50,122 -70,135 -20,12 -50,-38 -58,-53 -21,-43 -36,-112 -41,-187 3,176 6,353 0,528 -1,68 -41,72 -120,112 45,-13 70,-22 113,-42 25,83 -370,91 -372,10 41,19 81,30 115,32 -27,-11 -70,-24 -92,-41 -16,-12 -18,-25 -16,-56 8,-163 15,-386 -25,-541 3,95 -1,162 -31,256 -7,23 -9,38 -31,31 -56,-22 -93,-43 -145,-77z"/>
      <path class="fil8" d="M3718 -1931c5,2 9,4 13,6 6,3 7,1 12,-10 25,-62 37,-100 52,-166 2,-9 -1,-9 -10,-11 -9,54 -45,128 -67,181z"/>
      <path class="fil16" d="M3222 -1541c-23,115 -13,337 -36,481 -1,9 -2,6 3,15 4,6 4,11 0,18 -4,8 -4,5 -6,16 -17,140 -34,280 -52,420 -1,15 -2,20 0,34 3,25 6,50 9,75 43,-38 86,-57 143,-27 3,-17 6,-34 9,-51 3,-19 1,-21 -1,-40 -3,-30 -5,-63 -5,-89 -1,-282 22,-276 49,-458 9,-43 17,-87 25,-131 9,-47 17,-94 27,-140 28,-12 44,-19 75,-24 18,92 -7,288 -16,390 -22,173 -39,351 -23,526 48,-26 69,-11 125,-62 10,-7 27,-20 27,-20 -1,-10 0,-20 -2,-30 -1,-10 -2,-7 -8,-14 -17,-20 -17,-54 -22,-94 0,0 5,-189 5,-199 0,-10 31,-121 31,-121 3,-12 6,-24 10,-35 1,-11 2,-22 4,-33 10,-82 20,-165 30,-247 4,-49 7,-98 10,-146 -1,-13 -3,-25 -4,-38 -8,-1 -16,-3 -24,-4 -93,46 -265,44 -359,26 -5,-1 -10,-2 -15,-4 -3,2 -6,4 -9,6z"/>
      <path class="fil17" d="M3240 -1524c-1,15 -3,32 -4,47 20,10 40,18 60,28 -22,2 -44,5 -66,7 0,2 -1,4 -1,6 13,3 26,6 39,9 -11,4 -22,8 -32,11 -4,113 -8,226 -11,338 24,18 47,33 85,45 23,-129 46,-261 69,-391 2,-11 0,-9 12,-12 30,-10 101,-40 125,-39 -4,4 -8,9 -13,14 -12,16 -9,12 -7,32 9,88 6,154 2,249 -3,34 -6,68 -10,103 2,13 24,24 56,27 27,3 27,-8 32,-40 20,-124 33,-236 44,-363 -16,-10 -18,-8 -38,-10 10,-5 32,-12 48,-11 -2,-27 -4,-53 -5,-80 -96,70 -346,54 -385,30z"/>
      <path class="fil18" d="M3499 -2711c4,56 19,97 39,147 22,50 -66,41 -89,1 16,12 33,18 49,20 27,2 28,-2 18,-24 -23,-62 -28,-90 -17,-144z"/>
      <path class="fil19" d="M3440 -2761c-4,-2 -10,-3 -16,-2 -15,1 -31,6 -46,11 -17,5 -34,11 -49,21 -4,4 -1,12 6,9 17,-8 45,-11 64,-12 29,0 42,9 47,2 4,-7 3,-25 -6,-29z"/>
      <path class="fil19" d="M3529 -2735c1,9 13,7 28,6 19,-2 36,0 54,5 8,1 14,6 18,3 5,-5 0,-9 -5,-12 -12,-8 -72,-38 -90,-23 -4,4 -6,15 -5,21z"/>
      <path class="fil20" d="M3185 -2643c-27,-22 -43,38 5,54 -45,1 -57,-57 -25,-71 -9,-24 -32,-4 -32,12 -6,-58 58,-38 52,5z"/>
      <g>
       <ellipse class="fil21" cx="3383" cy="-2666" rx="21" ry="25"/>
       <ellipse class="fil22" cx="3374" cy="-2677" rx="8" ry="10"/>
       <path class="fil23" d="M3383 -2701c15,0 27,14 27,30 0,16 -11,29 -25,30 11,-1 19,-12 19,-25 0,-14 -9,-26 -21,-26 -11,0 -21,12 -21,26 0,13 8,24 19,25 -13,-1 -24,-14 -24,-30 0,-16 12,-30 26,-30z"/>
      </g>
      <g>
       <ellipse class="fil21" cx="3577" cy="-2665" rx="20" ry="24"/>
       <ellipse class="fil22" cx="3568" cy="-2676" rx="8" ry="9"/>
       <path class="fil23" d="M3577 -2699c14,0 25,13 25,29 0,15 -10,28 -23,29 10,-1 18,-12 18,-24 0,-14 -9,-25 -20,-25 -12,0 -21,11 -21,25 0,12 8,23 19,24 -13,-1 -24,-14 -24,-29 0,-16 12,-29 26,-29z"/>
      </g>
      <path class="fil8" d="M3214 -1554c0,15 22,24 51,30 109,21 262,9 332,-22 15,-6 44,-17 32,-38l0 0c-2,3 -8,6 -14,10 -91,51 -272,49 -369,31 -13,-3 -26,-6 -31,-11l-1 0z"/>
      <path class="fil8" d="M3180 -1891c-1,9 -2,14 -11,10 -67,-25 -113,-57 -161,-109 -1,-1 -1,-2 2,-4l0 0c54,54 113,81 170,103z"/>
      <path class="fil24" d="M3408 -2505c45,19 103,36 149,15 -29,37 -114,19 -149,-15z"/>
     </g>
     <path class="fil6" d="M2472 -2593l-40 0c0,-13 2,-32 -18,-32 -9,0 -16,7 -16,16l0 231c0,20 34,25 34,-7l0 -10 234 0c43,0 89,-19 117,-41 13,-11 15,-14 21,-19 57,-31 100,-86 114,-152 4,-16 6,-33 6,-50l0 0c0,-21 -3,-41 -8,-60 -7,-28 -19,-53 -34,-74 -19,-25 -30,-36 -55,-55 -5,-4 -11,-7 -16,-11l-8 -4c-4,-2 -8,-3 -12,-5l-8 -4c-4,-2 -7,-3 -10,-4 -25,-10 -52,-14 -79,-14l-1 0c-127,0 -230,103 -230,231 0,22 3,44 9,64zm221 -261c109,0 197,88 197,197 0,108 -88,196 -197,196 -108,0 -196,-88 -196,-196 0,-109 88,-197 196,-197z"/>
     <path class="fil25" d="M2657 -2701c-11,-3 -32,-27 -39,-38 -8,-14 -16,-34 -16,-58 -4,1 -5,3 -8,6 -3,3 -5,4 -7,8 -5,6 -8,9 -11,18 -26,56 40,100 61,102 -2,3 -4,2 -14,4 -14,2 -34,-1 -48,-5 -13,-5 -24,-10 -35,-19 -4,-2 -6,-6 -10,-7 0,21 -1,32 7,46 10,17 28,32 48,34 20,3 11,1 24,1 23,-1 37,-11 43,-13 -22,33 -54,56 -98,56 6,9 22,22 32,27 23,10 50,4 68,-11l8 -6c13,-12 20,-29 27,-44 0,0 0,-1 0,-1l1 -2c1,17 9,29 -2,63 -8,26 -18,32 -27,46 23,0 31,1 47,-7 34,-17 41,-58 31,-95 -2,-4 -3,-6 -4,-10l-4 -9c10,3 32,28 38,38 10,15 17,40 18,59 8,-6 22,-23 26,-33 13,-31 -1,-64 -26,-83 -22,-17 -25,-14 -37,-19l-1 -1c16,-1 31,-9 63,2 15,5 24,10 36,19 4,3 6,5 11,8 0,-23 -1,-31 -8,-46 -9,-18 -26,-31 -46,-35 -7,-1 -17,-2 -26,-1 -7,1 -16,3 -23,4 -3,1 -6,2 -9,4 -4,1 -7,3 -11,4 3,-4 5,-7 8,-11 15,-19 33,-31 56,-39 7,-2 24,-6 33,-6 -6,-9 -21,-21 -32,-26 -15,-6 -31,-7 -48,0 -13,5 -26,14 -33,24 -5,6 -8,10 -12,17 -3,5 -8,15 -9,21l-2 0c0,-17 -7,-31 3,-63 3,-8 7,-17 11,-23l12 -16c2,-3 2,-2 3,-6 -32,0 -57,4 -73,35 -12,23 -11,53 0,77 1,4 3,6 4,10zm37 9c19,0 34,15 34,34 0,18 -15,33 -34,33 -18,0 -33,-15 -33,-33 0,-19 15,-34 33,-34z"/>
     <g id="_578707480">
      <path class="fil0 str1" d="M3171 -3653c57,-78 144,-132 243,-145m-308 302c1,-10 3,-20 6,-30m7 -26c3,-9 7,-19 11,-29m10 -22c5,-9 9,-17 15,-26"/>
      <polygon class="fil6 str2" points="3315,-3834 3349,-3784 3345,-3723 3431,-3803 "/>
      <g>
       <path class="fil0 str3" d="M3672 -3746c79,55 136,140 152,239m-311 -300c10,1 21,3 31,5m25 7c10,3 20,6 30,10m22 9c9,5 18,9 26,14"/>
       <polygon class="fil5 str4" points="3856,-3606 3808,-3571 3746,-3574 3829,-3490 "/>
      </g>
      <g>
       <path class="fil0 str5" d="M3778 -3247c-52,80 -136,139 -235,158m292 -319c-1,10 -2,21 -4,31m-6 25c-3,10 -6,20 -10,30m-8 22c-5,9 -9,18 -14,27"/>
       <polygon class="fil6 str6" points="3644,-3060 3607,-3107 3608,-3169 3527,-3084 "/>
      </g>
      <g>
       <path class="fil0 str7" d="M3283 -3128c-82,-50 -143,-132 -164,-231m326 283c-10,0 -21,-2 -31,-3m-26 -5c-10,-3 -20,-6 -29,-9m-23 -8c-9,-4 -19,-8 -27,-13"/>
       <polygon class="fil5 str8" points="3091,-3257 3138,-3295 3200,-3296 3112,-3375 "/>
      </g>
      <g>
       <path class="fil6" d="M3446 -3591c12,3 23,8 33,14l25 -25c6,-6 15,-6 21,0l26 26c6,6 6,15 0,21l-25 25c6,10 10,21 13,33l36 0c8,0 14,7 14,15l-1 37c0,8 -6,15 -14,14l-36 0c-3,12 -8,23 -14,33l25 25c5,6 5,15 -1,21l-26 26c-6,5 -15,5 -21,-1l-25 -25c-9,5 -20,9 -30,12l-1 35c0,8 -6,15 -14,15l-38 0c-8,0 -14,-7 -14,-15l0 -36c-11,-3 -21,-7 -31,-13l-25 25c-6,6 -15,6 -21,0l-26 -26c-6,-6 -6,-15 0,-21l25 -25c-6,-10 -11,-22 -14,-34l-35 -1c-8,0 -15,-6 -14,-14l0 -38c0,-8 7,-14 15,-14l36 1c3,-11 7,-22 13,-31l-25 -26c-5,-6 -5,-15 1,-21l26 -25c6,-6 15,-6 21,0l25 25c9,-5 19,-9 30,-12l0 -36c0,-8 7,-14 15,-14l37 0c8,0 14,6 14,14l0 36z"/>
       <path class="fil22" d="M3413 -3571c58,0 105,47 105,105 0,58 -47,105 -105,105 -58,0 -105,-47 -105,-105 0,-58 47,-105 105,-105z"/>
       <ellipse class="fil22" cx="3590" cy="-3372" rx="148" ry="144"/>
       <g>
        <path class="fil6" d="M3568 -3485c61,0 110,49 110,110 0,60 -49,110 -110,110 -61,0 -110,-50 -110,-110 0,-61 49,-110 110,-110zm0 17c51,0 93,41 93,93 0,51 -42,92 -93,92 -51,0 -92,-41 -92,-92 0,-52 41,-93 92,-93z"/>
        <circle class="fil22" cx="3568" cy="-3375" r="93"/>
        <rect class="fil26" x="3556" y="-3490" width="25.7889" height="7.33633"/>
        <rect class="fil6" x="3549" y="-3513" width="40.4622" height="23.566" rx="2" ry="4"/>
        <rect class="fil5" transform="matrix(0.124085 -0.124553 0.124553 0.124085 3480.77 -3449.78)" width="110.59" height="31.4601"/>
        <rect class="fil6" transform="matrix(0.194686 -0.195421 -0.400093 -0.39859 3476.86 -3445.86)" width="110.59" height="31.4601" rx="5" ry="5"/>
        <g>
         <rect class="fil25" x="3565" y="-3455" width="13.9178" height="72.7079"/>
         <rect class="fil25" transform="matrix(0.209786 0.139073 0.139073 -0.209786 3522.35 -3312.1)" width="55.2957" height="288.87"/>
         <circle class="fil6" cx="3573" cy="-3375" r="18"/>
        </g>
       </g>
      </g>
     </g>
     <g id="_578732512">
      <path class="fil5" d="M4261 -2762c73,0 132,58 132,131 0,72 -59,131 -132,131 -72,0 -131,-59 -131,-131 0,-73 59,-131 131,-131z"/>
      <circle class="fil22" cx="4261" cy="-2631" r="95"/>
      <path class="fil25" d="M4198 -2746c-4,-60 -29,-77 -95,-90 96,-38 133,14 155,74 -21,0 -41,6 -59,16l-1 0z"/>
      <path class="fil25" d="M4136 -2670c-44,-40 -74,-34 -131,2 43,-94 105,-83 163,-55 -15,14 -26,33 -32,53l0 0z"/>
      <path class="fil25" d="M4144 -2571c-59,2 -77,26 -92,91 -35,-96 18,-132 78,-152 0,0 0,1 0,1 0,21 5,41 14,59l0 1z"/>
      <path class="fil25" d="M4219 -2507c-41,43 -37,73 -3,131 -92,-46 -79,-108 -50,-164 15,14 32,26 52,33l1 0z"/>
      <path class="fil25" d="M4317 -2512c1,60 25,78 89,95 -98,32 -131,-22 -150,-83 2,0 4,0 5,0 20,0 39,-4 56,-12l0 0z"/>
      <path class="fil25" d="M4384 -2584c42,42 72,39 131,6 -49,91 -110,76 -166,45 15,-14 27,-31 35,-51l0 0z"/>
      <path class="fil25" d="M4382 -2683c60,2 79,-22 98,-86 29,99 -26,131 -88,147 1,-3 1,-6 1,-9 0,-18 -4,-36 -11,-51l0 -1z"/>
      <path class="fil25" d="M4296 -2758c39,-45 32,-75 -6,-130 95,39 86,102 61,161 -16,-14 -34,-25 -54,-31l-1 0z"/>
      <circle class="fil25" cx="4261" cy="-2631" r="39"/>
     </g>
    </g>
   </g>
   <g style="clip-path:url(#id2)">
    <polygon class="fil0" points="2353,-3878 4582,-3878 4582,-1663 2353,-1663 "/>
    <rect class="fil22" x="-1923" y="2237" width="1948" height="1855"/>
    <circle class="fil0 str9" cx="1191" cy="1263" r="120"/>
    <circle class="fil0 str9" cx="1016" cy="1395" r="48"/>
    <g>
     <circle class="fil0 str9" cx="1683" cy="658" r="611"/>
     <g id="_578729176">
      <path class="fil6" d="M1497 887l-49 0c0,-16 2,-40 -22,-40 -11,0 -19,9 -19,20l0 283c0,25 41,31 41,-8l0 -12 286 0c53,0 110,-23 144,-51 16,-13 18,-17 26,-23 71,-38 123,-106 141,-186 4,-20 7,-41 7,-62l0 0c0,-26 -4,-50 -10,-74 -9,-33 -23,-64 -42,-90 -23,-31 -36,-44 -68,-67 -6,-5 -13,-9 -20,-14l-9 -4c-5,-3 -10,-5 -14,-7l-11 -6c-4,-1 -8,-3 -12,-4 -31,-12 -64,-17 -97,-17l0 0c-157,0 -284,127 -284,283 0,28 4,54 12,79zm272 -320c133,0 241,108 241,241 0,133 -108,241 -241,241 -134,0 -242,-108 -242,-241 0,-133 108,-241 242,-241z"/>
      <path class="fil25" d="M1723 754c-12,-4 -38,-33 -46,-46 -11,-18 -21,-43 -21,-71 -5,1 -6,4 -9,7 -4,4 -6,5 -9,9 -6,8 -9,12 -14,22 -31,70 49,123 76,126 -3,4 -5,2 -17,4 -18,3 -43,0 -59,-5 -17,-6 -30,-13 -44,-23 -4,-3 -7,-8 -12,-9 0,25 -1,39 9,56 12,22 34,40 58,43 26,2 14,0 31,0 27,-1 45,-14 52,-15 -27,40 -66,68 -120,68 7,10 27,27 39,33 28,12 61,5 84,-13l10 -8c15,-14 24,-35 32,-53 0,-1 1,-2 1,-2l1 -2c0,21 10,35 -3,77 -9,32 -22,40 -33,57 28,0 38,1 57,-9 42,-21 51,-72 38,-117 -1,-4 -3,-7 -5,-12l-5 -11c13,3 40,34 48,46 12,18 21,50 21,72 10,-7 27,-27 32,-39 16,-39 -1,-79 -31,-102 -28,-22 -31,-17 -46,-24l-2 -1c21,-1 39,-11 79,3 18,6 28,12 43,22 6,5 7,7 13,10 0,-27 0,-37 -9,-56 -12,-22 -32,-38 -57,-43 -8,-1 -21,-2 -31,-1 -9,1 -20,3 -28,5 -5,2 -8,3 -12,5 -4,1 -8,4 -13,5 4,-5 6,-9 10,-14 19,-23 40,-38 69,-48 9,-3 29,-7 40,-7 -8,-11 -25,-25 -39,-31 -18,-9 -39,-9 -59,-1 -16,6 -32,17 -41,30 -6,7 -10,12 -15,21 -3,5 -10,18 -10,25l-3 0c0,-20 -9,-38 4,-77 3,-10 9,-20 14,-29l14 -19c3,-4 3,-2 4,-7 -40,0 -70,4 -90,43 -15,28 -13,64 0,94 2,5 3,7 4,12zm47 12c22,0 41,18 41,41 0,22 -19,41 -41,41 -23,0 -41,-19 -41,-41 0,-23 18,-41 41,-41z"/>
     </g>
     <path class="fil6" d="M1387 426c8,2 15,5 21,8l17 -16c3,-3 9,-3 13,0l16 17c4,4 4,10 0,13l-16 16c4,7 7,14 9,22l22 0c6,0 10,4 10,9l-1 24c0,5 -4,9 -9,9l-23 0c-2,7 -5,15 -9,21l16 16c4,4 3,10 0,14l-17 16c-4,4 -10,3 -14,0l-15 -17c-7,4 -13,6 -20,8l0 23c0,5 -5,9 -10,9l-23 0c-6,0 -10,-4 -10,-9l0 -23c-7,-2 -13,-5 -20,-8l-16 16c-3,3 -9,3 -13,0l-17 -17c-3,-4 -3,-10 0,-13l16 -16c-4,-7 -7,-15 -8,-22l-23 -1c-5,0 -9,-4 -9,-9l0 -24c0,-5 4,-9 10,-9l22 0c2,-7 5,-14 9,-20l-16 -16c-3,-4 -3,-10 0,-13l17 -17c4,-4 10,-3 14,0l15 17c7,-4 13,-7 20,-8l0 -23c0,-5 4,-9 9,-9l24 0c5,0 9,4 9,9l0 23zm-21 13c37,0 67,30 67,67 0,37 -30,67 -67,67 -37,0 -67,-30 -67,-67 0,-37 30,-67 67,-67z"/>
     <g id="_578728048">
      <path class="fil6" d="M1733 184c83,0 151,67 151,151 0,83 -68,151 -151,151 -84,0 -152,-68 -152,-151 0,-84 68,-151 152,-151zm0 23c70,0 127,57 127,128 0,70 -57,127 -127,127 -71,0 -128,-57 -128,-127 0,-71 57,-128 128,-128z"/>
      <circle class="fil22" cx="1733" cy="335" r="127"/>
      <rect class="fil26" x="1717" y="178" width="35.4513" height="10.0851"/>
      <rect class="fil6" x="1706" y="145" width="55.6223" height="32.3956" rx="2" ry="5"/>
      <rect class="fil5" transform="matrix(0.170576 -0.17122 0.17122 0.170576 1612.43 232.483)" width="110.59" height="31.4601"/>
      <rect class="fil6" transform="matrix(0.26763 -0.26864 -0.549997 -0.547931 1607.06 237.87)" width="110.59" height="31.4601" rx="5" ry="5"/>
      <g>
       <rect class="fil25" x="1729" y="225" width="19.1324" height="99.9495"/>
       <rect class="fil25" transform="matrix(0.288387 0.19118 0.19118 -0.288387 1669.6 421.758)" width="55.2957" height="288.87"/>
       <circle class="fil6" cx="1739" cy="335" r="25"/>
      </g>
     </g>
     <path class="fil6" d="M1569 470c4,1 7,3 10,4l8 -7c2,-2 5,-2 7,0l8 8c1,2 1,4 0,6l-8 8c2,3 3,7 4,10l11 0c2,0 4,2 4,5l0 11c0,3 -2,5 -4,5l-11 0c-1,3 -3,7 -5,10l8 8c2,1 2,4 0,6l-8 8c-2,2 -5,2 -7,0l-7 -8c-3,2 -7,3 -10,4l0 11c0,2 -2,4 -5,4l-11 0c-2,0 -4,-2 -4,-4l0 -11c-4,-1 -7,-3 -10,-5l-8 8c-2,2 -4,2 -6,0l-8 -8c-2,-2 -2,-4 0,-6l7 -8c-1,-3 -3,-7 -4,-11l-11 0c-2,0 -4,-2 -4,-4l0 -12c0,-2 2,-4 5,-4l11 0c1,-3 2,-7 4,-10l-8 -8c-2,-1 -2,-4 0,-6l8 -8c2,-2 5,-2 7,0l7 8c3,-2 7,-3 10,-4l0 -11c0,-2 2,-4 4,-4l12 0c2,0 4,2 4,4l0 11zm-10 10c16,0 29,13 29,29 0,16 -13,28 -29,28 -16,0 -28,-12 -28,-28 0,-16 12,-29 28,-29z"/>
     <g id="_578727040">
      <rect class="fil25" transform="matrix(0.496095 -0.367041 0.367041 0.496095 2056.19 521.892)" width="30.5071" height="139.191" rx="12" ry="12"/>
      <path class="fil6 str10" d="M2025 351c53,8 89,58 81,111 -8,53 -57,89 -111,81 -53,-8 -89,-57 -81,-111 8,-53 58,-89 111,-81zm-3 15c45,7 76,49 69,93 -7,45 -48,76 -93,69 -45,-7 -76,-48 -69,-93 7,-45 49,-76 93,-69z"/>
     </g>
    </g>
   </g>
   <g style="clip-path:url(#id3)">
    <image id="stock-vector-funny-cartoon-guy-in-various-poses-278598614.jpg" x="-5795" y="-12518" width="4728" height="3990" xlink:href="7.svg_Images\7.svg_ImgID1.png"/>
   </g>
   <g style="clip-path:url(#id4)">
    <path class="fil15" d="M6846 1920c-55,55 -116,83 -175,106 -17,-34 -34,-69 -51,-103 0,21 0,42 -1,64l-16 -47c3,-56 7,-112 15,-163l14 -33c-1,77 6,140 33,223 7,24 9,39 31,32 59,-23 97,-44 150,-79z"/>
    <path class="fil0" d="M2627 3751c-19,-4 -482,113 -482,113l-136 171"/>
    <g>
     <g id="_578726104">
      <path class="fil1" d="M1064 1707c59,-17 91,107 105,231 13,110 9,181 -3,287 -3,29 -5,57 -1,77 4,19 22,39 33,55 9,12 6,14 6,26 -1,23 -2,47 -2,70 -1,12 2,16 -16,23 -25,13 -29,21 -46,41 -16,16 -17,19 -39,20 -10,1 -8,0 -15,8 -5,7 -12,17 -19,22 -14,11 -24,-1 -18,-16 0,-2 2,-5 3,-9 10,-28 20,-55 30,-83 7,-18 -10,-30 -24,-58 -5,-8 -11,-4 -12,0 0,10 -1,21 -1,31 -2,15 -1,50 -24,55 -7,2 -9,-2 -8,-11 2,-23 2,-44 -3,-67 -2,-10 0,-15 6,-26 7,-11 9,-21 11,-35 5,-21 9,-36 35,-51 27,-16 27,-29 35,-60 5,-16 5,-30 7,-60 -6,-105 -22,-186 -66,-281 -5,-8 -16,-80 -19,-75 31,-40 -212,-100 45,-114z"/>
      <path class="fil3" d="M1203 2412l0 0 0 2 0 1 0 1 0 1 0 1 0 1 0 1 0 1 0 1 0 1 0 2 0 1 -1 1 0 1 0 1 0 1 0 1 0 1 0 1 0 1 0 2 0 1 0 1 0 1 0 1 0 1 0 1 0 1 0 1 0 1 0 1 0 2 0 1 0 1 0 1 0 1 0 1c-1,12 2,16 -16,23 -25,13 -29,21 -46,41 -16,16 -17,19 -39,20 -10,1 -8,0 -15,8 -5,7 -12,17 -19,22 -14,11 -24,-1 -18,-16 0,-2 2,-5 3,-9 10,-28 20,-55 30,-83 7,-18 -10,-30 -24,-58 -5,-8 -11,-4 -12,0 0,10 -1,21 -1,31 -2,15 -1,50 -24,55 -7,2 -9,-2 -8,-11 2,-23 2,-44 -3,-67 -2,-10 0,-15 6,-26 7,-11 9,-21 11,-35 5,-21 9,-36 35,-51 27,-16 27,-29 35,-60 5,-16 5,-30 7,-60l0 -5 0 -1 0 -4c-7,-99 -24,-180 -66,-271 71,103 109,338 41,402 -41,27 -26,63 -9,96 6,11 12,20 19,30 5,6 10,10 15,8 16,-7 24,-10 31,9 2,6 10,10 17,1 2,-4 4,-7 7,-9 5,-3 11,-5 17,-2 1,2 3,3 5,4 15,8 20,-13 22,-23z"/>
     </g>
     <path class="fil14" d="M939 1475c7,3 40,8 71,38 57,77 131,207 168,298 -55,56 -116,84 -175,106l-44 -140 -5 -10 2 15c2,28 3,55 3,82l0 125c-1,69 -5,138 -8,207 -1,12 -3,10 6,17 8,5 13,10 4,22 -10,16 -22,16 -8,35 13,14 5,20 -14,30 -108,61 -325,59 -441,37 -34,-8 -61,-14 -27,-48 4,-6 6,-13 1,-23 -8,-13 -7,-10 -4,-25 19,-122 13,-246 11,-370 -14,35 -14,39 -19,48 -13,-4 -23,-7 -36,-11l-6 12c-17,-6 -25,-14 -29,-24 -51,-19 -101,-44 -148,-82 38,-78 122,-226 155,-279 3,-5 6,-9 9,-14 3,-4 5,-6 6,-6 8,-9 11,-9 27,-14 47,-11 93,-22 139,-33 39,84 216,78 240,-10l-1 0 103 13c11,2 16,2 20,4l0 0zm-138 -20l-6 14c2,-4 4,-9 6,-14z"/>
     <g id="_578724136">
      <path class="fil5" d="M851 3552l1 0 1 1 3 0 1 0 3 0 3 1 0 0 4 0 1 1 2 0 3 0 1 0 3 1 1 0 3 0 1 0 2 1 0 0 4 0 0 0 3 0 2 1 1 0 4 0 0 0 4 1 2 0 1 0 3 0 1 0 4 0 1 1 3 0 2 0 3 0 1 0 2 0 2 0 2 0 0 0 4 1 0 0 2 0 3 0 1 0 4 0 2 0 3 0 1 0 4 0 1 0 0 0 1 0 3 0 2 0 3 -1 1 0 0 0c1,0 3,0 4,0l2 0 3 0 1 0 0 0c2,0 3,0 4,-1l2 0 3 0 1 0c2,0 3,0 5,-1l1 0 3 0 2 0c1,-1 2,-1 4,-1l1 0 3 -1 2 0c1,0 2,-1 4,-1l0 0 1 0 3 -1 2 0c1,0 3,-1 4,-1l0 0 0 0c2,0 3,-1 5,-1l1 -1c1,0 3,0 4,-1l0 0c2,0 3,-1 5,-1l1 0c1,-1 3,-1 4,-2l1 0c1,0 3,-1 4,-1l1 -1c1,0 3,-1 4,-1l1 0c1,-1 3,-2 4,-2l1 0c1,-1 3,-2 4,-2l1 -1c1,0 3,-1 4,-1l1 -1c2,0 3,-1 4,-2l1 0c2,-1 3,-2 5,-2 -11,-34 -40,-30 -85,-30 -12,-2 -24,-5 -35,-9 -24,-9 -46,-22 -68,-35 -25,8 -50,16 -75,25 -21,18 -42,37 -63,55 37,-2 68,8 102,13z"/>
      <path class="fil6" d="M1061 3512c-15,-11 -39,-9 -71,-9 -12,-2 -24,-5 -35,-9 -21,-8 -42,-20 -62,-31 -15,12 -36,25 -45,40 -17,28 0,35 31,38 36,4 165,14 182,-29z"/>
      <path class="fil7" d="M970 3498c-5,-1 -10,-2 -15,-4 -5,-2 -11,-4 -16,-7 -10,8 -22,16 -32,25 -3,4 -6,6 -6,11 1,8 10,10 17,11 18,3 29,-18 52,-36z"/>
      <path class="fil7" d="M920 3478c-9,-5 -18,-10 -27,-15 -11,8 -26,18 -36,29 -12,12 1,18 13,20 18,3 26,-16 50,-34z"/>
      <path class="fil8" d="M710 3553c8,33 23,29 57,29 44,0 69,-4 106,-2 52,3 113,7 163,-11 9,-4 37,-15 39,-26 1,-3 1,-6 0,-10 -74,37 -147,30 -222,20 -35,-5 -66,-16 -104,-14 -15,4 -25,9 -39,14z"/>
      <g>
       <path class="fil5" d="M384 3592c10,14 20,28 29,42 26,29 40,26 74,23 25,-3 43,-6 67,-14 32,-11 23,-24 3,-42 -13,-12 -18,-17 -28,-32 -71,-48 -143,26 -145,23z"/>
       <path class="fil6" d="M563 3607c-2,-2 -4,-4 -6,-6 -13,-12 -18,-17 -28,-32 -50,-34 -100,-8 -126,10 17,29 27,61 65,60 14,0 26,-2 40,-4 25,-3 55,-10 55,-28z"/>
       <path class="fil8" d="M373 3603c15,24 23,35 36,54 14,19 28,24 46,24 28,1 67,-5 92,-14 28,-10 34,-12 28,-43l0 0c1,7 -5,13 -21,19 -24,8 -42,11 -67,14 -34,3 -48,6 -74,-23l-29 -42 -11 11z"/>
       <path class="fil7" d="M446 3610c24,-6 26,-20 70,-17 10,0 15,3 15,-7 -2,-10 -5,-15 -11,-17 -11,-4 -27,-3 -38,-1 -13,1 -23,4 -34,9 -7,3 -25,12 -22,20 2,12 12,16 20,13z"/>
      </g>
     </g>
     <path class="fil9" d="M499 789c125,0 314,18 417,-43 0,30 -15,31 -40,43 23,5 47,0 74,-16 30,137 27,352 -29,480 -26,61 -54,110 -156,96 -46,-3 -183,-31 -219,-62 -43,-36 -58,-100 -90,-175 -59,9 -133,-58 -114,-130 9,-32 55,-55 77,-34 25,26 46,79 47,121 8,-13 14,-24 19,-37 10,-21 7,-22 5,-45 -6,-67 -8,-132 9,-198z"/>
     <path class="fil1" d="M556 790c120,3 271,8 360,-44 0,30 -15,31 -40,43 23,5 47,0 74,-16 30,137 27,352 -29,480 -26,61 -54,110 -156,96 -25,-2 -75,-11 -122,-23l0 0c-107,-132 -90,-376 -87,-536z"/>
     <path class="fil10" d="M631 792c103,1 214,-4 285,-46 0,30 -15,31 -40,43 23,5 47,0 74,-16 30,137 27,352 -29,480 -26,61 -54,110 -156,96 66,-40 42,-134 27,-198 14,-3 28,-5 42,-8 1,-5 2,-10 3,-14 -4,-14 -8,-28 -12,-41 -7,-27 -14,-53 -22,-79 -1,-22 -2,-44 -3,-66 -7,-62 7,-124 -55,-137 -32,-6 -78,-8 -114,-14z"/>
     <path class="fil11" d="M391 940c-13,-51 -17,-99 -46,-135 12,-16 31,-31 57,-47 -10,-3 -20,-7 -30,-11 94,-203 258,-165 432,-135 50,10 170,50 191,-26 21,43 26,73 -1,111 23,2 33,-4 43,-21 20,95 -18,153 -73,193l0 0c-3,-34 -8,-67 -14,-96 -27,16 -51,21 -74,16 25,-12 40,-13 40,-43 -103,61 -292,43 -417,43 -17,66 -15,131 -9,198 2,23 5,24 -5,45 -5,13 -11,24 -19,37 -1,-42 -22,-95 -47,-121 -8,-7 -17,-9 -28,-8z"/>
     <path class="fil12" d="M398 761c1,-1 3,-2 4,-3 -10,-3 -20,-7 -30,-11 94,-203 258,-165 432,-135 50,10 170,50 191,-26 22,125 -79,78 -165,110 -43,16 -86,45 -117,32 30,-19 37,-31 45,-67 -50,58 -138,61 -208,64 -69,3 -133,36 -143,113 -12,-18 -23,-51 -9,-77z"/>
     <path class="fil27" d="M622 1320c1,52 11,110 -28,147 36,67 185,62 206,-10 -31,-16 -42,-59 -44,-109 -31,-3 -86,-14 -134,-28l0 0z"/>
     <path class="fil8" d="M577 1468c4,-2 9,-3 14,-3 1,0 1,0 2,0 34,70 187,64 208,-10 0,0 1,0 1,0 1,0 2,0 2,0 5,0 9,1 13,3 -24,88 -201,94 -240,10z"/>
     <path class="fil15" d="M241 1814c65,64 109,80 177,106 20,-40 40,-79 60,-119 0,147 12,294 -10,440 -3,15 -4,12 4,25 5,10 3,17 -1,23 -34,34 -7,40 27,48 116,22 333,24 441,-37 19,-10 27,-16 14,-30 -14,-19 -2,-19 8,-35 9,-12 4,-17 -4,-22 -9,-7 -7,-5 -6,-17 3,-69 7,-138 8,-207l0 -125c0,-27 -2,-68 -4,-96l45 138c45,-18 113,-36 176,-99 -53,39 -104,62 -161,76 -34,-63 -61,-156 -75,-217 4,211 6,299 -1,510 -2,81 -49,86 -144,133 54,-14 83,-26 134,-50 31,100 -442,110 -445,12 49,23 97,36 138,38 -32,-12 -83,-28 -110,-48 -19,-14 -22,-30 -20,-67 10,-196 18,-463 -30,-648 5,113 -1,193 -36,306 -9,27 -11,46 -37,37 -66,-34 -86,-35 -148,-75z"/>
     <path class="fil16" d="M469 2340c-28,137 -15,404 -43,576 -2,11 -3,8 3,17 4,9 5,15 1,22 -6,11 -6,7 -8,20 -20,168 -41,336 -62,504 -2,17 -2,23 -1,40 4,30 7,60 11,90 52,-46 103,-69 172,-33 3,-20 7,-40 10,-61 4,-22 2,-25 0,-48 -5,-35 -6,-75 -6,-107 -2,-338 25,-330 58,-548 11,-52 21,-105 30,-158 11,-55 21,-111 32,-167 34,-14 53,-23 90,-29 22,110 -8,345 -19,468 -27,207 -47,420 -27,629 57,-30 82,-12 149,-73 12,-8 32,-24 32,-24 -1,-13 0,-24 -1,-36 -2,-12 -3,-9 -10,-17 -21,-24 -20,-65 -27,-112 0,0 6,-227 6,-239 0,-12 38,-146 38,-146 3,-14 7,-28 11,-42 2,-12 3,-25 5,-38 12,-99 24,-198 36,-297 4,-58 8,-117 12,-175 -1,-15 -3,-30 -5,-45 -9,-2 -19,-3 -28,-5 -112,55 -318,52 -430,31 -7,-1 -13,-3 -18,-4 -4,2 -8,5 -11,7z"/>
     <path class="fil17" d="M490 2360c-1,18 -3,39 -5,57 24,12 49,21 72,33 -26,3 -52,5 -79,8 0,2 -1,5 -1,7 16,4 31,8 46,12 -12,4 -25,8 -38,13 -4,135 -9,270 -13,405 28,21 57,39 102,54 27,-156 55,-313 83,-469 2,-14 0,-11 14,-15 36,-11 121,-47 150,-47 -5,6 -10,12 -15,18 -16,18 -12,14 -9,38 10,106 7,185 2,298 -4,41 -7,82 -11,123 2,16 29,30 66,33 33,3 33,-9 39,-48 24,-148 40,-282 53,-434 -20,-13 -22,-11 -46,-13 12,-5 38,-15 57,-14 -2,-31 -4,-63 -6,-95 -115,84 -415,64 -461,36z"/>
     <path class="fil18" d="M801 938c4,67 22,115 47,175 26,61 -80,50 -108,2 19,14 41,22 59,24 32,2 34,-3 22,-29 -28,-74 -33,-108 -20,-172z"/>
     <path class="fil19" d="M721 862c-6,-1 -13,0 -19,3 -18,6 -34,18 -50,28 -18,12 -35,25 -50,41 -2,5 4,13 11,7 17,-14 48,-27 69,-34 33,-10 52,-4 55,-14 3,-9 -5,-29 -16,-31z"/>
     <path class="fil19" d="M841 885c-3,11 10,14 27,20 22,7 40,18 57,32 8,5 13,14 19,12 7,-3 4,-10 0,-16 -10,-15 -61,-75 -88,-68 -7,2 -13,13 -15,20z"/>
     <path class="fil20" d="M424 1019c-32,-26 -51,46 7,65 -55,1 -70,-68 -31,-85 -10,-29 -38,-5 -39,14 -6,-69 71,-45 63,6z"/>
     <g id="_578715256">
      <ellipse class="fil21" cx="662" cy="991" rx="25" ry="30"/>
      <ellipse class="fil22" cx="651" cy="979" rx="10" ry="12"/>
      <path class="fil23" d="M662 950c17,0 31,16 31,36 0,18 -12,34 -29,35 13,-1 23,-14 23,-30 0,-17 -11,-30 -25,-30 -14,0 -26,13 -26,30 0,16 10,29 23,30 -16,-1 -29,-17 -29,-35 0,-20 14,-36 32,-36z"/>
     </g>
     <g id="_578714464">
      <ellipse class="fil21" cx="894" cy="992" rx="25" ry="29"/>
      <ellipse class="fil22" cx="883" cy="980" rx="9" ry="11"/>
      <path class="fil23" d="M894 952c17,0 30,16 30,35 0,18 -12,33 -28,34 13,-1 22,-14 22,-29 0,-16 -11,-29 -24,-29 -14,0 -25,13 -25,29 0,15 10,28 22,29 -15,-1 -28,-16 -28,-34 0,-19 14,-35 31,-35z"/>
     </g>
     <path class="fil8" d="M460 2323c-1,19 26,30 60,36 130,26 314,12 398,-26 19,-6 53,-20 39,-44l0 0c-4,3 -10,7 -18,11 -108,61 -325,59 -441,37 -17,-4 -31,-7 -38,-14l0 0z"/>
     <path class="fil28" d="M888 1249c-28,-82 -151,-67 -186,22 56,-57 116,-96 186,-22z"/>
     <path class="fil4" d="M247 1818c-2,5 -4,10 -5,15 53,50 121,83 204,98 2,-4 5,-9 7,-14 -72,-21 -142,-47 -206,-99l0 0z"/>
     <path class="fil8" d="M1000 1906c1,10 2,15 11,11 69,-26 117,-53 167,-106 1,-1 1,-3 -2,-4l0 0c-55,55 -118,77 -176,99z"/>
     <path class="fil27" d="M623 1321c0,7 0,14 1,21l0 0c52,38 81,58 144,76l0 0c-8,-19 -12,-44 -13,-70 -30,-3 -85,-14 -132,-27l0 0z"/>
     <g id="_578708464">
      <path class="fil29" d="M660 1579c7,-9 14,-12 26,-15 14,-3 30,-8 45,-13 -10,-14 -16,-24 -16,-24l7 -91c0,0 27,-19 52,-38 -7,-5 4,-15 5,-18 1,-4 8,-21 11,-25 0,-1 2,-2 4,-4 15,0 28,-1 39,-4 20,-20 33,-32 52,-60 8,-12 0,-19 -11,-22 -15,-3 -27,0 -44,13 -24,18 -61,44 -90,68 -17,12 -28,16 -44,25 -16,9 -23,9 -29,-5 -8,-16 -9,-31 -23,-53 -22,-33 -59,-28 -55,-14 1,13 4,9 6,21 1,32 2,63 2,95 -2,24 -4,48 -6,73 -2,7 -3,13 -4,19 22,22 49,48 73,72z"/>
      <path class="fil9" d="M322 1880c0,0 7,61 7,64 8,76 31,90 65,77 23,-10 63,-36 79,-56 23,-31 35,-75 57,-122 37,-75 73,-149 110,-224 14,-22 21,-27 38,-32 42,-10 93,-29 121,-43 13,-6 17,-27 8,-36 -5,-5 -11,-5 -4,-13 13,-13 15,-27 -6,-31 -7,-2 -10,-13 -5,-17 20,-21 2,-28 -8,-38 -12,-11 -5,-13 3,-22 30,-33 60,-66 90,-99 12,-19 -23,-17 -34,-9 -21,17 -73,60 -110,90 -23,19 -39,32 -64,47 -12,7 -24,7 -26,-14 1,-93 -61,-138 -59,-96 1,12 2,25 4,37 1,31 1,63 2,94 -2,25 -4,49 -6,74 -7,28 -4,45 -19,71 -62,108 -138,212 -213,314 -10,-5 -20,-10 -30,-16z"/>
      <path class="fil10" d="M644 1409c-1,-2 -1,-4 -1,-7 1,-93 -61,-138 -59,-96 1,12 2,25 4,37 1,31 1,63 2,94l0 3 1 0c23,1 40,-11 53,-30l0 -1z"/>
      <path class="fil10" d="M784 1551c5,-2 11,-5 15,-7 13,-6 17,-27 8,-36 -5,-5 -11,-5 -4,-13 13,-13 15,-27 -6,-31 -7,-2 -10,-13 -5,-17 20,-21 2,-28 -8,-38 -12,-11 -5,-13 3,-22 30,-33 60,-66 90,-99 12,-19 -23,-17 -34,-9 -21,17 -73,60 -110,90 -17,13 -29,24 -44,34 5,9 3,9 5,19 1,13 8,11 18,12 15,1 14,5 13,12 0,4 1,12 2,16 3,10 18,12 27,18 10,6 9,12 11,28 1,7 3,8 9,11 11,5 12,21 8,31l2 1z"/>
     </g>
    </g>
   </g>
   <g style="clip-path:url(#id5)">
    <image id="stock-vector-funny-cartoon-guy-in-various-poses-278598614.jpg_0" x="6166" y="-1523" width="4728" height="3990" xlink:href="7.svg_Images\7.svg_ImgID2.png"/>
   </g>
   <g style="clip-path:url(#id6)">
   </g>
  </g>
  <polygon class="fil0" points="0,0 2523,0 2523,2175 0,2175 "/>
 </g>
</svg>
