<?xml version="1.0" encoding="UTF-8"?>
<!DOCTYPE svg PUBLIC "-//W3C//DTD SVG 1.1//EN" "http://www.w3.org/Graphics/SVG/1.1/DTD/svg11.dtd">
<!-- Creator: CorelDRAW X7 -->
<svg xmlns="http://www.w3.org/2000/svg" xml:space="preserve" width="7.58251in" height="6.74in" version="1.1" style="shape-rendering:geometricPrecision; text-rendering:geometricPrecision; image-rendering:optimizeQuality; fill-rule:evenodd; clip-rule:evenodd"
viewBox="0 0 7494 6661"
 xmlns:xlink="http://www.w3.org/1999/xlink">
 <defs>
  <style type="text/css">
   <![CDATA[
    .str0 {stroke:black;stroke-width:6.86354}
    .str1 {stroke:#1A1A1A;stroke-width:6.86354}
    .fil15 {fill:none}
    .fil6 {fill:#1A1A1A}
    .fil27 {fill:#2F84C4}
    .fil12 {fill:#333333}
    .fil26 {fill:#3FA9F5}
    .fil31 {fill:#4D1D07}
    .fil5 {fill:#4D4D4D}
    .fil23 {fill:#581504}
    .fil11 {fill:#666666}
    .fil24 {fill:#792407}
    .fil4 {fill:gray}
    .fil29 {fill:#822D08}
    .fil9 {fill:#999999}
    .fil33 {fill:#B71000}
    .fil10 {fill:#CCCCCC}
    .fil28 {fill:#E65A1C}
    .fil1 {fill:#E6E6E6}
    .fil20 {fill:#E7E7E7}
    .fil16 {fill:#EB534E}
    .fil30 {fill:#F2662B}
    .fil25 {fill:#F37542}
    .fil14 {fill:#F4F4F4}
    .fil19 {fill:#F7844D}
    .fil13 {fill:#F7F7F7}
    .fil18 {fill:#FA824E}
    .fil32 {fill:#FB844C}
    .fil22 {fill:#FE9554}
    .fil21 {fill:#FEAD6C}
    .fil17 {fill:#FFA161}
    .fil7 {fill:#FFBE0E}
    .fil0 {fill:white}
    .fil8 {fill:#FFFF66;fill-opacity:0.239216}
    .fil3 {fill:url(#id7)}
    .fil2 {fill:url(#id8)}
   ]]>
  </style>
   <clipPath id="id0">
    <path d="M0 0l7494 0 0 6661 -7494 0 0 -6661z"/>
   </clipPath>
    <clipPath id="id1">
     <path d="M0 1130l7494 0 0 5531 -7494 0 0 -5531z"/>
    </clipPath>
     <clipPath id="id2">
      <path d="M2692 1229c1466,0 2655,1188 2655,2655 0,1466 -1189,2655 -2655,2655 -1466,0 -2655,-1189 -2655,-2655 0,-1467 1189,-2655 2655,-2655z"/>
     </clipPath>
       <mask id="id3">
  <linearGradient id="id4" gradientUnits="userSpaceOnUse" x1="2627.78" y1="901.368" x2="2627.78" y2="2934.74">
   <stop offset="0" style="stop-opacity:1; stop-color:white"/>
   <stop offset="1" style="stop-opacity:0; stop-color:white"/>
  </linearGradient>
        <rect style="fill:url(#id4)" x="-466" y="611" width="6187" height="2614"/>
       </mask>
     <clipPath id="id5">
      <path d="M0 1130l7494 0 0 5531 -7494 0 0 -5531z"/>
     </clipPath>
    <clipPath id="id6">
     <path d="M0 0l7494 0 0 6661 -7494 0 0 -6661z"/>
    </clipPath>
  <linearGradient id="id7" gradientUnits="userSpaceOnUse" x1="2637.91" y1="7717.26" x2="2458.79" y2="5599.9">
   <stop offset="0" style="stop-opacity:1; stop-color:#728686"/>
   <stop offset="1" style="stop-opacity:1; stop-color:#ACBFBF"/>
  </linearGradient>
  <linearGradient id="id8" gradientUnits="userSpaceOnUse" x1="2687.83" y1="3212.16" x2="2747.28" y2="6743.13">
   <stop offset="0" style="stop-opacity:1; stop-color:#DBF8FF"/>
   <stop offset="0.341176" style="stop-opacity:1; stop-color:#9AEAFF"/>
   <stop offset="1" style="stop-opacity:1; stop-color:#54DDFF"/>
  </linearGradient>
 </defs>
 <g id="Layer_x0020_1">
  <metadata id="CorelCorpID_0Corel-Layer"/>
  <g>
  </g>
  <g style="clip-path:url(#id0)">
   <g>
    <polygon class="fil0" points="0,1130 7501,1130 7501,6661 0,6661 "/>
   </g>
   <g style="clip-path:url(#id1)">
    <g id="_885977168">
     <g>
     </g>
    </g>
    <g style="clip-path:url(#id2)">
     <g id="_887217712">
      <path id="1" class="fil1" style="mask:url(#id3)" d="M2628 615c1551,0 2839,1127 3090,2606l-76 0 0 0 -5849 0 0 0 -255 0c251,-1479 1539,-2606 3090,-2606z"/>
      <rect class="fil2" x="-1841" y="3221" width="9117" height="3512"/>
      <ellipse class="fil3" cx="2548" cy="6659" rx="1634" ry="1008"/>
      <polygon class="fil4" points="3117,4181 3201,4186 3213,6060 3129,6100 "/>
      <ellipse class="fil5 str0" cx="2603" cy="2158" rx="1192" ry="356"/>
      <path class="fil1 str0" d="M2603 1555c659,0 1192,159 1192,356l0 3 0 243c0,-44 -26,-85 -74,-123 -2,-2 -5,-4 -7,-6l-1 -1c-3,-1 -5,-3 -7,-5l-1 0 0 0 -1 -1c-2,-2 -4,-3 -7,-5l-2 -1c-2,-2 -5,-4 -8,-5l-1 -1 -7 -5 -2 -1c-3,-2 -6,-4 -9,-5l-2 -2c-3,-1 -5,-3 -8,-4l-1 -1 0 0 -2 -1 -7 -4 -3 -2 -9 -4 -2 -1 -8 -4 -3 -2 0 0 -8 -3 -1 -1 -5 -2 -6 -3 -6 -3 -7 -3 -4 -2 -11 -4 -2 -1 -9 -4 -4 -1 -10 -5 -5 -1 -7 -3 -7 -3 -8 -3 -6 -2 0 0 -9 -3 -6 -2 -7 -2 -5 -2 -10 -3 -1 -1 -6 -2 -9 -3 -3 0 0 0c-217,-68 -521,-109 -858,-109 -336,0 -640,41 -857,109l0 0 -3 1 -9 2 -6 2 -1 1 -10 3 -5 1 -7 3 -6 2 0 0 -9 3 -1 0 -5 2 -9 3 -2 1 -1 1c-4,1 -7,2 -11,4l-4 2 -11 4 0 0 -2 1 -10 4 -2 1 -11 4 -4 2 -8 4 -2 0 -1 1 -9 4 -4 2c-3,1 -6,3 -9,4l-1 1 0 0c-4,2 -7,4 -11,5l0 1c-4,1 -7,3 -11,5l-1 1c-4,2 -7,3 -10,5l0 0c-3,2 -7,4 -10,6l0 0c-17,10 -33,20 -46,31l-1 0c-2,2 -5,4 -8,6l0 0c-47,39 -73,80 -73,124l0 -247c0,-197 533,-356 1191,-356zm1192 604l0 12 -1 0c1,-4 1,-8 1,-12zm-2383 12l0 0 0 -13c0,4 0,8 0,13z"/>
      <ellipse class="fil6" cx="2604" cy="3947" rx="1034" ry="64"/>
      <path class="fil7 str0" d="M1504 2067c180,-128 604,-218 1098,-218 494,0 918,90 1098,218 0,0 0,1 0,1 32,639 -33,1272 -106,1900l-992 0 -992 0c-74,-628 -138,-1261 -106,-1900 0,0 0,-1 0,-1z"/>
      <path class="fil8" d="M2849 1857c149,9 287,27 409,51 42,662 32,1354 5,2055 -138,1 -234,3 -371,5 28,-697 15,-1369 -43,-2111z"/>
      <path class="fil1 str0" d="M1570 3945c717,33 1405,32 2068,0 0,67 0,135 0,203 -685,38 -1374,41 -2068,0 0,-68 0,-136 0,-203z"/>
      <path class="fil4 str0" d="M1655 4153c274,357 569,699 883,1028l161 0c277,-328 603,-670 832,-1028l0 0c-622,31 -1247,33 -1876,0l0 0z"/>
      <polygon class="fil9" points="2587,5181 2671,5181 3268,4175 2856,4181 "/>
      <g>
       <path class="fil5 str1" d="M2216 5686c250,-131 499,-262 748,-393 31,10 37,28 26,52 -248,130 -497,261 -746,392 -31,-2 -42,-18 -28,-51z"/>
       <path class="fil5 str1" d="M2216 5332c263,100 526,201 789,301 12,27 4,44 -20,52 -263,-100 -526,-200 -789,-300 -13,-27 -12,-47 20,-53z"/>
      </g>
      <path class="fil10" d="M2535 5941c719,0 1302,364 1302,811 0,448 -583,811 -1302,811 -719,0 -1302,-363 -1302,-811 0,-447 583,-811 1302,-811zm0 68c675,0 1222,324 1222,724 0,400 -547,724 -1222,724 -675,0 -1222,-324 -1222,-724 0,-400 547,-724 1222,-724z"/>
      <g>
       <ellipse class="fil11 str0" cx="2617" cy="5354" rx="164" ry="49"/>
       <path class="fil12 str0" d="M2781 5356l0 206c0,0 0,1 0,2 0,1 0,1 0,2l0 1 0 0c-5,25 -76,46 -164,46 -87,0 -158,-21 -163,-46l0 0 0 -1c-1,-1 -1,-1 -1,-2 0,-1 0,-2 1,-2l0 -206c4,26 75,47 163,47 88,0 160,-21 164,-47z"/>
      </g>
      <g>
       <ellipse class="fil11 str0" cx="2617" cy="5892" rx="188" ry="56"/>
       <path class="fil12 str0" d="M2805 5895l0 582c-6,30 -88,53 -188,53 -100,0 -182,-23 -188,-52l0 -583c5,29 87,53 188,53 101,0 184,-24 188,-53z"/>
      </g>
      <path class="fil11 str0" d="M2655 5611l0 278c-25,15 -50,14 -75,0l0 -278c12,1 24,2 37,2 13,0 26,-1 38,-2z"/>
      <polygon class="fil4" points="3623,4186 3685,4186 3777,6996 3674,6995 "/>
      <polygon class="fil4" points="1529,4186 1470,4186 1293,6508 1372,6509 "/>
      <path class="fil13" d="M3263 3963l0 98c-138,5 -234,-2 -372,0l1 -90c138,-1 234,-4 371,-8z"/>
      <path class="fil14" d="M3263 1617l0 241c-124,-25 -263,-43 -413,-52l0 -241c150,10 289,27 413,52z"/>
      <rect class="fil0 str1" x="1374" y="4064" width="2409" height="122" rx="73" ry="61"/>
      <path class="fil12 str0" d="M2538 5181c53,0 106,0 159,0 0,64 0,109 0,173 -51,14 -104,15 -159,0 0,-64 0,-109 0,-173z"/>
     </g>
    </g>
    <g style="clip-path:url(#id5)">
     <path class="fil15" d="M2692 1229c1466,0 2655,1188 2655,2655 0,1466 -1189,2655 -2655,2655 -1466,0 -2655,-1189 -2655,-2655 0,-1467 1189,-2655 2655,-2655z"/>
     <rect class="fil0" x="4824" y="3083" width="598" height="689"/>
     <path class="fil16" d="M479 1429c19,0 35,8 35,18 0,2 -1,4 -2,6l0 0 0 0c0,1 -1,2 -2,2l-21 25 0 12c19,1 38,4 55,10l4 -9 -7 -19c-1,0 -1,-1 -1,-1l0 0 0 0c0,-2 0,-3 0,-4 2,-6 13,-7 25,-3 11,4 19,12 16,18 0,1 -1,3 -2,3l0 0 0 0c-1,1 -1,1 -2,1l-18 10 -3 9c18,7 35,17 50,29l7 -9 1 -33c0,-1 0,-2 0,-3l0 0 0 0c0,-2 1,-4 2,-6 7,-7 24,-2 39,11 15,13 21,29 15,37 -2,1 -4,3 -6,3l0 0 0 0c-1,0 -2,0 -3,0l-33 5 -7 8c13,13 25,29 34,45l9 -4 7 -19c0,-1 0,-1 1,-2l0 0 0 0c0,-1 1,-2 2,-3 6,-3 15,4 21,15 5,10 5,21 0,24 -1,1 -3,1 -4,1l0 0 0 0c-1,0 -1,0 -2,-1l-20 -4 -8 4c12,25 20,53 21,83l11 0 25 -21c1,-1 2,-1 3,-2l0 0 0 0c2,-1 4,-2 6,-2 10,1 18,17 17,36 0,20 -9,36 -19,36 -2,0 -4,-1 -6,-3l0 0 0 0c-1,0 -1,-1 -2,-1l-24 -23 -12 0c-1,19 -5,38 -12,56l9 3 19 -6c1,-1 2,-1 2,-1l0 0 0 0c2,0 3,0 4,0 6,2 7,13 2,25 -4,11 -13,18 -18,16 -2,0 -3,-1 -3,-3l0 0 0 0c-1,0 -1,-1 -1,-1l-9 -18 -9 -4c-9,20 -21,38 -35,54l8 8 33 2c1,0 2,1 3,1l0 0 0 0c2,0 4,1 6,2 7,7 1,25 -12,39 -14,14 -31,19 -38,12 -2,-1 -3,-3 -3,-6l0 0 0 0c0,-1 0,-1 0,-2l-3 -33 -8 -9c-14,13 -30,24 -47,33l4 8 19 9c0,0 1,0 1,0l0 0 0 0c2,1 3,2 3,3 3,6 -4,15 -15,20 -11,5 -23,4 -25,-1 -1,-2 -1,-3 0,-4l0 0 0 0c0,-1 0,-1 0,-2l6 -20 -4 -8c-22,9 -45,14 -70,16l0 11 22 25c1,1 1,2 2,2l0 0 0 0c1,2 2,4 2,6 0,10 -16,18 -36,18 -20,0 -36,-8 -36,-18 0,-2 1,-4 3,-6l0 0 0 0c0,-1 1,-1 1,-2l22 -25 0 -12c-19,-1 -38,-4 -55,-10l-4 9 7 19c0,0 1,1 1,1l0 0 0 0c0,2 0,3 0,4 -3,6 -14,7 -25,3 -11,-5 -19,-13 -17,-18 1,-2 2,-3 3,-4l0 0 0 0c1,0 1,0 2,0l18 -10 3 -9c-18,-7 -34,-17 -48,-29l-8 9 -1 33c1,1 1,2 0,3l0 0 0 0c0,2 -1,4 -2,6 -7,7 -24,3 -39,-10 -14,-13 -21,-30 -14,-37 1,-2 3,-3 5,-4l0 0 0 0c1,0 2,0 3,0l33 -4 7 -9c-13,-13 -25,-28 -34,-45l-9 5 -7 19c0,0 0,1 -1,1l0 0 0 0c0,2 -1,3 -2,3 -6,3 -15,-3 -21,-14 -5,-11 -5,-22 0,-25 1,0 3,-1 4,0l0 0 0 0c1,0 1,0 2,0l20 5 8 -5c-12,-24 -19,-50 -20,-79l-12 0 -25 22c-1,1 -1,1 -2,2l0 0 0 0c-2,1 -4,2 -6,2 -10,0 -18,-16 -18,-36 0,-19 8,-35 18,-35 2,0 4,0 6,2l0 0 0 0c1,0 1,1 2,1l25 22 12 0c1,-19 4,-38 10,-55l-9 -4 -19 7c0,0 -1,1 -1,1l-1 0 0 0c-1,0 -2,0 -3,0 -6,-2 -7,-13 -3,-25 4,-11 12,-19 18,-17 1,1 3,2 3,3l0 0 0 0c1,1 1,1 1,1l10 19 9 3c8,-22 21,-41 36,-58l-8 -8 -33 -2c-1,0 -2,-1 -3,-1l0 0 0 0c-2,0 -4,-1 -6,-2 -7,-7 -1,-25 13,-39 14,-13 31,-19 38,-12 1,1 2,3 2,6l0 0 1 0c0,1 0,1 0,2l2 33 8 9c14,-13 30,-24 47,-32l-4 -9 -18 -9c-1,0 -2,0 -2,0l0 0 0 0c-1,-1 -2,-2 -3,-3 -2,-6 5,-14 16,-19 11,-6 22,-5 24,1 1,1 1,2 1,4l0 0 0 0c0,0 -1,1 -1,1l-6 20 4 8c21,-9 44,-14 68,-15l0 -12 -21 -25c-1,0 -2,-1 -2,-2l0 0 0 0c-1,-2 -2,-4 -2,-6 0,-10 16,-18 36,-18z"/>
     <path class="fil16" d="M6763 1447c51,0 92,20 92,46 0,5 -2,11 -6,16l0 0 0 0c-1,1 -3,3 -4,4l-56 64 0 30c50,2 97,12 142,27l9 -23 -18 -48c-1,-2 -1,-3 -2,-5l0 0 0 0c-1,-4 -1,-7 1,-10 5,-15 33,-18 62,-7 30,11 49,32 43,47 -1,3 -4,6 -7,8l0 0 0 0c-1,1 -2,1 -3,2l-46 24 -9 23c46,19 89,44 127,75l20 -22 0 -84c0,-3 0,-6 0,-8l0 0 0 0c1,-6 3,-11 7,-15 17,-19 61,-8 99,26 37,34 54,76 37,95 -3,4 -8,7 -15,8l0 0 0 0c-2,1 -4,1 -6,1l-84 11 -20 22c35,34 65,72 89,115l22 -12 18 -48c1,-2 1,-3 2,-4l0 0 0 0c2,-4 4,-6 7,-8 14,-7 37,9 51,37 15,28 15,56 1,63 -3,2 -6,2 -10,2l0 0 0 0c-1,-1 -2,-1 -4,-1l-51 -12 -21 11c31,64 50,136 52,212l30 1 65 -54c1,-2 3,-4 5,-5l0 0 0 0c5,-4 11,-5 16,-5 25,0 45,42 44,92 -1,51 -23,91 -48,90 -6,0 -11,-2 -16,-6l0 0 0 0c-2,-1 -3,-2 -4,-4l-63 -57 -30 -1c-3,50 -14,97 -30,142l23 9 49 -17c1,0 3,-1 4,-1l0 0 0 0c4,-1 7,-1 10,0 15,6 17,34 6,63 -12,29 -33,48 -48,42 -3,-1 -6,-4 -8,-7l0 0 0 0c0,-1 -1,-2 -1,-4l-24 -46 -23 -9c-22,50 -52,97 -88,138l21 21 84 5c2,0 5,0 7,1l0 0 0 0c6,1 11,3 15,7 18,18 4,61 -32,97 -35,36 -79,50 -97,33 -4,-4 -6,-10 -7,-16l0 0 0 0c0,-2 0,-4 0,-6l-7 -85 -21 -21c-35,33 -75,61 -119,83l10 22 47 21c2,1 3,1 5,2l0 0 0 0c3,2 5,4 7,7 6,15 -12,37 -40,50 -28,13 -56,12 -63,-3 -1,-3 -2,-6 -1,-10l0 0 0 0c0,-1 1,-3 1,-4l15 -50 -10 -22c-55,23 -115,37 -178,40l0 30 55 63c2,2 4,4 5,6l0 0 0 0c4,5 6,10 6,16 -1,25 -42,46 -92,45 -51,0 -91,-21 -91,-46 0,-6 2,-11 6,-16l0 0 0 0c1,-2 2,-3 4,-5l56 -64 0 -29c-50,-3 -97,-12 -142,-28l-9 23 18 49c0,1 1,3 1,4l0 0 0 0c1,4 1,7 0,10 -6,15 -34,18 -63,7 -29,-12 -48,-33 -42,-47 1,-3 3,-6 7,-8l0 0 0 0c1,-1 2,-1 3,-2l46 -24 9 -23c-45,-19 -87,-44 -124,-74l-20 23 -1 84c1,2 1,5 0,7l0 0 0 0c0,6 -2,11 -6,16 -17,19 -61,7 -99,-27 -38,-33 -54,-76 -38,-95 4,-4 9,-7 15,-8l0 0 0 0c2,0 4,-1 7,-1l84 -11 19 -22c-34,-34 -64,-72 -88,-115l-22 12 -19 48c0,2 -1,3 -1,5l0 0 0 0c-2,3 -4,5 -7,7 -14,7 -37,-9 -52,-37 -14,-27 -15,-56 -1,-63 3,-1 7,-2 11,-1l0 0 0 0c1,0 2,0 3,1l51 12 22 -12c-30,-61 -49,-129 -52,-201l-30 0 -63 55c-2,2 -4,4 -6,5l0 0 0 0c-5,3 -10,5 -16,5 -25,0 -46,-41 -46,-91 1,-51 21,-92 47,-92 5,1 11,3 16,6l0 0 0 0c1,2 3,3 4,4l64 56 30 0c2,-49 12,-97 27,-142l-23 -9 -48 18c-2,1 -3,1 -5,2l0 0 0 0c-4,1 -7,1 -10,0 -15,-6 -18,-34 -7,-63 11,-29 32,-48 47,-43 3,1 6,4 8,7l0 0 0 0c1,1 1,2 2,3l24 47 23 8c23,-55 55,-105 93,-148l-21 -21 -84 -6c-2,0 -5,0 -7,0l0 0 0 0c-6,-1 -11,-4 -15,-7 -18,-18 -4,-62 32,-98 35,-35 79,-50 97,-32 4,4 6,9 7,15l0 0 0 1c1,1 1,3 1,6l6 84 21 21c35,-32 76,-60 119,-82l-10 -22 -47 -22c-2,0 -3,-1 -4,-1l0 0 0 0c-4,-2 -6,-5 -7,-8 -7,-14 11,-36 39,-49 29,-13 57,-12 63,2 2,4 2,7 1,11l0 0 0 0c0,1 0,2 -1,4l-15 50 10 22c54,-23 113,-37 174,-40l0 -30 -55 -63c-2,-2 -3,-4 -5,-6l0 0 0 0c-3,-5 -5,-10 -5,-15 0,-26 41,-46 91,-46z"/>
     <path class="fil16" d="M5813 2841c11,0 20,5 20,10 0,1 -1,3 -2,4l0 0 0 0c0,0 0,0 0,1l-13 14 0 6c11,1 22,3 31,6l2 -5 -4 -11c0,0 0,0 0,-1l0 0 0 0c0,0 0,-1 0,-2 1,-3 7,-4 14,-1 6,2 10,7 9,10 0,1 -1,1 -2,2l0 0 0 0c0,0 0,0 0,0l-10 5 -2 5c10,4 19,10 27,17l5 -5 0 -19c0,0 0,-1 0,-1l0 0 0 0c0,-2 0,-3 1,-4 4,-4 14,-1 22,6 8,7 12,17 8,21 -1,1 -2,1 -3,2l0 0 0 0c-1,0 -1,0 -2,0l-18 2 -4 5c7,7 14,16 19,25l5 -3 4 -10c0,0 0,-1 0,-1l0 0 0 0c1,-1 1,-1 2,-2 3,-1 8,2 11,8 3,6 3,13 0,14 -1,0 -1,1 -2,0l0 0 0 0c0,0 -1,0 -1,0l-11 -2 -5 2c7,14 11,30 12,46l6 0 14 -11c1,-1 1,-1 1,-1l0 0 0 0c2,-1 3,-2 4,-2 5,1 10,10 9,21 0,11 -4,19 -10,19 -1,0 -2,0 -3,-1l0 0 0 0c-1,0 -1,-1 -1,-1l-14 -12 -7 -1c0,11 -3,22 -6,31l5 2 11 -3c0,-1 0,-1 0,-1l0 0 0 0c1,0 2,0 3,0 3,2 3,8 1,14 -3,6 -7,10 -10,9 -1,0 -2,-1 -2,-1l0 0 0 0c0,-1 0,-1 -1,-1l-5 -10 -5 -2c-4,11 -11,21 -19,30l5 4 18 1c1,0 1,0 2,1l0 0 0 0c1,0 2,0 3,1 4,4 1,13 -7,21 -8,8 -17,11 -21,7 -1,-1 -2,-2 -2,-3l0 0 0 0c0,0 0,-1 0,-1l-1 -19 -5 -4c-8,7 -16,13 -26,18l2 4 11 5c0,0 0,0 1,0l0 0 0 0c0,1 1,1 1,2 2,3 -2,8 -8,11 -7,3 -13,2 -14,-1 0,0 -1,-1 0,-2l0 0 0 0c0,0 0,-1 0,-1l3 -11 -2 -5c-12,5 -25,9 -39,9l0 7 12 13c1,1 1,1 1,2l0 0 0 0c1,1 1,2 1,3 0,6 -9,10 -19,10 -11,0 -20,-5 -20,-10 0,-1 0,-2 1,-4l0 0 0 0c0,0 1,0 1,-1l12 -13 0 -7c-11,0 -21,-3 -31,-6l-2 5 4 11c0,0 0,0 0,1l0 0 0 0c1,0 1,1 0,2 -1,3 -7,4 -13,1 -7,-2 -11,-7 -10,-10 1,-1 1,-1 2,-2l0 0 0 0c0,0 0,0 1,0l10 -5 2 -5c-10,-4 -19,-10 -27,-16l-5 4 0 19c0,0 0,1 0,1l0 0 0 0c0,2 0,3 -1,4 -4,4 -13,1 -22,-6 -8,-7 -12,-17 -8,-21 1,-1 2,-1 3,-1l0 0 0 0c1,-1 1,-1 2,-1l18 -2 4 -5c-7,-7 -14,-16 -19,-25l-5 3 -4 10c0,1 0,1 0,1l0 0 0 0c-1,1 -1,1 -2,2 -3,1 -8,-2 -11,-8 -3,-6 -3,-12 0,-14 1,0 1,0 2,0l0 0 0 0c0,0 1,0 1,0l11 3 5 -3c-7,-13 -11,-28 -12,-44l-6 0 -14 12c0,1 -1,1 -1,1l0 0 0 0c-1,1 -2,2 -3,2 -6,0 -10,-9 -10,-20 0,-11 4,-20 10,-20 1,0 2,0 3,1l0 0 0 0c0,0 1,1 1,1l14 12 6 0c1,-11 3,-21 6,-31l-5 -2 -10 4c-1,0 -1,0 -1,1l0 0 0 0c-1,0 -2,0 -2,-1 -4,-1 -4,-7 -2,-13 3,-7 7,-11 10,-10 1,1 2,1 2,2l0 0 0 0c0,0 0,0 0,1l6 10 5 2c5,-12 12,-23 20,-33l-4 -4 -19 -1c0,0 -1,0 -1,-1l0 0 0 0c-2,0 -3,0 -4,-1 -4,-4 0,-13 7,-21 8,-8 17,-11 21,-7 1,1 2,2 2,3l0 0 0 0c0,1 0,1 0,1l1 19 5 4c8,-7 16,-13 26,-17l-2 -5 -10 -5c-1,0 -1,0 -1,0l0 0 0 0c-1,-1 -2,-1 -2,-2 -1,-3 2,-8 9,-11 6,-2 12,-2 13,1 1,1 1,1 1,2l0 0 0 0c0,0 -1,1 -1,1l-3 11 2 5c12,-5 25,-8 38,-9l0 -6 -12 -14c0,-1 -1,-1 -1,-1l0 -1 0 0c-1,-1 -1,-2 -1,-3 0,-5 9,-10 20,-10z"/>
     <path class="fil16" d="M6700 5407c23,0 41,9 41,21 0,2 -1,5 -2,7l0 0 0 0c-1,1 -2,1 -2,2l-26 29 0 14c23,1 45,5 65,12l4 -10 -8 -23c0,0 0,-1 -1,-2l0 0 0 0c0,-1 0,-3 0,-4 3,-7 16,-8 29,-3 13,5 22,14 20,21 -1,2 -2,3 -3,4l0 0 0 0c-1,0 -1,0 -2,1l-21 11 -4 10c21,9 40,20 58,34l9 -10 0 -38c0,-1 0,-3 0,-4l0 0 0 0c1,-2 2,-5 3,-7 8,-8 28,-3 45,12 18,16 25,35 18,44 -2,2 -4,3 -7,4l0 0 0 0c-1,0 -2,0 -3,0l-38 5 -9 10c15,15 29,33 40,52l10 -5 8 -22c1,-1 1,-1 1,-2l0 0 0 0c1,-1 2,-3 3,-3 7,-4 17,4 24,17 7,12 7,25 0,28 -1,1 -3,1 -4,1l0 0 0 0c-1,0 -2,0 -2,0l-23 -6 -10 5c14,30 23,62 24,97l13 0 30 -24c1,-1 2,-2 2,-2l1 0 0 0c2,-2 4,-3 7,-3 11,0 20,19 20,42 -1,24 -11,42 -22,42 -3,0 -5,-1 -7,-3l0 0 0 0c-1,-1 -2,-1 -3,-2l-28 -26 -14 0c-1,22 -6,44 -13,64l10 5 22 -8c1,0 2,-1 2,-1l0 0 0 0c2,0 3,0 5,0 7,3 8,16 2,29 -5,13 -15,22 -21,19 -2,0 -3,-2 -4,-3l0 0 0 0c0,-1 -1,-1 -1,-2l-11 -21 -10 -4c-10,23 -24,44 -40,63l9 10 39 2c1,0 2,0 3,0l0 0 0 0c3,1 5,2 7,4 8,8 2,28 -15,44 -16,16 -36,23 -44,15 -2,-2 -3,-4 -3,-7l0 0 0 0c0,-1 -1,-2 -1,-3l-2 -39 -10 -9c-16,15 -35,27 -55,37l5 10 22 10c0,0 1,1 2,1l0 0 0 0c1,1 2,2 3,3 3,7 -5,17 -18,23 -13,6 -26,5 -29,-1 -1,-2 -1,-3 0,-5l0 0 0 0c0,0 0,-1 0,-2l7 -23 -5 -10c-25,11 -52,17 -81,19l0 13 25 29c1,1 2,2 2,3l0 0 0 0c2,2 3,5 3,7 0,12 -19,21 -42,21 -23,0 -42,-10 -42,-21 0,-3 1,-5 3,-8l0 0 0 0c1,0 1,-1 2,-2l26 -29 0 -13c-23,-2 -45,-6 -65,-13l-4 10 8 23c0,0 0,1 0,2l0 0 0 0c1,1 1,3 0,4 -2,7 -15,8 -28,3 -14,-5 -22,-14 -20,-21 1,-2 2,-3 3,-4l0 0 0 0c1,0 1,0 2,-1l21 -11 4 -10c-21,-9 -40,-20 -57,-34l-9 10 0 39c0,1 0,2 0,3l0 0 0 0c0,3 -1,5 -3,7 -8,9 -28,4 -45,-12 -17,-15 -25,-34 -17,-43 1,-2 4,-3 6,-4l0 0 0 0c1,0 2,0 3,0l39 -5 9 -10c-16,-16 -30,-33 -41,-53l-10 5 -8 23c0,0 -1,1 -1,2l0 0 0 0c-1,1 -2,2 -3,3 -7,3 -17,-4 -24,-17 -6,-12 -7,-25 0,-29 1,0 3,-1 5,0l0 0 0 0c0,0 1,0 1,0l24 6 9 -6c-13,-28 -22,-59 -23,-92l-14 0 -29 25c-1,1 -2,2 -3,3l0 0 0 0c-2,1 -4,2 -7,2 -11,0 -21,-19 -21,-42 0,-23 10,-41 21,-41 3,0 5,1 8,2l0 0 0 0c0,1 1,1 2,2l29 26 14 0c1,-23 5,-45 12,-65l-10 -4 -23 8c0,0 -1,0 -2,1l0 0 0 0c-1,0 -3,0 -4,0 -7,-3 -8,-16 -3,-29 5,-13 14,-22 21,-20 1,1 3,2 4,3l0 0 0 0c0,1 0,1 0,2l12 21 10 4c10,-25 25,-48 43,-68l-10 -9 -38 -3c-1,0 -3,0 -4,0l0 0 0 0c-2,-1 -5,-2 -6,-3 -9,-9 -2,-28 14,-45 16,-16 36,-23 44,-15 2,2 3,5 4,7l0 0 0 1c0,0 0,1 0,2l3 39 9 10c17,-15 35,-28 55,-38l-5 -10 -21 -10c-1,0 -2,0 -2,-1l0 0 0 0c-2,-1 -3,-2 -3,-3 -3,-7 5,-17 18,-23 13,-6 26,-5 29,2 0,1 0,3 0,4l0 0 0 0c0,1 0,1 -1,2l-6 23 4 10c25,-10 52,-17 80,-18l0 -14 -25 -29c-1,-1 -2,-1 -3,-2l0 0 0 0c-1,-3 -2,-5 -2,-7 0,-12 18,-21 42,-21z"/>
     <rect class="fil0" x="4831" y="3866" width="545" height="554"/>
     <g id="_885978200">
      <g>
       <path class="fil17" d="M5741 4137c53,51 101,98 154,149 15,12 22,6 35,-9 71,-85 179,-227 243,-303 32,-55 -74,-109 15,-281 38,-95 38,-186 4,-282 -9,-51 7,-70 50,-66 93,21 91,79 81,157 -4,24 -8,48 -13,72 -9,53 15,59 46,48 27,-10 27,-20 48,-32 43,-26 80,11 75,54 -1,14 -4,15 10,14 76,9 21,77 49,89 30,7 24,38 16,55 -7,14 -2,17 3,20 17,12 11,40 1,61 -21,45 -107,123 -156,128 -36,2 -67,-2 -94,24 -11,9 -20,21 -31,36 -93,156 -192,306 -302,447 -32,38 -38,48 -81,22 -80,-53 -159,-107 -239,-161 0,0 -55,-156 -38,-167 17,-11 124,-75 124,-75z"/>
       <path class="fil18" d="M6255 4108c-87,143 -179,280 -280,410 -32,38 -38,48 -81,22 -80,-53 -159,-107 -239,-161 0,0 -55,-156 -38,-167 11,-7 58,-35 91,-55l22 6c-12,54 -24,107 -37,160 -3,9 -5,18 -8,27 70,48 141,97 211,146 39,23 53,17 89,-24 4,-4 269,-363 270,-364z"/>
       <path class="fil18" d="M6373 3625c-43,33 -131,60 -106,115 13,47 35,114 8,158 39,4 99,8 130,31 63,41 97,-3 144,-43 4,-4 5,-9 0,-6 -29,18 -56,37 -86,50 -40,12 -57,-30 -28,-46 24,-13 41,-22 65,-36 20,-14 10,-18 -8,-10 -21,10 -44,23 -72,39 -46,21 -71,-14 -39,-45 30,-27 73,-50 108,-72 2,-1 1,-3 0,-3 -2,-1 -5,0 -8,1 -41,19 -80,45 -121,65 -38,19 -68,-28 -30,-56 11,-7 23,-14 31,-20 25,-18 50,-36 75,-54 -69,31 -75,54 -109,54 -16,0 -30,-17 -32,-32 -3,-14 6,-22 16,-31 21,-20 58,-54 62,-59z"/>
      </g>
      <g>
       <path class="fil17" d="M4016 4210c-126,-34 -194,229 -224,491 -27,235 -19,384 7,609 7,63 12,122 2,165 -8,40 -46,82 -70,115 -19,26 -13,30 -13,56 2,49 4,99 6,148 1,26 -5,34 34,50 52,26 61,44 97,86 33,33 35,40 81,42 22,3 19,0 32,18 12,15 26,35 41,47 29,23 51,-2 39,-34 -2,-5 -4,-12 -6,-20 -22,-59 -43,-117 -64,-176 -15,-39 21,-63 50,-123 11,-16 23,-8 25,0 1,22 2,44 3,66 3,31 2,105 50,117 16,5 19,-5 18,-24 -5,-48 -4,-92 6,-143 5,-21 0,-32 -13,-53 -15,-26 -18,-46 -24,-75 -9,-45 -18,-77 -72,-108 -59,-34 -57,-63 -76,-129 -9,-32 -11,-62 -15,-127 14,-223 48,-394 140,-595 12,-18 34,-171 40,-160 -65,-85 452,-211 -94,-243z"/>
       <path class="fil19" d="M3721 5707l0 1 0 3 0 2 0 2 0 3 0 2 0 2 0 3 0 2 0 2 1 3 0 2 0 2 0 3 0 2 0 2 0 3 0 2 0 2 0 3 0 2 0 2 1 3 0 2 0 2 0 3 0 2 0 2 0 3 0 2 0 2 0 3 0 2 0 2 1 3 0 2 0 2 0 2c1,26 -5,34 34,50 52,26 61,44 97,86 33,33 35,40 81,42 22,3 19,0 32,18 12,15 26,35 41,47 29,23 51,-2 39,-34 -2,-5 -4,-12 -6,-20 -22,-59 -43,-117 -64,-176 -15,-39 21,-63 50,-123 11,-16 23,-8 25,0 1,22 2,44 3,66 3,31 2,105 50,117 16,5 19,-5 18,-24 -5,-48 -4,-92 6,-143 5,-21 0,-32 -13,-53 -15,-26 -18,-46 -24,-75 -9,-45 -18,-77 -72,-108 -59,-34 -57,-63 -76,-129 -9,-32 -11,-62 -15,-127l1 -11 0 -1 0 -9c14,-209 51,-381 139,-574 -151,218 -230,716 -87,853 88,58 56,133 19,202 -13,24 -24,44 -40,65 -10,12 -21,22 -32,16 -33,-14 -50,-20 -65,20 -5,12 -22,20 -36,1 -3,-8 -9,-13 -14,-17 -11,-7 -24,-12 -36,-4 -4,2 -7,5 -12,8 -31,17 -41,-29 -46,-50z"/>
      </g>
      <g>
       <path class="fil6" d="M5119 8183l3 1 1 0 7 1 3 0 5 1 6 1 2 0 7 1 2 0 6 1 5 1 2 0 8 1 1 0 7 1 2 0 5 1 0 0 8 1 1 0 6 0 5 1 1 0 10 1 0 0 9 1 4 0 2 0 7 1 0 0 10 1 3 0 5 0 5 1 8 0 0 0 4 0 7 1 3 0 1 0 7 0 1 0 3 0 7 0 3 1 9 0 3 0 7 0 3 0 8 0 1 0 1 0 2 0 7 -1 4 0 6 0 3 0 0 0c3,0 6,0 9,-1l4 0 7 0 2 0 1 0c2,-1 5,-1 8,-1l4 -1 6 0 3 0c3,-1 7,-1 10,-2l2 0 7 -1 4 0c3,-1 6,-1 8,-2l4 0 7 -1 3 -1c3,0 6,-1 9,-2l0 0 2 0 7 -2 4 0c3,-1 6,-2 9,-2l0 0 0 -1c4,0 7,-1 10,-2l3 -1c3,0 5,-1 8,-2l1 0c4,-1 7,-2 10,-3l3 -1c3,-1 5,-2 8,-2l2 -1c3,-1 6,-2 10,-3l1 -1c3,-1 6,-2 9,-3l2 -1c3,-1 6,-2 10,-4l1 0c3,-1 6,-2 9,-4l2 -1c3,-1 6,-2 10,-4l2 -1c2,-1 5,-2 8,-3l2 -2c4,-1 7,-3 10,-4 -24,-75 -87,-66 -185,-66 -26,-3 -51,-10 -75,-19 -52,-19 -101,-48 -149,-76 -54,18 -108,36 -162,54 -46,40 -92,80 -139,121 81,-4 150,17 223,28z"/>
       <path class="fil12" d="M5576 8095c-33,-24 -86,-20 -155,-20 -26,-3 -51,-10 -75,-19 -47,-18 -91,-43 -135,-68 -33,26 -80,56 -99,87 -38,62 1,76 67,83 78,9 360,31 397,-63z"/>
       <path class="fil20" d="M5377 8066c-10,-3 -21,-6 -31,-10 -12,-5 -23,-9 -35,-15 -22,17 -49,36 -69,55 -8,8 -15,12 -14,23 1,18 22,21 38,24 39,7 62,-38 111,-77z"/>
       <path class="fil20" d="M5270 8021c-20,-10 -40,-22 -59,-33 -25,19 -57,41 -79,63 -27,27 1,39 27,44 41,7 58,-34 111,-74z"/>
       <path class="fil1" d="M4812 8185c18,72 50,62 125,62 95,0 150,-7 230,-3 112,6 246,16 354,-25 21,-8 81,-33 87,-55 1,-7 0,-15 -2,-23 -161,80 -320,66 -483,43 -75,-11 -144,-33 -227,-29 -31,9 -54,18 -84,30z"/>
       <g>
        <path class="fil6" d="M4103 8270c21,31 42,61 63,92 55,62 87,56 160,50 56,-7 93,-15 145,-32 71,-24 51,-51 7,-90 -28,-27 -39,-38 -59,-71 -156,-104 -312,57 -316,51z"/>
        <path class="fil12" d="M4491 8302c-4,-4 -8,-8 -13,-12 -28,-27 -39,-38 -59,-71 -109,-73 -218,-16 -275,23 37,63 59,132 140,131 31,-1 58,-4 88,-9 55,-8 121,-23 119,-62z"/>
        <path class="fil1" d="M4079 8294c33,52 50,77 77,117 30,42 62,52 101,53 60,2 145,-10 201,-31 60,-22 73,-25 60,-93l0 0c1,15 -11,28 -47,40 -52,17 -89,25 -145,32 -73,6 -105,12 -160,-50l-63 -91 -24 23z"/>
        <path class="fil20" d="M4238 8309c50,-13 57,-43 151,-37 23,0 33,6 33,-15 -4,-23 -11,-32 -25,-37 -23,-8 -58,-6 -82,-3 -27,3 -50,9 -75,20 -15,7 -52,26 -48,44 7,25 28,34 46,28z"/>
       </g>
      </g>
      <path class="fil21" d="M4352 2166c273,0 684,38 908,-94 0,65 -32,66 -87,94 50,11 104,0 161,-36 67,299 59,767 -62,1046 -58,133 -119,238 -341,208 -100,-7 -398,-67 -477,-134 -94,-79 -126,-218 -195,-380 -129,17 -289,-128 -248,-284 19,-71 119,-121 166,-74 56,55 102,172 104,263 17,-28 29,-53 42,-81 21,-46 14,-48 9,-98 -13,-145 -17,-288 20,-430z"/>
      <path class="fil17" d="M4476 2168c262,5 592,17 784,-96 0,65 -32,66 -87,94 50,11 104,0 161,-36 67,299 59,767 -62,1046 -58,133 -119,238 -341,208 -53,-4 -163,-22 -266,-49l0 0c-231,-287 -195,-819 -189,-1167z"/>
      <path class="fil22" d="M4640 2171c225,2 466,-9 620,-99 0,65 -32,66 -87,94 50,11 104,0 161,-36 67,299 59,767 -62,1046 -58,133 -119,238 -341,208 145,-87 93,-292 59,-431 31,-5 61,-11 91,-17 3,-11 5,-21 8,-31 -9,-30 -17,-60 -26,-89 -16,-58 -32,-115 -48,-173 -2,-48 -5,-95 -7,-143 -15,-134 16,-270 -121,-297 -68,-14 -169,-19 -247,-32z"/>
      <path class="fil23" d="M4118 2495c-30,-111 -39,-217 -101,-295 27,-35 68,-68 124,-102 -22,-8 -43,-16 -65,-24 204,-442 561,-359 940,-293 109,21 371,108 417,-58 44,93 56,159 -3,242 50,4 73,-8 94,-45 43,205 -40,332 -158,420l0 0c-7,-75 -18,-146 -32,-210 -57,36 -111,47 -161,36 55,-28 87,-29 87,-94 -224,132 -635,94 -908,94 -37,142 -33,285 -20,430 5,50 12,52 -9,98 -13,28 -25,53 -42,81 -2,-91 -48,-208 -104,-263 -15,-15 -37,-20 -59,-17z"/>
      <path class="fil24" d="M4132 2103c3,-1 6,-3 9,-5 -22,-8 -43,-16 -65,-24 204,-442 561,-359 940,-293 109,21 371,108 417,-58 48,273 -171,170 -360,240 -94,35 -186,97 -255,70 66,-41 82,-69 98,-146 -108,125 -300,133 -453,140 -149,5 -289,78 -310,246 -26,-40 -51,-112 -21,-170z"/>
      <path class="fil17" d="M4621 3322c1,113 23,238 -62,320 78,146 403,134 450,-23 -69,-35 -94,-128 -97,-237 -67,-7 -188,-29 -291,-60l0 0z"/>
      <path class="fil25" d="M4621 3322c0,16 1,31 1,47l0 0c115,84 179,128 317,168l0 0c-17,-42 -25,-96 -27,-155 -67,-7 -188,-29 -291,-60l0 0z"/>
      <path class="fil1" d="M4522 3645c10,-5 20,-7 31,-7 2,0 3,0 4,0 74,151 408,140 452,-22 2,0 3,0 4,0 2,0 3,0 4,0 10,0 19,2 27,5 -51,193 -437,206 -522,24z"/>
      <path class="fil26" d="M4522 3645c-100,23 -201,46 -301,70 -42,12 -45,13 -70,42 -146,194 -279,402 -418,603 140,140 295,211 444,269 43,-87 86,-174 130,-261 -1,321 26,642 -22,960 -6,33 -9,26 9,54 10,21 7,36 -3,49 -73,76 -15,89 59,106 252,48 725,53 961,-81 42,-21 58,-34 31,-66 -31,-41 -6,-41 17,-76 18,-27 9,-37 -8,-48 -21,-14 -15,-11 -15,-37 17,-300 29,-600 11,-901 78,65 157,130 235,195 56,-138 151,-329 173,-471 -142,-114 -273,-231 -405,-360 -39,-34 -31,-34 -82,-41l-224 -30 0 0c-51,193 -437,206 -522,24zm487 -29l-12 30c5,-9 9,-19 12,-30z"/>
      <path class="fil27" d="M3733 4360c140,140 295,211 444,269 43,-87 86,-174 130,-261 -1,321 26,642 -22,960 -6,33 -9,26 9,54 10,21 7,36 -3,49 -73,76 -15,89 59,106 252,48 725,53 961,-81 42,-21 58,-34 31,-66 -31,-41 -6,-41 17,-76 18,-27 9,-37 -8,-48 -21,-14 -15,-11 -15,-37 17,-300 29,-600 11,-901 78,65 157,130 235,195 52,-129 139,-304 168,-443 -72,211 -131,319 -182,354 -52,31 -132,-99 -152,-139 -54,-112 -94,-292 -107,-488 8,459 17,920 1,1378 -3,177 -107,188 -313,291 118,-32 182,-57 293,-109 66,217 -964,239 -970,25 107,52 212,79 300,84 -70,-27 -181,-62 -240,-106 -41,-31 -48,-64 -43,-145 22,-427 40,-1009 -65,-1412 10,247 -2,421 -79,667 -19,60 -23,100 -81,81 -147,-58 -244,-112 -379,-201z"/>
      <path class="fil1" d="M5582 4523c11,6 22,12 33,17 16,8 19,2 30,-27 65,-160 98,-259 136,-433 6,-23 -2,-22 -26,-28 -22,142 -117,333 -173,471z"/>
      <path class="fil6" d="M4286 5544c-60,298 -33,878 -93,1252 -4,26 -6,18 6,39 10,18 11,31 2,48 -12,23 -12,15 -16,43 -45,366 -90,731 -135,1097 -5,37 -6,50 -2,87 7,66 15,131 24,197 113,-100 224,-151 373,-71 8,-45 15,-89 23,-134 8,-49 5,-55 -1,-104 -9,-77 -13,-164 -13,-233 -3,-736 56,-718 128,-1194 23,-114 44,-229 65,-343 23,-122 45,-244 69,-365 75,-30 115,-50 195,-62 48,239 -17,751 -40,1018 -59,450 -102,915 -59,1371 124,-67 178,-26 325,-160 26,-18 69,-52 69,-52 -1,-28 1,-53 -3,-80 -3,-25 -6,-18 -22,-36 -45,-53 -43,-141 -57,-244 0,0 13,-495 13,-521 0,-26 81,-316 81,-316 8,-31 17,-61 25,-91 3,-28 7,-56 10,-84 27,-216 54,-431 80,-647 9,-127 18,-254 26,-381 -3,-33 -7,-66 -10,-98 -21,-4 -42,-7 -63,-11 -243,120 -692,114 -936,68 -14,-3 -27,-6 -40,-10 -8,6 -16,11 -24,17z"/>
      <path class="fil12" d="M4333 5587c-3,39 -7,84 -10,123 51,26 105,46 156,73 -57,6 -115,11 -172,17 -1,5 -2,10 -2,15 33,9 67,17 101,25 -28,10 -56,20 -84,30 -10,293 -19,587 -29,881 62,47 124,87 223,117 59,-338 120,-681 180,-1019 5,-31 0,-25 30,-34 80,-24 264,-103 327,-102 -11,13 -22,26 -32,39 -34,40 -25,31 -20,84 23,229 15,401 5,648 -8,90 -16,179 -25,268 6,34 63,64 145,71 71,8 72,-19 85,-105 51,-322 86,-614 114,-945 -43,-28 -48,-22 -99,-27 26,-12 83,-33 124,-30 -4,-69 -9,-138 -13,-207 -250,182 -903,139 -1004,78z"/>
      <path class="fil28" d="M5010 2489c10,146 49,252 102,383 57,131 -175,107 -234,3 41,31 88,48 128,51 70,6 74,-5 48,-62 -61,-162 -72,-236 -44,-375z"/>
      <path class="fil29" d="M4855 2358c-12,-6 -26,-7 -41,-5 -40,3 -82,16 -120,28 -46,14 -90,31 -130,56 -8,9 0,30 18,22 44,-19 118,-29 165,-29 76,-1 112,23 125,3 10,-17 6,-63 -17,-75z"/>
      <path class="fil29" d="M5088 2425c3,24 32,20 72,16 50,-6 95,1 142,13 19,5 37,16 46,8 12,-12 1,-23 -12,-32 -33,-21 -187,-97 -235,-58 -12,10 -16,38 -13,53z"/>
      <path class="fil30" d="M4189 2667c-70,-57 -111,98 14,140 -119,3 -150,-148 -66,-184 -22,-63 -83,-11 -84,29 -15,-150 153,-98 136,15z"/>
      <g>
       <ellipse class="fil31" cx="4707" cy="2605" rx="55" ry="66"/>
       <ellipse class="fil0" cx="4682" cy="2578" rx="21" ry="25"/>
       <path class="fil32" d="M4707 2516c38,0 69,34 69,77 0,41 -28,75 -63,78 28,-3 49,-31 49,-66 0,-36 -24,-66 -55,-66 -30,0 -55,30 -55,66 0,35 22,63 49,66 -35,-3 -63,-37 -63,-78 0,-43 31,-77 69,-77z"/>
      </g>
      <g>
       <ellipse class="fil31" cx="5212" cy="2608" rx="53" ry="64"/>
       <ellipse class="fil0" cx="5188" cy="2581" rx="20" ry="24"/>
       <path class="fil32" d="M5212 2521c37,0 67,34 67,75 0,40 -27,72 -61,75 26,-3 47,-30 47,-63 0,-36 -23,-64 -53,-64 -29,0 -53,28 -53,64 0,33 21,60 48,63 -35,-3 -61,-35 -61,-75 0,-41 29,-75 66,-75z"/>
      </g>
      <path class="fil1" d="M4267 5507c-1,40 56,63 131,78 284,57 683,25 866,-57 41,-13 117,-43 85,-97l0 0c-7,8 -20,16 -38,25 -236,134 -709,129 -961,81 -36,-8 -68,-16 -83,-30l0 0z"/>
      <path class="fil1" d="M4177 4629c-4,23 -7,35 -29,26 -175,-66 -294,-150 -421,-283 -2,-5 -1,-8 7,-11l0 0c140,140 294,211 443,268z"/>
      <path class="fil33" d="M4773 3026c115,49 267,94 387,39 -102,237 -296,62 -387,-39z"/>
     </g>
     <path class="fil16" d="M7298 3763c7,0 14,4 14,7 0,1 -1,2 -1,3l0 0 0 0c-1,0 -1,0 -1,1l-8 9 0 5c7,0 14,1 21,4l1 -4 -2 -7c0,0 -1,-1 -1,-1l0 0 0 0c0,0 0,-1 0,-1 1,-2 6,-3 10,-1 4,1 7,5 6,7 0,0 0,1 -1,1l0 0 0 0c0,0 0,0 0,0l-7 4 -1 3c7,3 13,7 19,12l3 -4 0 -12c0,-1 0,-1 0,-2l0 0 0 0c0,0 0,-1 1,-2 2,-3 9,-1 15,4 5,5 8,12 5,15 0,0 -1,1 -2,1l0 0 0 0c0,0 0,0 -1,0l-12 1 -3 4c5,5 9,11 13,17l3 -2 3 -7c0,0 0,0 0,-1l0 0 0 0c1,0 1,0 1,-1 2,-1 6,2 8,6 2,4 2,8 0,9 0,1 -1,1 -1,1l0 0 0 0c-1,0 -1,0 -1,0l-8 -2 -3 1c5,10 8,21 8,32l5 1 9 -9c1,0 1,0 1,0l0 0 0 0c1,-1 2,-1 3,-1 3,0 6,6 6,14 0,7 -3,14 -7,13 -1,0 -2,0 -2,0l0 0 0 0c-1,-1 -1,-1 -1,-1l-10 -9 -4 0c-1,8 -2,15 -5,22l4 1 7 -3c0,0 1,0 1,0l0 0 0 0c0,0 1,0 1,0 3,1 3,5 1,10 -2,4 -5,7 -7,6 0,0 -1,-1 -1,-1l0 0 0 0c0,0 0,0 0,-1l-4 -7 -3 -1c-4,8 -8,15 -14,21l3 3 13 1c0,0 1,0 1,0l0 0 0 0c1,0 2,0 2,1 3,3 1,9 -4,15 -6,5 -12,7 -15,5 -1,-1 -1,-2 -1,-3l0 0 0 0c0,0 0,0 0,-1l-1 -12 -3 -4c-6,5 -12,10 -18,13l1 3 7 3c1,0 1,1 1,1l0 0 0 0c1,0 1,0 1,1 1,2 -2,5 -6,7 -4,2 -8,2 -9,0 -1,-1 -1,-1 -1,-2l0 0 0 0c0,0 1,0 1,0l2 -8 -2 -3c-8,3 -17,5 -26,6l0 4 8 10c0,0 0,1 1,1l0 0 0 0c0,1 0,1 0,2 0,4 -6,7 -13,7 -8,0 -14,-3 -14,-7 0,-1 0,-2 1,-2l0 0 0 0c0,-1 0,-1 0,-1l9 -10 0 -4c-8,-1 -15,-2 -22,-4l-1 3 3 7c0,1 0,1 0,1l0 0 0 0c0,1 0,1 0,2 -1,2 -5,2 -10,1 -4,-2 -7,-5 -6,-7 0,-1 1,-1 1,-2l0 0 0 0c0,0 0,0 1,0l6 -4 2 -3c-7,-3 -13,-7 -19,-11l-3 3 0 13c0,0 0,1 0,1l0 0 0 0c0,1 0,2 -1,2 -3,3 -9,1 -15,-4 -6,-5 -8,-11 -6,-14 1,-1 2,-1 3,-1l0 0 0 0c0,0 0,0 1,0l12 -2 3 -3c-5,-5 -9,-11 -13,-18l-3 2 -3 7c0,1 0,1 0,1l0 0 0 0c-1,1 -1,1 -2,1 -2,1 -5,-1 -7,-5 -2,-5 -3,-9 0,-10 0,0 1,0 1,0l0 0 0 0c0,0 1,0 1,0l7 2 4 -2c-5,-9 -8,-19 -8,-30l-5 0 -9 8c-1,0 -1,1 -1,1l0 0 0 0c-1,0 -2,1 -3,1 -3,0 -6,-7 -6,-14 0,-8 3,-14 7,-14 0,0 1,0 2,1l0 0 0 0c0,0 0,0 1,1l9 8 5 0c0,-8 2,-15 4,-22l-4 -1 -7 3c0,0 0,0 -1,0l0 0 0 0c0,0 -1,0 -1,0 -2,-1 -3,-5 -1,-9 2,-5 5,-8 7,-7 0,0 1,1 1,1l0 0 0 0c0,0 0,1 0,1l4 7 4 1c3,-8 8,-16 14,-22l-4 -4 -12 0c-1,0 -1,0 -1,0l0 0 0 0c-1,-1 -2,-1 -3,-2 -2,-2 0,-9 5,-14 6,-6 12,-8 15,-5 0,0 1,1 1,2l0 0 0 0c0,0 0,1 0,1l1 13 3 3c5,-5 12,-9 18,-12l-1 -4 -7 -3c-1,0 -1,0 -1,0l0 0 0 0c-1,0 -1,-1 -1,-1 -1,-2 2,-6 6,-8 4,-2 8,-2 9,1 1,0 1,1 0,1l0 0 0 0c0,0 0,1 0,1l-2 7 2 4c8,-4 17,-6 26,-6l0 -5 -9 -9c0,-1 0,-1 0,-1l0 0 0 0c-1,-1 -1,-2 -1,-3 0,-3 6,-7 14,-7z"/>
    </g>
   </g>
   <g style="clip-path:url(#id6)">
    <polygon class="fil15" points="0,1130 7501,1130 7501,6661 0,6661 "/>
   </g>
  </g>
  <polygon class="fil15" points="0,0 7494,0 7494,6661 0,6661 "/>
 </g>
</svg>
