<?xml version="1.0" encoding="UTF-8"?>
<!DOCTYPE svg PUBLIC "-//W3C//DTD SVG 1.1//EN" "http://www.w3.org/Graphics/SVG/1.1/DTD/svg11.dtd">
<!-- Creator: CorelDRAW X7 -->
<svg xmlns="http://www.w3.org/2000/svg" xml:space="preserve" width="5.51307in" height="4.75389in" version="1.1" style="shape-rendering:geometricPrecision; text-rendering:geometricPrecision; image-rendering:optimizeQuality; fill-rule:evenodd; clip-rule:evenodd"
viewBox="0 0 41613 35883"
 xmlns:xlink="http://www.w3.org/1999/xlink">
 <defs>
  <style type="text/css">
   <![CDATA[
    .str1 {stroke:#CCCCCC;stroke-width:52.4211}
    .str0 {stroke:#FEAD6C;stroke-width:22.6445}
    .fil1 {fill:none}
    .fil20 {fill:#09415C}
    .fil21 {fill:#0E5979}
    .fil8 {fill:#1A1A1A}
    .fil19 {fill:#2A88C6}
    .fil7 {fill:#333333}
    .fil18 {fill:#3FA9F5}
    .fil6 {fill:#3FA9F5}
    .fil25 {fill:#4D1D07}
    .fil15 {fill:#581504}
    .fil16 {fill:#792407}
    .fil23 {fill:#822D08}
    .fil27 {fill:#C83513}
    .fil13 {fill:#CCCCCC}
    .fil3 {fill:#D98246}
    .fil22 {fill:#E65A1C}
    .fil10 {fill:#E6B300}
    .fil5 {fill:#E6E6E6}
    .fil14 {fill:#E7E7E7}
    .fil11 {fill:#EB534E}
    .fil24 {fill:#F2662B}
    .fil17 {fill:#F37542}
    .fil26 {fill:#FB844C}
    .fil4 {fill:#FE9554}
    .fil2 {fill:#FEAD6C}
    .fil12 {fill:#FFA161}
    .fil9 {fill:#FFCC00}
    .fil0 {fill:white}
   ]]>
  </style>
   <clipPath id="id0">
    <path d="M0 0l41613 0 0 35883 -41613 0 0 -35883z"/>
   </clipPath>
    <clipPath id="id1">
    </clipPath>
    <clipPath id="id2">
     <path d="M0 0l41613 0 0 35883 -41613 0 0 -35883z"/>
    </clipPath>
      <clipPath id="id3">
       <path d="M9395 16123l4245 0 0 3748 -4245 0 0 -3748z"/>
      </clipPath>
      <clipPath id="id4">
       <path d="M0 0l41613 0 0 35883 -41613 0 0 -35883z"/>
      </clipPath>
 </defs>
 <g id="Layer_x0020_1">
  <metadata id="CorelCorpID_0Corel-Layer"/>
  <g>
  </g>
  <g style="clip-path:url(#id0)">
   <g>
    <rect class="fil0" x="-31715" y="36896" width="32136" height="30595"/>
   </g>
   <g style="clip-path:url(#id1)">
    <image id="stock-vector-funny-cartoon-guy-in-various-poses-278598614.jpg" x="-95591" y="-206477" width="77985" height="65820" xlink:href="8.svg_Images\8.svg_ImgID1.png"/>
   </g>
   <g style="clip-path:url(#id2)">
    <rect class="fil0" x="-29506" y="36835" width="30206" height="28758"/>
    <path class="fil1" d="M41028 60317c-291,-73 -7460,1747 -7460,1747l-2111 2656"/>
    <g id="_578731024">
     <g>
      <g>
       <rect class="fil2" x="23589" y="17810" width="1395" height="1002"/>
       <path class="fil3 str0" d="M23589 17810l1384 0c7,9 10,72 10,74l-1394 548 0 -622z"/>
       <ellipse class="fil4" transform="matrix(0.355423 -0.0406976 0.035666 0.405564 22590.8 16258.9)" rx="649" ry="1147"/>
       <ellipse class="fil2" transform="matrix(-0.355423 -0.0406976 -0.035666 0.405564 25933.6 16258.9)" rx="649" ry="1147"/>
       <path class="fil5" d="M24261 18491c-148,-19 -532,-198 -781,-173 -1107,113 -1978,1164 -1998,2271l2784 0 2784 0c-20,-1107 -891,-2158 -1999,-2271 -248,-25 -643,154 -790,173z"/>
       <path class="fil6" d="M23094 18399c-222,68 -431,174 -619,308l0 831 619 0 0 -1139z"/>
       <path class="fil6" d="M26087 18728c-188,-138 -396,-248 -619,-320l0 1130 619 0 0 -810z"/>
       <path class="fil7" d="M23285 18346c555,303 1407,303 1962,0 -44,-55 -89,-109 -133,-164 -545,263 -1151,263 -1696,0 -44,55 -89,109 -133,164z"/>
       <rect class="fil6" x="22342" y="19678" width="3971" height="911"/>
       <g>
        <rect class="fil0" x="22497" y="19819" width="533" height="310" rx="238" ry="119"/>
        <rect class="fil0" x="25625" y="19819" width="533" height="310" rx="238" ry="119"/>
       </g>
       <ellipse class="fil2" cx="24286" cy="16056" rx="1731" ry="1933"/>
       <path class="fil4" d="M24286 17990c-956,0 -1730,-866 -1730,-1934 0,-972 642,-1776 1478,-1913l252 0 0 3847z"/>
       <path class="fil8" d="M22881 14271c488,-559 1838,-698 2593,-174 671,465 871,1294 692,2053 -494,-57 -731,-600 -792,-926 -496,514 -1068,721 -1817,739 273,-130 341,-168 448,-401 -333,244 -492,309 -635,307 199,-181 236,-277 224,-515 -536,174 -950,402 -1004,1088 -298,-436 -496,-1426 291,-2171z"/>
      </g>
      <g>
       <path class="fil9" d="M24203 13065c-371,-4 -580,83 -748,155 7,29 11,47 17,76 -670,313 -951,924 -1141,1530 -190,605 95,332 95,332 0,0 729,299 777,302 39,2 736,-122 1000,-169 265,47 962,171 1000,169 48,-3 777,-302 777,-302 0,0 286,273 96,-332 -190,-606 -471,-1217 -1141,-1530 6,-29 10,-47 17,-76 -168,-72 -377,-159 -749,-155z"/>
       <path class="fil10" d="M23472 13296c-64,30 -125,63 -182,98 90,270 171,540 253,813 28,-342 6,-580 -71,-911z"/>
       <path class="fil1" d="M23290 13394c57,-35 118,-68 182,-98"/>
       <path class="fil10" d="M22331 14826c109,100 219,200 328,300 85,77 68,59 185,59l1335 -4 0 -1 24 0 24 0 0 1 1336 4c117,0 100,18 185,-59 109,-100 219,-200 328,-300 159,-24 349,221 331,410 -187,96 -375,192 -562,287 -254,131 -222,125 -507,125l-1111 1 0 0 -24 0 -24 0 0 0 -1110 -1c-286,0 -253,6 -507,-125 -187,-95 -375,-191 -562,-287 -19,-189 172,-434 331,-410z"/>
       <path class="fil10" d="M24935 13296c64,30 125,63 182,98 -90,270 -171,540 -253,813 -28,-342 -6,-580 71,-911z"/>
      </g>
     </g>
     <g>
      <circle class="fil0" cx="26539" cy="20030" r="1282"/>
      <circle class="fil5" cx="26539" cy="20030" r="1099"/>
      <rect class="fil7" x="25818" y="19878" width="1442" height="305" rx="152" ry="152"/>
     </g>
    </g>
    <g id="_578726032">
     <g>
      <rect class="fil2" x="17858" y="11582" width="922" height="662"/>
      <path class="fil3 str0" d="M17858 11582l915 0c4,5 7,47 7,48l-922 363 0 -411z"/>
      <ellipse class="fil4" transform="matrix(0.234949 -0.0269028 0.0235767 0.268095 17198 10556.2)" rx="649" ry="1147"/>
      <ellipse class="fil2" transform="matrix(-0.234949 -0.0269028 -0.0235767 0.268095 19407.7 10556.2)" rx="649" ry="1147"/>
      <path class="fil5" d="M18302 12032c-98,-13 -352,-131 -516,-115 -732,75 -1308,770 -1321,1502l1840 0 1841 0c-13,-732 -589,-1427 -1321,-1502 -165,-16 -426,102 -523,115z"/>
      <path class="fil6" d="M17531 11971c-147,45 -285,115 -410,203l0 550 410 0 0 -753z"/>
      <path class="fil6" d="M19509 12188c-124,-91 -262,-163 -409,-211l0 747 409 0 0 -536z"/>
      <path class="fil7" d="M17657 11936c367,200 930,200 1297,0 -30,-36 -59,-72 -88,-108 -360,173 -761,173 -1121,0 -29,36 -59,72 -88,108z"/>
      <rect class="fil6" x="17034" y="12817" width="2625" height="602"/>
      <g>
       <rect class="fil0" x="17136" y="12910" width="353" height="205" rx="157" ry="79"/>
       <rect class="fil0" x="19204" y="12910" width="353" height="205" rx="157" ry="79"/>
      </g>
      <ellipse class="fil2" cx="18319" cy="10422" rx="1144" ry="1278"/>
      <path class="fil4" d="M18319 11700c-632,0 -1144,-572 -1144,-1278 0,-642 424,-1174 977,-1264l167 0 0 2542z"/>
      <path class="fil8" d="M17390 9242c322,-370 1215,-462 1714,-115 444,308 576,855 457,1357 -326,-38 -483,-397 -523,-612 -328,340 -706,477 -1201,488 180,-85 225,-110 296,-265 -221,162 -326,204 -420,203 132,-119 156,-182 148,-340 -354,115 -628,266 -664,719 -197,-288 -327,-942 193,-1435z"/>
     </g>
     <g>
      <path class="fil9" d="M18264 8445c-245,-3 -384,55 -495,102 5,19 7,31 12,50 -443,208 -629,611 -755,1012 -126,400 63,219 63,219 0,0 482,198 514,200 26,1 486,-81 661,-112 175,31 635,113 661,112 32,-2 514,-200 514,-200 0,0 189,181 63,-219 -126,-401 -312,-804 -755,-1012 5,-19 7,-31 12,-50 -111,-47 -249,-105 -495,-102z"/>
      <path class="fil10" d="M17781 8597c-43,20 -83,42 -121,65 60,179 113,358 167,538 19,-226 5,-384 -46,-603z"/>
      <path class="fil1" d="M17660 8662c38,-23 78,-45 121,-65"/>
      <path class="fil10" d="M17026 9609c72,66 145,132 217,198 56,51 45,39 122,39l883 -3 0 0 16 0 16 0 0 0 883 3c77,0 66,12 122,-39 72,-66 145,-132 217,-198 105,-16 231,146 219,271 -124,63 -248,127 -372,190 -168,86 -146,82 -335,83l-734 0 0 0 -16 0 -16 0 0 0 -734 0c-189,-1 -167,3 -335,-83 -124,-63 -248,-127 -372,-190 -12,-125 114,-287 219,-271z"/>
      <path class="fil10" d="M18747 8597c43,20 83,42 121,65 -60,179 -113,358 -167,538 -19,-226 -5,-384 46,-603z"/>
     </g>
    </g>
    <g id="_578726152">
     <circle class="fil0" cx="19659" cy="12900" r="998"/>
     <circle class="fil5" cx="19659" cy="12900" r="855"/>
     <rect class="fil7" x="19098" y="12781" width="1122" height="237" rx="119" ry="119"/>
    </g>
    <g id="_578718760">
     <g>
      <rect class="fil2" x="11753" y="8941" width="845" height="607"/>
      <path class="fil3 str0" d="M11753 8941l838 0c4,6 6,44 6,45l-844 332 0 -377z"/>
      <ellipse class="fil4" transform="matrix(0.215286 -0.0246513 0.0216036 0.245658 11148.2 8001.67)" rx="649" ry="1147"/>
      <ellipse class="fil2" transform="matrix(-0.215286 -0.0246513 -0.0216036 0.245658 13173 8001.67)" rx="649" ry="1147"/>
      <path class="fil5" d="M12160 9354c-90,-12 -322,-120 -473,-105 -671,68 -1199,705 -1210,1376l1686 0 1686 0c-12,-671 -540,-1308 -1210,-1376 -151,-15 -390,93 -479,105z"/>
      <path class="fil6" d="M11453 9298c-135,41 -261,105 -375,186l0 504 375 0 0 -690z"/>
      <path class="fil6" d="M13266 9497c-114,-84 -240,-150 -375,-193l0 684 375 0 0 -491z"/>
      <path class="fil7" d="M11569 9266c336,183 852,183 1188,0 -27,-33 -54,-66 -81,-99 -329,159 -697,159 -1027,0 -27,33 -53,66 -80,99z"/>
      <rect class="fil6" x="10998" y="10073" width="2405" height="552"/>
      <g>
       <rect class="fil0" x="11091" y="10158" width="323" height="188" rx="144" ry="72"/>
       <rect class="fil0" x="12986" y="10158" width="323" height="188" rx="144" ry="72"/>
      </g>
      <ellipse class="fil2" cx="12175" cy="7879" rx="1048" ry="1171"/>
      <path class="fil4" d="M12175 9050c-579,0 -1048,-524 -1048,-1171 0,-589 389,-1076 895,-1159l153 0 0 2330z"/>
      <path class="fil8" d="M11324 6798c295,-339 1113,-423 1571,-106 406,282 527,784 419,1244 -299,-35 -443,-364 -480,-561 -300,311 -647,436 -1100,447 165,-78 206,-101 271,-243 -202,148 -298,187 -385,186 121,-109 143,-167 136,-312 -325,106 -576,244 -608,659 -181,-264 -301,-863 176,-1314z"/>
     </g>
     <g>
      <path class="fil9" d="M12125 6067c-225,-2 -352,50 -453,94 4,17 6,28 10,46 -406,190 -576,559 -691,926 -116,367 58,202 58,202 0,0 441,181 470,183 24,1 446,-74 606,-103 160,29 582,104 606,103 29,-2 470,-183 470,-183 0,0 174,165 58,-202 -115,-367 -285,-736 -691,-926 4,-18 6,-29 10,-46 -101,-44 -228,-96 -453,-94z"/>
      <path class="fil10" d="M11682 6207c-39,18 -76,38 -110,59 54,164 103,328 153,493 17,-208 4,-352 -43,-552z"/>
      <path class="fil1" d="M11572 6266c34,-21 71,-41 110,-59"/>
      <path class="fil10" d="M10991 7133c66,61 132,122 198,182 52,47 42,36 112,36l809 -3 0 0 15 0 15 0 0 0 809 3c70,0 60,11 112,-36 66,-60 132,-121 198,-182 97,-14 212,135 201,249 -114,58 -227,116 -341,174 -154,79 -134,76 -307,76l-672 0 0 0 -15 0 -15 0 0 0 -672 0c-173,0 -153,3 -307,-76 -114,-58 -227,-116 -341,-174 -11,-114 104,-263 201,-249z"/>
      <path class="fil10" d="M12568 6207c39,18 76,38 110,59 -54,164 -103,328 -153,493 -17,-208 -4,-352 43,-552z"/>
     </g>
    </g>
    <g id="_578709664">
     <g>
      <rect class="fil2" x="5485" y="14120" width="1012" height="727"/>
      <path class="fil3 str0" d="M5485 14120l1005 0c5,7 8,52 8,54l-1013 398 0 -452z"/>
      <ellipse class="fil4" transform="matrix(0.257991 -0.0295412 0.0258889 0.294387 4760.77 12994.4)" rx="649" ry="1147"/>
      <ellipse class="fil2" transform="matrix(-0.257991 -0.0295412 -0.0258889 0.294387 7187.24 12994.4)" rx="649" ry="1147"/>
      <path class="fil5" d="M5973 14614c-107,-13 -386,-143 -566,-125 -804,82 -1437,845 -1451,1649l2021 0 2020 0c-14,-804 -646,-1567 -1450,-1649 -181,-18 -467,112 -574,125z"/>
      <path class="fil6" d="M5126 14548c-161,49 -313,126 -449,223l0 604 449 0 0 -827z"/>
      <path class="fil6" d="M7298 14787c-136,-101 -287,-180 -449,-232l0 819 449 0 0 -587z"/>
      <path class="fil7" d="M5265 14509c402,220 1021,220 1424,0 -32,-39 -65,-79 -97,-119 -395,191 -835,191 -1231,0 -32,40 -64,80 -96,119z"/>
      <rect class="fil6" x="4580" y="15477" width="2882" height="661"/>
      <g>
       <rect class="fil0" x="4693" y="15579" width="387" height="225" rx="172" ry="87"/>
       <rect class="fil0" x="6963" y="15579" width="387" height="225" rx="172" ry="87"/>
      </g>
      <ellipse class="fil2" cx="5991" cy="12847" rx="1256" ry="1403"/>
      <path class="fil4" d="M5991 14251c-693,0 -1256,-629 -1256,-1404 0,-705 466,-1289 1073,-1388l183 0 0 2792z"/>
      <path class="fil8" d="M4971 11552c354,-407 1334,-507 1883,-127 487,338 632,939 502,1490 -358,-41 -531,-435 -575,-672 -360,373 -775,523 -1319,536 198,-94 248,-121 325,-291 -242,178 -357,224 -461,223 145,-131 172,-200 163,-374 -389,127 -690,293 -729,790 -216,-316 -360,-1035 211,-1575z"/>
     </g>
     <g>
      <path class="fil9" d="M5931 10676c-269,-3 -421,60 -543,113 5,20 8,34 12,54 -486,228 -690,671 -828,1111 -138,440 70,241 70,241 0,0 529,218 563,219 29,2 534,-88 726,-122 192,34 698,124 726,122 35,-1 564,-219 564,-219 0,0 208,199 70,-241 -138,-440 -342,-883 -829,-1111 5,-20 8,-34 12,-54 -121,-53 -273,-116 -543,-113z"/>
      <path class="fil10" d="M5400 10843c-46,22 -90,46 -132,72 66,196 124,392 184,590 20,-248 5,-421 -52,-662z"/>
      <path class="fil1" d="M5268 10915c42,-26 86,-50 132,-72"/>
      <path class="fil10" d="M4572 11954c79,73 159,145 238,218 62,56 50,43 134,43l970 -3 0 0 17 0 18 0 0 0 969 3c85,0 73,13 135,-43 79,-73 158,-145 238,-218 115,-17 253,161 240,298 -136,69 -272,139 -408,209 -185,94 -161,90 -368,90l-806 1 0 0 -18 0 -17 0 0 0 -806 -1c-207,0 -183,4 -368,-90 -136,-70 -272,-140 -408,-209 -14,-137 125,-315 240,-298z"/>
      <path class="fil10" d="M6462 10843c47,22 91,46 133,72 -66,196 -125,392 -184,590 -20,-248 -5,-421 51,-662z"/>
     </g>
    </g>
    <g id="_885964976">
     <g>
      <g>
       <rect class="fil2" x="23444" y="7159" width="922" height="662"/>
       <path class="fil3 str0" d="M23444 7159l915 0c5,6 7,47 7,48l-922 363 0 -411z"/>
       <ellipse class="fil4" transform="matrix(0.234949 -0.0269028 0.0235767 0.268095 22784.3 6133.32)" rx="649" ry="1147"/>
       <ellipse class="fil2" transform="matrix(-0.234949 -0.0269028 -0.0235767 0.268095 24994 6133.32)" rx="649" ry="1147"/>
       <path class="fil5" d="M23888 7609c-97,-13 -351,-131 -516,-114 -732,74 -1308,769 -1321,1501l1841 0 1840 0c-13,-732 -589,-1427 -1321,-1501 -164,-17 -425,101 -523,114z"/>
       <path class="fil6" d="M23117 7548c-147,45 -285,115 -409,203l0 550 409 0 0 -753z"/>
       <path class="fil6" d="M25095 7766c-124,-92 -262,-164 -409,-212l0 747 409 0 0 -535z"/>
       <path class="fil7" d="M23243 7513c367,200 930,200 1297,0 -29,-36 -59,-72 -88,-108 -360,174 -761,174 -1121,0 -29,36 -59,72 -88,108z"/>
       <rect class="fil6" x="22620" y="8394" width="2625" height="602"/>
       <g>
        <rect class="fil0" x="22722" y="8487" width="353" height="205" rx="157" ry="79"/>
        <rect class="fil0" x="24790" y="8487" width="353" height="205" rx="157" ry="79"/>
       </g>
       <ellipse class="fil2" cx="23905" cy="5999" rx="1144" ry="1278"/>
       <path class="fil4" d="M23905 7277c-632,0 -1144,-572 -1144,-1278 0,-642 425,-1174 977,-1264l167 0 0 2542z"/>
       <path class="fil8" d="M22976 4819c323,-369 1215,-461 1714,-115 444,308 576,855 458,1357 -327,-37 -484,-396 -524,-612 -328,340 -706,477 -1201,488 180,-85 226,-110 296,-265 -220,162 -325,205 -420,203 132,-119 157,-182 148,-340 -354,115 -628,266 -663,719 -197,-288 -328,-942 192,-1435z"/>
      </g>
      <g>
       <path class="fil9" d="M23850 4022c-245,-2 -383,55 -494,102 4,19 7,31 11,50 -443,208 -629,611 -755,1012 -125,400 64,219 64,219 0,0 482,198 513,200 26,1 487,-80 661,-112 175,32 636,113 661,112 32,-2 514,-200 514,-200 0,0 189,181 63,-219 -125,-401 -311,-804 -754,-1012 4,-19 7,-31 11,-50 -111,-47 -249,-104 -495,-102z"/>
       <path class="fil10" d="M23367 4174c-43,20 -83,42 -121,65 60,179 113,358 168,538 18,-226 4,-384 -47,-603z"/>
       <path class="fil1" d="M23246 4239c38,-23 78,-45 121,-65"/>
       <path class="fil10" d="M22612 5186c73,66 145,132 217,198 56,52 45,40 123,39l882 -3 0 0 16 0 16 0 0 0 883 3c77,1 66,13 122,-39 73,-66 145,-132 217,-198 105,-16 231,146 219,271 -124,63 -248,127 -372,190 -168,86 -146,83 -335,83l-734 0 0 0 -16 0 -16 0 0 0 -733 0c-189,0 -168,3 -336,-83 -124,-63 -248,-127 -371,-190 -13,-125 113,-287 218,-271z"/>
       <path class="fil10" d="M24334 4174c42,20 82,42 120,65 -59,179 -113,358 -167,538 -18,-226 -4,-384 47,-603z"/>
      </g>
     </g>
     <g>
      <circle class="fil0" cx="25494" cy="8726" r="947"/>
      <circle class="fil5" cx="25494" cy="8726" r="812"/>
      <rect class="fil7" x="24962" y="8613" width="1065" height="225" rx="113" ry="113"/>
     </g>
    </g>
    <g id="_885958856">
     <g>
      <g>
       <rect class="fil2" x="3127" y="20735" width="714" height="513"/>
       <path class="fil3 str0" d="M3127 20735l708 0c4,4 5,36 5,37l-713 281 0 -318z"/>
       <ellipse class="fil4" transform="matrix(0.181871 -0.0208251 0.0182504 0.207528 2616.06 19940.8)" rx="649" ry="1147"/>
       <ellipse class="fil2" transform="matrix(-0.181871 -0.0208251 -0.0182504 0.207528 4326.6 19940.8)" rx="649" ry="1147"/>
       <path class="fil5" d="M3471 21083c-76,-10 -272,-101 -400,-88 -566,57 -1012,595 -1022,1162l1424 0 1425 0c-10,-567 -456,-1105 -1023,-1162 -127,-13 -329,78 -404,88z"/>
       <path class="fil6" d="M2874 21036c-114,35 -221,89 -317,157l0 426 317 0 0 -583z"/>
       <path class="fil6" d="M4405 21204c-96,-70 -203,-126 -317,-163l0 578 317 0 0 -415z"/>
       <path class="fil7" d="M2971 21009c284,155 720,155 1004,0 -22,-28 -45,-56 -68,-84 -279,135 -589,135 -868,0 -22,28 -45,56 -68,84z"/>
       <rect class="fil6" x="2489" y="21691" width="2032" height="466"/>
       <g>
        <rect class="fil0" x="2568" y="21763" width="273" height="158" rx="122" ry="61"/>
        <rect class="fil0" x="4169" y="21763" width="273" height="158" rx="122" ry="61"/>
       </g>
       <ellipse class="fil2" cx="3484" cy="19837" rx="886" ry="989"/>
       <path class="fil4" d="M3484 20826c-489,0 -886,-442 -886,-989 0,-497 329,-909 757,-979l129 0 0 1968z"/>
       <path class="fil8" d="M2764 18924c250,-287 941,-358 1327,-90 344,239 446,663 355,1051 -253,-29 -375,-307 -406,-474 -254,263 -546,369 -929,378 139,-66 174,-85 229,-205 -171,125 -252,158 -325,157 102,-92 121,-141 114,-263 -274,89 -486,206 -513,556 -153,-223 -254,-729 148,-1110z"/>
      </g>
      <g>
       <path class="fil9" d="M3441 18306c-190,-1 -297,43 -383,80 4,14 6,24 9,38 -343,161 -487,473 -584,783 -97,310 49,170 49,170 0,0 373,154 398,155 19,1 376,-62 511,-87 136,25 492,88 512,87 25,-1 398,-155 398,-155 0,0 146,140 49,-170 -98,-310 -242,-622 -584,-783 3,-14 5,-24 8,-38 -86,-37 -193,-81 -383,-80z"/>
       <path class="fil10" d="M3067 18424c-33,16 -64,33 -93,51 46,138 87,276 129,416 14,-175 4,-297 -36,-467z"/>
       <path class="fil1" d="M2974 18475c29,-18 60,-35 93,-51"/>
       <path class="fil10" d="M2483 19207c56,52 112,103 168,154 43,40 35,30 95,30l683 -2 0 0 12 0 13 0 0 0 683 2c60,0 51,10 95,-30 56,-51 112,-102 168,-154 81,-12 178,114 169,210 -96,49 -192,98 -288,147 -130,67 -113,64 -259,64l-568 1 0 0 -13 0 -12 0 0 0 -568 -1c-146,0 -130,3 -260,-64 -96,-49 -191,-98 -287,-147 -10,-96 88,-222 169,-210z"/>
       <path class="fil10" d="M3816 18424c32,16 63,33 93,51 -46,138 -88,276 -130,416 -14,-175 -3,-297 37,-467z"/>
      </g>
     </g>
     <g>
      <circle class="fil0" cx="4925" cy="22159" r="944"/>
      <circle class="fil5" cx="4925" cy="22159" r="810"/>
      <rect class="fil7" x="4394" y="22047" width="1062" height="225" rx="112" ry="112"/>
     </g>
    </g>
    <g id="_885952688">
     <g>
      <g>
       <rect class="fil2" x="4411" y="5473" width="714" height="513"/>
       <path class="fil3 str0" d="M4411 5473l708 0c4,4 6,37 6,37l-714 281 0 -318z"/>
       <ellipse class="fil4" transform="matrix(0.181871 -0.0208251 0.0182504 0.207528 3900.23 4679.05)" rx="649" ry="1147"/>
       <ellipse class="fil2" transform="matrix(-0.181871 -0.0208251 -0.0182504 0.207528 5610.78 4679.05)" rx="649" ry="1147"/>
       <path class="fil5" d="M4755 5821c-76,-10 -272,-101 -400,-88 -566,58 -1012,596 -1022,1162l1424 0 1425 0c-10,-566 -456,-1104 -1023,-1162 -127,-13 -329,78 -404,88z"/>
       <path class="fil6" d="M4158 5774c-114,35 -221,89 -317,158l0 425 317 0 0 -583z"/>
       <path class="fil6" d="M5689 5943c-96,-71 -203,-127 -317,-164l0 578 317 0 0 -414z"/>
       <path class="fil7" d="M4255 5747c284,155 721,155 1004,0 -22,-28 -45,-56 -68,-84 -278,135 -589,135 -867,0 -23,28 -46,56 -69,84z"/>
       <rect class="fil6" x="3773" y="6429" width="2032" height="466"/>
       <g>
        <rect class="fil0" x="3852" y="6501" width="273" height="158" rx="122" ry="61"/>
        <rect class="fil0" x="5453" y="6501" width="273" height="158" rx="122" ry="61"/>
       </g>
       <ellipse class="fil2" cx="4768" cy="4575" rx="886" ry="989"/>
       <path class="fil4" d="M4768 5565c-489,0 -886,-443 -886,-990 0,-497 329,-909 757,-979l129 0 0 1969z"/>
       <path class="fil8" d="M4049 3662c249,-286 940,-358 1327,-89 343,238 445,662 354,1050 -253,-29 -375,-307 -406,-474 -253,263 -546,369 -929,378 139,-66 174,-85 229,-205 -171,125 -252,158 -325,157 102,-92 121,-141 115,-263 -275,89 -487,206 -514,557 -153,-224 -254,-730 149,-1111z"/>
      </g>
      <g>
       <path class="fil9" d="M4725 3044c-190,-1 -297,43 -382,80 3,15 5,24 8,39 -343,160 -487,473 -584,783 -97,310 49,170 49,170 0,0 373,153 398,154 20,1 376,-62 511,-86 136,24 492,87 512,86 25,-1 398,-154 398,-154 0,0 146,140 49,-170 -98,-310 -241,-623 -584,-783 3,-15 5,-24 8,-39 -86,-37 -193,-81 -383,-80z"/>
       <path class="fil10" d="M4351 3163c-33,15 -64,32 -93,50 46,138 87,277 129,416 15,-175 4,-297 -36,-466z"/>
       <path class="fil1" d="M4258 3213c29,-18 60,-35 93,-50"/>
       <path class="fil10" d="M3767 3946c56,51 112,102 168,153 44,40 35,31 95,30l683 -2 0 0 12 0 13 0 0 0 683 2c60,1 51,10 95,-30 56,-51 112,-102 168,-153 81,-13 178,113 169,209 -96,50 -192,99 -288,148 -130,66 -113,63 -259,64l-568 0 0 0 -13 0 -12 0 0 0 -568 0c-146,-1 -129,2 -260,-64 -95,-49 -191,-98 -287,-148 -10,-96 88,-222 169,-209z"/>
       <path class="fil10" d="M5100 3163c33,15 64,32 93,50 -46,138 -88,277 -129,416 -15,-175 -4,-297 36,-466z"/>
      </g>
     </g>
     <g>
      <circle class="fil0" cx="6138" cy="6826" r="874"/>
      <circle class="fil5" cx="6138" cy="6826" r="749"/>
      <rect class="fil7" x="5647" y="6723" width="983" height="208" rx="104" ry="104"/>
     </g>
    </g>
    <path class="fil11" d="M2047 7373c92,0 167,37 167,84 0,10 -3,20 -10,29l0 0 0 1c-2,2 -5,5 -8,8l-102 117 0 55c91,4 179,21 261,49l16 -42 -33 -89c-1,-3 -2,-6 -3,-8l0 0 0 0c-2,-7 -2,-13 0,-19 11,-27 62,-32 115,-12 54,20 89,58 79,85 -3,6 -7,11 -13,15l0 0 0 0c-2,1 -4,2 -6,3l-85 46 -15 41c84,35 162,81 232,137l36 -40 2 -155c-1,-4 -1,-9 0,-14l0 0 0 0c1,-11 5,-20 11,-27 31,-35 112,-14 182,48 69,61 100,139 69,174 -7,8 -17,13 -28,15l0 0 0 0c-3,1 -7,1 -11,2l-154 19 -36 41c63,62 118,133 162,210l40 -21 34 -88c1,-3 2,-6 3,-8l0 0 0 0c3,-6 7,-11 13,-14 25,-13 67,17 94,68 26,50 27,102 2,115 -6,3 -12,4 -19,3l0 0 0 0c-3,0 -5,-1 -7,-2l-93 -22 -40 21c58,118 92,249 96,388l55 1 118 -98c3,-4 7,-7 11,-9l0 0 0 0c9,-7 18,-10 28,-10 47,1 83,77 81,170 -2,92 -41,166 -88,165 -10,0 -20,-4 -29,-11l0 0 0 0c-3,-2 -6,-5 -9,-8l-115 -104 -54 -2c-6,91 -25,178 -55,260l42 17 89 -31c3,-1 6,-2 9,-3l0 0 0 0c6,-1 12,-1 18,1 27,11 31,62 10,115 -22,53 -60,88 -87,77 -6,-3 -11,-7 -15,-13l0 0 0 0c-1,-2 -2,-4 -3,-6l-43 -86 -42 -17c-40,94 -95,179 -162,254l39 38 153 10c5,0 10,0 14,1l1 0 0 0c10,2 19,6 27,13 33,33 7,112 -59,178 -65,66 -144,92 -177,60 -8,-8 -12,-17 -14,-29l0 0 0 0c0,-3 -1,-7 -1,-11l-11 -155 -38 -38c-66,59 -139,110 -219,150l18 41 87 39c3,1 5,2 8,4l0 0 0 0c6,3 10,8 13,13 11,26 -21,67 -73,90 -52,24 -104,22 -116,-4 -2,-6 -3,-12 -1,-19l0 0 0 0c0,-3 1,-5 2,-7l27 -92 -18 -40c-101,42 -211,68 -326,73l0 55 101 116c3,4 6,7 9,11l0 0 0 0c6,9 10,19 10,29 -1,46 -76,84 -168,83 -93,0 -168,-39 -167,-85 0,-11 3,-20 10,-30l0 0 0 0c3,-3 5,-5 8,-8l103 -117 0 -54c-91,-5 -178,-22 -261,-51l-16 42 33 89c1,3 2,6 3,8l0 0 0 0c1,7 1,13 -1,19 -10,27 -62,32 -115,11 -53,-20 -88,-58 -78,-85 2,-6 7,-11 13,-15l0 0 0 0c2,-1 4,-2 6,-3l85 -45 16 -42c-82,-34 -159,-79 -227,-134l-37 40 -1 155c0,5 0,9 0,14l0 0 0 0c-1,11 -5,20 -12,27 -31,35 -112,14 -181,-48 -69,-61 -100,-139 -69,-174 7,-8 16,-13 27,-15l0 0 0 0c4,-1 8,-1 11,-1l155 -20 36 -41c-64,-62 -118,-133 -163,-210l-39 21 -35 88c0,3 -2,6 -3,8l0 1 0 0c-3,6 -7,10 -12,13 -26,13 -68,-17 -95,-67 -26,-51 -27,-103 -2,-116 6,-3 13,-4 20,-3l0 0 0 0c2,1 4,1 6,2l94 22 39 -21c-55,-112 -89,-237 -95,-369l-55 0 -116 101c-3,4 -7,7 -11,9l0 0 0 0c-9,7 -18,10 -28,10 -47,0 -84,-75 -84,-168 0,-92 38,-167 84,-167 11,0 21,4 30,11l0 0 0 0c3,2 6,4 8,7l117 103 55 0c4,-91 21,-179 49,-261l-41 -16 -90 33c-2,1 -5,2 -8,3l0 0 0 0c-6,1 -12,1 -18,-1 -27,-10 -32,-62 -12,-115 20,-53 58,-88 85,-78 6,2 11,7 15,12l0 0 0 1c1,1 2,3 3,6l45 84 42 16c41,-100 100,-192 171,-272l-39 -38 -154 -10c-4,0 -9,-1 -14,-1l0 0 0 0c-10,-2 -20,-6 -27,-13 -33,-33 -7,-113 59,-179 65,-65 145,-92 178,-59 7,7 11,17 13,28l0 0 0 1c1,3 1,7 1,11l11 155 38 38c66,-60 139,-110 219,-150l-18 -41 -87 -39c-3,-1 -5,-2 -8,-4l0 0 0 0c-5,-3 -10,-8 -12,-13 -12,-26 20,-67 72,-90 52,-24 104,-22 116,4 3,6 3,13 1,19l0 0 0 1c0,2 -1,4 -2,6l-27 92 18 41c99,-42 207,-68 320,-73l0 -55 -102 -116c-3,-3 -6,-7 -9,-11l0 0 0 0c-6,-9 -10,-18 -10,-28 0,-47 75,-84 168,-84z"/>
    <path class="fil11" d="M9107 10859c47,0 84,19 84,42 0,5 -2,10 -5,15l0 0 0 0c-1,2 -2,3 -4,4l-51 59 0 27c45,2 89,11 131,25l7 -21 -16 -45c-1,-1 -1,-2 -2,-4l0 0 0 0c0,-3 0,-6 1,-9 5,-14 31,-16 57,-6 27,10 44,29 39,42 -1,3 -3,6 -6,8l0 0 0 0c-1,0 -2,1 -3,1l-42 23 -8 21c42,17 81,40 116,68l18 -20 1 -77c0,-2 0,-5 0,-7l0 0 0 0c0,-5 2,-10 6,-14 15,-17 56,-6 90,24 35,31 50,70 35,87 -4,4 -8,7 -14,8l0 0 0 0c-2,0 -4,0 -6,1l-77 9 -18 21c32,31 59,66 81,105l20 -10 17 -45c1,-1 1,-3 2,-4l0 0 0 0c2,-3 4,-5 6,-7 13,-6 34,9 47,34 14,25 14,51 1,58 -2,1 -6,2 -9,1l0 0 0 0c-1,0 -2,0 -4,-1l-46 -11 -20 11c29,59 46,124 48,194l27 0 59 -49c2,-2 4,-3 6,-4l0 0 0 0c4,-3 9,-5 14,-5 23,1 41,38 40,85 -1,46 -20,83 -43,82 -6,0 -11,-2 -15,-5l0 0 0 0c-2,-1 -3,-3 -4,-4l-58 -52 -27 -1c-3,45 -13,89 -27,130l20 8 45 -15c2,-1 3,-1 4,-2l0 0 0 0c4,0 7,0 10,1 13,5 15,31 4,57 -10,27 -30,44 -43,39 -3,-1 -5,-4 -7,-7l0 0 0 0c-1,-1 -1,-2 -2,-3l-22 -43 -20 -8c-21,47 -48,89 -82,127l20 19 77 5c2,0 4,0 7,0l0 0 0 0c5,1 10,3 13,7 17,16 4,56 -29,89 -32,33 -72,46 -89,30 -3,-4 -6,-9 -6,-15l0 0 0 0c-1,-1 -1,-3 -1,-5l-5 -78 -20 -19c-32,30 -69,55 -109,75l9 21 43 19c2,1 3,1 4,2l0 0 0 0c3,2 5,4 7,7 6,13 -11,33 -36,45 -26,12 -52,11 -58,-2 -2,-3 -2,-6 -1,-10l0 0 0 0c0,-1 0,-2 1,-3l14 -46 -10 -20c-50,21 -105,34 -162,36l-1 28 51 58c2,2 3,4 4,5l0 0 0 0c4,5 5,10 5,15 0,23 -38,42 -84,41 -46,0 -83,-19 -83,-42 0,-5 2,-10 5,-15l0 0 0 0c1,-1 2,-3 4,-4l51 -59 0 -27c-45,-2 -89,-11 -130,-25l-8 21 16 44c1,2 2,3 2,4l0 1 0 0c1,3 1,6 0,9 -6,13 -31,16 -58,6 -27,-11 -44,-30 -39,-43 1,-3 3,-6 6,-8l0 0 0 0c1,0 2,-1 3,-1l43 -23 8 -20c-41,-18 -79,-40 -114,-68l-18 21 -1 77c1,2 1,4 0,7l0 0 0 0c0,5 -2,10 -5,14 -16,17 -56,6 -91,-25 -35,-30 -50,-69 -35,-87 4,-4 8,-6 14,-7l0 0 0 0c2,-1 4,-1 6,-1l77 -10 18 -20c-32,-31 -59,-66 -81,-105l-20 10 -17 45c-1,1 -1,2 -2,4l0 0 0 0c-1,3 -4,5 -6,6 -13,7 -34,-8 -47,-33 -14,-26 -14,-52 -1,-58 2,-2 6,-2 9,-2l0 0 0 0c1,1 2,1 4,1l46 11 20 -10c-28,-56 -44,-119 -48,-185l-27 0 -58 51c-2,2 -4,3 -5,4l0 0 0 0c-5,4 -10,5 -15,5 -23,0 -42,-37 -42,-83 0,-47 19,-84 43,-84 5,0 10,2 14,5l0 0 0 0c2,1 3,2 5,4l58 51 27 0c3,-45 11,-89 25,-130l-21 -8 -44 16c-2,1 -3,1 -4,2l0 0 0 0c-4,1 -7,1 -10,-1 -13,-5 -16,-30 -6,-57 10,-27 30,-44 43,-39 3,1 5,3 7,6l0 0 0 0c1,1 2,2 2,3l23 42 20 8c21,-50 50,-96 86,-136l-19 -19 -77 -5c-3,0 -5,0 -7,0l0 0 0 0c-6,-1 -10,-3 -14,-7 -16,-16 -3,-56 29,-89 33,-33 73,-46 89,-30 4,4 6,9 7,15l0 0 0 0c0,1 0,3 0,5l6 78 19 19c33,-30 70,-55 110,-75l-10 -21 -43 -19c-1,-1 -3,-1 -4,-2l0 0 0 0c-3,-2 -5,-4 -6,-7 -6,-13 10,-33 36,-45 26,-12 52,-11 58,2 1,3 1,7 1,10l0 0 0 0c-1,1 -1,2 -1,3l-14 46 9 21c50,-21 103,-34 160,-37l0 -27 -51 -58c-2,-2 -3,-4 -4,-6l0 0 0 0c-4,-4 -5,-9 -5,-14 0,-23 37,-42 83,-42z"/>
    <path class="fil11" d="M17402 540c196,0 354,80 354,179 0,22 -8,43 -22,63l0 0 0 0c-5,6 -10,12 -16,18l-217 248 0 115c193,9 379,45 553,104l34 -88 -70 -189c-3,-6 -5,-11 -7,-17l0 0 0 0c-3,-14 -3,-27 2,-39 21,-57 130,-69 243,-26 113,43 188,123 166,180 -5,13 -14,23 -27,32l1 0 -1 0c-4,2 -8,4 -13,7l-179 96 -33 88c178,73 344,171 492,290l76 -86 4 -327c-1,-10 -1,-20 0,-30l0 0 0 0c2,-23 10,-43 24,-59 66,-73 238,-28 384,103 147,130 212,295 147,369 -15,16 -35,27 -59,31l0 0 0 1c-7,1 -15,2 -23,3l-327 41 -77 86c135,132 251,281 344,446l84 -44 73 -188c2,-6 4,-12 7,-17l0 0 0 0c6,-13 15,-23 27,-29 54,-28 143,36 199,143 56,107 58,217 4,245 -12,6 -26,8 -41,6l0 0 0 0c-4,-1 -9,-2 -14,-4l-198 -47 -83 44c122,249 194,528 203,822l115 3 251 -209c7,-8 15,-14 23,-19l0 0 0 0c19,-13 39,-20 61,-20 98,2 175,163 170,359 -4,196 -87,353 -186,350 -22,0 -43,-8 -62,-23l0 0 0 0c-6,-5 -12,-10 -18,-16l-243 -222 -115 -3c-13,192 -53,377 -117,551l88 35 190 -66c6,-3 12,-5 18,-6l0 0 0 0c14,-3 27,-3 39,2 56,23 66,132 20,244 -45,112 -127,185 -184,162 -12,-5 -22,-14 -30,-27l0 0 0 0c-3,-4 -5,-9 -7,-13l-92 -182 -88 -35c-86,197 -202,378 -344,536l82 81 326 21c10,0 20,1 30,2l0 0 0 0c23,4 42,13 57,28 70,69 15,238 -123,378 -138,139 -306,195 -376,126 -16,-16 -25,-36 -29,-60l0 0 0 -1c-1,-7 -2,-15 -2,-23l-23 -329 -82 -81c-138,127 -294,234 -464,319l39 86 184 83c6,2 12,5 17,8l0 0 0 0c12,7 21,17 27,28 25,56 -44,141 -154,192 -110,50 -219,46 -245,-10 -5,-12 -6,-26 -3,-41l0 0 0 0c1,-4 2,-9 4,-14l58 -195 -39 -85c-213,90 -446,144 -689,156l-1 115 213 247c8,8 14,15 20,23l0 0 0 0c13,19 20,39 20,60 0,99 -159,178 -355,177 -196,-1 -355,-82 -354,-181 0,-22 8,-43 23,-62l0 0 0 0c4,-6 10,-12 16,-18l218 -247 0 -115c-192,-10 -378,-47 -552,-108l-34 89 69 189c3,6 5,12 6,17l0 0 0 0c4,14 4,27 -1,40 -22,56 -131,67 -244,24 -113,-43 -187,-125 -165,-181 5,-13 14,-23 27,-31l0 0 0 -1c4,-2 8,-4 13,-6l180 -95 34 -88c-175,-73 -336,-170 -482,-286l-76 87 -3 326c1,10 0,20 -1,30l0 0 0 0c-2,23 -10,43 -24,59 -66,73 -237,28 -384,-102 -146,-130 -212,-296 -147,-369 15,-17 35,-27 59,-32l0 0 0 0c7,-2 15,-3 23,-3l327 -42 77 -86c-135,-131 -251,-281 -344,-445l-84 44 -73 187c-2,7 -4,12 -7,18l0 0 0 0c-6,12 -15,22 -27,28 -54,28 -143,-35 -199,-142 -56,-107 -58,-217 -4,-245 12,-7 26,-8 40,-6l0 0 0 0c5,1 10,2 15,3l197 47 84 -43c-117,-239 -188,-503 -202,-783l-115 0 -247 214c-7,8 -15,14 -22,20l0 0 0 0c-19,13 -39,20 -61,20 -98,0 -178,-159 -178,-355 1,-195 81,-354 179,-354 22,0 43,8 63,22l0 0 0 1c6,4 12,9 18,15l248 217 115 0c9,-192 45,-378 105,-553l-88 -33 -189 70c-6,3 -12,5 -17,6l-1 0 0 0c-13,4 -27,4 -39,-1 -57,-22 -68,-131 -25,-244 43,-113 124,-187 181,-165 12,4 23,14 31,26l0 0 0 0c2,4 5,9 7,13l95 180 89 33c87,-213 211,-407 362,-576l-82 -81 -326 -21c-10,0 -20,-1 -30,-2l0 0 0 0c-23,-4 -42,-13 -57,-28 -70,-70 -15,-239 123,-378 139,-138 307,-195 377,-125 16,15 25,36 29,60l0 0 0 0c1,8 1,15 1,24l24 328 81 81c139,-126 295,-234 464,-318l-39 -86 -183 -83c-6,-3 -12,-5 -17,-8l0 0 0 0c-12,-7 -22,-17 -27,-29 -25,-55 44,-140 154,-191 110,-50 219,-45 244,10 6,13 7,26 4,41l0 0 0 0c-1,5 -3,9 -4,14l-59 195 39 86c210,-89 438,-143 677,-155l0 -115 -215 -246c-7,-8 -14,-15 -19,-23l0 0 0 0c-14,-19 -21,-39 -21,-60 0,-99 159,-179 355,-179z"/>
    <path class="fil11" d="M32687 6961c363,0 658,149 658,331 0,41 -15,80 -42,116l0 0 0 1c-8,11 -18,22 -29,33l-402 460 0 214c358,16 702,83 1026,194l62 -164 -130 -351c-5,-10 -9,-21 -12,-32l0 0 0 0c-7,-25 -7,-50 2,-73 40,-105 242,-126 452,-47 210,79 347,229 308,335 -9,23 -26,42 -50,57l0 0 0 1c-7,4 -15,9 -24,12l-332 179 -62 163c330,136 637,318 912,538l142 -160 6 -606c-1,-19 -1,-37 1,-55l0 0 0 0c4,-42 19,-80 45,-109 122,-137 440,-52 712,190 271,241 393,547 272,684 -27,31 -64,50 -108,59l0 0 -1 0c-14,3 -28,5 -43,6l-607 77 -142 160c249,243 465,521 638,826l156 -82 135 -348c3,-11 8,-22 12,-32l1 0 0 0c12,-23 28,-42 50,-53 100,-52 265,66 369,265 104,198 108,402 8,454 -23,12 -48,15 -76,11l0 0 0 0c-9,-2 -17,-4 -26,-7l-367 -87 -155 81c227,463 360,980 377,1526l214 5 465 -388c13,-14 28,-26 42,-36l0 0 0 0c36,-24 74,-37 113,-36 183,4 324,302 316,665 -7,363 -162,655 -345,651 -41,-1 -79,-17 -115,-44l0 0 0 -1c-11,-8 -22,-18 -33,-29l-451 -412 -214 -5c-24,357 -98,699 -216,1021l163 66 353 -123c11,-4 22,-8 32,-11l0 0 0 0c26,-6 51,-5 73,4 105,42 122,245 38,453 -84,208 -237,342 -342,300 -23,-9 -42,-27 -56,-50l0 0 0 -1c-5,-7 -9,-15 -13,-24l-171 -336 -162 -66c-160,366 -376,701 -639,995l153 151 604 38c19,0 38,1 55,4l0 0 0 0c42,7 79,24 106,51 130,129 28,443 -228,701 -256,258 -568,362 -698,233 -29,-28 -46,-66 -53,-111l0 0 0 0c-2,-14 -3,-29 -3,-44l-44 -610 -152 -150c-256,235 -545,435 -860,591l73 160 341 155c11,4 21,8 31,14l0 0 0 0c23,13 40,31 50,53 47,102 -81,261 -285,354 -204,93 -407,85 -454,-17 -10,-23 -12,-49 -6,-76l0 0 0 0c2,-9 4,-18 7,-26l108 -362 -72 -159c-396,168 -827,269 -1279,289l-1 215 396 458c13,14 25,28 36,42l0 0 0 0c24,35 38,73 37,112 -1,183 -296,330 -659,328 -363,-2 -657,-152 -656,-335 0,-41 15,-80 42,-116l0 0 0 0c9,-11 19,-22 29,-33l405 -458 1 -214c-357,-18 -701,-87 -1025,-199l-63 164 129 351c5,11 9,21 11,32l0 0 0 0c7,25 6,50 -2,73 -41,105 -243,125 -453,45 -209,-81 -346,-231 -305,-336 9,-24 26,-43 49,-58l0 0 1 0c7,-5 15,-9 24,-13l333 -176 63 -163c-323,-135 -624,-314 -893,-530l-142 160 -6 606c2,19 2,38 0,55l0 0 0 0c-5,43 -20,80 -46,109 -121,137 -440,52 -711,-189 -272,-241 -394,-547 -272,-684 27,-31 64,-50 108,-59l0 0 0 0c14,-3 28,-5 44,-6l606 -77 142 -160c-250,-243 -465,-521 -638,-826l-156 82 -135 348c-4,11 -8,22 -13,32l0 0 0 0c-12,23 -28,42 -50,53 -100,52 -265,-66 -369,-265 -105,-198 -108,-402 -8,-454 22,-12 48,-15 75,-11l0 0 0 0c9,2 18,4 27,7l367 87 155 -81c-217,-442 -349,-933 -375,-1452l-214 0 -457 398c-14,13 -27,25 -42,36l0 0 0 0c-35,25 -72,38 -112,38 -182,0 -330,-295 -330,-658 1,-363 149,-658 332,-658 41,1 80,15 116,42l0 0 0 0c12,9 23,19 33,29l460 403 214 0c17,-357 84,-701 195,-1025l-164 -62 -351 129c-10,5 -21,9 -32,12l0 0 0 0c-25,7 -50,6 -72,-2 -106,-40 -127,-243 -48,-452 80,-210 230,-347 336,-307 23,8 42,26 57,49l0 0 1 0c4,8 9,15 12,24l178 333 164 62c162,-395 391,-755 671,-1068l-152 -151 -604 -40c-19,1 -38,-1 -55,-3l0 0 0 0c-43,-7 -79,-24 -107,-52 -129,-129 -27,-442 230,-700 256,-257 568,-362 698,-233 29,29 46,67 53,111l0 0 0 1c2,14 3,28 3,44l43 609 152 151c256,-235 546,-434 861,-590l-73 -160 -340 -155c-12,-4 -22,-9 -31,-14l-1 0 0 0c-22,-14 -40,-31 -50,-53 -46,-103 81,-261 285,-354 204,-93 408,-85 455,18 10,23 12,48 6,75l0 0 0 1c-2,8 -5,17 -8,26l-108 361 72 159c389,-164 812,-264 1255,-287l0 -214 -398 -456c-14,-14 -26,-27 -36,-42l-1 0 1 0c-25,-35 -39,-72 -39,-112 0,-182 295,-331 658,-331z"/>
    <path class="fil1 str1" d="M26620 -2948c7353,0 13313,5961 13313,13313 0,7353 -5960,13314 -13313,13314 -3360,0 -6429,-1245 -8771,-3298 -822,213 -1684,326 -2572,326 -1784,0 -3462,-458 -4922,-1262 -955,3590 -4227,6236 -8118,6236 -4640,0 -8401,-3761 -8401,-8401 0,-3023 1597,-5673 3993,-7152l0 -10264 20607 0c2258,-1762 5098,-2812 8184,-2812z"/>
    <g id="_885972488">
     <path class="fil12" d="M22099 27838c752,-739 1470,-1639 1760,-1976 1070,-1399 -2504,-5705 -3125,-6308 -516,-502 -1151,-1011 -1386,-1452 -126,-237 -114,-613 -135,-886 -17,-209 -59,-204 -172,-332 -221,-244 -441,-488 -662,-731 -118,-122 -117,-191 -382,-106 -375,89 -498,35 -863,-21 -303,-29 -345,-54 -587,134 -124,78 -93,80 -236,45 -125,-30 -282,-70 -407,-65 -248,10 -249,227 -58,338 33,19 72,42 120,75 358,206 716,411 1074,617 241,137 163,413 271,838 11,127 -88,138 -130,107 -100,-107 -199,-214 -299,-322 -144,-144 -453,-522 -748,-376 -98,41 -76,104 13,191 227,224 413,456 575,754 68,125 138,161 296,214 185,62 285,156 438,276 241,187 423,315 828,241 438,-81 558,74 931,327 184,125 319,269 618,579 880,1191 1764,3020 2155,4431 11,98 -1006,1130 -1623,1708 692,488 1373,1139 1734,1700z"/>
     <path class="fil13" d="M8892 58086c3111,-453 7411,-755 10612,-755 4228,0 4332,1354 321,2287 -2870,668 -4498,-299 -7681,1415 -1736,935 -3594,1542 -5305,212 -2099,-1631 -1811,-2595 2053,-3159z"/>
     <g>
      <path class="fil8" d="M16295 58506l18 2 6 1 51 7 18 3 34 5 41 5 10 2 51 6 14 2 38 5 37 5 14 2 51 6 10 1 42 6 12 1 36 4 3 1 51 5 5 1 46 5 29 3 8 1 66 7 0 0 63 6 29 2 10 1 47 4 4 1 63 5 21 1 38 3 31 2 51 3 3 0 29 2 42 2 23 1 5 0 51 2 2 0 25 1 46 1 18 0 63 1 18 1 48 0 24 0 51 -1 10 0 2 0 14 0 47 -1 28 -1 43 -2 16 0 2 0c20,-1 40,-2 60,-4l25 -1 49 -3 12 -1 7 -1c19,-1 38,-3 57,-4l26 -3 43 -4 20 -2c21,-2 42,-5 63,-8l17 -2 48 -6 23 -3c20,-3 39,-6 59,-9l21 -4 49 -8 18 -3c21,-4 42,-8 63,-12l3 -1 9 -1 52 -12 23 -4c20,-5 41,-10 61,-14l3 -1 1 0c21,-5 42,-11 63,-16l22 -6c18,-5 37,-10 55,-15l9 -2c21,-6 42,-12 63,-19l22 -6c17,-6 35,-11 52,-17l12 -4c22,-7 44,-15 67,-22l12 -5c20,-7 40,-14 60,-21l9 -4c23,-8 46,-17 69,-26l8 -4c20,-7 39,-15 58,-23l17 -7c21,-9 43,-19 64,-28l14 -7c18,-8 36,-16 54,-24l18 -9c22,-11 44,-21 66,-32 -160,-501 -590,-439 -1248,-439 -175,-26 -342,-72 -505,-132 -353,-130 -682,-324 -1006,-511 -364,120 -728,240 -1092,361 -312,273 -624,546 -936,819 547,-29 1010,118 1503,190z"/>
      <path class="fil7" d="M19373 57909c-222,-161 -574,-130 -1042,-130 -175,-26 -342,-72 -505,-132 -319,-117 -618,-286 -912,-456 -223,173 -538,376 -665,588 -256,418 4,512 449,556 530,62 2432,213 2675,-426z"/>
      <path class="fil14" d="M18036 57716c-71,-20 -141,-44 -210,-69 -80,-30 -159,-62 -237,-98 -149,113 -329,238 -466,369 -54,52 -98,78 -93,156 9,118 148,143 252,161 265,47 422,-258 754,-519z"/>
      <path class="fil14" d="M17312 57413c-134,-71 -267,-147 -398,-222 -165,128 -382,273 -534,426 -177,178 10,261 186,292 274,48 387,-229 746,-496z"/>
      <path class="fil5" d="M14222 58520c124,484 338,419 843,419 644,0 1014,-50 1550,-21 760,41 1665,104 2391,-173 139,-53 545,-221 582,-370 13,-48 4,-100 -9,-157 -1087,543 -2161,446 -3260,291 -503,-71 -971,-222 -1527,-193 -209,59 -369,121 -570,204z"/>
      <g>
       <path class="fil8" d="M9440 59092c141,206 283,413 424,619 371,417 587,377 1082,336 375,-43 627,-97 980,-214 477,-160 341,-345 44,-610 -186,-181 -265,-250 -400,-472 -1050,-708 -2101,384 -2130,341z"/>
       <path class="fil7" d="M12061 59308c-28,-27 -59,-55 -91,-85 -186,-181 -265,-250 -400,-472 -735,-495 -1470,-110 -1855,152 251,424 400,893 951,880 203,-5 390,-27 592,-57 369,-54 812,-157 803,-418z"/>
       <path class="fil5" d="M9279 59253c221,352 339,518 521,792 201,283 420,348 678,357 405,13 982,-73 1355,-209 411,-149 494,-174 405,-627l0 0c13,100 -72,187 -312,267 -353,117 -605,171 -980,214 -495,41 -711,81 -1082,-336l-422 -616 -163 158z"/>
       <path class="fil14" d="M10352 59357c340,-91 382,-294 1018,-255 156,0 224,46 224,-96 -25,-158 -77,-221 -167,-252 -155,-55 -391,-42 -553,-23 -187,22 -341,66 -505,140 -101,46 -356,171 -324,298 43,163 184,226 307,188z"/>
      </g>
     </g>
     <path class="fil2" d="M11118 17926c1846,0 4614,256 6127,-636 0,440 -214,448 -585,636 334,71 697,0 1083,-241 452,2012 402,5169 -415,7050 -391,902 -803,1610 -2302,1404 -674,-44 -2684,-451 -3219,-901 -630,-532 -845,-1472 -1310,-2567 -871,119 -1953,-862 -1676,-1914 126,-477 801,-813 1122,-498 378,371 687,1157 700,1776 113,-192 197,-361 282,-546 143,-314 94,-324 63,-665 -90,-975 -116,-1939 130,-2898z"/>
     <path class="fil12" d="M11954 17937c1771,38 3993,118 5291,-647 0,440 -214,448 -585,636 334,71 697,0 1083,-241 452,2012 402,5169 -415,7050 -391,902 -803,1610 -2302,1404 -360,-23 -1099,-150 -1793,-332l0 0c-1560,-1934 -1317,-5522 -1279,-7870z"/>
     <path class="fil4" d="M13065 17958c1516,15 3143,-57 4180,-668 0,440 -214,448 -585,636 334,71 697,0 1083,-241 452,2012 402,5169 -415,7050 -391,902 -803,1610 -2302,1404 981,-586 628,-1965 400,-2902 205,-40 410,-79 614,-118 18,-71 35,-142 52,-213 -59,-199 -117,-399 -176,-599 -107,-388 -214,-775 -322,-1163 -17,-322 -34,-645 -51,-968 -97,-903 111,-1816 -811,-2000 -463,-93 -1144,-129 -1667,-218z"/>
     <path class="fil15" d="M9545 20141c-202,-745 -264,-1460 -680,-1985 180,-238 458,-462 833,-687 -146,-54 -292,-107 -438,-161 1373,-2980 3782,-2423 6339,-1982 733,148 2501,734 2815,-387 297,625 375,1075 -22,1630 337,28 492,-53 632,-303 292,1386 -270,2243 -1063,2834l-1 0c-48,-508 -121,-988 -217,-1415 -386,241 -749,312 -1083,241 371,-188 585,-196 585,-636 -1513,892 -4281,636 -6127,636 -246,959 -220,1923 -130,2898 31,341 80,351 -63,665 -85,185 -169,354 -282,546 -13,-619 -322,-1405 -700,-1776 -105,-103 -249,-136 -398,-118z"/>
     <path class="fil16" d="M9640 17504c19,-12 39,-23 58,-35 -146,-54 -292,-107 -438,-161 1373,-2980 3782,-2423 6339,-1982 733,148 2501,734 2815,-387 320,1842 -1159,1144 -2431,1617 -637,237 -1255,656 -1719,474 446,-280 551,-464 658,-987 -726,843 -2018,896 -3053,943 -1006,40 -1952,528 -2091,1660 -176,-269 -346,-754 -138,-1142z"/>
     <path class="fil12" d="M12936 25725c6,761 152,1603 -418,2157 527,982 2720,903 3031,-158 -461,-234 -628,-859 -652,-1596 -453,-47 -1265,-199 -1961,-403l0 0z"/>
     <path class="fil17" d="M12936 25725c1,103 4,207 8,312l0 0c777,569 1207,865 2139,1138l0 0c-119,-288 -173,-652 -186,-1047 -453,-47 -1265,-199 -1961,-403l0 0z"/>
     <path class="fil5" d="M12271 27899c62,-31 133,-48 208,-48 8,0 15,0 23,1 500,1019 2756,943 3052,-144 9,-1 18,-2 27,-2 9,-1 18,-1 28,-1 64,0 126,13 181,35 -344,1301 -2950,1391 -3519,159z"/>
     <path class="fil18" d="M12271 27899c-2112,492 -2350,-149 -4010,-1958 -1420,901 -2894,2397 -1888,2783 965,903 1881,1732 2868,2688 889,862 1240,1203 1320,2539 32,1635 176,3209 108,5299 -38,222 -59,176 59,366 71,140 49,240 -15,329 -495,511 -103,599 395,716 1174,221 3053,306 4628,41l0 29c585,-33 1125,-97 1566,-180 449,-106 550,-236 515,-578 93,-81 97,-168 -19,-306 -65,-86 -94,-144 -97,-192 47,-76 66,-108 69,-145 40,-45 93,-97 145,-175 120,-180 182,-637 38,-774 -138,-95 -167,-202 -165,-377 104,-1856 153,-3133 72,-4989 282,-648 743,-1165 1309,-1713 986,-957 1902,-1785 2868,-2689 1005,-385 -468,-1882 -1888,-2783 -1271,1386 -1680,1969 -2763,2000l-58 -8 -1542 -83 4 1c-344,1301 -2950,1391 -3519,159zm3283 -191l-83 202c35,-63 64,-130 83,-202z"/>
     <path class="fil19" d="M17884 39819c-9,-44 -37,-93 -86,-152 -169,-238 -1,-317 117,-512 120,-180 182,-637 38,-774 -138,-95 -167,-202 -165,-377 104,-1856 153,-3133 72,-4989 -33,-2173 -198,-2758 -592,-3782 408,1958 305,5796 134,7992 -1,352 -6,752 52,1089 91,359 192,521 87,725 -286,556 -81,385 -155,691 -129,535 -538,579 -945,822 1025,-259 1352,-546 1443,-733z"/>
     <path class="fil19" d="M6373 28724c965,903 1881,1732 2868,2688 889,862 1240,1203 1320,2539 32,1635 176,3209 108,5299 -38,222 -59,176 59,366 71,140 49,240 -15,329 -495,511 -103,599 395,716 177,34 371,64 577,90 -236,-81 -981,-251 -864,-520 70,-102 271,-347 304,-421 46,-103 22,-154 -32,-228 -86,-118 -84,-170 -35,-304 50,-139 27,-256 23,-404 -39,-1457 -9,-2978 -61,-4422 -84,-2372 75,-1712 -1436,-3325 -1787,-1556 -2221,-1576 -3211,-2403z"/>
     <path class="fil1" d="M25364 36201c75,38 149,76 223,114 110,52 130,8 208,-185 436,-1078 657,-1744 914,-2916 38,-158 -11,-153 -175,-195 -147,959 -791,2249 -1170,3182z"/>
     <path class="fil20" d="M10677 40704c-404,2015 -222,5925 -625,8449 -28,173 -45,120 37,264 70,121 74,209 15,320 -82,153 -84,100 -107,290 -304,2466 -609,4932 -913,7398 -30,248 -38,339 -12,588 48,445 101,883 162,1329 761,-678 1512,-1018 2516,-483 51,-299 102,-599 153,-899 57,-332 32,-375 -6,-704 -62,-518 -89,-1107 -89,-1570 -16,-4963 376,-4844 861,-8051 159,-769 302,-1543 445,-2318 151,-820 300,-1640 463,-2455 505,-206 777,-337 1316,-424 324,1617 -115,5070 -271,6870 -397,3033 -686,6167 -402,9244 842,-453 1205,-179 2194,-1082 175,-117 468,-351 468,-351 -10,-184 3,-356 -19,-533 -21,-170 -43,-127 -149,-249 -307,-353 -295,-948 -388,-1645 0,0 88,-3334 88,-3510 0,-175 548,-2135 548,-2135 56,-204 112,-409 168,-614 24,-189 47,-378 70,-567 179,-1452 359,-2905 539,-4357 58,-858 117,-1716 175,-2574 -24,-221 -48,-491 -72,-712 -141,-24 -282,2 -423,-22 -1639,811 -4666,770 -6311,460 -95,-22 -186,-43 -267,-67 -55,37 -109,73 -164,110z"/>
     <path class="fil21" d="M10993 40995c-20,265 -50,567 -70,833 349,175 709,312 1057,490 -388,39 -775,78 -1163,117 -5,34 -10,68 -15,102 227,56 454,112 680,168 -187,66 -375,132 -563,198 -65,1981 -131,3963 -197,5944 422,317 839,584 1502,791 404,-2279 812,-4594 1216,-6875 37,-208 2,-166 206,-227 534,-162 1775,-697 2201,-686 -72,86 -144,172 -217,258 -227,269 -166,211 -131,567 152,1545 99,2709 34,4373 -56,602 -112,1204 -169,1806 39,230 424,432 979,481 477,50 481,-130 572,-708 343,-2173 577,-4143 767,-6375 -287,-188 -323,-150 -665,-183 172,-81 557,-221 834,-202 -30,-466 -59,-933 -88,-1399 -1688,1233 -6091,942 -6770,527z"/>
     <path class="fil22" d="M15557 20103c68,986 332,1701 688,2581 385,889 -1175,723 -1580,22 281,210 597,325 867,348 473,41 500,-37 325,-421 -413,-1090 -489,-1588 -300,-2530z"/>
     <path class="fil23" d="M14377 18991c-86,-17 -181,5 -275,41 -254,96 -499,262 -726,410 -268,176 -525,367 -734,609 -39,70 53,193 157,108 247,-210 707,-409 1016,-501 488,-149 766,-57 811,-210 38,-131 -79,-424 -249,-457z"/>
     <path class="fil23" d="M16143 19331c-42,153 149,208 405,291 324,105 587,266 838,469 110,82 186,201 267,173 106,-36 68,-141 10,-228 -144,-216 -893,-1106 -1289,-999 -105,29 -203,194 -231,294z"/>
     <path class="fil24" d="M10024 21303c-471,-385 -752,665 95,947 -804,21 -1015,-998 -450,-1243 -149,-427 -561,-74 -567,197 -99,-1013 1033,-662 922,99z"/>
     <g>
      <ellipse class="fil25" cx="13516" cy="20888" rx="373" ry="446"/>
      <ellipse class="fil0" cx="13349" cy="20704" rx="142" ry="170"/>
      <path class="fil26" d="M13516 20283c256,0 464,236 464,526 0,275 -187,501 -426,523 188,-23 335,-213 335,-444 0,-246 -167,-446 -373,-446 -206,0 -373,200 -373,446 0,231 147,421 335,444 -239,-22 -426,-248 -426,-523 0,-290 208,-526 464,-526z"/>
     </g>
     <g>
      <ellipse class="fil25" cx="16921" cy="20904" rx="360" ry="430"/>
      <ellipse class="fil0" cx="16760" cy="20726" rx="137" ry="164"/>
      <path class="fil26" d="M16921 20320c248,0 449,227 449,507 0,266 -181,484 -412,505 182,-22 323,-205 323,-428 0,-238 -161,-431 -360,-431 -198,0 -359,193 -359,431 0,223 141,406 322,428 -230,-21 -411,-239 -411,-505 0,-280 201,-507 448,-507z"/>
     </g>
     <path class="fil5" d="M10545 40458c-2,266 382,427 889,528 1913,381 4603,166 5840,-384 276,-92 821,-416 610,-783l0 0c-49,56 -176,233 -298,294 -1592,902 -4775,869 -6478,548 -243,-57 -461,-107 -563,-203l0 0z"/>
     <path class="fil27" d="M16839 24683c-418,-1216 -2221,-995 -2735,320 817,-839 1700,-1420 2735,-320z"/>
     <path class="fil12" d="M6232 27838c-752,-739 -1470,-1639 -1760,-1976 -1070,-1399 2525,-5898 3145,-6501 517,-502 1152,-1011 1386,-1452 127,-237 94,-420 116,-693 16,-209 58,-204 171,-332 221,-244 442,-488 662,-731 118,-122 118,-191 382,-106 375,89 498,35 863,-21 303,-29 345,-54 588,134 123,78 92,80 235,45 126,-30 283,-70 407,-65 248,10 249,227 58,338 -33,19 -72,42 -120,75 -358,206 -716,411 -1074,617 -241,137 -163,413 -271,838 -11,127 88,138 130,107 100,-107 199,-214 299,-322 144,-144 453,-522 748,-376 99,41 76,104 -13,191 -227,224 -413,456 -575,754 -68,125 -138,161 -296,214 -185,62 -285,156 -438,276 -240,187 -423,315 -828,241 -438,-81 -558,74 -931,327 -184,125 -319,269 -618,579 -880,1191 -1764,3020 -2154,4431 -12,98 1005,1130 1623,1708 -693,488 -1374,1139 -1735,1700z"/>
     <g>
     </g>
     <g style="clip-path:url(#id3)">
      <image x="9395" y="16123" width="4245" height="3748" xlink:href="8.svg_Images\8.svg_ImgID2.png"/>
     </g>
     <g style="clip-path:url(#id4)">
     </g>
     <path class="fil12" d="M8947 18005c21,-32 40,-64 56,-96 127,-237 94,-420 116,-693 16,-209 58,-204 171,-332 221,-244 442,-488 662,-731 118,-122 118,-191 382,-106 375,89 498,35 863,-21 303,-29 345,-54 588,134 123,78 92,80 235,45 126,-30 283,-70 407,-65 248,10 249,227 58,338 -33,19 -72,42 -120,75 -358,206 -716,411 -1074,617 -241,137 -163,413 -271,838 -11,127 88,138 130,107 100,-107 199,-214 299,-322 144,-144 453,-522 748,-376 99,41 76,104 -13,191 -227,224 -413,456 -575,754 -68,125 -138,161 -296,214 -185,62 -285,156 -438,276 -240,187 -423,315 -828,241 -339,-63 -487,16 -710,172 -101,-415 -223,-795 -472,-1109 30,-40 63,-80 99,-119l-17 -32z"/>
    </g>
   </g>
  </g>
  <polygon class="fil1" points="0,0 41613,0 41613,35883 0,35883 "/>
 </g>
</svg>
